<svg width="24" height="25" viewBox="0 0 24 25" fill="none" xmlns="http://www.w3.org/2000/svg">
<path fill-rule="evenodd" clip-rule="evenodd" d="M17.7291 1.19839C17.0647 1.86277 16.9605 2.8752 17.4165 3.64876H4.66587C3.79506 3.64876 3.08913 4.35468 3.08913 5.22549V17.9764C2.31546 17.5198 1.30249 17.6238 0.637844 18.2884C-0.150114 19.0764 -0.150115 20.3539 0.637843 21.1419L3.11635 23.6204C3.49407 23.9981 3.98429 24.1948 4.47915 24.2104C4.54038 24.2176 4.60269 24.2213 4.66587 24.2213H22.0849C22.9557 24.2213 23.6617 23.5154 23.6617 22.6446V5.22549C23.6617 5.16312 23.6581 5.1016 23.651 5.04112C23.6358 4.54577 23.4391 4.05498 23.061 3.6769L20.5825 1.19839C19.7945 0.410432 18.517 0.410432 17.7291 1.19839Z" fill="#1F2A7A"/>
<path d="M4.42108 0.97001C4.68075 0.710336 5.03295 0.564453 5.40018 0.564453H19.1879C19.9526 0.564453 20.5725 1.18439 20.5725 1.94911V19.7523C20.5725 20.5171 19.9526 21.137 19.1879 21.137H1.38466C0.619932 21.137 0 20.5171 0 19.7523V5.96463C0 5.5974 0.145883 5.24521 0.405558 4.98553L4.42108 0.97001Z" fill="#3245A9"/>
<path d="M20.533 1.94911V19.7523C20.533 20.4952 19.9308 21.0974 19.1879 21.0974H1.38466C0.641782 21.0974 0.0395617 20.4952 0.0395617 19.7523V5.96463C0.0395617 5.60789 0.181277 5.26576 0.433532 5.01351L4.44905 0.997985C4.70131 0.74573 5.04344 0.604015 5.40018 0.604015H19.1879C19.9308 0.604015 20.533 1.20624 20.533 1.94911Z" stroke="white" stroke-opacity="0.05" stroke-width="0.0791234" stroke-linejoin="round"/>
<path d="M7.16661 4.72461L15.3261 5.26858L16.4141 11.5242L13.9662 14.2441H11.2464L8.52653 16.9639L5.80669 17.5079L5.5347 15.876L6.35066 14.2441L4.71875 9.34835L7.16661 4.72461Z" fill="#FFD87E"/>
<path fill-rule="evenodd" clip-rule="evenodd" d="M6.25438 5.40219C6.94266 4.54185 7.9847 4.04102 9.08648 4.04102H13.2839C15.132 4.04102 16.6845 5.43059 16.8886 7.26735L17.2167 10.2202C17.3186 11.1373 17.0672 12.0587 16.5135 12.7968L15.8649 13.6617C15.1799 14.575 14.105 15.1125 12.9634 15.1125H10.9591L9.45107 17.1231C8.95839 17.7801 8.18518 18.1667 7.36404 18.1667H6.74361C5.64547 18.1667 4.75525 17.2764 4.75525 16.1783C4.75525 15.4251 5.18076 14.7366 5.85439 14.3998L5.88827 14.3829L4.92298 13.4176C4.83859 13.3332 4.78266 13.2246 4.76304 13.1068L4.22369 9.8707C4.05426 8.85417 4.32531 7.81354 4.9691 7.0088L6.25438 5.40219ZM6.766 13.641L6.04901 12.9239L8.10961 9.48962C8.27233 9.2184 8.18439 8.86663 7.91319 8.70391C7.64199 8.54119 7.29022 8.62913 7.1275 8.90033L5.63708 11.3844L5.54162 10.8116L6.60366 8.68752C6.7451 8.40464 6.63044 8.06065 6.34756 7.91921C6.06468 7.77777 5.7207 7.89243 5.57926 8.17531L5.53296 8.26789C5.61854 8.07505 5.72913 7.89215 5.86344 7.72427L7.14873 6.11767C7.61965 5.52901 8.33263 5.18634 9.08648 5.18634H13.2839C14.5484 5.18634 15.6107 6.1371 15.7503 7.39383L16.0784 10.3467C16.1481 10.9742 15.976 11.6046 15.5972 12.1097L14.9486 12.9745C14.4799 13.5994 13.7445 13.9671 12.9634 13.9671H11.7726L13.8143 11.0505C13.9957 10.7914 13.9326 10.4343 13.6736 10.2529C13.4145 10.0715 13.0574 10.1346 12.876 10.3937L10.209 14.2037L8.53481 16.4359C8.25843 16.8045 7.82468 17.0213 7.36404 17.0213H6.74361C6.27801 17.0213 5.90057 16.6439 5.90057 16.1783C5.90057 15.859 6.08098 15.5671 6.36659 15.4243L7.11111 15.052C7.20025 15.0074 7.27621 14.9404 7.33149 14.8574L10.3857 10.2761C10.5611 10.013 10.49 9.65745 10.2268 9.48206C9.96372 9.30659 9.60815 9.37768 9.43271 9.64088L6.766 13.641Z" fill="#050732"/>
<path d="M12.1735 13.7584H12.9634C13.6788 13.7584 14.3524 13.4216 14.7817 12.8493L15.4303 11.9844C15.7772 11.5218 15.9349 10.9444 15.871 10.3697L15.5429 7.41688C15.415 6.26584 14.4421 5.39503 13.2839 5.39503H9.08648C8.39602 5.39503 7.74301 5.70889 7.31169 6.24804L6.18568 7.65555C6.27222 7.66605 6.35846 7.69133 6.44089 7.73255C6.82686 7.92553 6.98331 8.39488 6.79033 8.78085L5.96297 10.4356L6.94855 8.79296C7.17057 8.42292 7.65053 8.30294 8.02056 8.52495C8.3906 8.74698 8.51058 9.22695 8.28857 9.59699L8.28856 9.59699L6.31179 12.8916L6.73357 13.3134L9.25906 9.52512C9.25906 9.52512 9.25907 9.52512 9.25907 9.52511C9.49843 9.16603 9.98355 9.06902 10.3426 9.30839L12.1735 13.7584ZM12.1735 13.7584L13.9852 11.1702C13.9852 11.1702 13.9853 11.1702 13.9853 11.1701C14.2328 10.8166 14.1467 10.3294 13.7933 10.082M12.1735 13.7584L13.7933 10.082M13.7933 10.082C13.4397 9.83442 12.9525 9.9205 12.7051 10.274L10.04 14.0812M13.7933 10.082L10.04 14.0812M10.04 14.0812L8.36785 16.3107L8.36785 16.3107C8.13088 16.6267 7.75899 16.8126 7.36404 16.8126H6.74361C6.39327 16.8126 6.10927 16.5286 6.10927 16.1783C6.10927 15.938 6.24502 15.7184 6.45991 15.611L6.45993 15.611L7.20445 15.2386L7.20448 15.2386C7.32605 15.1778 7.4297 15.0864 7.50514 14.9732L10.5593 10.3919C10.5593 10.3919 10.5593 10.3919 10.5593 10.3919C10.7987 10.0329 10.7017 9.54777 10.3426 9.30843L10.04 14.0812ZM6.09141 5.27182L6.23429 5.38612L6.09141 5.27182L4.80613 6.87842C4.1253 7.72947 3.83866 8.82998 4.01783 9.90501L4.55718 13.1412C4.58396 13.3018 4.66025 13.4501 4.77541 13.5652C4.77542 13.5652 4.77542 13.5652 4.77543 13.5652L5.54631 14.3361C4.92745 14.7381 4.54656 15.4293 4.54656 16.1783C4.54656 17.3917 5.53021 18.3753 6.74361 18.3753H7.36404C8.25086 18.3753 9.08593 17.9578 9.61803 17.2483C9.61803 17.2483 9.61803 17.2483 9.61803 17.2483L11.0634 15.3212H12.9634C14.1707 15.3212 15.3074 14.7528 16.0318 13.7869L15.8649 13.6617L16.0318 13.7869L16.6805 12.9221C17.266 12.1414 17.5319 11.167 17.4242 10.1971L17.0961 7.2443C16.8802 5.30185 15.2384 3.83232 13.2839 3.83232H9.08648C7.9213 3.83232 6.8193 4.36197 6.09141 5.27182Z" stroke="white" stroke-opacity="0.35" stroke-width="0.417393"/>
</svg>
