<svg width="24" height="24" viewBox="0 0 24 24" fill="none" xmlns="http://www.w3.org/2000/svg">
<path fill-rule="evenodd" clip-rule="evenodd" d="M21.2589 5.83528C22.0233 3.8201 20.0499 1.84677 18.0347 2.61115L3.73843 8.03389C1.72952 8.79589 1.55411 11.5696 3.45103 12.5786L8.4342 15.2292C8.52212 15.276 8.59407 15.3479 8.64083 15.4358L11.2915 20.419C12.3005 22.3159 15.0741 22.1405 15.8361 20.1316L21.2589 5.83528ZM18.7441 4.48115C19.1471 4.32827 19.5418 4.72293 19.3889 5.12597L13.9661 19.4223C13.8137 19.8241 13.259 19.8592 13.0572 19.4798L10.4066 14.4966C10.1728 14.057 9.81301 13.6973 9.37343 13.4634L4.39025 10.8128C4.01087 10.611 4.04595 10.0563 4.44773 9.90389L18.7441 4.48115Z" fill="currentColor"/>
</svg>
