<svg width="24" height="24" viewBox="0 0 24 24" fill="none" xmlns="http://www.w3.org/2000/svg">
<path d="M9.49998 2.75C9.08432 2.75 8.712 3.00713 8.56479 3.39585L8.3352 4.00213C7.84302 3.95295 7.38955 3.90387 7.02246 3.86265C6.74805 3.83184 6.52247 3.80549 6.36578 3.78687L6.18503 3.76518L6.12364 3.75768C5.57555 3.68981 5.07544 4.07901 5.00756 4.6271C4.93969 5.1752 5.32899 5.67455 5.87709 5.74242L5.94388 5.75059L6.12985 5.77291C6.2902 5.79196 6.52007 5.81881 6.79929 5.85016C7.35726 5.91281 8.11455 5.99369 8.9091 6.0662C9.98088 6.16401 11.1557 6.25 12 6.25C12.8443 6.25 14.0191 6.16401 15.0909 6.0662C15.8854 5.99369 16.6427 5.91281 17.2007 5.85016C17.4799 5.81881 17.7098 5.79196 17.8701 5.77291L18.0561 5.75059L18.1227 5.74244C18.6708 5.67456 19.0603 5.1752 18.9924 4.6271C18.9245 4.07901 18.4252 3.68972 17.8771 3.75758L17.8149 3.76518L17.6342 3.78687C17.4775 3.80549 17.2519 3.83184 16.9775 3.86265C16.6104 3.90387 16.1569 3.95295 15.6648 4.00213L15.4352 3.39585C15.288 3.00713 14.9156 2.75 14.5 2.75H9.49998Z" fill="currentColor"/>
<path fill-rule="evenodd" clip-rule="evenodd" d="M17.9122 7.97928L17.0556 19.9708C17.0229 20.4287 16.6837 20.8048 16.2296 20.8721C15.2355 21.0196 13.4604 21.2483 12 21.25C10.5222 21.2517 8.75568 21.0223 7.76734 20.8736C7.31467 20.8056 6.97715 20.4301 6.94454 19.9735L6.0878 7.97928C6.04255 7.34572 6.59093 6.82873 7.2219 6.90165C8.49506 7.04879 10.5085 7.24997 12 7.24997C13.4914 7.24997 15.5049 7.04879 16.7781 6.90165C17.4091 6.82873 17.9574 7.34572 17.9122 7.97928ZM11 11.75C11 11.1977 10.5523 10.75 10 10.75C9.44771 10.75 9 11.1977 9 11.75V16.75C9 17.3022 9.44771 17.75 10 17.75C10.5523 17.75 11 17.3022 11 16.75V11.75ZM14 10.75C14.5523 10.75 15 11.1977 15 11.75V16.75C15 17.3022 14.5523 17.75 14 17.75C13.4477 17.75 13 17.3022 13 16.75V11.75C13 11.1977 13.4477 10.75 14 10.75Z" fill="currentColor"/>
</svg>
