<svg width="24" height="24" viewBox="0 0 24 24" fill="none" xmlns="http://www.w3.org/2000/svg">
<path fill-rule="evenodd" clip-rule="evenodd" d="M14.4195 2.18966C14.1151 1.96956 13.713 1.9386 13.3785 2.10951C13.044 2.28042 12.8335 2.62437 12.8335 3V14.7366C12.0792 14.4506 11.0688 14.2323 9.74844 14.2323C8.21069 14.2323 7.09265 14.5284 6.30897 14.8837C4.91381 15.5162 4.7538 17.0686 5.28756 18.1328C5.63895 18.8334 6.17107 19.7545 6.86442 20.5146C7.54004 21.2553 8.51424 22 9.74844 22C12.8984 22 14.8335 19.1506 14.8335 16.514V10.1566C16.1333 9.95183 17.0986 9.35192 17.7715 8.59749C18.5767 7.69467 18.9225 6.61882 18.9954 5.85993C19.0347 5.45 18.8188 5.05786 18.4513 4.872C17.6237 4.45346 15.452 2.93625 14.4195 2.18966ZM12.4913 16.7669C12.6203 16.8317 12.7254 16.8945 12.8087 16.9502C12.6191 18.6132 11.3619 20 9.74844 20C9.35145 20 8.87546 19.7515 8.34204 19.1668C7.82634 18.6014 7.39056 17.8647 7.0753 17.2361C6.99229 17.0706 6.9902 16.9285 7.01133 16.8467C7.02132 16.808 7.03591 16.7827 7.0502 16.7654C7.06355 16.7492 7.08728 16.7268 7.13482 16.7052C7.63994 16.4762 8.47377 16.2323 9.74844 16.2323C11.1361 16.2323 12.0022 16.5213 12.4913 16.7669ZM16.2789 7.26626C15.9624 7.62112 15.5055 7.95119 14.8335 8.11826V4.92919C15.5227 5.40438 16.268 5.90293 16.8647 6.26722C16.7505 6.58931 16.5629 6.94779 16.2789 7.26626Z" fill="currentColor"/>
</svg>
