<svg width="24" height="24" viewBox="0 0 24 24" fill="none" xmlns="http://www.w3.org/2000/svg">
<path d="M3.84124 8.15602L13.6378 2.49999C14.1161 2.22384 14.7277 2.38772 15.0038 2.86601L20.5038 12.3923C21.3322 13.8272 20.8406 15.6619 19.4057 16.4904L13.7883 19.7336C12.3534 20.562 10.5186 20.0704 9.69018 18.6355L5.45566 11.3011C5.20379 10.8649 4.84611 10.4991 4.41563 10.2374L3.82189 9.87661C3.17256 9.48199 3.1832 8.53594 3.84124 8.15602Z" fill="currentColor"/>
<path d="M3.02522 14.423L2.25579 16.7313C2.09876 17.2024 2.22137 17.7218 2.57251 18.0729C3.08451 18.5849 3.91462 18.5849 4.42661 18.0729C4.77775 17.7218 4.90037 17.2024 4.74333 16.7313L3.9739 14.423C3.82195 13.9672 3.17717 13.9672 3.02522 14.423Z" fill="currentColor"/>
</svg>
