<svg width="24" height="24" viewBox="0 0 24 24" fill="none" xmlns="http://www.w3.org/2000/svg">
<path d="M4.57574 6.63202L8.32636 6.09622C8.76982 6.03287 9.19347 5.87101 9.56619 5.62252L13.4453 3.03645C14.1099 2.59342 15 3.06981 15 3.8685V20.1315C15 20.9302 14.1099 21.4066 13.4453 20.9635L9.56619 18.3774C9.19347 18.129 8.76982 17.9671 8.32636 17.9038L4.57573 17.3679C3.09779 17.1568 2 15.8911 2 14.3981V9.60187C2 8.10892 3.09779 6.84316 4.57574 6.63202Z" fill="currentColor"/>
<path d="M21.2426 11.8284L21.9497 11.1213C22.3402 10.7308 22.3402 10.0976 21.9497 9.70709C21.5592 9.31657 20.926 9.31657 20.5355 9.70709L19.8284 10.4142L19.1213 9.70709C18.7307 9.31657 18.0976 9.31657 17.707 9.70709C17.3165 10.0976 17.3165 10.7308 17.707 11.1213L18.4142 11.8284L17.707 12.5355C17.3165 12.926 17.3165 13.5592 17.707 13.9497C18.0976 14.3403 18.7307 14.3403 19.1213 13.9497L19.8284 13.2426L20.5355 13.9497C20.926 14.3403 21.5592 14.3403 21.9497 13.9497C22.3402 13.5592 22.3402 12.926 21.9497 12.5355L21.2426 11.8284Z" fill="currentColor"/>
</svg>
