<svg width="24" height="24" viewBox="0 0 24 24" fill="none" xmlns="http://www.w3.org/2000/svg">
<path fill-rule="evenodd" clip-rule="evenodd" d="M10.5007 4.87702C11.1275 3.70766 12.8725 3.70766 13.4993 4.87702L19.8105 16.6501C20.3645 17.6837 19.6179 19 18.3112 19H5.68883C4.38213 19 3.63547 17.6837 4.18951 16.6501L10.5007 4.87702ZM14.3807 4.40456L15.262 3.93209C13.881 1.35597 10.1189 1.35597 8.73797 3.9321L2.42681 15.7052C1.1154 18.1516 2.96271 21 5.68883 21H18.3112C21.0373 21 22.8846 18.1516 21.5732 15.7052L15.262 3.93209L14.3807 4.40456ZM12 6C12.5523 6 13 6.44772 13 7V14C13 14.5523 12.5523 15 12 15C11.4477 15 11 14.5523 11 14V7C11 6.44772 11.4477 6 12 6ZM12 18C11.3096 18 10.75 17.4404 10.75 16.75C10.75 16.0596 11.3096 15.5 12 15.5C12.6903 15.5 13.25 16.0596 13.25 16.75C13.25 17.4404 12.6903 18 12 18Z" fill="currentColor"/>
</svg>
