<svg width="24" height="24" viewBox="0 0 24 24" fill="none" xmlns="http://www.w3.org/2000/svg">
<path fill-rule="evenodd" clip-rule="evenodd" d="M14.4461 3.3398L17.9102 5.3398C19.3451 6.16823 19.8367 8.003 19.0083 9.43788L16.9625 12.9814C16.6663 13.4943 16.5287 14.0834 16.5668 14.6744L16.676 16.3682C16.7531 17.5637 15.4667 18.3628 14.4291 17.7637L10.7938 15.6649C10.7938 15.6649 10.7938 15.665 10.7937 15.665L7.04375 22.1602C6.76761 22.6385 6.15602 22.8024 5.67772 22.5262C5.19943 22.2501 5.03556 21.6385 5.3117 21.1602L9.0617 14.665C9.06172 14.665 9.06174 14.6649 9.06176 14.6649L5.42726 12.5665C4.38973 11.9675 4.43849 10.4539 5.51242 9.92286L7.03383 9.1706C7.56475 8.90809 8.00609 8.4943 8.30223 7.98137L10.3481 4.43788C11.1765 3.003 13.0113 2.51138 14.4461 3.3398Z" fill="currentColor"/>
</svg>
