<svg width="24" height="24" viewBox="0 0 24 24" fill="none" xmlns="http://www.w3.org/2000/svg">
<path fill-rule="evenodd" clip-rule="evenodd" d="M10.5099 3.47998C10.5099 3.34191 10.6218 3.22998 10.7599 3.22998H13.238C13.376 3.22998 13.488 3.34191 13.488 3.47998V5.08854H10.5099V3.47998ZM18.5258 8.83854V10.5025L13.676 8.07757C12.6202 7.54971 11.3776 7.54971 10.3219 8.07757L5.47205 10.5025V8.83854C5.47205 7.5959 6.47941 6.58854 7.72205 6.58854H9.75988H14.238H16.2758C17.5184 6.58854 18.5258 7.5959 18.5258 8.83854ZM10.9927 9.41921C11.6261 9.1025 12.3717 9.1025 13.0051 9.41921L18.9404 12.3868L21.0832 13.4583C21.9032 13.8683 22.347 14.6944 22.1983 15.5059C22.0616 16.2514 21.8575 17.1083 21.5591 17.9056C21.2572 18.712 20.8787 19.403 20.4218 19.8649C19.901 20.3915 19.3903 20.6302 18.8713 20.7208C18.3314 20.8151 17.7337 20.7579 17.0296 20.6076C16.603 20.5165 16.1994 20.4075 15.7656 20.2904C15.4429 20.2032 15.1034 20.1116 14.7253 20.0194C13.89 19.8158 12.9753 19.6423 11.9989 19.6423C11.0225 19.6423 10.1079 19.8158 9.27255 20.0194C8.89446 20.1116 8.55501 20.2032 8.23227 20.2904L8.23219 20.2904L8.23217 20.2904C7.79842 20.4075 7.39484 20.5165 6.96821 20.6076C6.26414 20.7579 5.66639 20.8151 5.12651 20.7208C4.6075 20.6302 4.09684 20.3915 3.57601 19.8649C3.11918 19.403 2.74065 18.712 2.43878 17.9056C2.14032 17.1083 1.93625 16.2514 1.79958 15.5059C1.6508 14.6944 2.09458 13.8683 2.9146 13.4583L5.05746 12.3868L10.9927 9.41921Z" fill="currentColor"/>
</svg>
