<svg width="24" height="24" viewBox="0 0 24 24" fill="none" xmlns="http://www.w3.org/2000/svg">
<path fill-rule="evenodd" clip-rule="evenodd" d="M4 4.99995H6.73078C6.80698 2.9314 9.42732 1.4006 11.3018 3.10465L12.5 4.19394L13.6982 3.10465C15.5727 1.4006 18.193 2.9314 18.2692 4.99995H20C21.1046 4.99995 22 5.89538 22 6.99995V8.88883C22 9.50248 21.5025 9.99995 20.8889 9.99995H3.11111C2.49746 9.99995 2 9.50248 2 8.88883V6.99995C2 5.89538 2.89543 4.99995 4 4.99995ZM10.4134 4.99995H8.75741C8.84147 4.4984 9.48734 4.15808 9.95644 4.58453L10.4134 4.99995ZM16.2426 4.99995C16.1585 4.4984 15.5127 4.15808 15.0436 4.58453L14.5866 4.99995H16.2426Z" fill="currentColor"/>
<path d="M9.5 13.6875V11.9999H3.11108V18.9999C3.11108 20.6568 4.45423 21.9999 6.11108 21.9999H17.8889C19.5457 21.9999 20.8889 20.6568 20.8889 18.9999V11.9999H14.5V13.6875C14.5 14.6194 13.422 15.1376 12.6943 14.5554C12.2884 14.2307 11.7116 14.2307 11.3057 14.5554C10.578 15.1376 9.5 14.6194 9.5 13.6875Z" fill="currentColor"/>
</svg>
