<svg width="24" height="24" viewBox="0 0 24 24" fill="none" xmlns="http://www.w3.org/2000/svg">
<path fill-rule="evenodd" clip-rule="evenodd" d="M12 6.00002C10.6193 6.00002 9.49999 7.11931 9.49999 8.50002C9.49999 9.88073 10.6193 11 12 11C13.3807 11 14.5 9.88073 14.5 8.50002C14.5 7.11931 13.3807 6.00002 12 6.00002ZM11.5 8.50002C11.5 8.22388 11.7239 8.00002 12 8.00002C12.2761 8.00002 12.5 8.22388 12.5 8.50002C12.5 8.77617 12.2761 9.00002 12 9.00002C11.7239 9.00002 11.5 8.77617 11.5 8.50002Z" fill="currentColor"/>
<path fill-rule="evenodd" clip-rule="evenodd" d="M12.5655 1.16231C12.399 1.05393 12.2019 0.996084 12 0.999937C11.7981 0.996084 11.601 1.05393 11.4345 1.16231C10.5253 1.57524 9.22413 2.50839 8.19195 4.84611C7.4583 6.50769 6.86322 8.87103 6.61931 12.2615C6.33913 12.4127 6.08415 12.6155 5.86087 12.8397C5.4414 13.2609 5.06459 13.8247 4.75971 14.5021C4.14807 15.8612 3.79424 17.7457 4.00397 20.0892C4.05013 20.6048 4.48225 21 4.99999 21C6.17207 21 6.92942 20.4188 7.41946 19.8344C7.64495 19.5654 7.82394 19.2845 7.95374 19.0807L7.96328 19.0657C8.04221 18.9419 8.09662 18.8587 8.13581 18.802C8.15548 18.7874 8.17469 18.7719 8.19342 18.7557C9.88959 17.2857 11.0166 16.75 12 16.75C12.9834 16.75 14.1104 17.2857 15.8066 18.7557C15.8253 18.7719 15.8445 18.7874 15.8642 18.802C15.9034 18.8587 15.9578 18.9419 16.0367 19.0657L16.0462 19.0807C16.176 19.2845 16.355 19.5654 16.5805 19.8344C17.0706 20.4188 17.8279 21 19 21C19.5177 21 19.9499 20.6048 19.996 20.0892C20.2057 17.7457 19.8519 15.8612 19.2403 14.5021C18.9354 13.8247 18.5586 13.2609 18.1391 12.8397C17.9158 12.6155 17.6608 12.4127 17.3807 12.2615C17.1368 8.87103 16.5417 6.50769 15.808 4.84611C14.7759 2.50839 13.4746 1.57524 12.5655 1.16231ZM6.49999 17.6514C6.42232 17.7616 6.35454 17.8683 6.29955 17.9549L6.27659 17.991C6.15859 18.1762 6.05703 18.3337 5.94672 18.4753C5.97701 17.2392 6.20257 16.2527 6.49999 15.5185V17.6514ZM17.5 17.6514V15.5185C17.7974 16.2527 18.023 17.2392 18.0533 18.4753C17.943 18.3337 17.8414 18.1762 17.7234 17.991L17.7004 17.9549C17.6454 17.8683 17.5777 17.7616 17.5 17.6514ZM12 3.11849C11.4833 3.42128 10.7131 4.08769 10.0215 5.65394C9.19653 7.52244 8.48357 10.6759 8.50029 15.988C9.66509 15.2059 10.7986 14.75 12 14.75C13.2014 14.75 14.3349 15.2059 15.4997 15.988C15.5164 10.6759 14.8035 7.52244 13.9784 5.65394C13.2869 4.08769 12.5167 3.42128 12 3.11849Z" fill="currentColor"/>
<path fill-rule="evenodd" clip-rule="evenodd" d="M10.9935 17.7764C11.2465 17.6397 11.5961 17.5 12 17.5C12.4039 17.5 12.7535 17.6397 13.0065 17.7764C13.2669 17.917 13.494 18.092 13.6708 18.246C13.8507 18.4026 13.9996 18.5562 14.103 18.6694C14.1553 18.7267 14.1975 18.7753 14.2278 18.8111C14.2429 18.829 14.2552 18.8438 14.2644 18.855L14.2758 18.869L14.2797 18.8739L14.2812 18.8757L14.2818 18.8765C14.282 18.8767 14.2824 18.8773 13.5 19.5L14.2818 18.8765C14.4757 19.1201 14.5456 19.4406 14.4701 19.7426C14.2691 20.5468 13.8374 21.3938 13.4932 21.9962C13.3155 22.3072 13.1492 22.5732 13.0271 22.762C12.9658 22.8567 12.9153 22.9325 12.8794 22.9857C12.8745 22.9929 12.8699 22.9997 12.8656 23.006C12.8539 23.0231 12.8443 23.0372 12.8369 23.048L12.8248 23.0655L12.8212 23.0707L12.8194 23.0733C12.8193 23.0734 12.8192 23.0735 12 22.5C11.1679 23.0547 11.1679 23.0546 11.1678 23.0546L11.1662 23.0521L11.1626 23.0466L11.1498 23.0273C11.1389 23.0107 11.1233 22.987 11.1037 22.9568C11.0645 22.8964 11.0091 22.8102 10.9423 22.7038C10.8091 22.4919 10.629 22.1972 10.4425 21.868C10.257 21.5407 10.0589 21.1684 9.89357 20.8028C9.73521 20.4527 9.57705 20.0451 9.5136 19.6644C9.46703 19.385 9.54116 19.0989 9.71759 18.8773L10.5 19.5C9.71759 18.8773 9.71745 18.8774 9.71759 18.8773L9.71879 18.8757L9.7203 18.8739L9.72422 18.869L9.73562 18.855C9.74478 18.8438 9.75706 18.829 9.77222 18.8111C9.80249 18.7753 9.84467 18.7267 9.89698 18.6694C10.0004 18.5562 10.1493 18.4026 10.3291 18.246C10.506 18.092 10.733 17.917 10.9935 17.7764ZM11.6257 19.7691C11.6518 19.8334 11.6818 19.9033 11.7158 19.9785C11.7997 20.164 11.8979 20.3595 12.0019 20.5541C12.1383 20.2903 12.2648 20.02 12.3655 19.7613L12.3572 19.7541C12.247 19.6581 12.1431 19.5831 12.0563 19.5362C12.0325 19.5233 12.0138 19.5147 12 19.5089C11.9862 19.5147 11.9675 19.5233 11.9437 19.5362C11.8569 19.5831 11.753 19.6581 11.6428 19.7541L11.6257 19.7691Z" fill="currentColor"/>
<path d="M12 22.5L12.8194 23.0733C12.6299 23.3439 12.3189 23.5037 11.9886 23.5C11.6583 23.4962 11.3511 23.3294 11.1678 23.0546L12 22.5Z" fill="currentColor"/>
</svg>
