<svg width="24" height="24" viewBox="0 0 24 24" fill="none" xmlns="http://www.w3.org/2000/svg">
<path d="M18 2C18.5523 2 19 2.44772 19 3V21C19 21.5523 18.5523 22 18 22C17.4477 22 17 21.5523 17 21V3C17 2.44772 17.4477 2 18 2Z" fill="currentColor"/>
<path d="M15 9C15 8.44772 14.5523 8 14 8C13.4477 8 13 8.44772 13 9V21C13 21.5523 13.4477 22 14 22C14.5523 22 15 21.5523 15 21V9Z" fill="currentColor"/>
<path d="M9.99997 12C10.5523 12 11 12.4477 11 13V21C11 21.5523 10.5523 22 9.99997 22C9.44769 22 8.99997 21.5523 8.99997 21V13C8.99997 12.4477 9.44769 12 9.99997 12Z" fill="currentColor"/>
<path d="M5.99997 16C6.55226 16 6.99997 16.4477 6.99997 17V21C6.99997 21.5523 6.55226 22 5.99997 22C5.44769 22 4.99997 21.5523 4.99997 21V17C4.99997 16.4477 5.44769 16 5.99997 16Z" fill="currentColor"/>
<path d="M6.12129 4.70705C5.73077 4.31652 5.0976 4.31652 4.70708 4.70705C4.31655 5.09757 4.31655 5.73074 4.70708 6.12126L5.41418 6.82837L4.70708 7.53548C4.31655 7.926 4.31655 8.55917 4.70708 8.94969C5.0976 9.34021 5.73077 9.34021 6.12129 8.94969L6.8284 8.24258L7.5355 8.94969C7.92603 9.34021 8.55919 9.34021 8.94972 8.94969C9.34024 8.55917 9.34024 7.926 8.94972 7.53548L8.24261 6.82837L8.94972 6.12126C9.34024 5.73074 9.34024 5.09757 8.94972 4.70705C8.55919 4.31652 7.92603 4.31652 7.5355 4.70705L6.8284 5.41416L6.12129 4.70705Z" fill="currentColor"/>
</svg>
