<svg width="24" height="24" viewBox="0 0 24 24" fill="none" xmlns="http://www.w3.org/2000/svg">
<path fill-rule="evenodd" clip-rule="evenodd" d="M10 2C9.62123 2 9.27497 2.214 9.10557 2.55279L8.38197 4H6.44152C5.15023 4 4.00381 4.82629 3.59547 6.05132L2.55631 9.1688C2.1676 8.90803 1.63639 8.9494 1.29289 9.29289C0.902369 9.68342 0.902369 10.3166 1.29289 10.7071L1.39384 10.8081C1.1464 11.1409 1 11.5534 1 12V15.5C1 16.5252 1.61705 17.4062 2.5 17.792V19C2.5 20.1046 3.39543 21 4.5 21H7C8.10457 21 9 20.1046 9 19V18H15V19C15 20.1046 15.8954 21 17 21H19.5C20.6046 21 21.5 20.1046 21.5 19V17.792C22.383 17.4062 23 16.5252 23 15.5V12C23 11.5534 22.8536 11.1409 22.6062 10.8081L22.7071 10.7071C23.0976 10.3166 23.0976 9.68342 22.7071 9.29289C22.3636 8.9494 21.8324 8.90803 21.4437 9.1688L20.4045 6.05132C19.9962 4.82629 18.8498 4 17.5585 4H15.618L14.8944 2.55279C14.725 2.214 14.3788 2 14 2H10ZM5.49284 6.68377L4.38743 10H19.6126L18.5072 6.68377C18.3711 6.27543 17.9889 6 17.5585 6H15H9H6.44152C6.01109 6 5.62895 6.27543 5.49284 6.68377ZM3.5 16C3.22386 16 3 15.7761 3 15.5V12H21V15.5C21 15.7761 20.7761 16 20.5 16H16H8H3.5ZM4.5 19V18H7V19H4.5ZM17 19V18H19.5V19H17Z" fill="currentColor"/>
</svg>
