<svg width="24" height="24" viewBox="0 0 24 24" fill="none" xmlns="http://www.w3.org/2000/svg">
<path d="M3.67069 3.51482C2.70708 4.12803 2.25 4.88294 2.25 5.59834C2.25 6.31374 2.70708 7.06865 3.67069 7.68186C4.62541 8.28941 5.99014 8.68972 7.53646 8.68972C9.08277 8.68972 10.4475 8.28941 11.4022 7.68186C12.3658 7.06865 12.8229 6.31374 12.8229 5.59834C12.8229 4.88294 12.3658 4.12803 11.4022 3.51482C10.4475 2.90727 9.08277 2.50696 7.53646 2.50696C5.99014 2.50696 4.62541 2.90727 3.67069 3.51482Z" fill="currentColor"/>
<path d="M12.8229 8.49832C12.6302 8.65966 12.424 8.80961 12.2075 8.94735C10.9775 9.73011 9.32398 10.1897 7.53646 10.1897C5.74893 10.1897 4.09543 9.73011 2.86538 8.94735C2.64893 8.80961 2.44275 8.65966 2.25 8.49832V9.98849C2.25 10.7039 2.70708 11.4588 3.67069 12.072C4.62541 12.6796 5.99014 13.0799 7.53646 13.0799C9.08277 13.0799 10.4475 12.6796 11.4022 12.072C12.3658 11.4588 12.8229 10.7039 12.8229 9.98849V8.49832Z" fill="currentColor"/>
<path d="M12.8229 12.8885C12.6302 13.0498 12.424 13.1998 12.2075 13.3375C10.9775 14.1203 9.32398 14.5799 7.53646 14.5799C5.74893 14.5799 4.09543 14.1203 2.86538 13.3375C2.64893 13.1998 2.44275 13.0498 2.25 12.8885V14.3786C2.25 15.094 2.70708 15.8489 3.67069 16.4622C4.62541 17.0697 5.99014 17.47 7.53646 17.47C9.08277 17.47 10.4475 17.0697 11.4022 16.4622C12.3658 15.8489 12.8229 15.094 12.8229 14.3786V12.8885Z" fill="currentColor"/>
<path d="M12.8229 17.2786C12.6302 17.44 12.424 17.5899 12.2075 17.7276C10.9775 18.5104 9.32398 18.97 7.53646 18.97C5.74893 18.97 4.09543 18.5104 2.86538 17.7276C2.64893 17.5899 2.44275 17.44 2.25 17.2786V17.6713C2.25 18.3867 2.70708 19.1416 3.67069 19.7548C4.62541 20.3623 5.99014 20.7626 7.53646 20.7626C9.08277 20.7626 10.4475 20.3623 11.4022 19.7548C12.3658 19.1416 12.8229 18.3867 12.8229 17.6713V17.2786Z" fill="currentColor"/>
<path d="M15.0487 7.98306C14.3519 8.42649 14.0598 8.94684 14.0598 9.40317C14.0598 9.85949 14.3519 10.3798 15.0487 10.8233C15.7366 11.261 16.7327 11.5563 17.8719 11.5563C19.0111 11.5563 20.0073 11.261 20.6952 10.8233C21.392 10.3798 21.6841 9.85949 21.6841 9.40317C21.6841 8.94684 21.392 8.42649 20.6952 7.98306C20.0073 7.5453 19.0111 7.25 17.8719 7.25C16.7327 7.25 15.7366 7.5453 15.0487 7.98306Z" fill="currentColor"/>
<path d="M21.6841 11.9659C21.6239 12.0082 21.5627 12.0492 21.5005 12.0888C20.5373 12.7017 19.2523 13.0563 17.8719 13.0563C16.4915 13.0563 15.2066 12.7017 14.2434 12.0888C14.1812 12.0492 14.12 12.0082 14.0598 11.9659V12.7211C14.0598 13.1774 14.3519 13.6977 15.0487 14.1412C15.7366 14.5789 16.7327 14.8742 17.8719 14.8742C19.0111 14.8742 20.0073 14.5789 20.6952 14.1412C21.392 13.6977 21.6841 13.1774 21.6841 12.7211V11.9659Z" fill="currentColor"/>
<path d="M21.6841 15.2838C21.6239 15.3261 21.5627 15.3671 21.5005 15.4067C20.5373 16.0196 19.2523 16.3742 17.8719 16.3742C16.4915 16.3742 15.2066 16.0196 14.2434 15.4067C14.1812 15.3671 14.12 15.3261 14.0598 15.2838V16.039C14.0598 16.4953 14.3519 17.0157 15.0487 17.4591C15.7366 17.8968 16.7327 18.1921 17.8719 18.1921C19.0111 18.1921 20.0073 17.8968 20.6952 17.4591C21.392 17.0157 21.6841 16.4953 21.6841 16.039V15.2838Z" fill="currentColor"/>
<path d="M21.6814 18.6036C21.6221 18.6453 21.5618 18.6856 21.5005 18.7246C20.5373 19.3375 19.2523 19.6921 17.8719 19.6921C16.4915 19.6921 15.2066 19.3375 14.2434 18.7246C14.1821 18.6856 14.1218 18.6453 14.0625 18.6036C14.0933 19.041 14.3904 19.5286 15.0487 19.9475C15.7366 20.3853 16.7327 20.6806 17.8719 20.6806C19.0111 20.6806 20.0073 20.3853 20.6952 19.9475C21.3535 19.5286 21.6505 19.041 21.6814 18.6036Z" fill="currentColor"/>
</svg>
