<svg width="24" height="24" viewBox="0 0 24 24" fill="none" xmlns="http://www.w3.org/2000/svg">
<path d="M6.14932 7.86642C5.9355 7.22498 5.43216 6.72164 4.79072 6.50783C4.13791 6.29022 4.13791 5.36684 4.79072 5.14923C5.43216 4.93542 5.9355 4.43208 6.14932 3.79064C6.36692 3.13782 7.29031 3.13782 7.50791 3.79064C7.72173 4.43208 8.22507 4.93542 8.86651 5.14923C9.51932 5.36684 9.51932 6.29022 8.86651 6.50783C8.22507 6.72164 7.72173 7.22498 7.50791 7.86642C7.29031 8.51924 6.36692 8.51924 6.14932 7.86642Z" fill="currentColor"/>
<path d="M6.29814 20.7327C5.87052 19.4499 4.86384 18.4432 3.58095 18.0156C2.27532 17.5803 2.27532 15.7336 3.58095 15.2984C4.86384 14.8707 5.87052 13.8641 6.29814 12.5812C6.73335 11.2755 8.58013 11.2755 9.01534 12.5812C9.44296 13.8641 10.4496 14.8707 11.7325 15.2984C13.0382 15.7336 13.0382 17.5803 11.7325 18.0156C10.4496 18.4432 9.44296 19.4499 9.01534 20.7327C8.58013 22.0384 6.73335 22.0384 6.29814 20.7327Z" fill="currentColor"/>
<path d="M14.1858 11.2617C15.148 11.5824 15.903 12.3374 16.2237 13.2996C16.5501 14.2788 17.9352 14.2788 18.2616 13.2996C18.5823 12.3374 19.3374 11.5824 20.2995 11.2617C21.2787 10.9353 21.2787 9.5502 20.2995 9.2238C19.3374 8.90308 18.5823 8.14807 18.2616 7.1859C17.9352 6.20668 16.5501 6.20668 16.2237 7.1859C15.903 8.14807 15.148 8.90308 14.1858 9.2238C13.2066 9.5502 13.2066 10.9353 14.1858 11.2617Z" fill="currentColor"/>
</svg>
