<svg width="24" height="24" viewBox="0 0 24 24" fill="none" xmlns="http://www.w3.org/2000/svg">
<path d="M12 21C16.6331 21 20.4485 17.4992 20.9452 12.9984C21.0058 12.4495 20.5523 12 20 12H15C13.3431 12 12 10.6569 12 9.00003V4.00003C12 3.44775 11.5506 2.9942 11.0016 3.05478C6.50088 3.5515 3 7.36693 3 12C3 16.9706 7.02944 21 12 21Z" fill="currentColor"/>
<path d="M21.9295 8.003C21.492 4.93492 19.0651 2.50801 15.997 2.0705C15.4503 1.99253 15 2.44775 15 3.00003V8.00003C15 8.55232 15.4477 9.00003 16 9.00003H21C21.5523 9.00003 22.0075 8.54976 21.9295 8.003Z" fill="currentColor"/>
</svg>
