<svg width="24" height="24" viewBox="0 0 24 24" fill="none" xmlns="http://www.w3.org/2000/svg">
<path fill-rule="evenodd" clip-rule="evenodd" d="M16 3.86854C16 2.27115 14.2197 1.31836 12.8906 2.20444L9.01149 4.79051C8.76301 4.95616 8.48058 5.06407 8.18494 5.1063L4.43431 5.64211C2.46372 5.92362 1 7.6113 1 9.60191V14.3981C1 16.3887 2.46372 18.0764 4.43431 18.3579L8.18494 18.8937C8.48058 18.936 8.76301 19.0439 9.01149 19.2095L12.8906 21.7956C14.2197 22.6817 16 21.7289 16 20.1315V3.86854ZM10.1209 6.45461L14 3.86854L14 20.1315L10.1209 17.5454C9.62392 17.2141 9.05906 16.9983 8.46778 16.9138L4.71715 16.378C3.73186 16.2373 3 15.3934 3 14.3981V9.60191C3 8.60661 3.73186 7.76276 4.71716 7.62201L8.46778 7.0862C9.05906 7.00173 9.62392 6.78592 10.1209 6.45461Z" fill="currentColor"/>
<path d="M17.161 13.3092C16.6414 13.4965 16.372 14.0695 16.5592 14.5891C16.7465 15.1086 17.3195 15.378 17.839 15.1908C19.314 14.6593 20 13.2766 20 12C20 10.7234 19.314 9.34078 17.839 8.80925C17.3195 8.622 16.7465 8.89141 16.5592 9.41098C16.372 9.93056 16.6414 10.5035 17.161 10.6908C17.686 10.88 18 11.387 18 12C18 12.6131 17.686 13.12 17.161 13.3092Z" fill="currentColor"/>
</svg>
