<svg width="24" height="24" viewBox="0 0 24 24" fill="none" xmlns="http://www.w3.org/2000/svg">
<path d="M4.46185 18.1254L4.65884 19.1663C4.71086 19.4412 4.84209 19.691 5.03674 19.8856C5.59483 20.4437 6.52432 20.419 7.11283 19.8305L14.6281 12.3153C15.1227 11.8207 15.8118 11.5804 16.4819 11.6688C18.436 11.9265 20.3066 10.5168 20.6314 8.54174L20.7033 8.10391C21.1135 5.60917 19.1169 3.50226 16.6112 3.78562L16.1366 3.8393C14.0402 4.07638 12.5292 6.08925 12.9154 8.13019C13.0461 8.82081 12.8136 9.54928 12.298 10.0649L10.9507 11.4122C10.6206 11.7422 10.2206 11.9927 9.78378 12.1426L8.54945 12.5662C7.86558 12.801 7.3201 13.3464 7.08538 14.0303C6.88747 14.6069 6.46659 15.09 5.92024 15.3678L5.83584 15.4107C4.82424 15.9249 4.25737 17.0449 4.46185 18.1254Z" stroke="currentColor" stroke-width="2" stroke-linecap="round"/>
<circle cx="1" cy="1" r="1" transform="matrix(0.707107 0.707107 0.707107 -0.707107 15.4355 7.65686)" fill="currentColor"/>
</svg>
