<svg width="24" height="24" viewBox="0 0 24 24" fill="none" xmlns="http://www.w3.org/2000/svg">
<path fill-rule="evenodd" clip-rule="evenodd" d="M20.8401 3.66132C19.278 2.09922 16.7454 2.09922 15.1833 3.66132L14.5515 4.29305L4.57668 14.2679C3.96469 14.8799 3.5677 15.6739 3.44531 16.5307L3.06818 19.1705C2.87962 20.4905 4.01099 21.6218 5.33092 21.4333L7.97079 21.0561C8.82757 20.9337 9.62154 20.5368 10.2335 19.9248L20.2084 9.9499L20.8401 9.31817C22.4022 7.75607 22.4022 5.22342 20.8401 3.66132ZM19.4259 5.07553C20.1817 5.83129 20.2061 7.04142 19.4993 7.82661L16.6748 5.00213C17.46 4.2953 18.6702 4.31977 19.4259 5.07553ZM15.2587 6.41437L18.0871 9.24279L8.81932 18.5106C8.51332 18.8166 8.11634 19.015 7.68795 19.0762L5.04808 19.4534L5.4252 16.8135C5.4864 16.3851 5.6849 15.9881 5.99089 15.6821L15.2587 6.41437Z" fill="currentColor"/>
</svg>
