<svg width="24" height="24" viewBox="0 0 24 24" fill="none" xmlns="http://www.w3.org/2000/svg">
<path d="M18.631 2.22417C18.2025 1.87569 17.5727 1.94053 17.2242 2.36899C16.8757 2.79745 16.9406 3.42729 17.369 3.77577L18.1857 4.43997H9.56C5.38473 4.43997 2 7.8247 2 12C2 12.5523 2.44772 13 3 13C3.55228 13 4 12.5523 4 12C4 8.92927 6.4893 6.43997 9.56 6.43997H18.5389L17.3025 7.64337C16.9067 8.02859 16.8982 8.66169 17.2834 9.05746C17.6686 9.45322 18.3017 9.46178 18.6975 9.07657L21.6975 6.15657C21.902 5.95751 22.0117 5.68056 21.999 5.39545C21.9863 5.11034 21.8524 4.84425 21.631 4.66417L18.631 2.22417Z" fill="currentColor"/>
<path d="M5.36902 21.7758C5.79748 22.1243 6.42732 22.0594 6.7758 21.631C7.12428 21.2025 7.05944 20.5727 6.63098 20.2242L5.81434 19.56H14.44C18.6153 19.56 22 16.1752 22 12C22 11.4477 21.5523 11 21 11C20.4477 11 20 11.4477 20 12C20 15.0707 17.5107 17.56 14.44 17.56H5.46111L6.69749 16.3566C7.09325 15.9714 7.10181 15.3382 6.7166 14.9425C6.33138 14.5467 5.69828 14.5382 5.30251 14.9234L2.30252 17.8434C2.09801 18.0424 1.98829 18.3194 2.00099 18.6045C2.0137 18.8896 2.14762 19.1557 2.36902 19.3358L5.36902 21.7758Z" fill="currentColor"/>
</svg>
