<svg width="24" height="24" viewBox="0 0 24 24" fill="none" xmlns="http://www.w3.org/2000/svg">
<path fill-rule="evenodd" clip-rule="evenodd" d="M4.25034 6.44995C4.25034 4.93117 5.48156 3.69995 7.00034 3.69995C8.51912 3.69995 9.75034 4.93117 9.75034 6.44995C9.75034 7.96873 8.51912 9.19995 7.00034 9.19995C5.48156 9.19995 4.25034 7.96873 4.25034 6.44995ZM7.00034 5.69995C6.58613 5.69995 6.25034 6.03574 6.25034 6.44995C6.25034 6.86416 6.58613 7.19995 7.00034 7.19995C7.41455 7.19995 7.75034 6.86416 7.75034 6.44995C7.75034 6.03574 7.41455 5.69995 7.00034 5.69995Z" fill="currentColor"/>
<path fill-rule="evenodd" clip-rule="evenodd" d="M14.7203 14.46C14.7203 12.9412 15.9515 11.71 17.4703 11.71C18.9891 11.71 20.2203 12.9412 20.2203 14.46C20.2203 15.9787 18.9891 17.21 17.4703 17.21C15.9515 17.21 14.7203 15.9787 14.7203 14.46ZM17.4703 13.71C17.0561 13.71 16.7203 14.0457 16.7203 14.46C16.7203 14.8742 17.0561 15.21 17.4703 15.21C17.8845 15.21 18.2203 14.8742 18.2203 14.46C18.2203 14.0457 17.8845 13.71 17.4703 13.71Z" fill="currentColor"/>
<path fill-rule="evenodd" clip-rule="evenodd" d="M11.6607 9.30302C13.1686 6.84009 12.4998 3.62902 10.134 1.97293C8.25241 0.655834 5.74809 0.655834 3.86652 1.97293C1.50067 3.62902 0.831859 6.84008 2.33978 9.30302L4.44169 12.7361C4.63673 13.0547 4.8764 13.3202 5.14581 13.5326C4.78438 14.0719 4.51929 14.7479 4.47693 15.5068C4.40646 16.7692 4.95907 18.1006 6.36019 19.2682C7.74963 20.4261 9.81967 21.1257 11.7412 21.5626C13.6967 22.0072 15.6524 22.2124 16.9339 22.2978C17.1258 22.3106 17.3087 22.2683 17.4671 22.1846C18.4532 22.184 19.4391 21.7062 20.0239 20.751L22.1258 17.3179C23.6337 14.855 22.9649 11.6439 20.5991 9.98782C18.7175 8.67073 16.2132 8.67073 14.3316 9.98782C11.9658 11.6439 11.2969 14.855 12.8049 17.3179L14.4646 20.0289C13.7333 19.9241 12.9567 19.7879 12.1846 19.6124C10.3311 19.191 8.65111 18.5739 7.64055 17.7318C6.64167 16.8994 6.44428 16.1474 6.47382 15.6182C6.50648 15.0332 6.82602 14.5303 7.14057 14.2682C7.18127 14.2343 7.21859 14.1978 7.25249 14.1593C8.15237 14.0847 9.02359 13.6103 9.5588 12.7362L11.6607 9.30302ZM5.01345 3.61139C6.20637 2.77635 7.79413 2.77635 8.98705 3.61139C10.487 4.66137 10.911 6.6972 9.95501 8.25872L7.8531 11.6918C7.46302 12.329 6.53748 12.329 6.1474 11.6918L4.04548 8.25872C3.08945 6.6972 3.51348 4.66137 5.01345 3.61139ZM19.4521 11.6263C18.2592 10.7912 16.6715 10.7912 15.4785 11.6263C13.9786 12.6763 13.5545 14.7121 14.5106 16.2736L16.6125 19.7067C17.0026 20.3439 17.9281 20.3439 18.3182 19.7067L20.4201 16.2736C21.3761 14.7121 20.9521 12.6763 19.4521 11.6263Z" fill="currentColor"/>
</svg>
