<svg width="24" height="24" viewBox="0 0 24 24" fill="none" xmlns="http://www.w3.org/2000/svg">
<path d="M14.0595 2.47577C13.9867 2.45892 13.9109 2.45001 13.833 2.45001C13.2807 2.45001 12.833 2.89773 12.833 3.45001V14.8873C12.1515 14.6738 11.2717 14.5176 10.1563 14.5176C8.54064 14.5176 7.41938 14.8453 6.67903 15.1999C5.83823 15.6026 5.64725 16.6284 6.05809 17.4937C6.82401 19.1068 8.28215 21.5176 10.1563 21.5176C12.7416 21.5176 14.5354 19.2237 14.8122 16.7416C14.8162 16.7062 14.8188 16.6709 14.82 16.6357C14.8363 16.5184 14.8437 16.392 14.833 16.2632V9.95933C17.6326 9.55261 18.5728 7.11655 18.687 5.8442C18.2458 5.60554 17.3209 4.87691 16.4082 4.158C15.6911 3.59315 14.9817 3.0343 14.5205 2.72382C14.4063 2.61563 14.2665 2.53411 14.1112 2.48922C14.0915 2.48225 14.0742 2.47771 14.0595 2.47577Z" fill="currentColor"/>
</svg>
