<svg width="24" height="24" viewBox="0 0 24 24" fill="none" xmlns="http://www.w3.org/2000/svg">
<path d="M18.2652 1.8568C17.8409 1.50324 17.2103 1.56056 16.8568 1.98484C16.5032 2.40912 16.5605 3.03968 16.9848 3.39325L18.3295 4.51381C15.4905 5.34514 13.1875 7.39132 12 10.0379C10.8125 7.39133 8.50955 5.34514 5.67051 4.51381L7.01519 3.39325C7.43947 3.03968 7.49679 2.40912 7.14323 1.98484C6.78966 1.56056 6.1591 1.50324 5.73482 1.8568L2.73697 4.35501C2.53101 4.52574 2.39367 4.77818 2.37673 5.0663C2.36569 5.25394 2.40713 5.43254 2.48835 5.58778L4.48058 9.57224C4.72757 10.0662 5.32824 10.2664 5.82222 10.0195C6.3162 9.77246 6.51642 9.17179 6.26943 8.67781L5.15408 6.44711C8.47981 7.44317 10.875 10.5252 10.875 14.1397L10.875 21.625C10.875 22.1773 11.3227 22.625 11.875 22.625C11.9173 22.625 11.9591 22.6224 12 22.6173C12.041 22.6224 12.0827 22.625 12.125 22.625C12.6773 22.625 13.125 22.1773 13.125 21.625V14.1397C13.125 10.5252 15.5202 7.44317 18.8459 6.44711L17.7306 8.67781C17.4836 9.17179 17.6838 9.77246 18.1778 10.0195C18.6718 10.2664 19.2724 10.0662 19.5194 9.57224L21.5117 5.58778C21.5929 5.43253 21.6343 5.25394 21.6233 5.0663C21.6063 4.77817 21.469 4.52574 21.263 4.35501L18.2652 1.8568Z" fill="currentColor"/>
</svg>
