<svg width="24" height="24" viewBox="0 0 24 24" fill="none" xmlns="http://www.w3.org/2000/svg">
<path fill-rule="evenodd" clip-rule="evenodd" d="M5.84548 6.78252C4.07936 5.89988 2 7.18316 2 9.15864V14.8414C2 16.8169 4.07936 18.1002 5.84548 17.2175L11 14.6415V14.8414C11 16.8169 13.0794 18.1002 14.8455 17.2175L20.5309 14.3761C22.4897 13.3972 22.4897 10.6028 20.5309 9.6239L14.8455 6.78252C13.0794 5.89988 11 7.18316 11 9.15864V9.35856L5.84548 6.78252ZM13 14.8414C13 15.3287 13.5137 15.6473 13.9514 15.4285L19.6368 12.5871C20.1211 12.3451 20.1211 11.6549 19.6368 11.4129L13.9514 8.57155C13.5137 8.35278 13 8.67132 13 9.15864V14.8414ZM11 11.9992C10.9997 11.7664 10.8787 11.5338 10.6368 11.4129L4.95139 8.57155C4.51366 8.35278 4 8.67132 4 9.15864V14.8414C4 15.3287 4.51366 15.6473 4.95139 15.4285L10.6368 12.5871C10.8787 12.4663 10.9997 12.2336 11 12.0009V11.9992Z" fill="currentColor"/>
</svg>
