<svg width="24" height="24" viewBox="0 0 24 24" fill="none" xmlns="http://www.w3.org/2000/svg">
<path d="M20.7782 4.63606C21.1687 4.24554 21.1687 3.61237 20.7782 3.22185C20.3876 2.83132 19.7545 2.83132 19.3639 3.22185L16.8284 5.75738V3.92896C16.8284 3.37667 16.3807 2.92896 15.8284 2.92896C15.2761 2.92896 14.8284 3.37667 14.8284 3.92896L14.8284 8.1716C14.8284 8.72388 15.2761 9.1716 15.8284 9.1716H20.0711C20.6233 9.1716 21.0711 8.72388 21.0711 8.1716C21.0711 7.61931 20.6233 7.1716 20.0711 7.1716H18.2426L20.7782 4.63606Z" fill="currentColor"/>
<path d="M9.17156 15.8285C9.17156 15.5632 9.0662 15.3089 8.87867 15.1213C8.69113 14.9338 8.43678 14.8285 8.17156 14.8285L3.92892 14.8285C3.37663 14.8285 2.92892 15.2762 2.92892 15.8285C2.92892 16.3807 3.37663 16.8285 3.92892 16.8285L5.75735 16.8285L3.22181 19.364C2.83129 19.7545 2.83129 20.3877 3.22181 20.7782C3.61233 21.1687 4.2455 21.1687 4.63602 20.7782L7.17156 18.2427L7.17156 20.0711C7.17156 20.6234 7.61927 21.0711 8.17156 21.0711C8.72384 21.0711 9.17156 20.6234 9.17156 20.0711L9.17156 15.8285Z" fill="currentColor"/>
<path d="M4.63604 3.22188C4.24552 2.83136 3.61235 2.83136 3.22183 3.22188C2.8313 3.61241 2.8313 4.24557 3.22183 4.6361L5.75736 7.17163H3.92893C3.37665 7.17163 2.92893 7.61935 2.92893 8.17163C2.92893 8.72392 3.37665 9.17163 3.92893 9.17163H8.17158C8.72386 9.17163 9.17158 8.72392 9.17158 8.17163V3.92899C9.17158 3.37671 8.72386 2.92899 8.17158 2.92899C7.61929 2.92899 7.17158 3.37671 7.17158 3.92899V5.75742L4.63604 3.22188Z" fill="currentColor"/>
<path d="M15.8284 14.8285C15.5632 14.8285 15.3089 14.9338 15.1213 15.1214C14.9338 15.3089 14.8284 15.5633 14.8284 15.8285L14.8284 20.0711C14.8284 20.6234 15.2761 21.0711 15.8284 21.0711C16.3807 21.0711 16.8284 20.6234 16.8284 20.0711L16.8284 18.2427L19.364 20.7782C19.7545 21.1688 20.3877 21.1688 20.7782 20.7782C21.1687 20.3877 21.1687 19.7545 20.7782 19.364L18.2426 16.8285L20.0711 16.8285C20.6234 16.8285 21.0711 16.3808 21.0711 15.8285C21.0711 15.2762 20.6234 14.8285 20.0711 14.8285L15.8284 14.8285Z" fill="currentColor"/>
</svg>
