<svg width="24" height="24" viewBox="0 0 24 24" fill="none" xmlns="http://www.w3.org/2000/svg">
<path d="M20.7782 4.22168C20.7782 3.66939 20.3304 3.22168 19.7782 3.22168H15.5355C14.9832 3.22168 14.5355 3.66939 14.5355 4.22168C14.5355 4.77396 14.9832 5.22168 15.5355 5.22168H17.3639L5.2218 17.3638L5.2218 15.5354C5.2218 14.9831 4.77409 14.5354 4.2218 14.5354C3.66952 14.5354 3.2218 14.9831 3.2218 15.5354V19.778C3.2218 20.3303 3.66952 20.778 4.2218 20.778H8.46444C9.01673 20.778 9.46444 20.3303 9.46444 19.778C9.46444 19.2257 9.01673 18.778 8.46444 18.778L6.63602 18.778L18.7782 6.63589V8.46432C18.7782 9.0166 19.2259 9.46432 19.7782 9.46432C20.3304 9.46432 20.7782 9.0166 20.7782 8.46432V4.22168Z" fill="currentColor"/>
</svg>
