<svg width="24" height="24" viewBox="0 0 24 24" fill="none" xmlns="http://www.w3.org/2000/svg">
<path d="M5.09106 6.41665C4.54088 6.36851 4.05585 6.7755 4.00771 7.32568C3.95958 7.87587 4.36657 8.3609 4.91675 8.40903L6.90914 8.58335C7.45932 8.63148 7.94436 8.22449 7.99249 7.67431C8.04063 7.12412 7.63363 6.63909 7.08345 6.59096L5.09106 6.41665Z" fill="cur"/>
<path d="M16.0077 8.32568C16.0558 7.7755 16.5409 7.36851 17.0911 7.41665L19.0835 7.59096C19.6336 7.63909 20.0406 8.12412 19.9925 8.67431C19.9444 9.22449 19.4593 9.63148 18.9091 9.58335L16.9168 9.40903C16.3666 9.3609 15.9596 8.87587 16.0077 8.32568Z" fill="currentColor"/>
<path d="M5.09106 15.0038C4.54088 14.9557 4.05585 15.3627 4.00771 15.9128C3.95958 16.463 4.36657 16.9481 4.91675 16.9962L6.90914 17.1705C7.45932 17.2186 7.94436 16.8116 7.99249 16.2615C8.04063 15.7113 7.63363 15.2262 7.08345 15.1781L5.09106 15.0038Z" fill="currentColor"/>
<path d="M16.0077 17.3257C16.0558 16.7755 16.5409 16.3685 17.0911 16.4166L19.0835 16.591C19.6336 16.6391 20.0406 17.1241 19.9925 17.6743C19.9444 18.2245 19.4593 18.6315 18.9091 18.5833L16.9168 18.409C16.3666 18.3609 15.9596 17.8759 16.0077 17.3257Z" fill="currentColor"/>
<path fill-rule="evenodd" clip-rule="evenodd" d="M12 9C13.6569 9 15 10.3431 15 12C15 13.6569 13.6569 15 12 15C10.3431 15 9 13.6569 9 12C9 10.3431 10.3431 9 12 9ZM13 12C13 11.4477 12.5523 11 12 11C11.4477 11 11 11.4477 11 12C11 12.5523 11.4477 13 12 13C12.5523 13 13 12.5523 13 12Z" fill="currentColor"/>
<path fill-rule="evenodd" clip-rule="evenodd" d="M5.24433 3.24159C2.9311 3.04304 1 4.87588 1 7.16862V15.1596C1 17.2848 2.65497 19.0305 4.74824 19.2066C5.60626 19.2788 6.65879 19.3733 7.90243 19.4952C8.12536 19.5171 8.62104 19.6182 9.33769 19.7839C9.80886 19.8929 10.3392 20.0209 10.8964 20.1554C11.1591 20.2188 11.4286 20.2839 11.6998 20.3488C12.5391 20.5499 13.3972 20.7506 14.1357 20.9018C14.8428 21.0465 15.5356 21.1667 15.9958 21.1687C17.1394 21.1735 18.2579 21.1519 19.2151 21.1227C21.3562 21.0574 23 19.2885 23 17.1812V9.19281C23 6.88039 21.0564 5.07288 18.7836 5.1343C17.931 5.15735 16.9751 5.1728 16.0042 5.16869C15.7734 5.16771 15.2712 5.09267 14.5366 4.94236C13.8335 4.79847 13.0034 4.60453 12.1657 4.40387C11.9033 4.34101 11.6395 4.27734 11.3793 4.21451L11.3782 4.21427C10.8155 4.07843 10.269 3.94651 9.78829 3.83536C9.10812 3.67806 8.47589 3.54186 8.09757 3.50477C6.99864 3.39703 6.04679 3.31047 5.24433 3.24159ZM3 7.16862C3 6.01884 3.95662 5.13842 5.07329 5.23427C5.86777 5.30246 6.81158 5.38828 7.90243 5.49523C8.12536 5.51708 8.62104 5.61821 9.33769 5.78393C9.80894 5.89291 10.3394 6.02096 10.8967 6.15549C11.1596 6.21894 11.4284 6.28383 11.6998 6.34884C12.5391 6.54988 13.3972 6.75064 14.1357 6.90176C14.8428 7.04645 15.5356 7.16672 15.9958 7.16867C16.9924 7.17289 17.9697 7.15703 18.8377 7.13357C20.0241 7.10151 21 8.0447 21 9.19281V17.1812C21 18.2426 20.1803 19.0923 19.1541 19.1236C18.2131 19.1524 17.1187 19.1734 16.0042 19.1687C15.7734 19.1677 15.2712 19.0927 14.5366 18.9424C13.8335 18.7985 13.0034 18.6045 12.1657 18.4039C11.903 18.3409 11.639 18.2772 11.3784 18.2143C10.8156 18.0785 10.269 17.9465 9.7883 17.8354C9.10812 17.6781 8.47589 17.5419 8.09757 17.5048C6.84472 17.3819 5.78303 17.2866 4.91593 17.2137C3.83407 17.1227 3 16.2208 3 15.1596V7.16862Z" fill="currentColor"/>
</svg>
