<svg width="24" height="24" viewBox="0 0 24 24" fill="none" xmlns="http://www.w3.org/2000/svg">
<path fill-rule="evenodd" clip-rule="evenodd" d="M15.9153 3.40275C16.1377 2.89723 15.9083 2.30712 15.4027 2.08469C14.8972 1.86227 14.3071 2.09175 14.0847 2.59727L12 7.33519L9.91532 2.59727C9.69289 2.09175 9.10278 1.86227 8.59726 2.08469C8.09175 2.30712 7.86226 2.89723 8.08468 3.40275L10.9075 9.81819L9.0108 14.1288C8.68793 14.0448 8.34919 14 8 14C5.79086 14 4 15.7909 4 18C4 20.2091 5.79086 22 8 22C10.2091 22 12 20.2091 12 18C12 20.2091 13.7909 22 16 22C18.2091 22 20 20.2091 20 18C20 15.7909 18.2091 14 16 14C15.6508 14 15.3121 14.0448 14.9892 14.1288L13.0925 9.81819L15.9153 3.40275ZM14.7001 16.48C14.7684 16.466 14.8363 16.4445 14.9027 16.4153C15.0507 16.3502 15.1749 16.2537 15.2712 16.137C15.497 16.0485 15.7428 16 16 16C17.1046 16 18 16.8954 18 18C18 19.1046 17.1046 20 16 20C14.8954 20 14 19.1046 14 18C14 17.3917 14.2716 16.8468 14.7001 16.48ZM13.2355 15.1091C12.4742 15.8373 12 16.8633 12 18C12 16.8633 11.5258 15.8373 10.7645 15.1091L12 12.3012L13.2355 15.1091ZM8.72881 16.137C8.82505 16.2537 8.94934 16.3502 9.09726 16.4153C9.16368 16.4445 9.23157 16.466 9.29989 16.48C9.72842 16.8468 10 17.3917 10 18C10 19.1046 9.10457 20 8 20C6.89543 20 6 19.1046 6 18C6 16.8954 6.89543 16 8 16C8.25716 16 8.50298 16.0485 8.72881 16.137Z" fill="currentColor"/>
</svg>
