<svg width="24" height="24" viewBox="0 0 24 24" fill="none" xmlns="http://www.w3.org/2000/svg">
<path d="M2.29202 7.53005L11.8289 4.06209C11.9393 4.02195 12.0603 4.02195 12.1707 4.06209L21.7076 7.53005C22.1464 7.68963 22.1464 8.31027 21.7076 8.46985L12.1707 11.9378C12.0603 11.978 11.9393 11.978 11.8289 11.9378L2.29202 8.46985C1.85318 8.31027 1.85318 7.68963 2.29202 7.53005Z" fill="currentColor"/>
<path d="M6.59014 10.9671L2.29202 12.53C1.85318 12.6896 1.85318 13.3102 2.29202 13.4698L11.8289 16.9378C11.9393 16.9779 12.0603 16.9779 12.1707 16.9378L21.7076 13.4698C22.1464 13.3102 22.1464 12.6896 21.7076 12.53L17.4094 10.967L12.204 12.962C12.0721 13.0126 11.9274 13.0126 11.7955 12.962L6.59014 10.9671Z" fill="currentColor"/>
<path d="M2.29202 16.53L5.2514 15.4539L11.7955 17.9619C11.9274 18.0125 12.0721 18.0125 12.204 17.9619L18.7482 15.4539L21.7076 16.53C22.1464 16.6896 22.1464 17.3102 21.7076 17.4698L12.1707 20.9378C12.0603 20.9779 11.9393 20.9779 11.8289 20.9378L2.29202 17.4698C1.85318 17.3102 1.85318 16.6896 2.29202 16.53Z" fill="currentColor"/>
</svg>
