<svg width="24" height="24" viewBox="0 0 24 24" fill="none" xmlns="http://www.w3.org/2000/svg">
<path d="M11.3575 8.48552C11.1697 8.17255 10.8263 7.98674 10.4616 8.00075C10.0969 8.01475 9.7688 8.22635 9.60558 8.5528L7.88197 12H7.50001C6.94772 12 6.50001 12.4477 6.50001 13C6.50001 13.5523 6.94772 14 7.50001 14H8.50001C8.87878 14 9.22504 13.786 9.39443 13.4472L10.5798 11.0766L12.6425 14.5145C12.8189 14.8085 13.1335 14.9916 13.4762 14.9997C13.8189 15.0079 14.1419 14.8399 14.3321 14.5547L16.0352 12H16.5C17.0523 12 17.5 11.5523 17.5 11C17.5 10.4477 17.0523 10 16.5 10H15.5C15.1657 10 14.8534 10.1671 14.668 10.4453L13.5445 12.1305L11.3575 8.48552Z" fill="currentColor"/>
<path fill-rule="evenodd" clip-rule="evenodd" d="M11.6803 3.21037C11.1965 3.08014 10.7455 2.9145 10.2737 2.73753L10.1817 2.703C9.74949 2.54066 9.28433 2.36594 8.81028 2.23478C7.74226 1.93927 6.58332 1.85078 5.19703 2.40068C1.98219 3.67592 0.571533 7.13396 1.11498 10.3675C1.53732 12.8806 3.19547 15.1328 4.95606 16.9088C6.73637 18.7047 8.73813 20.1294 10.045 20.9779C11.2392 21.7532 12.7608 21.7532 13.955 20.9779C15.2619 20.1294 17.2636 18.7047 19.0439 16.9088C20.8045 15.1328 22.4627 12.8806 22.885 10.3675C23.4285 7.13395 22.0178 3.67593 18.803 2.40069C17.4167 1.85078 16.2578 1.93927 15.1898 2.23478C14.7157 2.36595 14.2506 2.54066 13.8184 2.703L13.7264 2.73753C13.2545 2.9145 12.8036 3.08014 12.3197 3.21037C12.1106 3.26665 11.8894 3.26665 11.6803 3.21037ZM5.93447 4.25976C6.82361 3.90707 7.52166 3.95337 8.27694 4.16235C8.66165 4.2688 9.04799 4.41377 9.50313 4.58457L9.57132 4.61015C10.0423 4.78681 10.574 4.98377 11.1604 5.14163C11.71 5.28956 12.29 5.28956 12.8396 5.14163C13.4261 4.98377 13.9577 4.78682 14.4287 4.61016L14.4969 4.58456C14.952 4.41377 15.3384 4.2688 15.7231 4.16235C16.4784 3.95338 17.1764 3.90707 18.0655 4.25976C20.2098 5.11035 21.3372 7.50995 20.9127 10.0361C20.5929 11.9388 19.2834 13.8264 17.6236 15.5008C15.9835 17.1552 14.1121 18.4913 12.8659 19.3004C12.3341 19.6457 11.6659 19.6457 11.1341 19.3004C9.88791 18.4913 8.01652 17.1552 6.37642 15.5008C4.71661 13.8264 3.40709 11.9388 3.08732 10.0361C2.66277 7.50994 3.79018 5.11034 5.93447 4.25976Z" fill="currentColor"/>
</svg>
