<svg width="24" height="24" viewBox="0 0 24 24" fill="none" xmlns="http://www.w3.org/2000/svg">
<path d="M3 10C2.44772 10 2 9.55229 2 9C2 6.51072 2.83884 4.73349 4.06606 3.58296C4.44934 3.22364 4.86293 2.93264 5.28831 2.70288C4.9957 2.40666 4.909 1.94593 5.10557 1.55279C5.35256 1.05881 5.95324 0.858585 6.44721 1.10557L8.44721 2.10557C8.94119 2.35256 9.14142 2.95324 8.89443 3.44722L7.89443 5.44722C7.64744 5.94119 7.04676 6.14142 6.55279 5.89443C6.05881 5.64744 5.85858 5.04677 6.10557 4.55279L6.1159 4.53213C5.8795 4.67114 5.64936 4.84008 5.43394 5.04204C4.66116 5.76652 4 6.98929 4 9C4 9.55229 3.55228 10 3 10Z" fill="currentColor"/>
<path d="M5.79047 16.5077C6.43192 16.7215 6.93526 17.2249 7.14907 17.8663C7.36668 18.5191 8.29006 18.5191 8.50767 17.8663C8.72148 17.2249 9.22482 16.7215 9.86626 16.5077C10.5191 16.2901 10.5191 15.3667 9.86626 15.1491C9.22482 14.9353 8.72148 14.432 8.50767 13.7905C8.29006 13.1377 7.36668 13.1377 7.14907 13.7905C6.93526 14.432 6.43192 14.9353 5.79047 15.1491C5.13766 15.3667 5.13766 16.2901 5.79047 16.5077Z" fill="currentColor"/>
<path fill-rule="evenodd" clip-rule="evenodd" d="M8.5 8.5C8.5 8.84786 8.52545 9.19017 8.57465 9.52506C8.38531 9.50847 8.19365 9.5 8 9.5C4.41015 9.5 1.5 12.4102 1.5 16C1.5 19.5899 4.41015 22.5 8 22.5C11.5899 22.5 14.5 19.5899 14.5 16C14.5 15.8064 14.4915 15.6147 14.4749 15.4253C14.8098 15.4746 15.1521 15.5 15.5 15.5C19.366 15.5 22.5 12.366 22.5 8.5C22.5 4.63401 19.366 1.5 15.5 1.5C11.634 1.5 8.5 4.63401 8.5 8.5ZM15.5 3.5C12.7386 3.5 10.5 5.73858 10.5 8.5C10.5 9.06738 10.5941 9.61075 10.7668 10.1166C12.1335 10.7604 13.2396 11.8665 13.8834 13.2332C14.3893 13.4059 14.9326 13.5 15.5 13.5C18.2614 13.5 20.5 11.2614 20.5 8.5C20.5 5.73858 18.2614 3.5 15.5 3.5ZM8 11.5C5.51472 11.5 3.5 13.5147 3.5 16C3.5 18.4853 5.51472 20.5 8 20.5C10.4853 20.5 12.5 18.4853 12.5 16C12.5 13.5147 10.4853 11.5 8 11.5Z" fill="currentColor"/>
<path d="M22 15C22 14.4477 21.5523 14 21 14C20.4477 14 20 14.4477 20 15C20 17.0107 19.3388 18.2335 18.5661 18.958C18.3506 19.1599 18.1205 19.3289 17.8841 19.4679L17.8944 19.4472C18.1414 18.9532 17.9412 18.3526 17.4472 18.1056C16.9532 17.8586 16.3526 18.0588 16.1056 18.5528L15.1056 20.5528C14.8586 21.0468 15.0588 21.6474 15.5528 21.8944L17.5528 22.8944C18.0468 23.1414 18.6474 22.9412 18.8944 22.4472C19.091 22.0541 19.0043 21.5933 18.7117 21.2971C19.1371 21.0674 19.5507 20.7764 19.9339 20.417C21.1612 19.2665 22 17.4893 22 15Z" fill="currentColor"/>
</svg>
