<svg width="24" height="24" viewBox="0 0 24 24" fill="none" xmlns="http://www.w3.org/2000/svg">
<path d="M6.09333 3.37337L6.63724 5.5491C6.65677 5.62721 6.66665 5.70743 6.66665 5.78795V8.33338C6.66665 10.9371 8.53246 13.1051 11 13.5731V19.6527C9.91655 18.2587 7.80788 17 4 17C5.2563 20.926 9.69794 22.1761 11.879 22.3261C11.9182 22.3308 11.958 22.3332 11.9984 22.3333L12 22.3334L12.0016 22.3333C12.042 22.3332 12.0818 22.3308 12.121 22.3261C14.3021 22.1761 18.7437 20.926 20 17C16.1921 17 14.0835 18.2587 13 19.6527V13.5731C15.4675 13.105 17.3333 10.9371 17.3333 8.33338V5.78796C17.3333 5.70743 17.3432 5.62721 17.3627 5.54909L17.9002 3.39939C17.9406 3.23746 17.7764 3.09573 17.6212 3.15721C16.7097 3.51839 14.2989 4.37371 12 4.33338C9.86937 4.296 7.29384 3.45974 6.36003 3.13104C6.20728 3.07727 6.05405 3.21627 6.09333 3.37337Z" fill="currentColor"/>
</svg>
