<svg width="24" height="24" viewBox="0 0 24 24" fill="none" xmlns="http://www.w3.org/2000/svg">
<path fill-rule="evenodd" clip-rule="evenodd" d="M14.9466 2.47382C13.0335 1.36925 10.5871 2.02475 9.48254 3.93792L7.4367 7.48142C7.23928 7.82337 6.94505 8.09923 6.59111 8.27424L5.0697 9.02649C3.2798 9.9115 3.19854 12.4342 4.92776 13.4326L8.56263 15.5312L5.31269 21.1602C5.03654 21.6385 5.20042 22.2501 5.67871 22.5263C6.15701 22.8024 6.7686 22.6385 7.04474 22.1602L10.2947 16.5312L13.9296 18.6298C15.6588 19.6282 17.8029 18.2964 17.6744 16.3038L17.5652 14.6101C17.5398 14.2161 17.6316 13.8234 17.829 13.4814L19.8748 9.93792C20.9794 8.02475 20.3239 5.57839 18.4107 4.47382L14.9466 2.47382ZM10.4419 14.3068L14.9296 16.8978C15.2755 17.0974 15.7043 16.8311 15.6786 16.4326L15.5694 14.7389C15.5185 13.9508 15.7021 13.1653 16.097 12.4814L18.1428 8.93792C18.6951 7.98134 18.3673 6.75816 17.4107 6.20587L13.9466 4.20587C12.9901 3.65359 11.7669 3.98134 11.2146 4.93792L9.16876 8.48142C8.77391 9.16532 8.18545 9.71704 7.47756 10.0671L5.95615 10.8193C5.59817 10.9963 5.58192 11.5009 5.92776 11.7005L10.4154 14.2915C10.4198 14.2939 10.4243 14.2965 10.4287 14.299C10.4331 14.3016 10.4376 14.3042 10.4419 14.3068Z" fill="currentColor"/>
</svg>
