<svg width="24" height="24" viewBox="0 0 24 24" fill="none" xmlns="http://www.w3.org/2000/svg">
<path fill-rule="evenodd" clip-rule="evenodd" d="M4.35987 2.27802C3.03266 1.64602 1.5 2.61373 1.5 4.08374V15.7134C1.5 16.8705 2.16548 17.9244 3.2102 18.4219L7.77007 20.5933C7.9406 20.6745 8.13065 20.7058 8.31821 20.6834L15.6311 19.8128L19.6401 21.7219C20.9673 22.3539 22.5 21.3862 22.5 19.9162V8.28657C22.5 7.12945 21.8345 6.07548 20.7898 5.57799L16.2299 3.40662C16.0634 3.32732 15.8782 3.29563 15.6948 3.31504L11.4198 3.76742C11.4099 3.76846 11.4 3.76966 11.3902 3.77099L8.36068 4.18317L4.35987 2.27802ZM20.5 19.9162L16.8 18.1543V5.89327L19.9299 7.38371C20.2782 7.54954 20.5 7.90086 20.5 8.28657V19.9162ZM14.8 17.8977V5.42089L11.645 5.75475L9.2 6.08741V18.5643L14.8 17.8977ZM3.5 4.08374L7.2 5.84565V18.1067L4.07007 16.6162C3.72183 16.4504 3.5 16.0991 3.5 15.7134V4.08374Z" fill="currentColor"/>
</svg>
