<svg width="24" height="24" viewBox="0 0 24 24" fill="none" xmlns="http://www.w3.org/2000/svg">
<path fill-rule="evenodd" clip-rule="evenodd" d="M18.0623 2.81447C16.5282 2.00392 15 3.26041 15 4.7434C15 4.80762 14.9759 4.8757 14.9123 4.94123C14.8454 5.01022 14.7449 5.06323 14.6302 5.07625C10.5056 5.54425 7.70354 8.08723 5.90484 10.9726C4.11504 13.8438 3.25601 17.1406 3.00613 19.3896C2.95574 19.843 3.21867 20.2731 3.64525 20.4349C4.07182 20.5968 4.55387 20.4494 4.81698 20.0767C5.69952 18.8264 7.2533 17.018 9.11429 15.5264C10.9961 14.0181 13.0496 12.9482 14.9574 12.9214L14.9591 12.9232C14.9756 12.9417 15 12.9864 15 13.0513C15 14.647 16.711 15.8519 18.2315 14.9396C19.4939 14.1822 20.9116 13.1527 21.8998 11.9716C22.8685 10.8138 23.6235 9.24957 22.9192 7.60606C21.9204 5.27566 19.7223 3.69153 18.0623 2.81447ZM17 4.7434C17 4.64747 17.0435 4.59759 17.0705 4.57942C17.0837 4.5706 17.0915 4.57009 17.0915 4.57009C17.0915 4.57009 17.0938 4.56994 17.0979 4.57082C17.102 4.57169 17.112 4.57435 17.128 4.58283C18.6401 5.38174 20.3507 6.69009 21.0809 8.3939C21.3342 8.98496 21.168 9.72954 20.3659 10.6881C19.5834 11.6233 18.3808 12.5176 17.2025 13.2246C17.1679 13.2454 17.1481 13.2462 17.1395 13.246C17.1276 13.2458 17.1094 13.2421 17.0875 13.2288C17.0444 13.2025 17 13.1466 17 13.0513C17 12.007 16.2167 10.9055 14.9404 10.9215C12.3617 10.9537 9.86944 12.358 7.86346 13.9658C7.14991 14.5377 6.47977 15.15 5.86844 15.7634C6.28589 14.5209 6.85513 13.2289 7.60208 12.0307C9.1924 9.47951 11.5247 7.44145 14.8557 7.06349C15.9756 6.93642 17 6.01821 17 4.7434Z" fill="currentColor"/>
</svg>
