<svg width="24" height="24" viewBox="0 0 24 24" fill="none" xmlns="http://www.w3.org/2000/svg">
<path fill-rule="evenodd" clip-rule="evenodd" d="M17 14C17 17.866 13.866 21 10 21C9.40061 21 8.81881 20.9247 8.26356 20.7829L3.9044 20.2381C3.411 20.1764 3.06809 19.7164 3.14984 19.226L3.41653 17.6258C3.43044 17.5424 3.43217 17.4574 3.42168 17.3734L3.21705 15.7364C3.07534 15.1812 3 14.5994 3 14C3 10.134 6.13401 7 10 7C13.866 7 17 10.134 17 14ZM6 15C5.44772 15 5 14.5523 5 14C5 13.4477 5.44772 13 6 13C6.55228 13 7 13.4477 7 14C7 14.5523 6.55228 15 6 15ZM9 14C9 14.5523 9.44772 15 10 15C10.5523 15 11 14.5523 11 14C11 13.4477 10.5523 13 10 13C9.44772 13 9 13.4477 9 14ZM14 15C13.4477 15 13 14.5523 13 14C13 13.4477 13.4477 13 14 13C14.5523 13 15 13.4477 15 14C15 14.5523 14.5523 15 14 15Z" fill="currentColor"/>
<path fill-rule="evenodd" clip-rule="evenodd" d="M21 8C21 5.23858 18.7614 3 16 3C14.0889 3 12.4282 4.07219 11.5867 5.64786C15.1037 6.31196 17.8551 9.14255 18.4011 12.6999L20.354 12.4558C20.7064 12.4117 20.9513 12.0832 20.8929 11.7328L20.7025 10.5899C20.6925 10.5303 20.6913 10.4695 20.6988 10.4096L20.8449 9.24031C20.9462 8.84371 21 8.42814 21 8Z" fill="currentColor"/>
</svg>
