<svg width="24" height="24" viewBox="0 0 24 24" fill="none" xmlns="http://www.w3.org/2000/svg">
<path fill-rule="evenodd" clip-rule="evenodd" d="M4.65848 19.1663L4.46149 18.1254C4.25702 17.0449 4.82389 15.9249 5.83549 15.4107L5.91989 15.3678C6.46623 15.0901 6.88711 14.6069 7.08502 14.0303C7.31975 13.3465 7.86523 12.801 8.5491 12.5663L9.78342 12.1426C10.2202 11.9927 10.6203 11.7423 10.9503 11.4122L12.2976 10.065C12.8133 9.54929 13.0457 8.82082 12.915 8.1302C12.5288 6.08926 14.0399 4.07639 16.1362 3.83932L16.6109 3.78564C19.1166 3.50228 21.1131 5.60919 20.703 8.10392L20.631 8.54176C20.3063 10.5168 18.4357 11.9265 16.4816 11.6688C15.8114 11.5804 15.1223 11.8207 14.6278 12.3153L7.11247 19.8306C6.52397 20.4191 5.59447 20.4437 5.03638 19.8856C4.84173 19.691 4.71051 19.4412 4.65848 19.1663ZM17.5564 6.94977C17.9469 7.34029 17.9469 7.97345 17.5564 8.36398C17.1659 8.7545 16.5327 8.7545 16.1422 8.36398C15.7517 7.97345 15.7517 7.34029 16.1422 6.94977C16.5327 6.55924 17.1659 6.55924 17.5564 6.94977Z" fill="currentColor"/>
</svg>
