<svg width="24" height="24" viewBox="0 0 24 24" fill="none" xmlns="http://www.w3.org/2000/svg">
<path d="M10.7665 10.7726C11.2547 10.2844 11.2547 9.49294 10.7665 9.00479C10.2784 8.51663 9.4869 8.51663 8.99874 9.00479C8.51059 9.49294 8.51059 10.2844 8.99874 10.7726C9.4869 11.2607 10.2784 11.2607 10.7665 10.7726Z" fill="currentColor"/>
<path d="M15.0092 13.2475C15.4973 13.7356 15.4973 14.5271 15.0092 15.0152C14.521 15.5034 13.7296 15.5034 13.2414 15.0152C12.7533 14.5271 12.7533 13.7356 13.2414 13.2475C13.7296 12.7593 14.521 12.7593 15.0092 13.2475Z" fill="currentColor"/>
<path d="M9.17191 13.4142C8.78139 13.8048 8.78139 14.4379 9.17191 14.8284C9.56244 15.219 10.1956 15.219 10.5861 14.8284L14.8288 10.5858C15.2193 10.1953 15.2193 9.56211 14.8288 9.17159C14.4382 8.78107 13.8051 8.78107 13.4146 9.17159L9.17191 13.4142Z" fill="currentColor"/>
<path fill-rule="evenodd" clip-rule="evenodd" d="M14.5022 2.0289C13.1072 0.679453 10.8935 0.679453 9.49855 2.0289C9.14425 2.37165 8.6516 2.53172 8.1635 2.46268C6.2418 2.19087 4.45081 3.4921 4.11549 5.40374C4.03031 5.88928 3.72584 6.30835 3.29038 6.5394C1.57593 7.44904 0.891831 9.55447 1.74418 11.2981C1.96067 11.741 1.96067 12.259 1.74418 12.7019C0.891831 14.4455 1.57593 16.551 3.29038 17.4606C3.72584 17.6916 4.03031 18.1107 4.11549 18.5963C4.45081 20.5079 6.2418 21.8091 8.1635 21.5373C8.6516 21.4683 9.14425 21.6283 9.49855 21.9711C10.8935 23.3205 13.1072 23.3205 14.5022 21.9711C14.8565 21.6283 15.3491 21.4683 15.8372 21.5373C17.7589 21.8091 19.5499 20.5079 19.8852 18.5963C19.9704 18.1107 20.2749 17.6916 20.7103 17.4606C22.4248 16.551 23.1089 14.4455 22.2565 12.7019C22.04 12.259 22.04 11.741 22.2565 11.2981C23.1089 9.55447 22.4248 7.44904 20.7103 6.5394C20.2749 6.30835 19.9704 5.88928 19.8852 5.40374C19.5499 3.4921 17.7589 2.19087 15.8372 2.46268C15.3491 2.53172 14.8565 2.37165 14.5022 2.0289ZM10.8891 3.46635C11.5087 2.86697 12.492 2.86697 13.1116 3.46635C13.9093 4.23802 15.0184 4.59841 16.1173 4.44297C16.9709 4.32224 17.7664 4.9002 17.9153 5.74929C18.1071 6.84245 18.7926 7.78595 19.773 8.30612C20.5345 8.71016 20.8383 9.64532 20.4597 10.4198C19.9723 11.4169 19.9723 12.5831 20.4597 13.5802C20.8383 14.3547 20.5345 15.2898 19.773 15.6939C18.7926 16.2141 18.1071 17.1576 17.9153 18.2507C17.7664 19.0998 16.9709 19.6778 16.1173 19.557C15.0184 19.4016 13.9093 19.762 13.1116 20.5336C12.492 21.133 11.5087 21.133 10.8891 20.5336C10.0915 19.762 8.98231 19.4016 7.8834 19.557C7.02985 19.6778 6.23435 19.0998 6.08541 18.2507C5.89365 17.1576 5.20816 16.2141 4.22776 15.6939C3.46626 15.2898 3.1624 14.3547 3.54099 13.5802C4.0284 12.5831 4.0284 11.4169 3.54099 10.4198C3.1624 9.64532 3.46626 8.71016 4.22776 8.30612C5.20816 7.78595 5.89365 6.84245 6.08541 5.74929C6.23435 4.9002 7.02985 4.32224 7.8834 4.44297C8.98231 4.59841 10.0915 4.23802 10.8891 3.46635Z" fill="currentColor"/>
</svg>
