<svg width="24" height="24" viewBox="0 0 24 24" fill="none" xmlns="http://www.w3.org/2000/svg">
<path d="M17.2242 2.36899C17.5727 1.94053 18.2025 1.87569 18.631 2.22417L21.631 4.66417C21.8524 4.84425 21.9863 5.11034 21.999 5.39545C22.0117 5.68056 21.902 5.95751 21.6975 6.15657L18.6975 9.07657C18.3017 9.46178 17.6686 9.45322 17.2834 9.05746C16.8982 8.66169 16.9067 8.02859 17.3025 7.64337L18.5389 6.43997H9.56C6.4893 6.43997 4 8.92927 4 12C4 12.5523 3.55228 13 3 13C2.44772 13 2 12.5523 2 12C2 7.8247 5.38473 4.43997 9.56 4.43997H18.1857L17.369 3.77577C16.9406 3.42729 16.8757 2.79745 17.2242 2.36899Z" fill="currentColor"/>
<path d="M6.7758 21.631C6.42732 22.0594 5.79748 22.1243 5.36902 21.7758L2.36902 19.3358C2.14762 19.1557 2.0137 18.8896 2.00099 18.6045C1.98829 18.3194 2.09801 18.0424 2.30252 17.8434L5.30251 14.9234C5.69828 14.5382 6.33138 14.5467 6.7166 14.9425C7.10181 15.3382 7.09325 15.9714 6.69749 16.3566L5.46111 17.56H14.44C17.5107 17.56 20 15.0707 20 12C20 11.4477 20.4477 11 21 11C21.5523 11 22 11.4477 22 12C22 16.1752 18.6153 19.56 14.44 19.56H5.81434L6.63098 20.2242C7.05944 20.5727 7.12428 21.2025 6.7758 21.631Z" fill="currentColor"/>
<path d="M12.7536 9.8477C12.7536 9.2289 12.2519 8.72727 11.6331 8.72727C11.4209 8.72727 11.2131 8.78753 11.0338 8.90105L9.77681 9.69687C9.60933 9.80291 9.50781 9.98733 9.50781 10.1856C9.50781 10.6402 10.0082 11.1171 10.3934 10.8756L10.8935 10.5659C10.9407 10.5367 11.0702 10.4758 11.1221 10.456C11.1693 10.438 11.2159 10.4744 11.2159 10.5251V15.2312C11.2159 15.6558 11.5601 16 11.9847 16C12.4093 16 12.7536 15.6558 12.7536 15.2312V9.8477Z" fill="currentColor"/>
</svg>
