<svg width="24" height="24" viewBox="0 0 24 24" fill="none" xmlns="http://www.w3.org/2000/svg">
<path fill-rule="evenodd" clip-rule="evenodd" d="M13.8065 2.74763C12.7993 1.77321 11.2007 1.77321 10.1935 2.74763C9.61749 3.30484 8.8166 3.56507 8.02309 3.45283C6.63546 3.25656 5.34222 4.19615 5.10009 5.57651C4.96162 6.36587 4.46664 7.04715 3.75871 7.42276C2.52073 8.0796 2.02676 9.5999 2.64222 10.859C2.99417 11.5789 2.99417 12.4211 2.64222 13.141C2.02676 14.4001 2.52073 15.9204 3.75871 16.5772C4.46664 16.9528 4.96162 17.6341 5.10009 18.4235C5.34222 19.8038 6.63546 20.7434 8.02309 20.5472C8.8166 20.4349 9.61749 20.6952 10.1935 21.2524C11.2007 22.2268 12.7993 22.2268 13.8065 21.2524C14.3825 20.6952 15.1834 20.4349 15.9769 20.5472C17.3645 20.7434 18.6578 19.8038 18.8999 18.4235C19.0384 17.6341 19.5334 16.9528 20.2413 16.5772C21.4793 15.9204 21.9732 14.4001 21.3578 13.141C21.0058 12.4211 21.0058 11.5789 21.3578 10.859C21.9732 9.5999 21.4793 8.0796 20.2413 7.42276C19.5334 7.04715 19.0384 6.36587 18.8999 5.57651C18.6578 4.19615 17.3645 3.25656 15.9769 3.45283C15.1834 3.56507 14.3825 3.30484 13.8065 2.74763ZM10.7661 10.7726C11.2543 10.2844 11.2543 9.49294 10.7661 9.00479C10.278 8.51663 9.48654 8.51663 8.99838 9.00479C8.51023 9.49294 8.51023 10.2844 8.99838 10.7726C9.48654 11.2607 10.278 11.2607 10.7661 10.7726ZM15.0088 13.2475C15.497 13.7356 15.497 14.5271 15.0088 15.0152C14.5207 15.5034 13.7292 15.5034 13.2411 15.0152C12.7529 14.5271 12.7529 13.7356 13.2411 13.2475C13.7292 12.7593 14.5207 12.7593 15.0088 13.2475ZM9.17155 13.4142C8.78103 13.8048 8.78103 14.4379 9.17155 14.8284C9.56208 15.219 10.1952 15.219 10.5858 14.8284L14.8284 10.5858C15.2189 10.1953 15.2189 9.56211 14.8284 9.17159C14.4379 8.78107 13.8047 8.78107 13.4142 9.17159L9.17155 13.4142Z" fill="currentColor"/>
</svg>
