<svg width="24" height="24" viewBox="0 0 24 24" fill="none" xmlns="http://www.w3.org/2000/svg">
<path fill-rule="evenodd" clip-rule="evenodd" d="M12.7726 2.54689C12.2976 2.26188 11.7041 2.26188 11.2291 2.54689L2.20091 7.96379C1.2299 8.5464 1.2299 9.95367 2.20091 10.5363L4.00083 11.6162V18.0158C4.00083 18.4537 4.19382 18.9004 4.58461 19.193C5.3458 19.7629 8.25205 21.75 12.0008 21.75C15.7496 21.75 18.6559 19.7629 19.4171 19.193C19.8078 18.9004 20.0008 18.4537 20.0008 18.0158V11.6162L21.8008 10.5363C22.7718 9.95367 22.7718 8.5464 21.8008 7.96379L12.7726 2.54689ZM3.94448 9.25003L12.0008 4.41622L20.0572 9.25003L16.6953 11.2672L13.0821 8.6863C12.6327 8.36529 12.0081 8.46938 11.6871 8.9188C11.3661 9.36821 11.4702 9.99276 11.9196 10.3138L14.8252 12.3892L12.0008 14.0838L3.94448 9.25003ZM15.0008 14.6162L12.7726 15.9532C12.2976 16.2382 11.7041 16.2382 11.2291 15.9532L6.00083 12.8162V17.7491C6.88349 18.3662 9.18516 19.75 12.0008 19.75C14.8165 19.75 17.1182 18.3662 18.0008 17.7491V12.8162L17.0008 13.4162V16C17.0008 16.5523 16.5531 17 16.0008 17C15.4485 17 15.0008 16.5523 15.0008 16V14.6162Z" fill="currentColor"/>
</svg>
