<svg width="24" height="24" viewBox="0 0 24 24" fill="none" xmlns="http://www.w3.org/2000/svg">
<path fill-rule="evenodd" clip-rule="evenodd" d="M5.89508 2C4.87598 2 4.01985 2.76627 3.90731 3.77914L3.12954 10.7791C2.9979 11.9639 3.92528 13 5.1173 13H11V20H8.00004C7.44775 20 7.00004 20.4477 7.00004 21C7.00004 21.5523 7.44775 22 8.00004 22H16C16.5523 22 17 21.5523 17 21C17 20.4477 16.5523 20 16 20H13V13H18.8828C20.0748 13 21.0022 11.9639 20.8705 10.7791L20.0928 3.77914C19.9802 2.76627 19.1241 2 18.105 2H5.89508ZM5.1173 11L5.89508 4H18.105L18.8828 11H5.1173Z" fill="currentColor"/>
</svg>
