<svg width="24" height="24" viewBox="0 0 24 24" fill="none" xmlns="http://www.w3.org/2000/svg">
<path fill-rule="evenodd" clip-rule="evenodd" d="M18.5166 11.1781L12.4121 12.9223C12.1428 12.9992 11.8573 12.9992 11.588 12.9223L5.48347 11.1781C4.42582 10.8759 4.04234 9.57589 4.76668 8.74808L10.8712 1.77152C11.4688 1.08853 12.5313 1.08853 13.1289 1.77152L19.2334 8.74808C19.9577 9.57589 19.5742 10.8759 18.5166 11.1781ZM6.79106 9.47169L12 10.96L17.209 9.47169L12 3.51857L6.79106 9.47169Z" fill="currentColor"/>
<path fill-rule="evenodd" clip-rule="evenodd" d="M13.2076 22.0469C12.6081 22.8605 11.3919 22.8605 10.7925 22.0469L5.06449 14.2732C4.21566 13.1213 5.30827 11.548 6.68415 11.9411L12 13.46L17.3159 11.9411C18.6918 11.548 19.7844 13.1212 18.9356 14.2732L13.2076 22.0469ZM7.54411 14.2669L12 20.3142L16.456 14.2669L12.4121 15.4223C12.1428 15.4992 11.8573 15.4992 11.588 15.4223L7.54411 14.2669Z" fill="currentColor"/>
</svg>
