<svg width="24" height="24" viewBox="0 0 24 24" fill="none" xmlns="http://www.w3.org/2000/svg">
<path d="M16 14.0001C16 14.5523 15.5523 15.0001 15 15.0001H14C13.4477 15.0001 13 14.5523 13 14.0001C13 13.4478 13.4477 13.0001 14 13.0001H15C15.5523 13.0001 16 13.4478 16 14.0001Z" fill="currentColor"/>
<path d="M15 12.0001C15.5523 12.0001 16 11.5523 16 11.0001C16 10.4478 15.5523 10.0001 15 10.0001H14C13.4477 10.0001 13 10.4478 13 11.0001C13 11.5523 13.4477 12.0001 14 12.0001H15Z" fill="currentColor"/>
<path d="M11 14.0001C11 14.5523 10.5523 15.0001 10 15.0001H9C8.44772 15.0001 8 14.5523 8 14.0001C8 13.4478 8.44772 13.0001 9 13.0001H10C10.5523 13.0001 11 13.4478 11 14.0001Z" fill="currentColor"/>
<path d="M10 12.0001C10.5523 12.0001 11 11.5523 11 11.0001C11 10.4478 10.5523 10.0001 10 10.0001H9C8.44772 10.0001 8 10.4478 8 11.0001C8 11.5523 8.44772 12.0001 9 12.0001H10Z" fill="currentColor"/>
<path fill-rule="evenodd" clip-rule="evenodd" d="M13.1094 4.5378C12.4376 4.08994 11.5624 4.08994 10.8906 4.5378L5.8906 7.87114C5.3342 8.24207 5 8.86653 5 9.53524V19.0001H4C3.44772 19.0001 3 19.4478 3 20.0001C3 20.5523 3.44772 21.0001 4 21.0001H20C20.5523 21.0001 21 20.5523 21 20.0001C21 19.4478 20.5523 19.0001 20 19.0001H19V9.53524C19 8.86653 18.6658 8.24207 18.1094 7.87114L13.1094 4.5378ZM13 19.0001V17.0001C13 16.4478 12.5523 16.0001 12 16.0001C11.4477 16.0001 11 16.4478 11 17.0001V19.0001H7V9.53524L12 6.2019L17 9.53524V19.0001H13Z" fill="currentColor"/>
</svg>
