<svg width="24" height="24" viewBox="0 0 24 24" fill="none" xmlns="http://www.w3.org/2000/svg">
<path fill-rule="evenodd" clip-rule="evenodd" d="M13.8065 2.74766C12.7992 1.77324 11.2007 1.77324 10.1935 2.74766C9.61748 3.30487 8.81658 3.5651 8.02307 3.45286C6.63545 3.25659 5.34221 4.19618 5.10007 5.57654C4.96161 6.3659 4.46663 7.04718 3.7587 7.42279C2.52072 8.07963 2.02674 9.59993 2.64221 10.859C2.99416 11.579 2.99416 12.4211 2.64221 13.1411C2.02674 14.4001 2.52072 15.9204 3.7587 16.5773C4.46663 16.9529 4.96161 17.6342 5.10007 18.4235C5.34221 19.8039 6.63545 20.7435 8.02308 20.5472C8.81658 20.435 9.61748 20.6952 10.1935 21.2524C11.2007 22.2268 12.7992 22.2268 13.8065 21.2524C14.3825 20.6952 15.1834 20.435 15.9769 20.5472C17.3645 20.7435 18.6578 19.8039 18.8999 18.4235C19.0384 17.6342 19.5333 16.9529 20.2413 16.5773C21.4792 15.9204 21.9732 14.4001 21.3578 13.1411C21.0058 12.4211 21.0058 11.579 21.3578 10.859C21.9732 9.59993 21.4792 8.07963 20.2413 7.42279C19.5333 7.04718 19.0384 6.3659 18.8999 5.57654C18.6578 4.19618 17.3645 3.25659 15.9769 3.45286C15.1834 3.5651 14.3825 3.30487 13.8065 2.74766ZM12 17C14.7614 17 17 14.7615 17 12C17 9.23861 14.7614 7.00003 12 7.00003C9.23856 7.00003 6.99998 9.23861 6.99998 12C6.99998 14.7615 9.23856 17 12 17Z" fill="currentColor"/>
</svg>
