<svg width="24" height="24" viewBox="0 0 24 24" fill="none" xmlns="http://www.w3.org/2000/svg">
<path fill-rule="evenodd" clip-rule="evenodd" d="M3.34127 7.28998C2.02519 8.04982 2.00391 9.94192 3.30257 10.7312L3.89631 11.092C4.1833 11.2664 4.42175 11.5103 4.58967 11.8011L8.82419 19.1355C9.92876 21.0487 12.3751 21.7042 14.2883 20.5996L19.9058 17.3564C21.8189 16.2518 22.4744 13.8054 21.3699 11.8923L15.8699 2.366C15.3176 1.40941 14.0944 1.08166 13.1378 1.63394L3.34127 7.28998ZM4.34126 9.02203L14.1378 3.366L19.6378 12.8923C20.1901 13.8489 19.8623 15.072 18.9058 15.6243L13.2883 18.8676C12.3317 19.4199 11.1085 19.0921 10.5562 18.1355L6.32172 10.8011C5.98588 10.2194 5.50898 9.73169 4.935 9.38286L4.34126 9.02203Z" fill="currentColor"/>
<path fill-rule="evenodd" clip-rule="evenodd" d="M5.69204 16.4151C5.96885 17.2455 5.75272 18.1611 5.13375 18.78C4.23123 19.6825 2.76795 19.6825 1.86543 18.78C1.24646 18.1611 1.03032 17.2455 1.30713 16.4151L2.07656 14.1068C2.53241 12.7392 4.46676 12.7392 4.92261 14.1068L5.69204 16.4151ZM3.2045 17.0475L3.49959 16.1622L3.79467 17.0475C3.83193 17.1593 3.80284 17.2825 3.71953 17.3658C3.59806 17.4873 3.40112 17.4873 3.27964 17.3658C3.19633 17.2825 3.16724 17.1593 3.2045 17.0475Z" fill="currentColor"/>
</svg>
