<svg width="24" height="24" viewBox="0 0 24 24" fill="none" xmlns="http://www.w3.org/2000/svg">
<path d="M16.2423 4.92893C17.0234 4.14788 18.2897 4.14788 19.0708 4.92893C19.8518 5.70997 19.8518 6.9763 19.0708 7.75735L15.5352 11.2929C15.1447 11.6834 14.5115 11.6834 14.121 11.2929L12.7068 9.87867C12.3163 9.48815 12.3163 8.85498 12.7068 8.46446L16.2423 4.92893Z" fill="currentColor"/>
<path d="M14.121 11.2929L12.7068 9.87867L4.92864 17.6568C4.53811 18.0474 4.53811 18.6805 4.92864 19.0711C5.31916 19.4616 5.95232 19.4616 6.34285 19.0711L14.121 11.2929Z" fill="currentColor"/>
<path d="M14.121 11.2929C14.5115 11.6834 15.1447 11.6834 15.5352 11.2929L19.0708 7.75735C19.8518 6.9763 19.8518 5.70997 19.0708 4.92893C18.2897 4.14788 17.0234 4.14788 16.2423 4.92893L12.7068 8.46446C12.3163 8.85498 12.3163 9.48815 12.7068 9.87867M14.121 11.2929L12.7068 9.87867M14.121 11.2929L15.5352 12.7071M14.121 11.2929L6.34285 19.0711C5.95232 19.4616 5.31916 19.4616 4.92864 19.0711C4.53811 18.6805 4.53811 18.0474 4.92864 17.6568L12.7068 9.87867M12.7068 9.87867L11.2926 8.46446" stroke="currentColor" stroke-width="2" stroke-linecap="round" stroke-linejoin="round"/>
</svg>
