<svg width="24" height="24" viewBox="0 0 24 24" fill="none" xmlns="http://www.w3.org/2000/svg">
<path d="M12.7076 4.22191C14.6602 2.26929 17.826 2.26929 19.7786 4.22191C21.7312 6.17453 21.7312 9.34036 19.7786 11.293L16.9502 14.1214C16.5597 14.5119 15.9265 14.5119 15.536 14.1214C15.1455 13.7309 15.1455 13.0977 15.536 12.7072L18.3644 9.87877C19.536 8.70719 19.536 6.8077 18.3644 5.63613C17.1928 4.46455 15.2933 4.46455 14.1218 5.63613L11.2933 8.46455C10.9028 8.85508 10.2697 8.85508 9.87913 8.46455C9.48861 8.07403 9.48861 7.44086 9.87913 7.05034L12.7076 4.22191Z" fill="currentColor"/>
<path d="M8.46492 9.87877C8.85544 10.2693 8.85544 10.9025 8.46492 11.293L5.63649 14.1214C4.46492 15.293 4.46492 17.1925 5.63649 18.364C6.80806 19.5356 8.70756 19.5356 9.87913 18.364L12.7076 15.5356C13.0981 15.1451 13.7312 15.1451 14.1218 15.5356C14.5123 15.9261 14.5123 16.5593 14.1218 16.9498L11.2933 19.7783C9.34072 21.7309 6.1749 21.7309 4.22228 19.7783C2.26966 17.8256 2.26966 14.6598 4.22228 12.7072L7.05071 9.87877C7.44123 9.48824 8.07439 9.48824 8.46492 9.87877Z" fill="currentColor"/>
<path d="M19.3644 15.5355C19.3644 16.0878 18.9167 16.5355 18.3644 16.5355H16.9502C16.6763 16.5355 16.4281 16.4254 16.2475 16.247C16.4259 16.4276 16.536 16.6757 16.536 16.9496V18.3639C16.536 18.9161 16.0883 19.3639 15.536 19.3639C14.9837 19.3639 14.536 18.9161 14.536 18.3639V16.9496C14.536 16.3974 14.9837 15.9496 15.536 15.9496C15.8099 15.9496 16.0581 16.0598 16.2387 16.2381C16.0603 16.0575 15.9502 15.8094 15.9502 15.5355C15.9502 14.9832 16.3979 14.5355 16.9502 14.5355H18.3644C18.9167 14.5355 19.3644 14.9832 19.3644 15.5355Z" fill="currentColor"/>
<path d="M8.46494 4.63616C7.91266 4.63616 7.46494 5.08388 7.46494 5.63616V7.05037C7.46494 7.32428 7.57506 7.57246 7.75345 7.75306C7.57284 7.57466 7.32464 7.46453 7.05072 7.46453H5.63651C5.08423 7.46453 4.63651 7.91225 4.63651 8.46453C4.63651 9.01682 5.08423 9.46453 5.63651 9.46453H7.05072C7.60301 9.46453 8.05072 9.01682 8.05072 8.46453C8.05072 8.19063 7.9406 7.94244 7.76222 7.76184C7.94283 7.94024 8.19102 8.05037 8.46494 8.05037C9.01723 8.05037 9.46494 7.60266 9.46494 7.05037V5.63616C9.46494 5.08388 9.01723 4.63616 8.46494 4.63616Z" fill="currentColor"/>
</svg>
