<svg width="24" height="24" viewBox="0 0 24 24" fill="none" xmlns="http://www.w3.org/2000/svg">
<path fill-rule="evenodd" clip-rule="evenodd" d="M16 3.86854C16 2.27115 14.2197 1.31836 12.8906 2.20444L9.01149 4.79051C8.76301 4.95616 8.48058 5.06407 8.18494 5.1063L4.43431 5.64211C2.46372 5.92362 1 7.6113 1 9.60191V14.3981C1 16.3887 2.46372 18.0764 4.43431 18.3579L8.18494 18.8937C8.48058 18.936 8.76301 19.0439 9.01149 19.2095L12.8906 21.7956C14.2197 22.6817 16 21.7289 16 20.1315V3.86854ZM10.1209 6.45461L14 3.86854L14 20.1315L10.1209 17.5454C9.62392 17.2141 9.05906 16.9983 8.46778 16.9138L4.71715 16.378C3.73186 16.2373 3 15.3934 3 14.3981V9.60191C3 8.60661 3.73186 7.76276 4.71716 7.62201L8.46778 7.0862C9.05906 7.00173 9.62392 6.78592 10.1209 6.45461Z" fill="currentColor"/>
<path d="M21.2426 11.8284L21.9497 11.1213C22.3402 10.7308 22.3402 10.0977 21.9497 9.70713C21.5592 9.3166 20.926 9.3166 20.5355 9.70713L19.8284 10.4142L19.1213 9.70713C18.7307 9.3166 18.0976 9.3166 17.707 9.70713C17.3165 10.0977 17.3165 10.7308 17.707 11.1213L18.4142 11.8284L17.707 12.5356C17.3165 12.9261 17.3165 13.5592 17.707 13.9498C18.0976 14.3403 18.7307 14.3403 19.1213 13.9498L19.8284 13.2427L20.5355 13.9498C20.926 14.3403 21.5592 14.3403 21.9497 13.9498C22.3402 13.5592 22.3402 12.9261 21.9497 12.5356L21.2426 11.8284Z" fill="currentColor"/>
</svg>
