<svg width="24" height="24" viewBox="0 0 24 24" fill="none" xmlns="http://www.w3.org/2000/svg">
<path d="M13 12C13 11.4477 12.5523 11 12 11C11.4477 11 11 11.4477 11 12C11 12.5523 11.4477 13 12 13C12.5523 13 13 12.5523 13 12Z" fill="cur"/>
<path fill-rule="evenodd" clip-rule="evenodd" d="M22 9.19281V17.1812C22 18.7656 20.7683 20.0749 19.1846 20.1232C18.2355 20.1521 17.1291 20.1735 16 20.1687C15.1991 20.1653 13.0429 19.6448 11.1375 19.1849C9.75557 18.8513 8.50551 18.5496 8 18.5C6.75176 18.3776 5.69465 18.2827 4.83209 18.2102C3.24452 18.0766 2 16.7528 2 15.1596V7.16862C2 5.44736 3.44386 4.09073 5.15881 4.23793C5.95728 4.30647 6.90511 4.39266 8 4.5C8.50551 4.54956 9.75556 4.8513 11.1375 5.18488C13.0429 5.64483 15.1991 6.16529 16 6.16868C16.9837 6.17284 17.9503 6.15719 18.8106 6.13394C20.5403 6.08719 22 7.46255 22 9.19281ZM5.09106 6.41665C4.54088 6.36851 4.05585 6.7755 4.00771 7.32568C3.95958 7.87587 4.36657 8.3609 4.91675 8.40904L6.90914 8.58335C7.45932 8.63148 7.94436 8.22449 7.99249 7.67431C8.04063 7.12412 7.63363 6.63909 7.08345 6.59096L5.09106 6.41665ZM16.0077 8.32569C16.0558 7.7755 16.5409 7.36851 17.0911 7.41665L19.0835 7.59096C19.6336 7.63909 20.0406 8.12413 19.9925 8.67431C19.9444 9.22449 19.4593 9.63148 18.9091 9.58335L16.9168 9.40904C16.3666 9.3609 15.9596 8.87587 16.0077 8.32569ZM5.09106 15.0038C4.54088 14.9557 4.05585 15.3627 4.00771 15.9128C3.95958 16.463 4.36657 16.9481 4.91675 16.9962L6.90914 17.1705C7.45932 17.2186 7.94436 16.8116 7.99249 16.2615C8.04063 15.7113 7.63363 15.2263 7.08345 15.1781L5.09106 15.0038ZM16.0077 17.3257C16.0558 16.7755 16.5409 16.3685 17.0911 16.4166L19.0835 16.591C19.6336 16.6391 20.0406 17.1241 19.9925 17.6743C19.9444 18.2245 19.4593 18.6315 18.9091 18.5833L16.9168 18.409C16.3666 18.3609 15.9596 17.8759 16.0077 17.3257ZM12 9C13.6569 9 15 10.3431 15 12C15 13.6569 13.6569 15 12 15C10.3431 15 9 13.6569 9 12C9 10.3431 10.3431 9 12 9Z" fill="currentColor"/>
</svg>
