<svg width="24" height="24" viewBox="0 0 24 24" fill="none" xmlns="http://www.w3.org/2000/svg">
<path d="M4.92556 3.51467L4.39002 4.0502C3.82741 4.61281 3.51397 5.37923 3.6999 6.15285C4.09723 7.80613 5.33186 10.992 9.1682 14.8284C13.0045 18.6647 16.1904 19.8993 17.8437 20.2967C18.6173 20.4826 19.3838 20.1692 19.9464 19.6066L20.4819 19.071C21.6535 17.8994 21.6535 15.9999 20.4819 14.8284L19.553 13.8995C18.5981 12.9446 17.1228 12.7454 15.9488 13.4129L15.8523 13.4678C14.9117 14.0027 13.7478 14.0001 12.8713 13.3658C12.4346 13.0497 11.9823 12.6927 11.6431 12.3535C11.3039 12.0143 10.9468 11.5619 10.6308 11.1252C9.99645 10.2487 9.99391 9.08485 10.5287 8.1443L10.5836 8.04777C11.2512 6.8738 11.052 5.39849 10.0971 4.44354L9.1682 3.51466C7.99662 2.34309 6.09713 2.34309 4.92556 3.51467Z" fill="currentColor"/>
<path d="M16.2929 4.87859C15.9024 4.48806 15.2692 4.48806 14.8787 4.87859C14.4882 5.26911 14.4882 5.90228 14.8787 6.2928L15.5858 6.99991L14.8787 7.70701C14.4882 8.09754 14.4882 8.7307 14.8787 9.12123C15.2692 9.51175 15.9024 9.51175 16.2929 9.12123L17 8.41412L17.7071 9.12123C18.0977 9.51175 18.7308 9.51175 19.1214 9.12123C19.5119 8.7307 19.5119 8.09754 19.1214 7.70701L18.4142 6.99991L19.1214 6.2928C19.5119 5.90228 19.5119 5.26911 19.1214 4.87859C18.7308 4.48806 18.0977 4.48806 17.7071 4.87859L17 5.58569L16.2929 4.87859Z" fill="currentColor"/>
</svg>
