<svg width="24" height="24" viewBox="0 0 24 24" fill="none" xmlns="http://www.w3.org/2000/svg">
<path d="M21.209 3.20358C20.2644 6.56917 15.2063 12.4489 12.1607 15.6412C11.0171 14.3586 9.52508 12.796 7.9841 11.4279C11.2987 8.40286 17.3106 3.44523 20.3878 2.4129C20.9114 2.23724 21.3583 2.67185 21.209 3.20358Z" fill="currentColor"/>
<path d="M7.73167 19.8043C8.67639 19.208 9.75892 18.5248 10.9271 17.8889C11.3811 17.6418 11.5118 17.0438 11.1754 16.6514C10.0955 15.3919 8.32758 13.4917 6.60429 12.111C6.33193 11.8928 5.95882 11.8427 5.64174 11.9885C3.08878 13.1624 3.25482 14.5107 3.78119 18.7852C3.86161 19.4383 3.95044 20.1596 4.03926 20.959C4.16134 22.0578 5.59359 21.1538 7.73167 19.8043Z" fill="currentColor"/>
</svg>
