<svg width="24" height="24" viewBox="0 0 24 24" fill="none" xmlns="http://www.w3.org/2000/svg">
<path d="M4.39002 4.0502L4.92556 3.51467C6.09713 2.34309 7.99662 2.34309 9.1682 3.51466L10.0971 4.44354C11.052 5.39849 11.2512 6.8738 10.5836 8.04777L10.5287 8.1443C9.99391 9.08485 9.99645 10.2487 10.6308 11.1252C10.9468 11.5619 11.3039 12.0143 11.6431 12.3535C11.9823 12.6927 12.4346 13.0497 12.8713 13.3658C13.7478 14.0001 14.9117 14.0027 15.8523 13.4678L15.9488 13.4129C17.1228 12.7454 18.5981 12.9446 19.553 13.8995L20.4819 14.8284C21.6535 15.9999 21.6535 17.8994 20.4819 19.071L19.9464 19.6066C19.3838 20.1692 18.6173 20.4826 17.8437 20.2967C16.1904 19.8993 13.0045 18.6647 9.1682 14.8284C5.33186 10.992 4.09723 7.80613 3.6999 6.15285C3.51397 5.37923 3.82741 4.61281 4.39002 4.0502Z" fill="currentColor"/>
</svg>
