<svg width="24" height="24" viewBox="0 0 24 24" fill="none" xmlns="http://www.w3.org/2000/svg">
<path fill-rule="evenodd" clip-rule="evenodd" d="M18.2898 5.08647L16.7423 4.39999L13.1157 2.94701C12.3996 2.66008 11.6004 2.66008 10.8843 2.94701L7.25769 4.39999L5.71016 5.08647C4.68715 5.54027 3.99991 6.52445 4 7.6436C4.00017 9.61761 4.15023 12.7662 4.99378 14.85C6.0707 17.5103 8.96609 19.6495 10.679 20.7311C11.4913 21.2441 12.5087 21.2441 13.321 20.7311C15.0339 19.6495 17.9293 17.5103 19.0062 14.85C19.8498 12.7662 19.9998 9.61761 20 7.6436C20.0001 6.52445 19.3129 5.54027 18.2898 5.08647ZM13.2426 11.8284L13.9497 11.1213C14.3402 10.7308 14.3402 10.0976 13.9497 9.7071C13.5592 9.31657 12.926 9.31657 12.5355 9.7071L11.8284 10.4142L11.1213 9.7071C10.7307 9.31657 10.0976 9.31657 9.70705 9.7071C9.31652 10.0976 9.31652 10.7308 9.70705 11.1213L10.4142 11.8284L9.70705 12.5355C9.31652 12.926 9.31652 13.5592 9.70705 13.9497C10.0976 14.3403 10.7307 14.3403 11.1213 13.9497L11.8284 13.2426L12.5355 13.9497C12.926 14.3403 13.5592 14.3403 13.9497 13.9497C14.3402 13.5592 14.3402 12.926 13.9497 12.5355L13.2426 11.8284Z" fill="currentColor"/>
</svg>
