<svg width="24" height="24" viewBox="0 0 24 24" fill="none" xmlns="http://www.w3.org/2000/svg">
<path d="M10.5858 1.10059C10.0335 1.10059 9.58578 1.5483 9.58578 2.10059C9.58578 2.65287 10.0335 3.10059 10.5858 3.10059H12.4142L1.39339 14.1214C1.00286 14.5119 1.00286 15.1451 1.39339 15.5356C1.78391 15.9261 2.41708 15.9261 2.8076 15.5356L13.8284 4.5148V6.34323C13.8284 6.89551 14.2761 7.34323 14.8284 7.34323C15.3807 7.34323 15.8284 6.89551 15.8284 6.34323V2.10059C15.8284 1.5483 15.3807 1.10059 14.8284 1.10059H10.5858Z" fill="currentColor"/>
<path d="M22.6066 9.87886C22.9971 9.48834 22.9971 8.85517 22.6066 8.46465C22.2161 8.07412 21.5829 8.07412 21.1924 8.46465L10.1716 19.4855V17.657C10.1716 17.1047 9.72386 16.657 9.17157 16.657C8.61929 16.657 8.17157 17.1047 8.17157 17.657V21.8997C8.17157 22.452 8.61929 22.8997 9.17157 22.8997H13.4142C13.9665 22.8997 14.4142 22.452 14.4142 21.8997C14.4142 21.3474 13.9665 20.8997 13.4142 20.8997H11.5858L22.6066 9.87886Z" fill="currentColor"/>
</svg>
