<svg width="24" height="24" viewBox="0 0 24 24" fill="none" xmlns="http://www.w3.org/2000/svg">
<path d="M9.49998 1.75C9.08432 1.75 8.712 2.00713 8.56479 2.39585L8.3352 3.00213C7.84302 2.95295 7.38955 2.90387 7.02246 2.86265C6.74805 2.83184 6.52247 2.80549 6.36578 2.78687L6.18503 2.76518L6.12364 2.75768C5.57555 2.68981 5.07544 3.07901 5.00756 3.6271C4.93969 4.1752 5.32899 4.67455 5.87709 4.74242L5.94388 4.75059L6.12985 4.77291C6.2902 4.79196 6.52007 4.81881 6.79929 4.85016C7.35726 4.91281 8.11455 4.99369 8.9091 5.0662C9.98088 5.16401 11.1557 5.25 12 5.25C12.8443 5.25 14.0191 5.16401 15.0909 5.0662C15.8854 4.99369 16.6427 4.91281 17.2007 4.85016C17.4799 4.81881 17.7098 4.79196 17.8701 4.77291L18.0561 4.75059L18.1227 4.74244C18.6708 4.67456 19.0603 4.1752 18.9924 3.6271C18.9245 3.07901 18.4252 2.68972 17.8771 2.75758L17.8149 2.76518L17.6342 2.78687C17.4775 2.80549 17.2519 2.83184 16.9775 2.86265C16.6104 2.90387 16.1569 2.95295 15.6648 3.00213L15.4352 2.39585C15.288 2.00713 14.9156 1.75 14.5 1.75H9.49998Z" fill="currentColor"/>
<path d="M11 11.75C11 11.1977 10.5523 10.75 9.99998 10.75C9.4477 10.75 8.99998 11.1977 8.99998 11.75V16.75C8.99998 17.3023 9.4477 17.75 9.99998 17.75C10.5523 17.75 11 17.3023 11 16.75V11.75Z" fill="currentColor"/>
<path d="M14 10.75C14.5523 10.75 15 11.1977 15 11.75V16.75C15 17.3023 14.5523 17.75 14 17.75C13.4477 17.75 13 17.3023 13 16.75V11.75C13 11.1977 13.4477 10.75 14 10.75Z" fill="currentColor"/>
<path fill-rule="evenodd" clip-rule="evenodd" d="M18.9096 8.05056C19.0003 6.78179 17.9064 5.76463 16.6633 5.9083C15.3912 6.0553 13.4283 6.25 12 6.25C10.5716 6.25 8.60872 6.0553 7.33669 5.9083C6.09356 5.76463 4.9997 6.78179 5.09033 8.05056L5.94706 20.0448C6.01201 20.954 6.68924 21.7228 7.61863 21.8626C8.61523 22.0124 10.4439 22.2518 12.0011 22.25C13.5392 22.2482 15.3754 22.0099 16.3763 21.8614C17.3073 21.7232 17.988 20.954 18.0531 20.0421L18.9096 8.05056ZM16.8929 7.89507C16.8963 7.89467 16.899 7.89491 16.899 7.89491L16.9017 7.89551C16.9039 7.89628 16.9074 7.89811 16.9108 7.90137C16.9131 7.90353 16.9148 7.90617 16.9148 7.90617L16.9147 7.90806L16.0591 19.8865C15.0684 20.0329 13.3705 20.2484 11.9988 20.25C10.6123 20.2516 8.92485 20.0359 7.941 19.8885L7.08525 7.90806L7.08517 7.90617C7.08517 7.90617 7.08687 7.90353 7.08915 7.90137C7.0926 7.89811 7.09609 7.89628 7.09831 7.89551L7.10096 7.89491C7.10096 7.89491 7.10361 7.89467 7.10708 7.89507C8.38137 8.04234 10.4454 8.25 12 8.25C13.5545 8.25 15.6186 8.04234 16.8929 7.89507Z" fill="currentColor"/>
</svg>
