<svg width="24" height="24" viewBox="0 0 24 24" fill="none" xmlns="http://www.w3.org/2000/svg">
<path fill-rule="evenodd" clip-rule="evenodd" d="M7.5 4C8.05229 4 8.5 3.55228 8.5 3C8.5 2.44772 8.05229 2 7.5 2H6C3.79086 2 2 3.79086 2 6V18C2 20.2091 3.79086 22 6 22H7.5C8.05228 22 8.5 21.5523 8.5 21C8.5 20.4477 8.05229 20 7.5 20H6C4.89543 20 4 19.1046 4 18L4 6C4 4.89543 4.89543 4 6 4H7.5ZM7.29289 12.7071C6.90237 12.3166 6.90237 11.6834 7.29289 11.2929L11.2929 7.29289C11.6834 6.90237 12.3166 6.90237 12.7071 7.29289C13.0976 7.68342 13.0976 8.31658 12.7071 8.70711L10.4142 11L22 11C22.5523 11 23 11.4477 23 12C23 12.5523 22.5523 13 22 13L10.4142 13L12.7071 15.2929C13.0976 15.6834 13.0976 16.3166 12.7071 16.7071C12.3166 17.0976 11.6834 17.0976 11.2929 16.7071L7.29289 12.7071Z" fill="currentColor"/>
</svg>
