<svg width="24" height="24" viewBox="0 0 24 24" fill="none" xmlns="http://www.w3.org/2000/svg">
<path fill-rule="evenodd" clip-rule="evenodd" d="M13.1094 4.20437C11.7803 3.3183 10 4.27108 10 5.86848V9.91933L7.62473 8.01909C7.19347 7.67408 6.56418 7.744 6.21917 8.17526C5.87416 8.60652 5.94408 9.23582 6.37534 9.58083L9.39926 12L6.37534 14.4191C5.94408 14.7641 5.87416 15.3934 6.21917 15.8247C6.56418 16.2559 7.19347 16.3258 7.62473 15.9808L10 14.0806V18.1314C10 19.7288 11.7803 20.6816 13.1094 19.7955L16.3067 17.6641C17.4941 16.8724 17.4941 15.1275 16.3067 14.3359L12.8028 12L16.3067 9.66406C17.4941 8.87241 17.4941 7.1275 16.3067 6.33586L13.1094 4.20437ZM15.1973 7.99996L12 10.1314V5.86848L15.1973 7.99996ZM15.1973 16L12 18.1314V13.8685L15.1973 16Z" fill="currentColor"/>
</svg>
