<svg width="24" height="24" viewBox="0 0 24 24" fill="none" xmlns="http://www.w3.org/2000/svg">
<path d="M15.3894 7.40388C16.1705 6.62283 17.4368 6.62283 18.2179 7.40388C18.9989 8.18493 18.9989 9.45126 18.2179 10.2323L10.7932 17.6569C9.4264 19.0238 7.21032 19.0238 5.84349 17.6569C4.47665 16.2901 4.47665 14.074 5.84349 12.7072L13.162 5.38863C13.5526 4.9981 13.5526 4.36494 13.162 3.97441C12.7715 3.58389 12.1384 3.58389 11.7478 3.97441L4.42927 11.293C2.28139 13.4409 2.28139 16.9233 4.42927 19.0711C6.57716 21.219 10.0596 21.219 12.2074 19.0711L19.6321 11.6465C21.1942 10.0844 21.1942 7.55176 19.6321 5.98967C18.07 4.42757 15.5373 4.42757 13.9752 5.98967L6.33846 13.6264C5.36215 14.6027 5.36215 16.1856 6.33846 17.162C7.31477 18.1383 8.89768 18.1383 9.87399 17.162L17.4047 9.63127C17.7952 9.24074 17.7952 8.60758 17.4047 8.21705C17.0142 7.82653 16.381 7.82653 15.9905 8.21705L8.45978 15.7477C8.26452 15.943 7.94794 15.943 7.75267 15.7477C7.55741 15.5525 7.55741 15.2359 7.75267 15.0406L15.3894 7.40388Z" fill="currentColor"/>
</svg>
