<svg width="24" height="24" viewBox="0 0 24 24" fill="none" xmlns="http://www.w3.org/2000/svg">
<path d="M4.57574 6.63202L8.32636 6.09622C8.76982 6.03287 9.19347 5.87101 9.56619 5.62252L13.4453 3.03645C14.1099 2.59342 15 3.06981 15 3.8685V20.1315C15 20.9302 14.1099 21.4066 13.4453 20.9635L9.56619 18.3774C9.19347 18.129 8.76982 17.9671 8.32636 17.9038L4.57573 17.3679C3.09779 17.1568 2 15.8911 2 14.3981V9.60187C2 8.10892 3.09779 6.84316 4.57574 6.63202Z" fill="currentColor"/>
<path d="M17.161 13.3092C16.6414 13.4965 16.372 14.0694 16.5592 14.589C16.7465 15.1086 17.3195 15.378 17.839 15.1908C19.314 14.6592 20 13.2766 20 12C20 10.7234 19.314 9.34074 17.839 8.80921C17.3195 8.62197 16.7465 8.89138 16.5592 9.41095C16.372 9.93053 16.6414 10.5035 17.161 10.6908C17.686 10.88 18 11.3869 18 12C18 12.613 17.686 13.12 17.161 13.3092Z" fill="currentColor"/>
</svg>
