<svg width="24" height="24" viewBox="0 0 24 24" fill="none" xmlns="http://www.w3.org/2000/svg">
<path d="M5.53161 4.41149C5.35029 4.42644 5.17572 4.44117 5.00911 4.45549C5.1905 4.28733 5.37795 4.12565 5.5711 3.9708C5.55827 4.11018 5.54506 4.25725 5.53161 4.41149Z" fill="currentColor"/>
<path d="M7.14177 3.31251C7.15768 3.1562 7.17193 3.02118 7.18399 2.90943C8.41244 2.25735 9.78866 1.84717 11.2494 1.74194V4.08487C9.91297 4.11046 8.39995 4.19752 7.04785 4.29441C7.08231 3.91123 7.11448 3.58061 7.14177 3.31251Z" fill="currentColor"/>
<path d="M12.7494 4.08487V1.74194C14.2101 1.84717 15.5863 2.25735 16.8147 2.90943C16.8268 3.02118 16.8411 3.15621 16.857 3.31251C16.8842 3.58061 16.9164 3.91123 16.9509 4.29441C15.5988 4.19752 14.0858 4.11046 12.7494 4.08487Z" fill="currentColor"/>
<path d="M18.4671 4.41149C18.4537 4.25725 18.4405 4.11018 18.4276 3.9708C18.6208 4.12565 18.8082 4.28733 18.9896 4.45549C18.823 4.44117 18.6484 4.42644 18.4671 4.41149Z" fill="currentColor"/>
<path d="M19.8653 6.03963C20.0882 6.06031 20.2754 6.07821 20.4195 6.0922C21.4599 7.57214 22.1199 9.33814 22.2575 11.2501H18.8146C18.7938 9.29552 18.6953 7.43476 18.5873 5.9267C19.0816 5.96827 19.5169 6.00733 19.8653 6.03963Z" fill="currentColor"/>
<path d="M18.8146 12.7501H22.2575C22.1199 14.662 21.4599 16.428 20.4195 17.908C20.2754 17.922 20.0882 17.9399 19.8653 17.9605C19.5169 17.9928 19.0816 18.0319 18.5873 18.0735C18.6953 16.5654 18.7938 14.7047 18.8146 12.7501Z" fill="currentColor"/>
<path d="M18.4671 19.5887C18.6484 19.5737 18.823 19.559 18.9896 19.5447C18.8082 19.7128 18.6208 19.8745 18.4276 20.0294C18.4405 19.89 18.4537 19.7429 18.4671 19.5887Z" fill="currentColor"/>
<path d="M16.857 20.6877C16.8411 20.844 16.8268 20.979 16.8147 21.0907C15.5863 21.7428 14.2101 22.153 12.7494 22.2582V19.9153C14.0858 19.8897 15.5988 19.8026 16.9509 19.7058C16.9164 20.0889 16.8842 20.4196 16.857 20.6877Z" fill="currentColor"/>
<path d="M11.2494 19.9153V22.2582C9.78866 22.153 8.41244 21.7428 7.18399 21.0907C7.17193 20.979 7.15768 20.844 7.14177 20.6877C7.11448 20.4196 7.08231 20.0889 7.04785 19.7058C8.39995 19.8026 9.91297 19.8897 11.2494 19.9153Z" fill="currentColor"/>
<path d="M5.53161 19.5887C5.54506 19.7429 5.55827 19.89 5.5711 20.0294C5.37795 19.8745 5.1905 19.7128 5.00912 19.5447C5.17572 19.559 5.35029 19.5737 5.53161 19.5887Z" fill="currentColor"/>
<path d="M4.13347 17.9605C3.91051 17.9399 3.72331 17.922 3.57924 17.908C2.53879 16.428 1.87888 14.662 1.74121 12.7501H5.18413C5.20498 14.7047 5.30342 16.5654 5.41138 18.0735C4.91713 18.0319 4.48179 17.9928 4.13347 17.9605Z" fill="currentColor"/>
<path d="M5.18413 11.2501H1.74121C1.87888 9.33814 2.53879 7.57213 3.57924 6.0922C3.72331 6.0782 3.91051 6.06031 4.13347 6.03963C4.48179 6.00733 4.91713 5.96827 5.41138 5.9267C5.30342 7.43476 5.20498 9.29552 5.18413 11.2501Z" fill="currentColor"/>
<path d="M6.68422 11.2501C6.70609 9.24107 6.81157 7.32858 6.92403 5.80734C8.31426 5.70524 9.88326 5.61215 11.2494 5.58514V11.2501H6.68422Z" fill="currentColor"/>
<path d="M12.7494 11.2501V5.58514C14.1155 5.61215 15.6845 5.70524 17.0747 5.80734C17.1872 7.32858 17.2926 9.24107 17.3145 11.2501H12.7494Z" fill="currentColor"/>
<path d="M12.7494 12.7501H17.3145C17.2926 14.7591 17.1872 16.6716 17.0747 18.1928C15.6845 18.2949 14.1155 18.388 12.7494 18.415V12.7501Z" fill="currentColor"/>
<path d="M11.2494 12.7501V18.415C9.88326 18.388 8.31426 18.2949 6.92403 18.1928C6.81157 16.6716 6.70609 14.7591 6.68422 12.7501H11.2494Z" fill="currentColor"/>
</svg>
