<svg width="24" height="24" viewBox="0 0 24 24" fill="none" xmlns="http://www.w3.org/2000/svg">
<path fill-rule="evenodd" clip-rule="evenodd" d="M11.544 5.45009C11.7209 5.057 12.2791 5.057 12.456 5.45009L18.7305 19.3936C18.9069 19.7854 18.5394 20.2025 18.1285 20.0769L12.7305 18.4276C12.2544 18.2821 11.7456 18.2821 11.2695 18.4276L5.87154 20.0769C5.46059 20.2025 5.09313 19.7854 5.26947 19.3936L11.544 5.45009ZM14.2798 4.62936C13.3954 2.66391 10.6047 2.66391 9.7202 4.62936L3.44563 18.5728C2.56394 20.5322 4.40119 22.6175 6.45598 21.9896L11.8539 20.3403C11.9491 20.3112 12.0509 20.3112 12.1461 20.3403L17.544 21.9896C19.5988 22.6175 21.4361 20.5322 20.5544 18.5728L14.2798 4.62936Z" fill="currentColor"/>
</svg>
