<svg width="24" height="24" viewBox="0 0 24 24" fill="none" xmlns="http://www.w3.org/2000/svg">
<path d="M11.6607 1C12.213 1 12.6607 1.44772 12.6607 2V4.13148L14.106 3.16795C14.5655 2.8616 15.1864 2.98577 15.4927 3.4453C15.7991 3.90483 15.6749 4.5257 15.2154 4.83205L12.6607 6.53518V10.1546L16.3798 8.00739L16.5011 5.01062C16.5235 4.45879 16.9889 4.02955 17.5408 4.05189C18.0926 4.07423 18.5218 4.53969 18.4995 5.09152L18.4294 6.82409L20.3208 5.73205C20.7991 5.45591 21.4107 5.61978 21.6869 6.09808C21.963 6.57637 21.7991 7.18796 21.3208 7.4641L19.4749 8.52984L21.032 9.29974C21.5271 9.54453 21.73 10.1443 21.4852 10.6394C21.2404 11.1345 20.6406 11.3373 20.1455 11.0926L17.3932 9.73169L13.5625 11.9434L16.8798 13.8587L19.5358 12.4654C20.0248 12.2088 20.6293 12.3973 20.8859 12.8863C21.1424 13.3754 20.9539 13.9799 20.4649 14.2364L18.9294 15.042L20.8208 16.134C21.2991 16.4102 21.463 17.0218 21.1869 17.5001C20.9107 17.9783 20.2991 18.1422 19.8208 17.8661L17.9749 16.8003L18.0867 18.5338C18.1222 19.0849 17.7043 19.5605 17.1531 19.5961C16.602 19.6316 16.1264 19.2136 16.0908 18.6625L15.8932 15.5985L12.6607 13.7322V17.4648L15.2154 19.1679C15.6749 19.4743 15.7991 20.0952 15.4927 20.5547C15.1864 21.0142 14.5655 21.1384 14.106 20.8321L12.6607 19.8685V22C12.6607 22.5523 12.213 23 11.6607 23C11.1084 23 10.6607 22.5523 10.6607 22V19.8685L9.21537 20.8321C8.75584 21.1384 8.13497 21.0142 7.82862 20.5547C7.52227 20.0952 7.64644 19.4743 8.10597 19.1679L10.6607 17.4648V13.6187L7.9279 15.1965L7.7303 18.2605C7.69475 18.8117 7.21915 19.2296 6.66801 19.1941C6.11687 19.1585 5.6989 18.6829 5.73444 18.1318L5.84624 16.3984L4.00032 17.4641C3.52203 17.7402 2.91044 17.5764 2.63429 17.0981C2.35815 16.6198 2.52203 16.0082 3.00032 15.732L4.84624 14.6663L3.28914 13.8964C2.79407 13.6516 2.59117 13.0518 2.83596 12.5568C3.08075 12.0617 3.68052 11.8588 4.1756 12.1036L6.9279 13.4645L9.56245 11.9434L6.4279 10.1337L3.6756 11.4945C3.18052 11.7393 2.58075 11.5364 2.33596 11.0414C2.09117 10.5463 2.29407 9.94651 2.78914 9.70172L4.34624 8.93182L2.50032 7.86608C2.02203 7.58994 1.85815 6.97834 2.13429 6.50005C2.41044 6.02176 3.02203 5.85788 3.50032 6.13403L5.34624 7.19977L5.23444 5.46634C5.1989 4.9152 5.61687 4.43959 6.16801 4.40405C6.71915 4.36851 7.19475 4.78648 7.2303 5.33762L7.4279 8.40162L10.6607 10.2681V6.55068L8.12605 4.94723C7.65932 4.65197 7.52032 4.03425 7.81558 3.56752C8.11084 3.10079 8.72856 2.96179 9.19529 3.25705L10.6607 4.18408V2C10.6607 1.44772 11.1084 1 11.6607 1Z" fill="currentColor"/>
</svg>
