<svg width="24" height="24" viewBox="0 0 24 24" fill="none" xmlns="http://www.w3.org/2000/svg">
<path fill-rule="evenodd" clip-rule="evenodd" d="M21 5.56919V15.1753C21 15.6721 20.695 16.1172 20.2345 16.3034C19.28 16.6895 17.6359 17.3807 16.5 18C14.6456 19.011 12 20 12 20C12 20 9.35441 19.011 7.5 18C6.36411 17.3807 4.71999 16.6895 3.76549 16.3034C3.30496 16.1172 3 15.6721 3 15.1753V5.56919C3 4.77852 3.74984 4.20727 4.50562 4.43954C5.43619 4.72553 6.61713 5.11561 7.5 5.49999C9.34323 6.30248 12 7.99999 12 7.99999C12 7.99999 14.6568 6.30248 16.5 5.49999C17.3829 5.11561 18.5638 4.72553 19.4944 4.43954C20.2502 4.20727 21 4.77852 21 5.56919ZM18.8944 9.55277C19.1414 10.0468 18.9412 10.6474 18.4472 10.8944L15.4472 12.3944C14.9532 12.6414 14.3526 12.4412 14.1056 11.9472C13.8586 11.4532 14.0588 10.8526 14.5528 10.6056L17.5528 9.10556C18.0468 8.85857 18.6474 9.0588 18.8944 9.55277ZM5.55279 10.8944C5.05881 10.6474 4.85858 10.0468 5.10557 9.55277C5.35256 9.0588 5.95324 8.85857 6.44721 9.10556L9.44721 10.6056C9.94119 10.8526 10.1414 11.4532 9.89443 11.9472C9.64744 12.4412 9.04676 12.6414 8.55279 12.3944L5.55279 10.8944ZM18.8944 12.5528C19.1414 13.0468 18.9412 13.6474 18.4472 13.8944L15.4472 15.3944C14.9532 15.6414 14.3526 15.4412 14.1056 14.9472C13.8586 14.4532 14.0588 13.8526 14.5528 13.6056L17.5528 12.1056C18.0468 11.8586 18.6474 12.0588 18.8944 12.5528ZM5.55279 13.8944C5.05881 13.6474 4.85858 13.0468 5.10557 12.5528C5.35256 12.0588 5.95324 11.8586 6.44721 12.1056L9.44721 13.6056C9.94119 13.8526 10.1414 14.4532 9.89443 14.9472C9.64744 15.4412 9.04676 15.6414 8.55279 15.3944L5.55279 13.8944Z" fill="currentColor"/>
</svg>
