<svg width="24" height="24" viewBox="0 0 24 24" fill="none" xmlns="http://www.w3.org/2000/svg">
<path fill-rule="evenodd" clip-rule="evenodd" d="M9.15452 6.78252C10.9206 5.89988 13 7.18316 13 9.15864V9.35856L18.1545 6.78252C19.9206 5.89988 22 7.18316 22 9.15864V14.8414C22 16.8169 19.9206 18.1002 18.1545 17.2175L13 14.6415V14.8414C13 16.8169 10.9206 18.1002 9.15452 17.2175L3.46907 14.3761C1.5103 13.3972 1.51031 10.6028 3.46908 9.6239L9.15452 6.78252ZM11 9.15864C11 8.67132 10.4863 8.35278 10.0486 8.57155L4.36317 11.4129C3.87894 11.6549 3.87895 12.3451 4.36316 12.5871L10.0486 15.4285C10.4863 15.6473 11 15.3287 11 14.8414V9.15864ZM13 12.0015C13.0005 12.234 13.1216 12.4664 13.3632 12.5871L19.0486 15.4285C19.4863 15.6473 20 15.3287 20 14.8414V9.15864C20 8.67132 19.4863 8.35278 19.0486 8.57155L13.3632 11.4129C13.1216 11.5337 13.0005 11.766 13 11.9986V12.0015Z" fill="currentColor"/>
</svg>
