<svg width="24" height="24" viewBox="0 0 24 24" fill="none" xmlns="http://www.w3.org/2000/svg">
<path d="M4.92556 3.51467L4.39002 4.0502C3.82741 4.61281 3.51397 5.37923 3.6999 6.15285C4.09723 7.80613 5.33186 10.992 9.1682 14.8284C13.0045 18.6647 16.1904 19.8993 17.8437 20.2967C18.6173 20.4826 19.3838 20.1692 19.9464 19.6066L20.4819 19.071C21.6535 17.8994 21.6535 15.9999 20.4819 14.8284L19.553 13.8995C18.5981 12.9446 17.1228 12.7454 15.9488 13.4129L15.8523 13.4678C14.9117 14.0027 13.7478 14.0001 12.8713 13.3658C12.4346 13.0497 11.9823 12.6927 11.6431 12.3535C11.3039 12.0143 10.9468 11.5619 10.6308 11.1252C9.99645 10.2487 9.99391 9.08485 10.5287 8.1443L10.5836 8.04777C11.2512 6.8738 11.052 5.39849 10.0971 4.44354L9.1682 3.51466C7.99662 2.34309 6.09713 2.34309 4.92556 3.51467Z" fill="currentColor"/>
<path d="M18 4.99991C18 4.44762 17.5523 3.99991 17 3.99991C16.4477 3.99991 16 4.44762 16 4.99991V5.99991H15C14.4477 5.99991 14 6.44762 14 6.99991C14 7.55219 14.4477 7.99991 15 7.99991H16V8.99991C16 9.55219 16.4477 9.99991 17 9.99991C17.5523 9.99991 18 9.55219 18 8.99991V7.99991H19C19.5523 7.99991 20 7.55219 20 6.99991C20 6.44762 19.5523 5.99991 19 5.99991H18V4.99991Z" fill="currentColor"/>
</svg>
