<svg width="24" height="24" viewBox="0 0 24 24" fill="none" xmlns="http://www.w3.org/2000/svg">
<path d="M16.5 11C17.3284 11 18 10.3284 18 9.49998C18 8.67156 17.3284 7.99998 16.5 7.99998C15.6716 7.99998 15 8.67156 15 9.49998C15 10.3284 15.6716 11 16.5 11Z" fill="currentColor"/>
<path d="M11 8.49998C11 9.32841 10.3284 9.99998 9.50001 9.99998C8.67158 9.99998 8.00001 9.32841 8.00001 8.49998C8.00001 7.67156 8.67158 6.99998 9.50001 6.99998C10.3284 6.99998 11 7.67156 11 8.49998Z" fill="currentColor"/>
<path d="M7.50001 16C8.32844 16 9.00001 15.3284 9.00001 14.5C9.00001 13.6716 8.32844 13 7.50001 13C6.67158 13 6.00001 13.6716 6.00001 14.5C6.00001 15.3284 6.67158 16 7.50001 16Z" fill="currentColor"/>
<path fill-rule="evenodd" clip-rule="evenodd" d="M19.4994 18.5C21.2896 18.5 22.3754 17.0092 22.8664 15.4675C23.3764 13.866 23.4142 11.8139 22.9063 9.81612C22.3959 7.80828 21.3149 5.77981 19.5038 4.28372C17.6784 2.77583 15.1803 1.8666 11.9578 2.00087C8.50851 2.14459 5.91644 3.18002 4.11882 4.79934C2.32185 6.41807 1.4015 8.54635 1.16471 10.7211C0.701175 14.9783 2.85359 19.6786 6.5664 21.4015C7.25522 21.7435 8.17902 22.025 9.10562 22.2021C10.0382 22.3803 11.0603 22.4695 11.9361 22.3717C12.3729 22.3229 12.8257 22.2221 13.2248 22.0248C13.6307 21.824 14.0382 21.4922 14.2477 20.9682C14.4574 20.4435 14.4017 19.8934 14.217 19.3913C14.0352 18.8972 13.7083 18.3877 13.2684 17.8598C12.8235 17.326 12.8457 17.0801 12.8507 17.0472C12.856 17.0128 12.892 16.8869 13.1772 16.7008C13.2156 16.6758 13.2929 16.6393 13.4967 16.6693C13.7182 16.7018 14.0048 16.8022 14.3722 16.9761C14.6422 17.1039 14.9073 17.2469 15.1933 17.4012C15.2987 17.4581 15.407 17.5165 15.5194 17.5762C15.9078 17.7826 16.3527 18.0087 16.788 18.148C17.4941 18.3739 18.3829 18.5 19.4994 18.5ZM12.041 3.99914C14.8189 3.8834 16.821 4.66166 18.23 5.82565C19.6534 7.00142 20.541 8.62921 20.968 10.3089C21.3975 11.9986 21.3414 13.6653 20.9607 14.8606C20.5609 16.1158 19.9591 16.5 19.4994 16.5C18.5236 16.5 17.8522 16.3886 17.3975 16.2432C17.1508 16.1642 16.8468 16.0168 16.4581 15.8102C16.3706 15.7637 16.278 15.7137 16.182 15.6619C15.8831 15.5006 15.5498 15.3208 15.2279 15.1684C14.8001 14.9659 14.302 14.7662 13.7876 14.6905C13.2554 14.6123 12.6456 14.6596 12.0842 15.0259C11.5652 15.3646 11.0003 15.9143 10.8736 16.7457C10.7466 17.5785 11.1056 18.3886 11.7319 19.1402C12.0922 19.5725 12.2665 19.8822 12.34 20.0819C12.3614 20.1401 12.3721 20.1823 12.3772 20.2111C12.3669 20.2172 12.354 20.2242 12.3382 20.232C12.2215 20.2897 12.019 20.35 11.7141 20.3841C11.1062 20.452 10.2988 20.3939 9.4811 20.2376C8.66383 20.0814 7.92299 19.8438 7.44675 19.6056L7.43275 19.5986L7.41855 19.5921C4.63995 18.3096 2.76086 14.5387 3.15296 10.9375C3.34429 9.18035 4.07549 7.53017 5.45741 6.28533C6.83868 5.04107 8.95284 4.12781 12.041 3.99914ZM12.4157 20.1837L12.4149 20.1844L12.413 20.1864L12.4157 20.1837C12.4158 20.1836 12.4157 20.1837 12.4157 20.1837Z" fill="currentColor"/>
</svg>
