<svg width="24" height="24" viewBox="0 0 24 24" fill="none" xmlns="http://www.w3.org/2000/svg">
<path d="M7.81372 3.91876C7.49271 3.46935 6.86816 3.36526 6.41875 3.68627C5.96934 4.00728 5.86524 4.63183 6.18625 5.08124L11 11.8205V12H7.99999C7.4477 12 6.99999 12.4477 6.99999 13C6.99999 13.5523 7.4477 14 7.99999 14H11V14.5H7.99999C7.4477 14.5 6.99999 14.9477 6.99999 15.5C6.99999 16.0523 7.4477 16.5 7.99999 16.5H11V20.5C11 21.0523 11.4477 21.5 12 21.5C12.5523 21.5 13 21.0523 13 20.5V16.5H16C16.5523 16.5 17 16.0523 17 15.5C17 14.9477 16.5523 14.5 16 14.5H13V14H16C16.5523 14 17 13.5523 17 13C17 12.4477 16.5523 12 16 12H13V11.8205L17.8137 5.08124C18.1347 4.63183 18.0306 4.00728 17.5812 3.68627C17.1318 3.36526 16.5073 3.46935 16.1863 3.91876L12 9.77954L7.81372 3.91876Z" fill="currentColor"/>
</svg>
