<svg width="24" height="24" viewBox="0 0 24 24" fill="none" xmlns="http://www.w3.org/2000/svg">
<path d="M4.65255 4.85875C2.85869 6.70417 1.75403 9.22307 1.75403 12C1.75403 12.1445 1.75702 12.2884 1.76295 12.4314L3.67242 11.4767L4.65255 8.04623V4.85875Z" fill="currentColor"/>
<path d="M14.8422 8.48432C14.9613 8.46348 15.0783 8.5309 15.1199 8.64444L16.0878 11.2812C16.1127 11.3491 16.107 11.4244 16.0722 11.4878L11.8904 19.0911C11.8523 19.1602 11.8099 19.1893 11.7739 19.2042C11.732 19.2216 11.6766 19.2279 11.6172 19.2147C11.5578 19.2015 11.5103 19.1725 11.4796 19.139C11.4533 19.1102 11.4271 19.066 11.4219 18.9872L11.1375 14.7211C11.0961 14.1014 10.7295 13.55 10.174 13.2723L7.52884 11.9497C7.37622 11.8734 7.34321 11.67 7.46387 11.5493L9.55825 9.45494C9.5946 9.41859 9.64129 9.39432 9.69193 9.38546L14.8422 8.48432Z" fill="currentColor"/>
<path fill-rule="evenodd" clip-rule="evenodd" d="M6.15255 3.58517V8.25631L4.93343 12.5232L1.95191 14.014C2.88761 18.7085 7.03082 22.2463 12.0003 22.2463C14.1922 22.2463 16.2232 21.5581 17.8893 20.386L18.4316 15.5044L22.2422 11.6938C22.0803 6.17655 17.5568 1.75366 12.0003 1.75366C9.82654 1.75366 7.81084 2.4306 6.15255 3.58517ZM16.5281 8.12755C16.2363 7.33281 15.4175 6.86086 14.5836 7.00677L9.43341 7.90791C9.07887 7.96994 8.75209 8.13978 8.49759 8.39428L6.40321 10.4887C5.55859 11.3333 5.78965 12.7572 6.85802 13.2913L9.50314 14.6139C9.5825 14.6536 9.63488 14.7323 9.64078 14.8209L9.92519 19.087C10.0415 20.8315 12.3621 21.3459 13.2047 19.814L17.3865 12.2107C17.6305 11.7671 17.6704 11.2396 17.4959 10.7643L16.5281 8.12755Z" fill="currentColor"/>
<path d="M22.0501 14.0071L19.8643 16.193L19.562 18.9144C20.7996 17.5618 21.679 15.876 22.0501 14.0071Z" fill="currentColor"/>
</svg>
