<svg width="24" height="24" viewBox="0 0 24 24" fill="none" xmlns="http://www.w3.org/2000/svg">
<path d="M13.2426 11.8284L13.9497 11.1213C14.3402 10.7308 14.3402 10.0976 13.9497 9.7071C13.5592 9.31657 12.926 9.31657 12.5355 9.7071L11.8284 10.4142L11.1213 9.7071C10.7307 9.31657 10.0976 9.31657 9.70705 9.7071C9.31652 10.0976 9.31652 10.7308 9.70705 11.1213L10.4142 11.8284L9.70705 12.5355C9.31652 12.926 9.31652 13.5592 9.70705 13.9497C10.0976 14.3403 10.7307 14.3403 11.1213 13.9497L11.8284 13.2426L12.5355 13.9497C12.926 14.3403 13.5592 14.3403 13.9497 13.9497C14.3402 13.5592 14.3402 12.926 13.9497 12.5355L13.2426 11.8284Z" fill="currentColor"/>
<path fill-rule="evenodd" clip-rule="evenodd" d="M13.4876 2.01874C12.5328 1.63617 11.4672 1.63617 10.5124 2.01874L6.88578 3.47172C6.87451 3.47624 6.86331 3.48096 6.8522 3.48589L5.30467 4.17237C3.94745 4.77443 2.99987 6.10003 3 7.64368C3.00017 9.6109 3.14199 12.9406 4.06685 15.2252C4.6818 16.7443 5.78937 18.0609 6.91503 19.1131C8.04877 20.1728 9.25663 21.0157 10.1451 21.5766C11.2836 22.2955 12.7164 22.2955 13.8549 21.5766C14.7434 21.0157 15.9512 20.1728 17.085 19.1131C18.2106 18.0609 19.3182 16.7443 19.9332 15.2252C20.858 12.9406 20.9998 9.6109 21 7.64368C21.0001 6.10003 20.0525 4.77443 18.6953 4.17237L17.1478 3.48589C17.1367 3.48096 17.1255 3.47624 17.1142 3.47172L13.4876 2.01874ZM11.2562 3.87527C11.7336 3.68399 12.2664 3.68399 12.7438 3.87527L16.3535 5.32148L17.8843 6.00057C18.5732 6.30612 19.0001 6.94886 19 7.64351C18.9998 9.62433 18.8415 12.5918 18.0793 14.4748C17.6173 15.6159 16.7387 16.6991 15.7193 17.652C14.7079 18.5974 13.6116 19.365 12.7871 19.8856C12.3009 20.1926 11.6991 20.1926 11.2129 19.8856C10.3884 19.365 9.29215 18.5974 8.28075 17.652C7.26127 16.6991 6.38268 15.6159 5.9207 14.4748C5.15846 12.5918 5.00017 9.62433 5 7.64351C4.99994 6.94886 5.42684 6.30612 6.11565 6.00057L7.64653 5.32148L11.2562 3.87527Z" fill="currentColor"/>
</svg>
