<svg width="24" height="24" viewBox="0 0 24 24" fill="none" xmlns="http://www.w3.org/2000/svg">
<path fill-rule="evenodd" clip-rule="evenodd" d="M6.99924 20.5C0.49922 17.5 -1.0758 3.5448 11.9992 3.00002C23.9999 2.5 23.9991 17.5 19.4991 17.5C18.453 17.5 17.6729 17.3813 17.0925 17.1956C16.6642 17.0586 16.1833 16.7991 15.6878 16.5318C14.6052 15.9477 13.4534 15.3264 12.6305 15.8634C11.8262 16.3882 11.4287 17.2146 12.4999 18.5C15.7008 22.3411 9.33231 21.6667 6.99924 20.5ZM16.4998 11C17.3282 11 17.9998 10.3284 17.9998 9.5C17.9998 8.67157 17.3282 8 16.4998 8C15.6713 8 14.9998 8.67157 14.9998 9.5C14.9998 10.3284 15.6713 11 16.4998 11ZM10.9998 8C10.9998 8.82843 10.3282 9.5 9.49976 9.5C8.67133 9.5 7.99976 8.82843 7.99976 8C7.99976 7.17157 8.67133 6.5 9.49976 6.5C10.3282 6.5 10.9998 7.17157 10.9998 8ZM7.49976 16C8.32818 16 8.99976 15.3284 8.99976 14.5C8.99976 13.6716 8.32818 13 7.49976 13C6.67133 13 5.99976 13.6716 5.99976 14.5C5.99976 15.3284 6.67133 16 7.49976 16Z" fill="currentColor"/>
</svg>
