<svg width="24" height="24" viewBox="0 0 24 24" fill="none" xmlns="http://www.w3.org/2000/svg">
<path d="M16.3053 2.80001C14.8273 2.24308 13.2026 2.21172 11.7041 2.71121C8.97029 3.62248 7.10242 6.13663 7.00408 9H4C3.44772 9 3 9.44771 3 10C3 10.5523 3.44772 11 4 11H7V12.5H4C3.44772 12.5 3 12.9477 3 13.5C3 14.0523 3.44772 14.5 4 14.5H7V14.7622C7 17.7234 8.89485 20.3524 11.7041 21.2888C13.2026 21.7883 14.8273 21.7569 16.3053 21.2L16.7795 21.0213C18.8923 20.2252 20.4669 18.4249 20.9744 16.2248C21.0986 15.6866 20.7629 15.1497 20.2248 15.0256C19.6866 14.9014 19.1497 15.2371 19.0256 15.7752C18.6685 17.3231 17.5608 18.5897 16.0743 19.1498L15.6002 19.3284C14.5518 19.7235 13.3994 19.7457 12.3365 19.3914C10.344 18.7272 9 16.8625 9 14.7622V14.5H15C15.5523 14.5 16 14.0523 16 13.5C16 12.9477 15.5523 12.5 15 12.5H9V11H15C15.5523 11 16 10.5523 16 10C16 9.44771 15.5523 9 15 9H9.00576C9.10283 6.9978 10.4195 5.24758 12.3365 4.60858C13.3994 4.2543 14.5518 4.27653 15.6002 4.67156L16.0743 4.85021C17.5608 5.41031 18.6685 6.67692 19.0256 8.22478C19.1497 8.76294 19.6866 9.09855 20.2248 8.97441C20.7629 8.85026 21.0986 8.31336 20.9744 7.77521C20.4669 5.57511 18.8923 3.77478 16.7795 2.97866L16.3053 2.80001Z" fill="currentColor"/>
</svg>
