<svg width="24" height="24" viewBox="0 0 24 24" fill="none" xmlns="http://www.w3.org/2000/svg">
<path d="M15.4417 5.33636C15.6275 4.81626 15.3564 4.24404 14.8363 4.05829C14.3162 3.87253 13.744 4.14358 13.5583 4.66369L8.55826 18.6637C8.3725 19.1838 8.64355 19.756 9.16366 19.9418C9.68377 20.1275 10.256 19.8565 10.4417 19.3364L15.4417 5.33636Z" fill="currentColor"/>
<path d="M8.83205 7.44533C9.1384 7.90486 9.01423 8.52573 8.5547 8.83208L3.80278 12L8.5547 15.168C9.01423 15.4743 9.1384 16.0952 8.83205 16.5547C8.5257 17.0143 7.90483 17.1384 7.4453 16.8321L1.4453 12.8321C1.1671 12.6466 1 12.3344 1 12C1 11.6657 1.1671 11.3534 1.4453 11.168L7.4453 7.16798C7.90483 6.86163 8.5257 6.9858 8.83205 7.44533Z" fill="currentColor"/>
<path d="M15.1679 7.44533C14.8616 7.90486 14.9858 8.52573 15.4453 8.83208L20.1972 12L15.4453 15.168C14.9858 15.4743 14.8616 16.0952 15.1679 16.5547C15.4743 17.0143 16.0952 17.1384 16.5547 16.8321L22.5547 12.8321C22.8329 12.6466 23 12.3344 23 12C23 11.6657 22.8329 11.3534 22.5547 11.168L16.5547 7.16798C16.0952 6.86163 15.4743 6.9858 15.1679 7.44533Z" fill="currentColor"/>
</svg>
