<svg width="24" height="24" viewBox="0 0 24 24" fill="none" xmlns="http://www.w3.org/2000/svg">
<path fill-rule="evenodd" clip-rule="evenodd" d="M12.8906 2.20444C14.2197 1.31836 16 2.27115 16 3.86854V20.1315C16 21.7289 14.2197 22.6817 12.8906 21.7956L9.01149 19.2095C8.76301 19.0439 8.48058 18.936 8.18494 18.8937L4.43431 18.3579C2.46372 18.0764 1 16.3887 1 14.3981V9.60191C1 7.6113 2.46372 5.92362 4.43431 5.64211L8.18494 5.1063C8.48058 5.06407 8.76301 4.95616 9.01149 4.79051L12.8906 2.20444ZM14 3.86854L10.1209 6.45461C9.62392 6.78592 9.05906 7.00173 8.46778 7.0862L4.71716 7.62201C3.73186 7.76276 3 8.60661 3 9.60191V14.3981C3 15.3934 3.73186 16.2373 4.71715 16.378L8.46778 16.9138C9.05906 16.9983 9.62392 17.2141 10.1209 17.5454L14 20.1315L14 3.86854Z" fill="currentColor"/>
<path d="M16.5592 14.5891C16.372 14.0695 16.6414 13.4965 17.161 13.3092C17.686 13.12 18 12.6131 18 12C18 11.387 17.686 10.88 17.161 10.6908C16.6414 10.5035 16.372 9.93056 16.5592 9.41098C16.7465 8.89141 17.3195 8.622 17.839 8.80925C19.314 9.34078 20 10.7234 20 12C20 13.2766 19.314 14.6593 17.839 15.1908C17.3195 15.378 16.7465 15.1086 16.5592 14.5891Z" fill="currentColor"/>
<path d="M17.661 17.0592C17.1414 17.2465 16.872 17.8195 17.0592 18.3391C17.2465 18.8586 17.8195 19.128 18.339 18.9408C21.4806 17.8086 23 14.8513 23 12C23 9.14876 21.4806 6.19141 18.339 5.05925C17.8195 4.872 17.2465 5.14141 17.0592 5.66098C16.872 6.18056 17.1414 6.75355 17.661 6.94079C19.8527 7.73065 21 9.81229 21 12C21 14.1877 19.8527 16.2694 17.661 17.0592Z" fill="currentColor"/>
</svg>
