<svg width="24" height="24" viewBox="0 0 24 24" fill="none" xmlns="http://www.w3.org/2000/svg">
<path d="M15.9153 3.40275C16.1377 2.89723 15.9083 2.30712 15.4027 2.08469C14.8972 1.86227 14.3071 2.09175 14.0847 2.59727L12 7.33519L9.91532 2.59727C9.69289 2.09175 9.10278 1.86227 8.59726 2.08469C8.09175 2.30712 7.86226 2.89723 8.08468 3.40275L10.9075 9.81819L8.60099 15.0602C8.40682 15.0207 8.20583 15 8 15C6.34315 15 5 16.3432 5 18C5 19.6569 6.34315 21 8 21C9.65685 21 11 19.6569 11 18C11 17.2726 10.7411 16.6056 10.3104 16.0862C10.351 16.03 10.3863 15.9687 10.4153 15.9027L12 12.3012L13.5847 15.9027C13.6137 15.9687 13.649 16.03 13.6896 16.0862C13.2589 16.6056 13 17.2726 13 18C13 19.6569 14.3431 21 16 21C17.6569 21 19 19.6569 19 18C19 16.3432 17.6569 15 16 15C15.7942 15 15.5932 15.0207 15.399 15.0602L13.0925 9.81819L15.9153 3.40275Z" fill="currentColor"/>
</svg>
