<svg width="24" height="24" viewBox="0 0 24 24" fill="none" xmlns="http://www.w3.org/2000/svg">
<path d="M12 21.3333C14.1333 21.2222 18.72 20 20 16C13.6 16 12 19.5556 12 21.3333Z" stroke="currentColor" stroke-width="2" stroke-linecap="round" stroke-linejoin="round"/>
<path d="M12 21.3333C9.86667 21.2222 5.28 20 4 16C10.4 16 12 19.5556 12 21.3333Z" stroke="currentColor" stroke-width="2" stroke-linecap="round" stroke-linejoin="round"/>
<path d="M12 21.3333V13.3333M12 3.99996C14.2989 4.04029 16.7097 3.18497 17.6212 2.82379C17.7764 2.76231 17.9406 2.90404 17.9002 3.06597L17.3627 5.21567C17.3432 5.29379 17.3333 5.37401 17.3333 5.45454V7.99996C17.3333 10.9455 14.9455 13.3333 12 13.3333V13.3333C9.05446 13.3333 6.66665 10.9455 6.66665 7.99996V5.45453C6.66665 5.37401 6.65677 5.29379 6.63724 5.21568L6.09333 3.03995C6.05405 2.88284 6.20728 2.74385 6.36003 2.79761C7.29384 3.12632 9.86937 3.96258 12 3.99996Z" stroke="currentColor" stroke-width="2" stroke-linecap="round"/>
</svg>
