<svg width="24" height="24" viewBox="0 0 24 24" fill="none" xmlns="http://www.w3.org/2000/svg">
<path d="M16 13.9999C16 14.5522 15.5523 14.9999 15 14.9999H14C13.4477 14.9999 13 14.5522 13 13.9999C13 13.4476 13.4477 12.9999 14 12.9999H15C15.5523 12.9999 16 13.4476 16 13.9999Z" fill="currentColor"/>
<path d="M15 11.9999C15.5523 11.9999 16 11.5522 16 10.9999C16 10.4476 15.5523 9.99991 15 9.99991H14C13.4477 9.99991 13 10.4476 13 10.9999C13 11.5522 13.4477 11.9999 14 11.9999H15Z" fill="currentColor"/>
<path d="M11 13.9999C11 14.5522 10.5523 14.9999 10 14.9999H9C8.44772 14.9999 8 14.5522 8 13.9999C8 13.4476 8.44772 12.9999 9 12.9999H10C10.5523 12.9999 11 13.4476 11 13.9999Z" fill="currentColor"/>
<path d="M10 11.9999C10.5523 11.9999 11 11.5522 11 10.9999C11 10.4476 10.5523 9.99991 10 9.99991H9C8.44772 9.99991 8 10.4476 8 10.9999C8 11.5522 8.44772 11.9999 9 11.9999H10Z" fill="currentColor"/>
<path fill-rule="evenodd" clip-rule="evenodd" d="M12.9782 4.39939C12.3667 4.05964 11.622 4.06413 11.0146 4.41122L5.00772 7.84374C4.38457 8.19983 4 8.86251 4 9.58023V18.9999C3.44772 18.9999 3 19.4476 3 19.9999C3 20.5522 3.44772 20.9999 4 20.9999H20C20.5523 20.9999 21 20.5522 21 19.9999C21 19.4476 20.5523 18.9999 20 18.9999V9.5661C20 8.86357 19.6314 8.21256 19.029 7.85111L17.5 6.93371V5.99991C17.5 5.44762 17.0523 4.99991 16.5 4.99991C16.0125 4.99991 15.6065 5.34871 15.5179 5.81036L12.9782 4.39939ZM13 18.9999V16.9999C13 16.4476 12.5523 15.9999 12 15.9999C11.4477 15.9999 11 16.4476 11 16.9999V18.9999H6V9.58023L12.0069 6.1477L15.9998 8.36597L18 9.5661V18.9999H13Z" fill="currentColor"/>
</svg>
