<svg width="24" height="24" viewBox="0 0 24 24" fill="none" xmlns="http://www.w3.org/2000/svg">
<path d="M8.23999 7.18006L5.49663 4.4367C9.22701 1.2226 14.7714 1.2226 18.5018 4.4367L15.7585 7.18006C13.5554 5.45736 10.443 5.45736 8.23999 7.18006Z" fill="currentColor"/>
<path d="M16.8191 8.24072L19.5625 5.49736C22.7766 9.22774 22.7766 14.7722 19.5625 18.5026L16.8191 15.7592C18.5418 13.5561 18.5418 10.4438 16.8191 8.24072Z" fill="currentColor"/>
<path d="M15.7585 16.8198L18.5018 19.5632C14.7714 22.7773 9.22701 22.7773 5.49663 19.5632L8.23999 16.8198C10.443 18.5425 13.5554 18.5425 15.7585 16.8198Z" fill="currentColor"/>
<path d="M7.17933 15.7592L4.43597 18.5025C1.22186 14.7722 1.22186 9.22774 4.43597 5.49736L7.17933 8.24072C5.45663 10.4438 5.45663 13.5561 7.17933 15.7592Z" fill="currentColor"/>
<path d="M8.73811 8.73884C10.5392 6.93777 13.4593 6.93777 15.2603 8.73884C17.0614 10.5399 17.0614 13.46 15.2603 15.2611C13.4593 17.0621 10.5392 17.0621 8.73811 15.2611C6.93704 13.46 6.93704 10.5399 8.73811 8.73884Z" fill="currentColor"/>
</svg>
