<svg width="24" height="24" viewBox="0 0 24 24" fill="none" xmlns="http://www.w3.org/2000/svg">
<path d="M20.8286 2.95969C21.1548 2.84066 21.5 3.08217 21.5 3.42939V15.5706C21.5 15.9178 21.1548 16.1593 20.8286 16.0403L13.7308 13.4502V5.54977L20.8286 2.95969Z" fill="currentColor"/>
<path d="M12.7308 5.7406V13.2594L5.80511 12.7178C4.50395 12.6161 3.5 11.5305 3.5 10.2254V8.77455C3.5 7.46942 4.50395 6.3839 5.80511 6.28216L12.7308 5.7406Z" fill="currentColor"/>
<path d="M8.29464 20.1873L7.56613 13.8586L10.5522 14.092L11.2388 19.8421C11.3441 20.7241 10.6553 21.5 9.76707 21.5C9.01408 21.5 8.38075 20.9354 8.29464 20.1873Z" fill="currentColor"/>
</svg>
