<svg width="24" height="24" viewBox="0 0 24 24" fill="none" xmlns="http://www.w3.org/2000/svg">
<path d="M7.99999 10C8.55227 10 8.99999 10.4477 8.99999 11V12H9.99999C10.5523 12 11 12.4477 11 13C11 13.5523 10.5523 14 9.99999 14H8.99999V15C8.99999 15.5523 8.55227 16 7.99999 16C7.4477 16 6.99999 15.5523 6.99999 15V14H5.99999C5.4477 14 4.99999 13.5523 4.99999 13C4.99999 12.4477 5.4477 12 5.99999 12H6.99999V11C6.99999 10.4477 7.4477 10 7.99999 10Z" fill="currentColor"/>
<path d="M16 10C16.5523 10 17 10.4477 17 11C17 11.5523 16.5523 12 16 12C15.4477 12 15 11.5523 15 11C15 10.4477 15.4477 10 16 10Z" fill="currentColor"/>
<path d="M17 15C17 14.4477 16.5523 14 16 14C15.4477 14 15 14.4477 15 15C15 15.5523 15.4477 16 16 16C16.5523 16 17 15.5523 17 15Z" fill="currentColor"/>
<path d="M18 12C18.5523 12 19 12.4477 19 13C19 13.5523 18.5523 14 18 14C17.4477 14 17 13.5523 17 13C17 12.4477 17.4477 12 18 12Z" fill="currentColor"/>
<path d="M15 13C15 12.4477 14.5523 12 14 12C13.4477 12 13 12.4477 13 13C13 13.5523 13.4477 14 14 14C14.5523 14 15 13.5523 15 13Z" fill="currentColor"/>
<path fill-rule="evenodd" clip-rule="evenodd" d="M15.9999 2.99997C15.9999 2.44769 15.5522 1.99999 14.9999 2C14.4476 2.00001 13.9999 2.44774 13.9999 3.00003C13.9999 3.17334 13.9397 3.45556 13.7884 3.66571C13.6738 3.82487 13.4741 4 13 4C12.4702 4 11.9655 4.10956 11.5511 4.39767C11.1183 4.69848 10.8896 5.12054 10.7983 5.53514C10.7754 5.6392 10.7609 5.74337 10.7534 5.84673C6.42225 5.51731 2.48621 8.46986 1.6257 12.7724L1.40262 13.8878C1.10725 15.3647 1.37294 16.8986 2.14782 18.19C3.55726 20.5391 6.36844 21.649 9.00249 20.8964L10.375 20.5043C11.4371 20.2008 12.5629 20.2008 13.625 20.5043L14.9975 20.8964C17.6315 21.649 20.4427 20.5391 21.8522 18.19C22.627 16.8986 22.8927 15.3647 22.5974 13.8878L22.3743 12.7724C21.5699 8.75069 18.0784 5.90848 14.0889 5.82364C14.6608 5.62282 15.1007 5.266 15.4115 4.83429C15.8602 4.21111 15.9999 3.49333 15.9999 2.99997ZM11.6401 7.93301C11.8656 8.01992 12.1217 8.02529 12.3601 7.933C12.598 7.92308 12.8356 7.90333 13.0723 7.87374C16.5275 7.44184 19.7302 9.75021 20.4131 13.1647L20.6362 14.2801C20.834 15.269 20.6561 16.2962 20.1372 17.161C19.1933 18.7341 17.3108 19.4774 15.5469 18.9734L14.1744 18.5813C12.7532 18.1752 11.2467 18.1752 9.82555 18.5813L8.45305 18.9734C6.68915 19.4774 4.80664 18.7341 3.86281 17.161C3.34391 16.2962 3.16599 15.269 3.36378 14.2801L3.58686 13.1647C4.26975 9.75021 7.47245 7.44184 10.9276 7.87374C11.1644 7.90334 11.4021 7.92309 11.6401 7.93301Z" fill="currentColor"/>
</svg>
