<svg width="24" height="24" viewBox="0 0 24 24" fill="none" xmlns="http://www.w3.org/2000/svg">
<path d="M4.92556 3.51467L4.39002 4.0502C3.82741 4.61281 3.51397 5.37923 3.6999 6.15285C4.09723 7.80613 5.33186 10.992 9.1682 14.8284C13.0045 18.6647 16.1904 19.8993 17.8437 20.2967C18.6173 20.4826 19.3838 20.1692 19.9464 19.6066L20.4819 19.071C21.6535 17.8994 21.6535 15.9999 20.4819 14.8284L19.553 13.8995C18.5981 12.9446 17.1228 12.7454 15.9488 13.4129L15.8523 13.4678C14.9117 14.0027 13.7478 14.0001 12.8713 13.3658C12.4346 13.0497 11.9823 12.6927 11.6431 12.3535C11.3039 12.0143 10.9468 11.5619 10.6308 11.1252C9.99645 10.2487 9.99391 9.08485 10.5287 8.1443L10.5836 8.04777C11.2512 6.8738 11.052 5.39849 10.0971 4.44354L9.1682 3.51466C7.99662 2.34309 6.09713 2.34309 4.92556 3.51467Z" fill="currentColor"/>
<path d="M13.7369 9.32658C13.7666 9.83264 14.1703 10.2364 14.6764 10.2661L16.6799 10.384C17.2312 10.4164 17.7044 9.99577 17.7369 9.44443C17.7652 8.96211 17.4469 8.53956 16.9976 8.41962L18.9778 6.43943C19.3683 6.04891 19.3683 5.41574 18.9778 5.02522C18.5872 4.6347 17.9541 4.6347 17.5636 5.02522L15.5834 7.00541C15.4634 6.55613 15.0409 6.23775 14.5586 6.26612C14.0072 6.29855 13.5866 6.77178 13.619 7.32311L13.7369 9.32658Z" fill="currentColor"/>
</svg>
