<svg width="24" height="24" viewBox="0 0 24 24" fill="none" xmlns="http://www.w3.org/2000/svg">
<path fill-rule="evenodd" clip-rule="evenodd" d="M3.12087 9.87873L9.87824 3.12136C11.0498 1.94978 12.9493 1.94978 14.1209 3.12136L20.8783 9.87873C22.0498 11.0503 22.0498 12.9498 20.8783 14.1214L14.1209 20.8787C12.9493 22.0503 11.0498 22.0503 9.87824 20.8787L3.12087 14.1214C1.94929 12.9498 1.94929 11.0503 3.12087 9.87873ZM13.752 7.70839C13.3278 7.35483 12.6972 7.41215 12.3436 7.83643C12.059 8.17802 12.0407 8.65334 12.2658 9.01015C10.9078 9.78029 9.99955 11.2386 9.99955 12.8989L9.99955 15.7737C9.99955 16.326 10.4473 16.7737 10.9995 16.7737C11.5518 16.7737 11.9995 16.326 11.9995 15.7737V12.8989C11.9995 12.305 12.21 11.7578 12.562 11.3304C12.6482 11.5559 12.8158 11.751 13.0487 11.8674C13.5427 12.1144 14.1434 11.9142 14.3903 11.4202L15.1507 9.89952C15.2319 9.74427 15.2734 9.56567 15.2623 9.37803C15.2454 9.08993 15.1081 8.83751 14.9021 8.66678L13.752 7.70839Z" fill="currentColor"/>
</svg>
