<svg width="24" height="24" viewBox="0 0 24 24" fill="none" xmlns="http://www.w3.org/2000/svg">
<path fill-rule="evenodd" clip-rule="evenodd" d="M0.88843 6.90546C0.91148 6.72029 0.947856 6.47281 1.02555 6.24541C1.07322 6.01411 1.17814 5.82927 1.27038 5.70077C1.39713 5.52419 1.55234 5.38006 1.69472 5.26596C1.97984 5.03748 2.34698 4.82469 2.73176 4.6302C3.51135 4.23615 4.54399 3.82823 5.60621 3.44848C7.74092 2.68531 10.1304 1.98859 11.1803 1.69091C11.727 1.53588 12.2952 1.54322 12.8368 1.71014C13.8829 2.03257 16.2674 2.78267 18.3965 3.5629C19.4568 3.95144 20.4807 4.35717 21.2498 4.72861C21.6292 4.91182 21.9856 5.1051 22.2608 5.30207C22.3963 5.39911 22.5501 5.52359 22.6796 5.67667C22.7657 5.77845 22.9047 5.96696 22.9672 6.22728C23.0493 6.45958 23.087 6.71535 23.1107 6.90543C23.1464 7.1925 23.1709 7.5392 23.1878 7.91853C23.2216 8.67984 23.2273 9.63569 23.2174 10.638C23.1976 12.6461 23.1143 14.8948 23.0565 16.2631C23.0068 17.4416 22.2671 18.4702 21.1803 18.9049L13.1137 22.1315C12.3985 22.4176 11.6006 22.4176 10.8854 22.1315L2.81884 18.9049C1.73201 18.4702 0.992322 17.4416 0.942562 16.2631C0.884789 14.8948 0.801574 12.6461 0.781721 10.638C0.771812 9.63567 0.777519 8.67984 0.811357 7.91854C0.828217 7.53921 0.852698 7.19252 0.88843 6.90546ZM10.9995 20.0231V11.1746C10.962 11.1613 10.9247 11.1472 10.8876 11.1324L2.81428 7.90307L2.80938 8.00735C2.77793 8.71495 2.77184 9.6288 2.78162 10.6182C2.80115 12.5936 2.88328 14.8167 2.94078 16.1787C2.95696 16.5618 3.19723 16.9022 3.56162 17.0479L10.9995 20.0231ZM12.9995 20.0231V11.1746C13.037 11.1613 13.0743 11.1473 13.1115 11.1324L21.1849 7.90305L21.1898 8.00737C21.2212 8.71496 21.2273 9.62882 21.2175 10.6182C21.198 12.5936 21.1158 14.8168 21.0583 16.1787C21.0421 16.5618 20.8019 16.9022 20.4375 17.0479L12.9995 20.0231ZM17.7084 5.44078C18.5007 5.73114 19.2389 6.01939 19.8454 6.28476L17.0159 7.41655L9.67159 4.2198C10.5246 3.95959 11.2572 3.74794 11.7258 3.61506C11.8995 3.56582 12.0736 3.56776 12.2477 3.62141C13.2857 3.94135 15.6298 4.67908 17.7084 5.44078ZM6.79689 5.14979L14.4045 8.46113L12.3687 9.27546C12.1303 9.37082 11.8688 9.37082 11.6304 9.27546L4.01791 6.23046C4.64056 5.94394 5.42602 5.63687 6.27949 5.33175C6.45042 5.27064 6.62318 5.20992 6.79689 5.14979Z" fill="currentColor"/>
</svg>
