<svg width="24" height="24" viewBox="0 0 24 24" fill="none" xmlns="http://www.w3.org/2000/svg">
<path d="M2 9C2 9.55229 2.44772 10 3 10C3.55228 10 4 9.55229 4 9C4 6.98929 4.66116 5.76652 5.43394 5.04204C5.64936 4.84008 5.8795 4.67114 6.1159 4.53213L6.10557 4.55279C5.85858 5.04677 6.05881 5.64744 6.55279 5.89443C7.04676 6.14142 7.64744 5.94119 7.89443 5.44722L8.89443 3.44722C9.14142 2.95324 8.94119 2.35256 8.44721 2.10557L6.44721 1.10557C5.95324 0.858585 5.35256 1.05881 5.10557 1.55279C4.909 1.94593 4.9957 2.40666 5.28831 2.70288C4.86293 2.93264 4.44934 3.22364 4.06606 3.58296C2.83884 4.73349 2 6.51072 2 9Z" fill="currentColor"/>
<path d="M22 8C22 11.3137 19.3137 14 16 14C15.9151 14 15.8306 13.9982 15.7466 13.9947C15.0221 11.1878 12.8122 8.9779 10.0053 8.25339C10.0018 8.16936 10 8.08489 10 8C10 4.68629 12.6863 2 16 2C19.3137 2 22 4.68629 22 8Z" fill="currentColor"/>
<path fill-rule="evenodd" clip-rule="evenodd" d="M14 16C14 19.3137 11.3137 22 8 22C4.68629 22 2 19.3137 2 16C2 12.6863 4.68629 10 8 10C11.3137 10 14 12.6863 14 16ZM7.3207 18.038C7.10689 17.3965 6.60355 16.8932 5.96211 16.6794C5.30929 16.4618 5.30929 15.5384 5.96211 15.3208C6.60355 15.1069 7.10689 14.6036 7.3207 13.9622C7.53831 13.3094 8.46169 13.3094 8.6793 13.9622C8.89311 14.6036 9.39645 15.1069 10.0379 15.3208C10.6907 15.5384 10.6907 16.4618 10.0379 16.6794C9.39645 16.8932 8.89311 17.3965 8.6793 18.038C8.46169 18.6908 7.53831 18.6908 7.3207 18.038Z" fill="currentColor"/>
<path d="M21 14C21.5523 14 22 14.4477 22 15C22 17.4893 21.1612 19.2665 19.9339 20.417C19.5507 20.7764 19.1371 21.0674 18.7117 21.2971C19.0043 21.5933 19.091 22.0541 18.8944 22.4472C18.6474 22.9412 18.0468 23.1414 17.5528 22.8944L15.5528 21.8944C15.0588 21.6474 14.8586 21.0468 15.1056 20.5528L16.1056 18.5528C16.3526 18.0588 16.9532 17.8586 17.4472 18.1056C17.9412 18.3526 18.1414 18.9532 17.8944 19.4472L17.8841 19.4679C18.1205 19.3289 18.3506 19.1599 18.5661 18.958C19.3388 18.2335 20 17.0107 20 15C20 14.4477 20.4477 14 21 14Z" fill="currentColor"/>
</svg>
