<svg width="24" height="24" viewBox="0 0 24 24" fill="none" xmlns="http://www.w3.org/2000/svg">
<path d="M5.55279 10.8944C5.05881 10.6474 4.85858 10.0468 5.10557 9.5528C5.35256 9.05882 5.95324 8.85859 6.44721 9.10558L9.44721 10.6056C9.94119 10.8526 10.1414 11.4532 9.89443 11.9472C9.64744 12.4412 9.04676 12.6414 8.55279 12.3944L5.55279 10.8944Z" fill="currentColor"/>
<path d="M5.55279 13.8944C5.05881 13.6474 4.85858 13.0468 5.10557 12.5528C5.35256 12.0588 5.95324 11.8586 6.44721 12.1056L9.44721 13.6056C9.94119 13.8526 10.1414 14.4532 9.89443 14.9472C9.64744 15.4412 9.04676 15.6414 8.55279 15.3944L5.55279 13.8944Z" fill="currentColor"/>
<path d="M18.8944 9.5528C19.1414 10.0468 18.9412 10.6474 18.4472 10.8944L15.4472 12.3944C14.9532 12.6414 14.3526 12.4412 14.1056 11.9472C13.8586 11.4532 14.0588 10.8526 14.5528 10.6056L17.5528 9.10558C18.0468 8.85859 18.6474 9.05882 18.8944 9.5528Z" fill="currentColor"/>
<path d="M18.8944 12.5528C19.1414 13.0468 18.9412 13.6474 18.4472 13.8944L15.4472 15.3944C14.9532 15.6414 14.3526 15.4412 14.1056 14.9472C13.8586 14.4532 14.0588 13.8526 14.5528 13.6056L17.5528 12.1056C18.0468 11.8586 18.6474 12.0588 18.8944 12.5528Z" fill="currentColor"/>
<path fill-rule="evenodd" clip-rule="evenodd" d="M12 20C12.3502 20.9367 12.3502 20.9367 12.3503 20.9366L12.3594 20.9332L12.3835 20.9241L12.4742 20.8897C12.5525 20.8598 12.6658 20.8162 12.8071 20.7608C13.0897 20.6501 13.4855 20.492 13.9405 20.3017C14.844 19.9237 16.0062 19.4082 16.9787 18.878C18.0587 18.2892 19.6546 17.6167 20.6095 17.2305C21.4414 16.894 22 16.0865 22 15.1753V5.56921C22 4.12799 20.6204 3.04736 19.2006 3.48369C18.2643 3.77144 17.0382 4.17501 16.1008 4.58314C15.1215 5.00951 13.9538 5.65997 13.0529 6.18836C12.6398 6.43062 12.2753 6.65173 12 6.82114C11.7247 6.65173 11.3602 6.43062 10.9471 6.18836C10.0462 5.65997 8.8785 5.00951 7.89918 4.58314C6.96177 4.17501 5.73568 3.77144 4.79939 3.48369C3.37964 3.04736 2 4.12799 2 5.56921V15.1753C2 16.0865 2.55861 16.894 3.39051 17.2305C4.34538 17.6167 5.94127 18.2892 7.02134 18.878C7.99383 19.4082 9.15605 19.9237 10.0595 20.3017C10.5145 20.492 10.9103 20.6501 11.1929 20.7608C11.3342 20.8162 11.4475 20.8598 11.5258 20.8897L11.6165 20.9241L11.6406 20.9332L11.649 20.9364C11.649 20.9364 11.6498 20.9367 12 20ZM4.21185 5.39544C4.12004 5.36723 4 5.4291 4 5.56921V15.1753C4 15.2578 4.05132 15.3404 4.14048 15.3764C5.0946 15.7624 6.78695 16.4723 7.97866 17.122C8.86058 17.6028 9.94836 18.0872 10.8313 18.4566C10.8885 18.4805 10.9448 18.5039 11 18.5268V8.55415C10.7294 8.38719 10.3584 8.16171 9.9353 7.91353C9.04701 7.39254 7.96473 6.79301 7.10082 6.41688C6.2725 6.05625 5.13671 5.67968 4.21185 5.39544ZM13 8.55415V18.5268C13.0552 18.5039 13.1115 18.4805 13.1687 18.4566C14.0516 18.0872 15.1394 17.6028 16.0213 17.122C17.2131 16.4723 18.9054 15.7624 19.8595 15.3764C19.9487 15.3404 20 15.2578 20 15.1753V5.56921C20 5.4291 19.88 5.36723 19.7881 5.39544C18.8633 5.67968 17.7275 6.05625 16.8992 6.41688C16.0353 6.79301 14.953 7.39254 14.0647 7.91353C13.6416 8.16171 13.2706 8.38719 13 8.55415Z" fill="currentColor"/>
<path d="M12 20L12.3503 20.9366C12.1245 21.0211 11.8748 21.0208 11.649 20.9364L12 20Z" fill="currentColor"/>
</svg>
