<svg width="24" height="24" viewBox="0 0 24 24" fill="none" xmlns="http://www.w3.org/2000/svg">
<path d="M8.32636 6.09622L4.57574 6.63202C3.09779 6.84316 2 8.10892 2 9.60187V14.3981C2 15.8911 3.09779 17.1568 4.57573 17.3679L8.32636 17.9038C8.76982 17.9671 9.19347 18.129 9.56619 18.3774L13.4453 20.9635C14.1099 21.4066 15 20.9302 15 20.1315V3.8685C15 3.06981 14.1099 2.59342 13.4453 3.03645L9.56619 5.62252C9.19347 5.87101 8.76982 6.03287 8.32636 6.09622Z" fill="currentColor"/>
<path d="M16.5592 14.589C16.372 14.0694 16.6414 13.4965 17.161 13.3092C17.686 13.12 18 12.613 18 12C18 11.3869 17.686 10.88 17.161 10.6908C16.6414 10.5035 16.372 9.93053 16.5592 9.41095C16.7465 8.89138 17.3195 8.62197 17.839 8.80921C19.314 9.34074 20 10.7234 20 12C20 13.2766 19.314 14.6592 17.839 15.1908C17.3195 15.378 16.7465 15.1086 16.5592 14.589Z" fill="currentColor"/>
<path d="M17.661 17.0592C17.1414 17.2465 16.872 17.8194 17.0592 18.339C17.2465 18.8586 17.8195 19.128 18.339 18.9408C21.4806 17.8086 23 14.8512 23 12C23 9.14873 21.4806 6.19137 18.339 5.05921C17.8195 4.87197 17.2465 5.14138 17.0592 5.66095C16.872 6.18052 17.1414 6.75352 17.661 6.94076C19.8527 7.73062 21 9.81226 21 12C21 14.1877 19.8527 16.2694 17.661 17.0592Z" fill="currentColor"/>
</svg>
