<svg width="24" height="24" viewBox="0 0 24 24" fill="none" xmlns="http://www.w3.org/2000/svg">
<path fill-rule="evenodd" clip-rule="evenodd" d="M5.29445 12.7189L3.19254 9.28575C1.96056 7.27352 2.50698 4.65008 4.43989 3.29704C5.97713 2.22097 8.02317 2.22097 9.56042 3.29704C11.4933 4.65008 12.0397 7.27352 10.8078 9.28575L8.70585 12.7189C8.4142 13.1952 7.97288 13.4935 7.4938 13.6137C7.46562 13.8603 7.34617 14.0968 7.14047 14.2682C6.82592 14.5303 6.50638 15.0332 6.47373 15.6182C6.44419 16.1474 6.64157 16.8994 7.64046 17.7318C8.65101 18.5739 10.331 19.191 12.1845 19.6124C13.2986 19.8657 14.422 20.037 15.4053 20.1504L13.6576 17.2958C12.4256 15.2835 12.9721 12.6601 14.905 11.3071C16.4422 10.231 18.4883 10.231 20.0255 11.3071C21.9584 12.6601 22.5048 15.2835 21.2729 17.2958L19.1709 20.7289C18.8766 21.2097 18.4298 21.509 17.9456 21.627C17.802 22.0429 17.3939 22.3285 16.9338 22.2978C15.6523 22.2124 13.6966 22.0072 11.7411 21.5626C9.81957 21.1257 7.74954 20.4261 6.36009 19.2682C4.95898 18.1006 4.40637 16.7692 4.47684 15.5068C4.53337 14.4939 4.98663 13.6287 5.53614 13.0391C5.44758 12.9432 5.36645 12.8365 5.29445 12.7189ZM7.00024 8.70483C7.96674 8.70483 8.75024 7.92133 8.75024 6.95483C8.75024 5.98834 7.96674 5.20483 7.00024 5.20483C6.03375 5.20483 5.25024 5.98834 5.25024 6.95483C5.25024 7.92133 6.03375 8.70483 7.00024 8.70483ZM17.4702 16.71C18.4367 16.71 19.2202 15.9265 19.2202 14.96C19.2202 13.9935 18.4367 13.21 17.4702 13.21C16.5037 13.21 15.7202 13.9935 15.7202 14.96C15.7202 15.9265 16.5037 16.71 17.4702 16.71Z" fill="currentColor"/>
</svg>
