<svg width="24" height="24" viewBox="0 0 24 24" fill="none" xmlns="http://www.w3.org/2000/svg">
<path fill-rule="evenodd" clip-rule="evenodd" d="M20.5961 2.90997C19.2495 1.56338 17.0662 1.56338 15.7196 2.90997L7.19416 11.4354C6.58217 12.0474 6.18518 12.8414 6.06279 13.6982L5.81573 15.4275C5.62717 16.7475 6.75854 17.8788 8.07847 17.6903L9.80784 17.4432C10.6646 17.3208 11.4586 16.9238 12.0706 16.3119L20.5961 7.78639C21.9426 6.43981 21.9426 4.25655 20.5961 2.90997ZM17.3433 4.15049C17.907 3.76622 18.6818 3.82412 19.1818 4.32418C19.6819 4.82424 19.7398 5.59903 19.3555 6.1627L17.3433 4.15049ZM15.9112 5.54681L17.9592 7.59481L10.6564 14.8976C10.3504 15.2036 9.95339 15.4021 9.525 15.4633L7.79563 15.7104L8.04269 13.981C8.10388 13.5526 8.30238 13.1556 8.60837 12.8496L15.9112 5.54681Z" fill="currentColor"/>
<path d="M6 1.99998C3.79086 1.99998 2 3.79084 2 5.99998V18C2 20.2091 3.79086 22 6 22H18C20.2091 22 22 20.2091 22 18V12C22 11.4477 21.5523 11 21 11C20.4477 11 20 11.4477 20 12V18C20 19.1045 19.1046 20 18 20H6C4.89543 20 4 19.1045 4 18V5.99998C4 4.89541 4.89543 3.99998 6 3.99998H8.68421C9.2365 3.99998 9.68421 3.55226 9.68421 2.99998C9.68421 2.44769 9.2365 1.99998 8.68421 1.99998H6Z" fill="currentColor"/>
</svg>
