<svg width="24" height="24" viewBox="0 0 24 24" fill="none" xmlns="http://www.w3.org/2000/svg">
<path fill-rule="evenodd" clip-rule="evenodd" d="M18.2898 5.08647L16.7423 4.39999L13.1157 2.94701C12.3996 2.66008 11.6004 2.66008 10.8843 2.94701L7.25769 4.39999L5.71016 5.08647C4.68715 5.54027 3.99991 6.52445 4 7.6436C4.00017 9.61761 4.15023 12.7662 4.99378 14.85C6.0707 17.5103 8.96609 19.6495 10.679 20.7311C11.4913 21.2441 12.5087 21.2441 13.321 20.7311C15.0339 19.6495 17.9293 17.5103 19.0062 14.85C19.8498 12.7662 19.9998 9.61761 20 7.6436C20.0001 6.52445 19.3129 5.54027 18.2898 5.08647ZM14.6961 11.2071C15.0866 10.8166 15.0866 10.1834 14.6961 9.79287C14.3056 9.40234 13.6724 9.40234 13.2819 9.79286L11.3431 11.7316L11.0613 11.4497C10.6707 11.0592 10.0376 11.0592 9.64705 11.4497C9.25652 11.8402 9.25652 12.4734 9.64705 12.8639L10.636 13.8529C11.0266 14.2434 11.6597 14.2434 12.0503 13.8529L14.6961 11.2071Z" fill="currentColor"/>
</svg>
