<svg width="24" height="24" viewBox="0 0 24 24" fill="none" xmlns="http://www.w3.org/2000/svg">
<path fill-rule="evenodd" clip-rule="evenodd" d="M12 5.07703L4.6926 8L7.36931 9.07068L7.37323 9.07225L12 10.923L16.6266 9.07232L16.6309 9.0706L19.3074 8L12 5.07703ZM2.78923 9.39271L4.30744 10L2.78923 10.6073C1.53201 11.1102 1.53201 12.8898 2.78923 13.3927L4.30744 14L2.78923 14.6073C1.53201 15.1102 1.53201 16.8898 2.78923 17.3927L11.4429 20.8542C11.8006 20.9972 12.1995 20.9972 12.5571 20.8542L21.2108 17.3927C22.468 16.8898 22.468 15.1102 21.2108 14.6073L19.6926 14L21.2108 13.3927C22.468 12.8898 22.468 11.1102 21.2108 10.6073L19.6926 10L21.2108 9.39271C22.468 8.88983 22.468 7.11017 21.2108 6.60728L12.5571 3.1458C12.1995 3.00275 11.8006 3.00275 11.4429 3.1458L2.78923 6.60728C1.53201 7.11017 1.53201 8.88982 2.78923 9.39271ZM16.6269 13.0722C16.6281 13.0717 16.6294 13.0712 16.6307 13.0707L19.3074 12L17 11.077L12.5571 12.8542C12.1995 12.9972 11.8006 12.9972 11.4429 12.8542L7.00002 11.077L4.6926 12L7.3699 13.0709C7.37081 13.0713 7.37173 13.0716 7.37264 13.072L12 14.923L16.6269 13.0722ZM7.00002 15.077L11.4429 16.8542C11.8006 16.9972 12.1995 16.9972 12.5571 16.8542L17 15.077L19.3074 16L12 18.923L4.6926 16L7.00002 15.077Z" fill="currentColor"/>
</svg>
