<svg width="24" height="24" viewBox="0 0 24 24" fill="none" xmlns="http://www.w3.org/2000/svg">
<path d="M13.752 7.70839C13.3278 7.35483 12.6972 7.41215 12.3436 7.83643C12.059 8.17802 12.0407 8.65334 12.2658 9.01015C10.9078 9.78029 9.99955 11.2386 9.99955 12.8989V15.7737C9.99955 16.326 10.4473 16.7737 10.9995 16.7737C11.5518 16.7737 11.9995 16.326 11.9995 15.7737V12.8989C11.9995 12.305 12.21 11.7578 12.562 11.3304C12.6482 11.5559 12.8158 11.751 13.0487 11.8674C13.5427 12.1144 14.1434 11.9142 14.3903 11.4202L15.1507 9.89952C15.2319 9.74427 15.2734 9.56567 15.2623 9.37803C15.2454 9.08993 15.1081 8.83751 14.9021 8.66678L13.752 7.70839Z" fill="currentColor"/>
<path fill-rule="evenodd" clip-rule="evenodd" d="M2.41376 9.17162C0.851663 10.7337 0.851663 13.2664 2.41376 14.8285L9.17113 21.5858C10.7332 23.1479 13.2659 23.1479 14.828 21.5858L21.5854 14.8285C23.1475 13.2664 23.1475 10.7337 21.5854 9.17162L14.828 2.41425C13.2659 0.852151 10.7332 0.852152 9.17113 2.41425L2.41376 9.17162ZM3.82797 13.4143C3.04693 12.6332 3.04693 11.3669 3.82797 10.5858L10.5853 3.82846C11.3664 3.04741 12.6327 3.04741 13.4138 3.82846L20.1711 10.5858C20.9522 11.3669 20.9522 12.6332 20.1711 13.4143L13.4138 20.1716C12.6327 20.9527 11.3664 20.9527 10.5853 20.1716L3.82797 13.4143Z" fill="currentColor"/>
</svg>
