<svg width="24" height="24" viewBox="0 0 24 24" fill="none" xmlns="http://www.w3.org/2000/svg">
<path d="M8.88516 3.49716L10.8276 3.0208C11.364 2.88926 11.9055 3.21745 12.037 3.75385L15.8479 19.2934C15.9794 19.8298 15.6512 20.3712 15.1148 20.5028L13.1724 20.9791C12.636 21.1107 12.0945 20.7825 11.963 20.2461L8.15212 4.70656C8.02058 4.17017 8.34877 3.6287 8.88516 3.49716Z" fill="currentColor"/>
<path d="M6 2.99999H4C3.44772 2.99999 3 3.4477 3 3.99999V20C3 20.5523 3.44772 21 4 21H6C6.55228 21 7 20.5523 7 20V3.99999C7 3.4477 6.55228 2.99999 6 2.99999Z" fill="currentColor"/>
<path d="M20 2.99999H18C17.4477 2.99999 17 3.4477 17 3.99999V20C17 20.5523 17.4477 21 18 21H20C20.5523 21 21 20.5523 21 20V3.99999C21 3.4477 20.5523 2.99999 20 2.99999Z" fill="currentColor"/>
</svg>
