<svg width="24" height="24" viewBox="0 0 24 24" fill="none" xmlns="http://www.w3.org/2000/svg">
<path fill-rule="evenodd" clip-rule="evenodd" d="M12.4372 3.04819C10.5983 2.7215 8.85437 4.10126 8.85437 5.99632V13.9659C8.20094 13.7433 7.35486 13.5815 6.27993 13.5815C4.91957 13.5815 3.92491 13.8406 3.22269 14.1553C1.91853 14.7399 1.77231 16.1801 2.267 17.1552C2.5771 17.7665 3.04935 18.5757 3.66791 19.2461C4.26967 19.8983 5.15226 20.5709 6.27993 20.5709C9.11371 20.5709 10.8544 18.0356 10.8544 15.6903V8.29428L19.8684 9.92193L19.6654 14.4116C19.0071 14.181 18.146 14.0107 17.043 14.0107C15.6826 14.0107 14.6879 14.2697 13.9857 14.5844C12.6816 15.169 12.5353 16.6092 13.03 17.5843C13.3401 18.1956 13.8124 19.0048 14.4309 19.6752C15.0327 20.3274 15.9153 21 17.043 21C19.536 21 21.1919 19.0186 21.5435 16.9775C21.5703 16.8225 21.58 16.6645 21.5727 16.507L21.9056 9.14514L21.9059 9.13845L21.996 7.40366C22.0751 5.88082 20.9869 4.56706 19.4977 4.30251L12.4372 3.04819ZM8.6279 16.0317C8.70234 16.0686 8.76696 16.1047 8.82242 16.1383C8.63026 17.4781 7.59227 18.5709 6.27993 18.5709C5.9803 18.5709 5.59399 18.3843 5.13783 17.8899C4.69848 17.4137 4.32381 16.7889 4.0506 16.2503C3.9916 16.134 3.99675 16.0472 4.00529 16.0145C4.00554 16.0136 4.00578 16.0127 4.00603 16.0118C4.00774 16.0059 4.00936 16.0023 4.01026 16.0005C4.01119 15.9987 4.01173 15.998 4.01184 15.9979C4.01193 15.9978 4.01298 15.9965 4.01611 15.9941C4.01935 15.9917 4.02685 15.9866 4.04072 15.9804C4.4662 15.7897 5.17942 15.5815 6.27993 15.5815C7.47791 15.5815 8.21776 15.8281 8.6279 16.0317ZM19.9672 7.90741L10.8544 6.26194V5.99632C10.8544 5.40109 11.4187 4.89857 12.0874 5.01736L19.1479 6.27168C19.6784 6.36593 20.0237 6.81964 19.9987 7.29992L19.9672 7.90741ZM19.5648 16.5558C19.5649 16.556 19.5663 16.5575 19.5682 16.5618L19.5621 16.6957C19.3139 17.9979 18.3115 19 17.043 19C16.7433 19 16.357 18.8134 15.9009 18.319C15.4615 17.8428 15.0868 17.218 14.8136 16.6795C14.7546 16.5632 14.7598 16.4763 14.7683 16.4436C14.7686 16.4427 14.7688 16.4418 14.7691 16.4409C14.7708 16.435 14.7724 16.4314 14.7733 16.4296C14.7738 16.4286 14.7742 16.428 14.7744 16.4276M19.5648 16.5558L19.5638 16.5549L19.5648 16.5558ZM19.5638 16.5549C19.5632 16.5544 19.5618 16.5533 19.5592 16.5517L19.5638 16.5549ZM19.5592 16.5517C19.1942 16.3366 18.4205 16.0107 17.043 16.0107L19.5592 16.5517ZM17.043 16.0107C15.9425 16.0107 15.2292 16.2188 14.8038 16.4095L17.043 16.0107ZM14.8038 16.4095C14.7899 16.4157 14.7824 16.4208 14.7791 16.4233L14.8038 16.4095ZM14.7791 16.4233L14.7759 16.4259L14.7791 16.4233ZM14.7759 16.4259L14.7744 16.4276L14.7759 16.4259Z" fill="currentColor"/>
</svg>
