<svg width="84" height="72" viewBox="0 0 84 72" fill="none" xmlns="http://www.w3.org/2000/svg">
<path d="M42 70.023C64.2778 70.023 82.3374 62.9384 82.3374 54.199C82.3374 45.4597 64.2778 38.375 42 38.375C19.7223 38.375 1.6626 45.4597 1.6626 54.199C1.6626 62.9384 19.7223 70.023 42 70.023Z" fill="#F9FAFB"/>
<path d="M43.3256 7.32255C43.248 7.21766 43.1595 7.12151 43.0612 7.0352C42.7137 6.73146 42.2439 6.55664 41.7227 6.55664C41.5621 6.55664 41.3939 6.57412 41.2234 6.60908C41.1404 6.62656 41.0595 6.64842 40.9798 6.67246C40.971 6.67464 40.9623 6.67683 40.9535 6.67901C40.9208 6.68994 40.888 6.70196 40.8552 6.71397C40.8421 6.71834 40.8279 6.72271 40.8148 6.72818C40.7613 6.74893 40.7077 6.77079 40.6553 6.79373C40.652 6.79482 40.6487 6.79701 40.6465 6.7981C40.5744 6.83088 40.5045 6.86694 40.4357 6.90518C40.4313 6.90736 40.428 6.90955 40.4236 6.91173C40.4073 6.92157 40.392 6.93249 40.3756 6.94233C40.333 6.96855 40.2903 6.99477 40.2488 7.02208C40.2412 7.02755 40.2324 7.03192 40.2248 7.03738C40.2084 7.04831 40.1931 7.06142 40.1767 7.07343C40.1428 7.09856 40.109 7.1226 40.0751 7.14882C40.0653 7.15647 40.0544 7.16412 40.0434 7.17177C40.0303 7.1827 40.0172 7.19471 40.0041 7.20564C39.9724 7.23186 39.9418 7.25918 39.9112 7.28649C39.8992 7.29742 39.8872 7.30725 39.8752 7.31818C39.8522 7.34003 39.8293 7.36188 39.8074 7.38482C39.7779 7.41542 39.7495 7.44601 39.7211 7.4766C39.7135 7.48425 39.708 7.49299 39.7003 7.50173C39.6676 7.53888 39.6359 7.57821 39.6053 7.61645C39.5944 7.63066 39.5813 7.64377 39.5714 7.65797C39.5681 7.66234 39.566 7.66671 39.5627 7.67108C39.5157 7.73336 39.472 7.79783 39.4316 7.86447C39.4294 7.86775 39.4272 7.86994 39.425 7.87321C39.3966 7.92019 39.3693 7.96827 39.3431 8.01634C39.3376 8.02618 39.3332 8.0371 39.3278 8.04694C39.3103 8.0819 39.2917 8.11686 39.2764 8.15183C39.2721 8.16057 39.2699 8.16931 39.2655 8.17805C39.2578 8.19662 39.2502 8.21519 39.2426 8.23486C39.2273 8.27201 39.2131 8.30916 39.1999 8.34631C39.1923 8.36597 39.1857 8.38673 39.1792 8.4064C39.1661 8.44573 39.1551 8.48397 39.1442 8.52331C39.1398 8.54188 39.1344 8.55936 39.13 8.57794C39.1158 8.63475 39.1038 8.69266 39.095 8.75056C39.0699 8.90571 39.0612 9.06523 39.0732 9.22366L39.13 10.0518L41.4922 13.2717L41.4354 12.4435C41.4234 12.284 41.4321 12.1256 41.4572 11.9704C41.466 11.9125 41.4791 11.8546 41.4922 11.7978C41.4966 11.7792 41.502 11.7618 41.5064 11.7432C41.5173 11.7038 41.5283 11.6645 41.5403 11.6263C41.5468 11.6066 41.5534 11.5858 41.561 11.5662C41.5741 11.529 41.5883 11.4919 41.6036 11.4547C41.6113 11.4362 41.6189 11.4176 41.6266 11.399C41.6463 11.3553 41.667 11.3116 41.6889 11.2679C41.6943 11.2581 41.6987 11.2471 41.7042 11.2373C41.7315 11.186 41.761 11.1346 41.7916 11.0843C41.832 11.0188 41.8768 10.9543 41.9227 10.891C41.9369 10.8724 41.9511 10.8549 41.9664 10.8363C41.997 10.797 42.0287 10.7588 42.0614 10.7216C42.0964 10.6823 42.1314 10.6429 42.1685 10.6047C42.2024 10.5708 42.2373 10.5391 42.2723 10.5064C42.3029 10.479 42.3335 10.4517 42.3652 10.4255C42.3881 10.4058 42.4122 10.3862 42.4362 10.3676C42.469 10.3414 42.5028 10.3163 42.5378 10.2922C42.5618 10.2747 42.5848 10.2573 42.6099 10.2409C42.6514 10.2135 42.694 10.1873 42.7367 10.1611C42.7574 10.1491 42.7771 10.136 42.7978 10.124C42.8667 10.0857 42.9366 10.0497 43.0087 10.0169C43.0644 9.99175 43.1202 9.96771 43.1781 9.94586C43.1912 9.9404 43.2054 9.93603 43.2185 9.93166C43.26 9.91636 43.3015 9.90325 43.3441 9.89014C43.4239 9.8661 43.5048 9.84316 43.5878 9.82677C43.7582 9.79181 43.9265 9.77432 44.0871 9.77432C44.6094 9.77432 45.0792 9.94914 45.4255 10.2529C45.5239 10.3392 45.6124 10.4343 45.6899 10.5402L43.3256 7.32255Z" fill="#D0D5DD"/>
<path d="M41.491 13.4905C41.4233 13.4905 41.3566 13.4588 41.3151 13.4009L38.9529 10.1799C38.9289 10.146 38.9136 10.1067 38.9114 10.0652L38.8546 9.237C38.8415 9.06874 38.8502 8.89174 38.8786 8.71365C38.8885 8.65465 38.9005 8.59237 38.9169 8.52463C38.9201 8.51043 38.9245 8.49513 38.9278 8.48093L38.9322 8.46454C38.9442 8.42193 38.9562 8.37932 38.9693 8.33671C38.977 8.31485 38.9846 8.293 38.9923 8.27006C39.0065 8.22963 39.0218 8.18921 39.0392 8.14878L39.0436 8.13676C39.0502 8.12037 39.0567 8.10398 39.0644 8.08759L39.0753 8.06028C39.0928 8.02204 39.1103 7.98708 39.1288 7.95102L39.1365 7.93573C39.1409 7.92699 39.1441 7.91934 39.1485 7.91059C39.1758 7.85815 39.2053 7.8068 39.237 7.75545C39.2392 7.75107 39.2457 7.74233 39.249 7.73796C39.2873 7.67678 39.3342 7.60576 39.3867 7.53693C39.3867 7.53583 39.3911 7.52928 39.3965 7.52273C39.4053 7.5118 39.414 7.50087 39.4238 7.48995L39.4337 7.47793C39.4664 7.43532 39.5003 7.3938 39.5364 7.35337C39.5451 7.34135 39.5517 7.3348 39.5582 7.32715C39.5888 7.29219 39.6205 7.25941 39.6522 7.22772C39.6762 7.20369 39.7003 7.17965 39.7254 7.15671C39.7352 7.14797 39.7451 7.13922 39.7549 7.13048L39.7647 7.12174C39.7964 7.09224 39.8303 7.06274 39.8642 7.03434L39.8762 7.02341C39.886 7.01467 39.8958 7.00593 39.9068 6.99719C39.9155 6.99063 39.9242 6.98408 39.933 6.97752C39.9756 6.94365 40.0127 6.91743 40.0499 6.8912L40.0641 6.88028C40.0761 6.87045 40.0881 6.86171 40.1012 6.85297C40.1089 6.8475 40.1165 6.84313 40.1242 6.83767C40.1712 6.80598 40.2171 6.77867 40.2629 6.75026L40.2771 6.74152C40.2892 6.73387 40.3023 6.72513 40.3154 6.71748C40.3198 6.7153 40.3296 6.70983 40.334 6.70765C40.4028 6.66941 40.4793 6.63008 40.5547 6.59511L40.5645 6.58965C40.6213 6.56452 40.6792 6.54048 40.7371 6.51863C40.747 6.51536 40.7579 6.51098 40.7677 6.50771L40.7983 6.49678C40.8278 6.48585 40.8573 6.47493 40.8879 6.46619C40.8977 6.46291 40.9076 6.46072 40.9174 6.45854C41.0147 6.42904 41.0988 6.40719 41.1807 6.3908C41.3654 6.35365 41.5478 6.33398 41.7237 6.33398C42.2864 6.33398 42.8131 6.523 43.2064 6.86608C43.3167 6.96332 43.4173 7.07148 43.5025 7.18839L45.8647 10.4083C45.9357 10.5055 45.9149 10.6421 45.8177 10.7142C45.7204 10.7852 45.5839 10.7644 45.5118 10.6672V10.6661C45.4451 10.5754 45.3675 10.4902 45.2812 10.4148C44.9677 10.1406 44.5437 9.9898 44.0859 9.9898C43.9384 9.9898 43.7855 10.0062 43.6303 10.0379C43.5637 10.0521 43.4905 10.0707 43.4074 10.0958C43.3681 10.1078 43.3299 10.1198 43.2916 10.134L43.2545 10.1471C43.202 10.1668 43.1507 10.1887 43.0993 10.2116C43.0349 10.2411 42.9693 10.2739 42.9048 10.311C42.8939 10.3165 42.8841 10.323 42.8742 10.3296L42.848 10.3449C42.8087 10.3689 42.7694 10.393 42.7311 10.4181C42.7125 10.4301 42.6962 10.4432 42.6787 10.4552L42.6656 10.4651C42.6339 10.488 42.6033 10.511 42.5727 10.535C42.5508 10.5525 42.529 10.57 42.5071 10.5885C42.4787 10.6126 42.4503 10.6377 42.4219 10.6628L42.4121 10.6716C42.3826 10.6978 42.3542 10.7251 42.3258 10.7535C42.2919 10.7885 42.2591 10.8245 42.2274 10.8606C42.1968 10.8956 42.1684 10.9305 42.14 10.9666L42.1225 10.9884C42.1149 10.9983 42.1072 11.007 42.0996 11.0168C42.0559 11.0758 42.0155 11.1359 41.9783 11.1938C41.9499 11.2397 41.9226 11.2867 41.8975 11.3337L41.8833 11.3621C41.8636 11.4003 41.8439 11.4408 41.8264 11.4801L41.8057 11.5314C41.7915 11.5653 41.7784 11.5992 41.7664 11.6331C41.7598 11.6516 41.7532 11.6691 41.7478 11.6877C41.7358 11.7237 41.7259 11.7587 41.7161 11.7948L41.703 11.8439C41.691 11.8953 41.68 11.9477 41.6713 11.9991C41.6484 12.1433 41.6418 12.2864 41.6516 12.4219L41.7084 13.2512C41.715 13.3484 41.6571 13.438 41.5653 13.4708C41.5413 13.4861 41.5162 13.4905 41.491 13.4905ZM39.343 9.97341L41.2222 12.5355L41.2168 12.4591C41.2037 12.2908 41.2124 12.1138 41.2408 11.9357C41.2506 11.8767 41.2627 11.8144 41.2791 11.7467C41.2823 11.7325 41.2867 11.7183 41.29 11.703L41.2944 11.6866C41.3053 11.644 41.3184 11.6014 41.3315 11.5588C41.3381 11.5369 41.3457 11.5151 41.3544 11.4921C41.3687 11.4517 41.3839 11.4113 41.4014 11.3708L41.4069 11.3577C41.4134 11.3424 41.42 11.326 41.4266 11.3107C41.4473 11.2627 41.4703 11.2157 41.4943 11.1687L41.5107 11.1359C41.5402 11.0802 41.5719 11.0245 41.6057 10.9709C41.6484 10.901 41.6964 10.8311 41.7478 10.7623C41.7587 10.7481 41.7696 10.7339 41.7806 10.7207L41.7948 10.7033C41.8275 10.6617 41.8614 10.6202 41.8975 10.5798C41.9346 10.5372 41.9729 10.4946 42.0133 10.4542C42.0461 10.4203 42.081 10.3886 42.116 10.3569L42.1258 10.3482C42.1586 10.3187 42.1914 10.2892 42.2252 10.2608C42.2504 10.24 42.2755 10.2192 42.3017 10.1985C42.3378 10.1701 42.3738 10.1439 42.411 10.1176L42.4241 10.1078C42.4459 10.0925 42.4667 10.0772 42.4886 10.0619C42.5333 10.0324 42.5792 10.004 42.6251 9.97669L42.6459 9.96467C42.6612 9.95593 42.6754 9.94609 42.6918 9.93735C42.7672 9.89474 42.8436 9.8565 42.919 9.82154C42.9791 9.79422 43.0392 9.7691 43.1015 9.74506L43.1452 9.72976C43.19 9.71337 43.2348 9.69917 43.2807 9.68496C43.3768 9.65546 43.4631 9.63252 43.544 9.61613C43.9745 9.52763 44.3908 9.54511 44.7688 9.65656L43.1518 7.4528C43.0851 7.36102 43.0064 7.27689 42.9201 7.2015C42.6066 6.92726 42.1815 6.77648 41.7248 6.77648C41.5784 6.77648 41.4244 6.79287 41.2692 6.82456C41.2015 6.83876 41.1305 6.85734 41.0463 6.88246C41.0376 6.88465 41.0289 6.88683 41.0201 6.88902C40.9972 6.89558 40.9731 6.90432 40.9491 6.91306L40.8945 6.93272C40.8442 6.9513 40.795 6.97206 40.747 6.99391C40.6738 7.02778 40.6082 7.06165 40.5448 7.09771C40.5405 7.09989 40.5306 7.10535 40.5263 7.10754C40.5274 7.10754 40.523 7.11082 40.5175 7.11409C40.5088 7.12065 40.4989 7.12611 40.4891 7.13158C40.4498 7.15561 40.4104 7.17965 40.3722 7.20478C40.3656 7.20915 40.358 7.21352 40.3514 7.21789C40.3438 7.22226 40.3383 7.22773 40.3329 7.2321C40.3241 7.23865 40.3154 7.24521 40.3066 7.25176C40.275 7.27471 40.2433 7.29765 40.2127 7.32169C40.205 7.32715 40.1985 7.33261 40.1908 7.33808L40.1712 7.35447C40.1635 7.36102 40.1559 7.36867 40.1471 7.37523C40.1187 7.39926 40.0903 7.42439 40.0619 7.44952C40.0543 7.45717 40.0466 7.46263 40.039 7.46919L40.028 7.47902C40.0073 7.49869 39.9865 7.51945 39.9658 7.5402C39.9384 7.56752 39.9122 7.59593 39.886 7.62543C39.8784 7.63526 39.8729 7.64182 39.8663 7.64837C39.8368 7.68224 39.8084 7.7183 39.78 7.75326C39.7735 7.762 39.7658 7.77074 39.7593 7.77839L39.7483 7.7915C39.7483 7.7915 39.7451 7.79697 39.7407 7.80243C39.6959 7.86252 39.6555 7.92152 39.6194 7.98052C39.6172 7.9838 39.6139 7.98926 39.6107 7.99363C39.5855 8.03515 39.5615 8.07776 39.5386 8.12037L39.5244 8.14878C39.5069 8.18374 39.4905 8.21434 39.4774 8.24493L39.4675 8.26897C39.4621 8.28098 39.4577 8.293 39.4522 8.30611L39.4468 8.31922C39.4326 8.35309 39.4195 8.38696 39.4074 8.42083C39.4009 8.43941 39.3943 8.45689 39.3889 8.47546C39.3779 8.51043 39.367 8.54648 39.3572 8.58145L39.3441 8.63061C39.3321 8.68197 39.3211 8.73332 39.3124 8.78576C39.2894 8.92999 39.2829 9.07311 39.2927 9.2086L39.343 9.97341Z" fill="#F9FAFB"/>
<path d="M44.3961 11.9855L42.0339 8.7656C42.0088 8.73173 41.9804 8.70004 41.9487 8.67272C41.8351 8.57439 41.6843 8.51758 41.5171 8.51758C41.4636 8.51867 41.4101 8.52413 41.3543 8.53506C41.3248 8.54162 41.2953 8.54926 41.2669 8.558C41.2582 8.56128 41.2505 8.56456 41.2418 8.56784C41.2287 8.57221 41.2167 8.57767 41.2046 8.58204C41.1937 8.58641 41.1817 8.58969 41.1708 8.59515C41.1511 8.60389 41.1336 8.61373 41.1151 8.62356C41.1107 8.62574 41.1063 8.62793 41.103 8.63012C41.1009 8.63121 41.0998 8.6323 41.0976 8.63339C41.0757 8.64541 41.055 8.65852 41.0342 8.67272C41.0244 8.67928 41.0145 8.68693 41.0058 8.69458C41.0014 8.69786 40.996 8.70223 40.9916 8.7055C40.9872 8.70878 40.9818 8.71206 40.9774 8.71534C40.9588 8.73063 40.9413 8.74593 40.9239 8.76232C40.9151 8.76997 40.9075 8.77871 40.8998 8.78635C40.89 8.79619 40.8801 8.80711 40.8703 8.81695C40.8528 8.83552 40.8364 8.85628 40.8212 8.87595C40.8201 8.87704 40.819 8.87922 40.8179 8.88141C40.8146 8.88578 40.8124 8.89015 40.8091 8.89452C40.7971 8.912 40.7851 8.92839 40.7742 8.94697C40.7687 8.95571 40.7643 8.96554 40.76 8.97428C40.7534 8.9863 40.7469 8.99832 40.7403 9.01034C40.7359 9.01908 40.7305 9.02782 40.7261 9.03656C40.7195 9.05186 40.7141 9.06824 40.7086 9.08354C40.7042 9.09447 40.6999 9.10539 40.6955 9.11741C40.6835 9.15347 40.6736 9.18952 40.6682 9.22667C40.6605 9.27693 40.6584 9.32828 40.6616 9.37963L40.7075 10.0549L43.0697 13.2747L43.0238 12.5995C43.0205 12.5482 43.0227 12.4968 43.0304 12.4465C43.0358 12.4094 43.0457 12.3733 43.0577 12.3373C43.061 12.3264 43.0664 12.3154 43.0708 12.3034C43.0806 12.2783 43.0905 12.2542 43.1025 12.2302C43.109 12.2182 43.1156 12.2062 43.1222 12.1942C43.1374 12.1668 43.1538 12.1406 43.1724 12.1144C43.1757 12.11 43.1779 12.1057 43.1812 12.1013C43.2063 12.0685 43.2325 12.0357 43.262 12.0062C43.2904 11.9767 43.321 11.9505 43.3538 11.9243C43.3582 11.921 43.3636 11.9166 43.368 11.9134C43.3986 11.8904 43.4314 11.8686 43.4652 11.8489C43.4696 11.8467 43.474 11.8445 43.4772 11.8423C43.5067 11.827 43.5362 11.8128 43.5679 11.8008C43.5799 11.7954 43.5931 11.791 43.6051 11.7866C43.6411 11.7735 43.6783 11.7626 43.7176 11.7538C43.7733 11.7429 43.8269 11.7374 43.8804 11.7364C44.0476 11.7364 44.1984 11.7932 44.312 11.8915C44.3426 11.921 44.371 11.9516 44.3961 11.9855Z" fill="#D0D5DD"/>
<path d="M43.0685 13.4922C43.0008 13.4922 42.9341 13.4605 42.8926 13.4026L40.5304 10.1816C40.5064 10.1477 40.4911 10.1084 40.4889 10.0669L40.443 9.39165C40.4387 9.32282 40.4408 9.25508 40.4518 9.18952C40.4594 9.14473 40.4703 9.09775 40.4867 9.0464C40.4911 9.03328 40.4955 9.02127 40.4998 9.00925L40.5064 8.99177C40.5119 8.97538 40.5184 8.95899 40.5261 8.9426C40.5315 8.93167 40.537 8.92075 40.5425 8.90982C40.5512 8.89343 40.5588 8.87814 40.5676 8.86175C40.5741 8.84864 40.5796 8.8388 40.5862 8.82788C40.6004 8.80493 40.6157 8.78308 40.631 8.76232C40.6331 8.75904 40.6353 8.75576 40.6386 8.75139C40.6397 8.74921 40.6419 8.74702 40.643 8.74484C40.6659 8.71425 40.6867 8.69021 40.7074 8.66617C40.7195 8.65306 40.7315 8.63995 40.7435 8.62793C40.7522 8.61919 40.7621 8.60827 40.773 8.59953C40.7948 8.57877 40.8167 8.56019 40.8396 8.54162C40.8429 8.53943 40.8538 8.53069 40.8571 8.5285L40.8823 8.50993C40.891 8.50338 40.9008 8.49573 40.9107 8.48917C40.9369 8.47169 40.9631 8.4553 40.9893 8.44C40.9937 8.43782 41.0003 8.43345 41.0046 8.43236L41.0134 8.42799C41.0341 8.41706 41.0571 8.40395 41.0811 8.39302C41.0931 8.38756 41.1051 8.38319 41.1172 8.37882C41.139 8.37008 41.1543 8.36462 41.1707 8.35915C41.1816 8.35478 41.1915 8.35041 41.2024 8.34714C41.2384 8.33621 41.2745 8.32638 41.3105 8.31873C41.3772 8.30562 41.4427 8.29797 41.5127 8.29688C41.7334 8.29688 41.9366 8.37117 42.0918 8.50556C42.1365 8.54489 42.1759 8.5886 42.2097 8.63449L44.5708 11.8544C44.5708 11.8544 44.5708 11.8554 44.5719 11.8554C44.6429 11.9527 44.6222 12.0893 44.5249 12.1614C44.4277 12.2324 44.2911 12.2116 44.219 12.1144C44.2037 12.0936 44.1862 12.074 44.1666 12.0565C44.0912 11.9909 43.9896 11.9549 43.8792 11.9549C43.8399 11.956 43.7984 11.9603 43.759 11.968C43.7361 11.9724 43.711 11.98 43.676 11.992C43.6662 11.9953 43.6563 11.9997 43.6476 12.0029C43.6247 12.0117 43.6017 12.0226 43.5799 12.0335C43.5777 12.0346 43.5689 12.039 43.5668 12.0401C43.5471 12.051 43.523 12.0674 43.4968 12.086L43.3515 11.9221L43.4859 12.0947C43.4586 12.1155 43.4367 12.1362 43.416 12.157C43.3941 12.1799 43.3734 12.204 43.3537 12.2302L43.3471 12.24C43.334 12.2586 43.322 12.2783 43.31 12.299C43.3056 12.3078 43.3002 12.3165 43.2958 12.3264C43.287 12.3427 43.2794 12.3613 43.2728 12.3788L43.2674 12.393C43.2543 12.4312 43.2477 12.4564 43.2444 12.4782C43.239 12.5099 43.2379 12.546 43.2401 12.582L43.286 13.2572C43.2925 13.3545 43.2346 13.4441 43.1428 13.4769C43.1188 13.4878 43.0937 13.4922 43.0685 13.4922ZM40.9205 9.9751L42.803 12.5416C42.803 12.4979 42.8074 12.4542 42.814 12.4116C42.8216 12.3668 42.8325 12.3198 42.85 12.2684C42.8533 12.2564 42.8588 12.2455 42.8631 12.2335C42.8784 12.1931 42.8915 12.1625 42.9068 12.1319C42.9145 12.1155 42.9232 12.1013 42.9309 12.086C42.9505 12.051 42.9713 12.0182 42.9942 11.9855C42.9975 11.9811 43.0008 11.9745 43.0052 11.9691C43.0357 11.9276 43.0707 11.8871 43.1057 11.8511C43.1385 11.8172 43.1756 11.7844 43.2182 11.7506C43.2193 11.7495 43.2302 11.7418 43.2313 11.7407C43.2772 11.7069 43.3165 11.6806 43.357 11.6577C43.3602 11.6555 43.3701 11.6511 43.3734 11.649C43.4083 11.6304 43.4455 11.6129 43.4848 11.5976C43.5012 11.591 43.5165 11.5856 43.5318 11.5801C43.5842 11.5615 43.6279 11.5495 43.6716 11.5397C43.7099 11.532 43.747 11.5266 43.7864 11.5233L41.8579 8.89452C41.8426 8.87376 41.8252 8.8541 41.8044 8.83662C41.729 8.77215 41.6274 8.73501 41.517 8.73501C41.4777 8.7361 41.4362 8.74047 41.3969 8.74812C41.3761 8.75249 41.3543 8.75795 41.3335 8.7645C41.3291 8.76669 41.3215 8.76997 41.3149 8.77215C41.3051 8.77543 41.2952 8.7798 41.2865 8.78308L41.2647 8.79182C41.2461 8.79947 41.2319 8.80712 41.2188 8.81477C41.2166 8.81586 41.2078 8.82023 41.2057 8.82132C41.2046 8.82241 41.2024 8.82351 41.2013 8.82351C41.1871 8.83225 41.1718 8.84099 41.1587 8.85082L41.1368 8.86721L40.9915 8.70332L41.127 8.87486C41.1248 8.87704 41.1161 8.8836 41.1139 8.88469C41.1019 8.89452 41.0887 8.90654 41.0756 8.91856L41.0571 8.93714C41.0483 8.94588 41.0407 8.95352 41.0341 8.96117C41.0221 8.97428 41.0112 8.98739 41.0002 9.0016C40.9981 9.00378 40.997 9.00706 40.9959 9.00815C40.9937 9.01034 40.9904 9.0169 40.9882 9.01908C40.9795 9.03219 40.9697 9.04421 40.9609 9.05841L40.9511 9.07808C40.9456 9.08791 40.9413 9.09556 40.9369 9.1043L40.926 9.12506C40.9249 9.12834 40.9227 9.13271 40.9216 9.13817L40.9096 9.17204C40.8965 9.21138 40.8899 9.23541 40.8866 9.25836C40.8812 9.29004 40.8801 9.3261 40.8823 9.36215L40.9205 9.9751Z" fill="#F9FAFB"/>
<path d="M45.2301 12.1442C45.2268 12.0907 45.2192 12.0382 45.2094 11.9869C45.2094 11.9847 45.2083 11.9825 45.2072 11.9803C45.1951 11.9235 45.1809 11.8678 45.1613 11.8143C45.1449 11.7695 45.1263 11.7258 45.1045 11.6831C45.1034 11.6799 45.1012 11.6777 45.099 11.6744C45.0935 11.6635 45.0859 11.6526 45.0804 11.6416C45.0673 11.6187 45.0542 11.5946 45.04 11.5728C45.0313 11.5597 45.0214 11.5455 45.0116 11.5324L42.6494 8.3125C42.6745 8.34746 42.6964 8.38461 42.7182 8.42176C42.7248 8.43269 42.7314 8.44252 42.7368 8.45454C42.7609 8.49934 42.7816 8.54632 42.7991 8.59439C42.8188 8.64793 42.833 8.70256 42.845 8.76046C42.8559 8.81291 42.8636 8.86754 42.8668 8.92326L42.9433 10.0508L45.3055 13.2707L45.2301 12.1442Z" fill="#D0D5DD"/>
<path d="M45.3063 13.4907C45.2385 13.4907 45.1719 13.459 45.1304 13.4011L42.7682 10.1801C42.7441 10.1463 42.7289 10.1069 42.7267 10.0654L42.6502 8.93786C42.6469 8.89306 42.6414 8.84936 42.6316 8.80347C42.6218 8.7554 42.6098 8.70951 42.5945 8.66799C42.5813 8.63193 42.565 8.59479 42.5442 8.55545L42.5289 8.53032C42.5114 8.49973 42.4929 8.46804 42.4743 8.44182C42.4033 8.34458 42.424 8.20801 42.5213 8.1359C42.6185 8.06488 42.7551 8.08564 42.8272 8.18288C42.8272 8.18288 42.8272 8.18397 42.8283 8.18397L45.1894 11.4038C45.2003 11.4191 45.2123 11.4355 45.2232 11.4519C45.2385 11.4749 45.2516 11.4978 45.2648 11.5218L45.2724 11.535C45.2811 11.5492 45.2866 11.559 45.2921 11.5677C45.2953 11.5732 45.2986 11.5797 45.3008 11.583C45.327 11.6333 45.35 11.6857 45.3696 11.7393C45.3915 11.7994 45.409 11.8627 45.4232 11.9294C45.4254 11.9359 45.4265 11.9425 45.4276 11.948C45.4385 12.0048 45.4472 12.067 45.4505 12.1293L45.527 13.2569C45.5335 13.3541 45.4756 13.4437 45.3838 13.4765C45.3565 13.4863 45.3314 13.4907 45.3063 13.4907ZM43.1582 9.97364L45.0375 12.5358L45.0124 12.1599C45.0102 12.1184 45.0047 12.078 44.9971 12.0386C44.996 12.0365 44.996 12.0332 44.9949 12.031C44.984 11.9775 44.9719 11.9327 44.9566 11.8911C44.9446 11.8573 44.9293 11.8234 44.9129 11.7906C44.9108 11.7863 44.9075 11.7808 44.9053 11.7775L44.8813 11.7371C44.8736 11.724 44.866 11.7098 44.8572 11.6967C44.8496 11.6857 44.8419 11.6748 44.8343 11.6639L43.1123 9.3159L43.1582 9.97364Z" fill="#F9FAFB"/>
<path d="M29.435 10.0508H38.3954L38.615 13.2696L28.5938 15.3225L29.435 10.0508Z" fill="#F7F9FC"/>
<path d="M28.5937 15.5419C28.538 15.5419 28.4833 15.5201 28.4429 15.4818C28.3916 15.4327 28.3664 15.3605 28.3785 15.2895L29.2197 10.0167C29.2361 9.9107 29.3279 9.83203 29.4361 9.83203H38.3964C38.5112 9.83203 38.6062 9.92053 38.615 10.0353L38.8346 13.254C38.8422 13.3633 38.7679 13.4605 38.6608 13.4835L28.6396 15.5375C28.6232 15.5408 28.6079 15.5419 28.5937 15.5419ZM29.6207 10.2702L28.8592 15.047L38.3844 13.0945L38.1921 10.2702H29.6207Z" fill="#F9FAFB"/>
<path d="M38.6155 13.2715L40.9777 16.4914L30.9564 18.5454L28.5942 15.3245L38.6155 13.2715Z" fill="#98A2B3"/>
<path d="M30.9563 18.763C30.8874 18.763 30.8219 18.7303 30.7804 18.6734L28.4182 15.4525C28.3745 15.3924 28.3636 15.3137 28.3909 15.2449C28.4182 15.175 28.4783 15.1247 28.5504 15.1094L38.5716 13.0553C38.6547 13.0378 38.741 13.0717 38.7913 13.1406L41.1534 16.3615C41.1971 16.4216 41.2081 16.5003 41.1808 16.5691C41.1534 16.639 41.0934 16.6893 41.0212 16.7046L31 18.7587C30.9858 18.7619 30.9705 18.763 30.9563 18.763ZM28.9721 15.47L31.0502 18.3031L40.6006 16.3462L38.5225 13.5131L28.9721 15.47Z" fill="#F9FAFB"/>
<path d="M40.1862 20.4969C39.9568 20.2959 39.8082 20.0118 39.7852 19.6709L39.3384 13.1219L40.1709 12.9515L40.3971 16.2598C40.408 16.4215 40.538 16.5319 40.703 16.5319C40.7282 16.5319 40.7544 16.5297 40.7817 16.5232C40.9816 16.4816 41.1335 16.2981 41.1204 16.1112L40.8942 12.8029L42.3791 12.498L42.827 19.047C42.8336 19.153 42.8281 19.2568 42.8117 19.3606C42.7582 19.6939 42.5877 20.0107 42.3408 20.2631C42.0917 20.5155 41.7683 20.7023 41.4034 20.7777C41.2919 20.7996 41.1805 20.8116 41.0734 20.8116C40.7271 20.8127 40.4168 20.698 40.1862 20.4969Z" fill="#D0D5DD"/>
<path d="M41.0714 21.0321C40.6825 21.0321 40.3175 20.901 40.0433 20.6628L40.0422 20.6617C39.7581 20.4126 39.5942 20.0749 39.568 19.6871L39.1211 13.1381C39.1135 13.0288 39.1878 12.9316 39.2949 12.9086L40.1274 12.7382C40.1886 12.7251 40.2531 12.7404 40.3033 12.7786C40.3536 12.8169 40.3853 12.8748 40.3886 12.9381L40.6147 16.2465C40.6191 16.3077 40.6781 16.3142 40.7032 16.3142C40.7141 16.3142 40.7262 16.3132 40.7382 16.311C40.8387 16.2902 40.9075 16.1973 40.9032 16.1285L40.677 12.8201C40.6693 12.7109 40.7436 12.6136 40.8507 12.5907L42.3356 12.2859C42.3967 12.2727 42.4612 12.288 42.5115 12.3263C42.5617 12.3645 42.5934 12.4224 42.5967 12.4858L43.0446 19.0348C43.0523 19.1583 43.0457 19.2795 43.0272 19.3975C42.9682 19.7668 42.7791 20.1296 42.4962 20.4191C42.2055 20.713 41.8428 20.9119 41.4462 20.9949C41.3194 21.02 41.1938 21.0321 41.0714 21.0321ZM40.3296 20.3339C40.5896 20.559 40.9676 20.6453 41.3588 20.5666C41.6691 20.5022 41.9542 20.3448 42.1837 20.1132C42.4033 19.8892 42.5497 19.6106 42.5945 19.3298C42.6087 19.2424 42.6131 19.1539 42.6076 19.0643L42.1771 12.7666L41.125 12.9818L41.338 16.1001C41.3588 16.3962 41.1326 16.677 40.8256 16.7404C40.7852 16.7491 40.7436 16.7535 40.7032 16.7535C40.4181 16.7535 40.1984 16.5535 40.1788 16.2782L39.9701 13.2189L39.5702 13.3009L40.004 19.6587C40.0225 19.9285 40.1351 20.1624 40.3296 20.3339Z" fill="#F9FAFB"/>
<path d="M39.1284 10.0527H39.973L40.1708 12.9525L39.3382 13.1229L39.1284 10.0527Z" fill="#F7F9FC"/>
<path d="M39.3384 13.3412C39.2914 13.3412 39.2444 13.3259 39.2062 13.2964C39.1559 13.2582 39.1243 13.2003 39.121 13.1369L38.9112 10.0667C38.9068 10.0066 38.9287 9.94652 38.9691 9.90282C39.0106 9.85911 39.0685 9.83398 39.1286 9.83398H39.9721C40.0868 9.83398 40.1819 9.92248 40.1906 10.0372L40.3884 12.9369C40.396 13.0462 40.3217 13.1434 40.2147 13.1664L39.3821 13.3368C39.3679 13.3401 39.3537 13.3412 39.3384 13.3412ZM39.3624 10.271L39.5394 12.8583L39.9393 12.7763L39.7678 10.271H39.3624Z" fill="#F9FAFB"/>
<path d="M46.8843 13.492C46.8165 13.492 46.7499 13.4603 46.7084 13.4024L44.3462 10.1814C44.3221 10.1475 44.3068 10.1082 44.3047 10.0667L44.1735 8.1481C44.1703 8.09457 44.1648 8.04212 44.1572 7.98968L44.1495 7.94051C44.144 7.90664 44.1386 7.87168 44.132 7.83781C44.1255 7.80394 44.1167 7.77116 44.108 7.73838L44.0938 7.67938C44.0796 7.62803 44.0632 7.57668 44.0446 7.52751C44.0184 7.45649 43.9867 7.3822 43.9463 7.30134L43.9321 7.27184C43.9004 7.21175 43.8654 7.15056 43.8261 7.09156C43.8032 7.0566 43.7846 7.0282 43.7638 7.00088C43.6928 6.90364 43.7136 6.76706 43.8108 6.69495C43.8501 6.66655 43.8949 6.65234 43.9397 6.65234C44.0075 6.65234 44.073 6.68294 44.1156 6.74194L46.4778 9.9629C46.4997 9.9924 46.5204 10.023 46.5412 10.0536C46.5445 10.059 46.5532 10.0732 46.5565 10.0787C46.5991 10.1443 46.6417 10.2153 46.6778 10.2852C46.6821 10.2918 46.6854 10.2983 46.6887 10.306C46.692 10.3125 46.6963 10.3224 46.7007 10.3333C46.7466 10.424 46.7848 10.5136 46.8165 10.5999C46.8384 10.66 46.858 10.7212 46.8755 10.7834C46.8799 10.7987 46.8832 10.8129 46.8864 10.8282L46.8908 10.8479C46.9017 10.8894 46.9116 10.9309 46.9203 10.9746C46.9203 10.9757 46.9225 10.9823 46.9236 10.9888C46.9291 11.0151 46.9334 11.0424 46.9367 11.0697C46.9367 11.0697 46.9487 11.1418 46.9498 11.156C46.9586 11.2172 46.964 11.2795 46.9684 11.3428L47.0995 13.2603C47.1061 13.3576 47.0482 13.4472 46.9564 13.48C46.9345 13.4876 46.9094 13.492 46.8843 13.492Z" fill="#D0D5DD"/>
<path d="M43.9397 6.87223L46.3019 10.0932C46.3216 10.1205 46.3412 10.1478 46.3598 10.1762C46.3642 10.1817 46.3663 10.1882 46.3707 10.1937C46.4122 10.2582 46.4516 10.3237 46.4876 10.3926C46.4898 10.3969 46.492 10.4002 46.4942 10.4046C46.4975 10.4111 46.4996 10.4188 46.504 10.4264C46.5444 10.5073 46.5816 10.5892 46.6122 10.6755C46.6319 10.7302 46.6493 10.787 46.6657 10.8438C46.6712 10.8635 46.6756 10.8831 46.6799 10.9028C46.6898 10.941 46.6996 10.9793 46.7072 11.0186C46.7083 11.023 46.7094 11.0274 46.7105 11.0317C46.7171 11.0645 46.7214 11.0973 46.7269 11.1301C46.7302 11.1486 46.7335 11.1661 46.7356 11.1847C46.7433 11.2415 46.7488 11.2983 46.7531 11.3562L46.8842 13.2748L44.5221 10.0549L44.3909 8.13636C44.3866 8.07845 44.3811 8.02054 44.3735 7.96482C44.3713 7.94624 44.3669 7.92876 44.3647 7.91019C44.3593 7.87304 44.3527 7.83589 44.3451 7.79875C44.3374 7.75941 44.3276 7.72117 44.3177 7.68293C44.3123 7.66326 44.309 7.6436 44.3035 7.62502C44.2871 7.56821 44.2697 7.51139 44.25 7.45676C44.2183 7.37045 44.1823 7.2885 44.1418 7.20765C44.1364 7.19673 44.1309 7.1858 44.1254 7.17488C44.0894 7.10604 44.0501 7.04049 44.0085 6.97602C43.9856 6.93887 43.9637 6.905 43.9397 6.87223ZM44.2926 6.61328L43.9397 6.87223L43.5879 7.13117C43.6065 7.1563 43.6239 7.18252 43.6403 7.20875C43.6775 7.26665 43.7103 7.32019 43.7376 7.37372L43.7408 7.38028L43.7507 7.39995C43.7878 7.47425 43.8173 7.54089 43.8392 7.60317C43.8392 7.60426 43.8403 7.60536 43.8403 7.60536C43.8556 7.64797 43.8698 7.69276 43.8829 7.73974C43.884 7.74521 43.8851 7.75067 43.8873 7.75613C43.8894 7.76706 43.8927 7.77689 43.8949 7.78782C43.9036 7.82169 43.9113 7.85228 43.9178 7.88397C43.9244 7.91347 43.9288 7.94406 43.9331 7.97465L43.9375 8.00415C43.9386 8.00962 43.9397 8.01508 43.9397 8.02054C43.9463 8.0708 43.9506 8.11778 43.9539 8.16367L44.085 10.0823C44.0905 10.1653 44.12 10.244 44.1691 10.3106L46.5313 13.5305C46.6155 13.6452 46.7477 13.7086 46.8842 13.7086C46.9345 13.7086 46.9848 13.6998 47.0339 13.6824C47.2164 13.6157 47.3333 13.4365 47.3202 13.242L47.1891 11.3235C47.1847 11.259 47.1781 11.1912 47.1694 11.1235C47.1672 11.106 47.1639 11.0896 47.1618 11.0722L47.1596 11.0579L47.1563 11.0383C47.1519 11.0066 47.1465 10.9738 47.1399 10.9432C47.1388 10.9378 47.1366 10.929 47.1344 10.9192C47.1246 10.8744 47.1148 10.8329 47.1039 10.7914L47.1006 10.7761C47.0962 10.7575 47.0918 10.74 47.0875 10.7225C47.0678 10.6537 47.047 10.587 47.0241 10.5237C47.023 10.5226 47.023 10.5204 47.0219 10.5193C46.9891 10.4286 46.9498 10.3379 46.9006 10.2396C46.8952 10.2265 46.8897 10.2134 46.8831 10.2014C46.8799 10.1948 46.8744 10.1861 46.8689 10.1762C46.8307 10.1041 46.7892 10.0331 46.7433 9.96208C46.7367 9.95115 46.7302 9.94023 46.7236 9.9293C46.7018 9.89762 46.6788 9.86484 46.6559 9.83206L44.2926 6.61328Z" fill="#F9FAFB"/>
<path d="M40.7061 10.0527H42.2117L42.3788 12.5001L40.894 12.8039L40.7061 10.0527Z" fill="#F7F9FC"/>
<path d="M40.8942 13.0222C40.8472 13.0222 40.8002 13.0069 40.762 12.9774C40.7117 12.9391 40.68 12.8812 40.6768 12.8179L40.4888 10.0667C40.4845 10.0066 40.5063 9.94652 40.5467 9.90282C40.5883 9.85911 40.6462 9.83398 40.7063 9.83398H42.2108C42.3255 9.83398 42.4205 9.92248 42.4293 10.0372L42.5964 12.4846C42.6041 12.5939 42.5298 12.6911 42.4227 12.7141L40.9379 13.0178C40.9237 13.0211 40.9084 13.0222 40.8942 13.0222ZM40.9401 10.271L41.0952 12.5403L42.1474 12.3251L42.0075 10.2721H40.9401V10.271Z" fill="#F9FAFB"/>
<path d="M42.9438 10.0527H43.7884L43.9337 12.1811L43.1012 12.3515L42.9438 10.0527Z" fill="#F7F9FC"/>
<path d="M43.1014 12.5698C43.0544 12.5698 43.0074 12.5545 42.9692 12.525C42.9189 12.4868 42.8872 12.4289 42.884 12.3655L42.7266 10.0667C42.7223 10.0066 42.7441 9.94652 42.7845 9.90282C42.826 9.85911 42.884 9.83398 42.944 9.83398H43.7886C43.9033 9.83398 43.9984 9.92248 44.0071 10.0372L44.1525 12.1656C44.1601 12.2748 44.0858 12.3721 43.9787 12.395L43.1462 12.5655C43.1309 12.5687 43.1156 12.5698 43.1014 12.5698ZM43.1779 10.271L43.3024 12.088L43.7034 12.0061L43.5854 10.2721H43.1779V10.271Z" fill="#F9FAFB"/>
<path d="M44.5215 10.0527H64.9967L59.2114 46.3279H49.8741L48.4373 55.3352L48.2505 55.4904H47.2191C47.9566 55.0741 48.4428 54.2787 48.3707 53.4855L46.8487 36.6541H54.0893C54.4051 36.6541 54.7012 36.4072 54.7492 36.1023C54.7984 35.7964 54.581 35.5506 54.2652 35.5506H46.7493L46.3406 31.0272H54.9874C55.3032 31.0272 55.5993 30.7803 55.6484 30.4744C55.6965 30.1696 55.4802 29.9226 55.1644 29.9226H46.2412L45.8326 25.3993H55.8855C56.2013 25.3993 56.4974 25.1524 56.5466 24.8464C56.5946 24.5416 56.3783 24.2947 56.0625 24.2947H45.7419C45.7561 23.3419 46.5471 22.4307 47.572 22.2198C48.6504 21.998 49.4687 21.0049 49.3988 19.9997L49.3835 19.7713H56.7836C57.0994 19.7713 57.3955 19.5244 57.4447 19.2185C57.4927 18.9137 57.2764 18.6667 56.9606 18.6667H49.3081L48.9214 13.0082C48.8624 12.1374 48.1576 11.543 47.2704 11.543C47.1328 11.543 46.9907 11.5572 46.8465 11.5867L44.8962 11.9866L44.6592 12.0347L44.5215 10.0527Z" fill="#F7F9FC"/>
<path d="M48.2508 55.7095H47.2194C47.12 55.7095 47.0337 55.6429 47.0086 55.5467C46.9834 55.4506 47.026 55.3501 47.1124 55.3009C47.7974 54.9141 48.2159 54.1919 48.1536 53.5058L46.6316 36.6744C46.6262 36.6132 46.6469 36.5531 46.6884 36.5072C46.73 36.4624 46.789 36.4362 46.8501 36.4362H54.0908C54.2994 36.4362 54.5038 36.2679 54.5354 36.068C54.5485 35.9861 54.5311 35.9139 54.4841 35.8582C54.4349 35.8003 54.3573 35.7686 54.2667 35.7686H46.7507C46.6382 35.7686 46.5431 35.6823 46.5333 35.5698L46.1247 31.0464C46.1192 30.9853 46.14 30.9252 46.1815 30.8793C46.223 30.8345 46.282 30.8083 46.3432 30.8083H54.99C55.1986 30.8083 55.403 30.6389 55.4346 30.439C55.4478 30.3581 55.4292 30.2838 55.3822 30.2292C55.333 30.1713 55.2555 30.1396 55.1659 30.1396H46.2427C46.1301 30.1396 46.0351 30.0533 46.0252 29.9407L45.6166 25.4174C45.6111 25.3562 45.6319 25.2961 45.6734 25.2502C45.7149 25.2054 45.7739 25.1792 45.8351 25.1792H55.8881C56.0968 25.1792 56.3011 25.0099 56.3328 24.8099C56.3459 24.7291 56.3273 24.6548 56.2814 24.6012C56.2322 24.5433 56.1547 24.5116 56.0651 24.5116H45.7444C45.6854 24.5116 45.6297 24.4887 45.5893 24.4461C45.5489 24.4035 45.5259 24.3478 45.527 24.2898C45.5434 23.218 46.4044 22.2358 47.5308 22.0041C48.5043 21.8042 49.2462 20.9115 49.1839 20.0134L49.1686 19.7851C49.1643 19.725 49.1861 19.6649 49.2265 19.6212C49.2681 19.5764 49.326 19.5524 49.386 19.5524H56.7862C56.9949 19.5524 57.1992 19.383 57.2309 19.1831C57.244 19.1022 57.2254 19.0279 57.1795 18.9733C57.1303 18.9154 57.0528 18.8837 56.9632 18.8837H49.3107C49.1959 18.8837 49.1009 18.7952 49.0921 18.6805L48.7054 13.0219C48.6551 12.279 48.0662 11.7611 47.2719 11.7611C47.1473 11.7611 47.0195 11.7742 46.8917 11.8004L44.7043 12.2495C44.642 12.2626 44.5786 12.2473 44.5284 12.209C44.4781 12.1708 44.4464 12.1129 44.4432 12.0495L44.3077 10.0687C44.3033 10.0086 44.3252 9.94848 44.3656 9.90477C44.4071 9.86107 44.465 9.83594 44.5251 9.83594H65.0003C65.0648 9.83594 65.1248 9.86435 65.1664 9.91242C65.2079 9.96049 65.2265 10.025 65.2155 10.0883L59.4303 46.3635C59.4139 46.4695 59.3221 46.5481 59.2139 46.5481H50.0635L48.6562 55.3719C48.6475 55.4244 48.6212 55.4713 48.5797 55.5052L48.3929 55.6604C48.3514 55.691 48.3022 55.7095 48.2508 55.7095ZM47.8706 55.2725H48.1722L48.2356 55.2201L48.3219 54.6759C48.205 54.8912 48.052 55.0933 47.8706 55.2725ZM47.0883 36.8721L48.5622 53.1714L49.6592 46.2936C49.6756 46.1876 49.7674 46.1089 49.8755 46.1089H59.026L64.7413 10.2708H44.7556L44.8583 11.7687L46.801 11.3699C46.9572 11.3383 47.1156 11.3219 47.2686 11.3219C48.2869 11.3219 49.0725 12.0233 49.138 12.9903L49.5106 18.4456H56.9588C57.1762 18.4456 57.3762 18.5341 57.5084 18.6892C57.6395 18.8422 57.693 19.0421 57.6592 19.2508C57.5936 19.6638 57.2079 19.9883 56.7829 19.9883H49.6166C49.6898 21.0951 48.7928 22.191 47.615 22.4324C46.7791 22.604 46.1006 23.3021 45.9783 24.0746H56.0607C56.2781 24.0746 56.4781 24.1631 56.6103 24.3183C56.7414 24.4712 56.7949 24.6712 56.761 24.8798C56.6955 25.2928 56.3098 25.6173 55.8848 25.6173H46.0711L46.4404 29.7036H55.1637C55.3811 29.7036 55.5811 29.7921 55.7133 29.9462C55.8444 30.0992 55.8979 30.2991 55.864 30.5078C55.7985 30.9208 55.4128 31.2453 54.9878 31.2453H46.5803L46.9496 35.3316H54.2667C54.4841 35.3316 54.684 35.4201 54.8162 35.5741C54.9463 35.7271 54.9998 35.9271 54.967 36.1357C54.9015 36.5487 54.5169 36.8721 54.0908 36.8721H47.0883Z" fill="#F9FAFB"/>
<path d="M56.9582 18.6641C57.2739 18.6641 57.4914 18.911 57.4422 19.2158C57.393 19.5217 57.0969 19.7687 56.7812 19.7687H49.3811L49.3057 18.6641H56.9582Z" fill="#D0D5DD"/>
<path d="M56.7825 19.9878H49.3823C49.2676 19.9878 49.1726 19.8993 49.1638 19.7846L49.0884 18.68C49.0841 18.6199 49.1059 18.5598 49.1463 18.5161C49.1879 18.4724 49.2458 18.4473 49.3059 18.4473H56.9573C57.1747 18.4473 57.3747 18.5358 57.5069 18.6909C57.638 18.8439 57.6915 19.0438 57.6576 19.2525C57.5921 19.6633 57.2075 19.9878 56.7825 19.9878ZM49.5856 19.5508H56.7814C56.9901 19.5508 57.1944 19.3814 57.2261 19.1815C57.2392 19.1006 57.2206 19.0263 57.1747 18.9717C57.1256 18.9138 57.048 18.8821 56.9584 18.8821H49.5408L49.5856 19.5508Z" fill="#D0D5DD"/>
<path d="M56.0609 24.293C56.3766 24.293 56.5941 24.5399 56.5449 24.8447C56.4957 25.1507 56.1996 25.3976 55.8839 25.3976H45.8309L45.7446 24.4383C45.7413 24.3902 45.7402 24.341 45.7402 24.293H56.0609Z" fill="#D0D5DD"/>
<path d="M55.8849 25.6159H45.8319C45.7194 25.6159 45.6244 25.5296 45.6145 25.417L45.5282 24.4577C45.5238 24.3987 45.5227 24.3441 45.5238 24.2895C45.526 24.1704 45.6233 24.0742 45.7424 24.0742H56.063C56.2804 24.0742 56.4803 24.1627 56.6126 24.3179C56.7437 24.4708 56.7972 24.6708 56.7633 24.8795C56.6956 25.2925 56.311 25.6159 55.8849 25.6159ZM46.0308 25.1788H55.8849C56.0936 25.1788 56.2979 25.0095 56.3296 24.8095C56.3427 24.7287 56.3241 24.6544 56.2782 24.5998C56.2291 24.5418 56.1515 24.5102 56.0619 24.5102H45.9718L46.0308 25.1788Z" fill="#D0D5DD"/>
<path d="M55.1634 29.9219C55.4792 29.9219 55.6966 30.1688 55.6475 30.4736C55.5983 30.7796 55.3022 31.0265 54.9864 31.0265H46.3397L46.2402 29.9219H55.1634Z" fill="#D0D5DD"/>
<path d="M54.9865 31.2448H46.3397C46.2271 31.2448 46.1321 31.1585 46.1223 31.0459L46.0228 29.9413C46.0174 29.8801 46.0381 29.82 46.0796 29.7741C46.1212 29.7293 46.1802 29.7031 46.2414 29.7031H55.1645C55.382 29.7031 55.5819 29.7916 55.7141 29.9468C55.8452 30.0997 55.8988 30.2997 55.8649 30.5084C55.7972 30.9214 55.4126 31.2448 54.9865 31.2448ZM46.5396 30.8077H54.9865C55.1951 30.8077 55.3995 30.6384 55.4311 30.4384C55.4443 30.3576 55.4257 30.2833 55.3787 30.2287C55.3295 30.1708 55.252 30.1391 55.1624 30.1391H46.4795L46.5396 30.8077Z" fill="#D0D5DD"/>
<path d="M54.2655 35.5508C54.5812 35.5508 54.7986 35.7966 54.7495 36.1025C54.7014 36.4074 54.4053 36.6543 54.0896 36.6543H46.8489L46.7495 35.5508H54.2655Z" fill="#D0D5DD"/>
<path d="M54.0896 36.8726H46.849C46.7364 36.8726 46.6414 36.7863 46.6315 36.6737L46.5321 35.5702C46.5266 35.509 46.5474 35.4489 46.5889 35.4031C46.6304 35.3583 46.6894 35.332 46.7506 35.332H54.2666C54.484 35.332 54.6839 35.4205 54.8161 35.5746C54.9462 35.7276 54.9997 35.9275 54.9669 36.1362C54.9003 36.5492 54.5146 36.8726 54.0896 36.8726ZM47.0489 36.4356H54.0896C54.2983 36.4356 54.5026 36.2673 54.5343 36.0674C54.5474 35.9854 54.5299 35.9133 54.4829 35.8576C54.4337 35.7997 54.3562 35.768 54.2655 35.768H46.9888L47.0489 36.4356Z" fill="#D0D5DD"/>
<path d="M64.9967 10.0527L67.3589 13.2726L61.5736 49.5489L59.2114 46.3279L64.9967 10.0527Z" fill="#E4E7EC"/>
<path d="M61.5736 49.7678C61.5048 49.7678 61.4392 49.7351 61.3977 49.6782L59.0355 46.4573C59.0006 46.4103 58.9864 46.3513 58.9962 46.2934L64.7815 10.0182C64.7957 9.93082 64.8602 9.8609 64.9454 9.84014C65.0306 9.81938 65.1213 9.85216 65.1726 9.92318L67.5348 13.1441C67.5698 13.1911 67.584 13.2501 67.5742 13.308L61.7889 49.5832C61.7747 49.6706 61.7102 49.7405 61.625 49.7613C61.6075 49.7657 61.5911 49.7678 61.5736 49.7678ZM59.442 46.2726L61.4403 48.9976L67.1295 13.3288L65.1311 10.6039L59.442 46.2726Z" fill="#F9FAFB"/>
<path d="M59.2119 46.3281L48.439 55.3355L49.8746 46.3281H59.2119Z" fill="#D0D5DD"/>
<path d="M48.4388 55.5537C48.4016 55.5537 48.3645 55.5439 48.3306 55.5253C48.2508 55.4805 48.2082 55.391 48.2224 55.3014L49.6592 46.294C49.6756 46.188 49.7674 46.1094 49.8755 46.1094H59.2128C59.3046 46.1094 59.3865 46.1673 59.4182 46.2536C59.4499 46.3399 59.4237 46.4372 59.3527 46.4962L48.5797 55.5035C48.5382 55.5374 48.4879 55.5537 48.4388 55.5537ZM50.0613 46.5464L48.7458 54.7933L58.6097 46.5464H50.0613Z" fill="#F9FAFB"/>
<path d="M59.2119 46.3281L61.5741 49.5491L50.8001 58.5564L48.439 55.3355L59.2119 46.3281Z" fill="#D0D5DD"/>
<path d="M50.8 58.7742C50.7912 58.7742 50.7825 58.7742 50.7737 58.7731C50.7136 58.7655 50.6601 58.7338 50.6241 58.6857L48.2619 55.4648C48.1941 55.3719 48.2094 55.2419 48.2979 55.1676L59.0709 46.1602C59.1168 46.122 59.1769 46.1034 59.237 46.1111C59.2971 46.1187 59.3506 46.1504 59.3866 46.1985L61.7488 49.4194C61.8166 49.5123 61.8013 49.6423 61.7128 49.7166L50.9409 58.7229C50.9016 58.7567 50.8513 58.7742 50.8 58.7742ZM48.7361 55.3708L50.8393 58.2378L61.2768 49.5112L59.1736 46.6443L48.7361 55.3708Z" fill="#F9FAFB"/>
<path d="M48.4384 55.3359L50.7995 58.5569L48.2505 55.4922L48.4384 55.3359Z" fill="#E4E7EC"/>
<path d="M50.8006 58.7752C50.7384 58.7752 50.6761 58.7479 50.6324 58.6965L48.0834 55.6318C48.0462 55.587 48.0287 55.5302 48.0342 55.4723C48.0396 55.4144 48.0681 55.3609 48.1118 55.3248L48.2986 55.1697C48.3445 55.1314 48.4057 55.1139 48.4647 55.1205C48.5248 55.1281 48.5783 55.1598 48.6144 55.2079L50.9765 58.4278C51.0465 58.5228 51.0279 58.6561 50.935 58.7293C50.8946 58.7599 50.8476 58.7752 50.8006 58.7752Z" fill="#F9FAFB"/>
<path d="M48.2506 55.4902L50.7997 58.555L49.5814 58.7101L47.2192 55.4902H48.2506Z" fill="#E4E7EC"/>
<path d="M49.5814 58.9286C49.5126 58.9286 49.447 58.8958 49.4055 58.839L47.0433 55.6181C46.9941 55.5514 46.9876 55.464 47.0247 55.3897C47.0619 55.3165 47.1373 55.2695 47.2192 55.2695H48.2506C48.3151 55.2695 48.3774 55.2979 48.4189 55.3482L50.9679 58.4129C51.0193 58.4741 51.0324 58.5582 51.0029 58.6325C50.9734 58.7068 50.9067 58.7593 50.827 58.7691L49.6076 58.9243C49.6 58.9275 49.5902 58.9286 49.5814 58.9286ZM47.6508 55.7087L49.6819 58.4774L50.3779 58.3889L48.149 55.7087H47.6508Z" fill="#F9FAFB"/>
<path d="M47.5496 55.2656C47.5004 55.305 47.4491 55.3432 47.3966 55.3793C47.342 55.4164 47.2852 55.4525 47.2273 55.4852C47.224 55.4874 47.2218 55.4885 47.2185 55.4907C47.1573 55.5257 47.0951 55.5573 47.0306 55.5858C46.9486 55.6229 46.8634 55.6557 46.7771 55.683C46.7017 55.707 46.6252 55.7267 46.5477 55.7431L22.0878 60.757C21.9436 60.7865 21.8015 60.8007 21.6639 60.8007C21.0957 60.8007 20.6008 60.5571 20.3047 60.1517L22.6669 63.3716C22.9641 63.7769 23.4579 64.0206 24.0261 64.0206C24.1637 64.0206 24.3058 64.0064 24.45 63.9769L48.9099 58.963C48.9874 58.9466 49.065 58.9269 49.1393 58.9029C49.2256 58.8756 49.3108 58.8428 49.3928 58.8056C49.4572 58.7761 49.5195 58.7444 49.5807 58.7106C49.584 58.7084 49.5862 58.7073 49.5894 58.7051C49.6474 58.6723 49.7042 58.6363 49.7588 58.5991C49.8112 58.5631 49.8626 58.5248 49.9118 58.4855L47.5496 55.2656Z" fill="#667185"/>
<path d="M24.026 64.2387C23.3944 64.2387 22.8339 63.9699 22.4898 63.5012L20.1276 60.2802C20.0566 60.183 20.0773 60.0464 20.1746 59.9743C20.2718 59.9033 20.4084 59.924 20.4805 60.0213L20.4816 60.0224C20.7427 60.3764 21.1732 60.5807 21.6638 60.5807C21.7883 60.5807 21.9162 60.5676 22.044 60.5413L46.5039 55.5274C46.5738 55.5132 46.6437 55.4947 46.7115 55.4728C46.789 55.4477 46.8666 55.4182 46.9409 55.3843C46.9988 55.3581 47.0556 55.3286 47.1114 55.298C47.1715 55.2641 47.2239 55.2313 47.2731 55.1975C47.32 55.1647 47.367 55.1308 47.4118 55.0937C47.4588 55.0565 47.5178 55.039 47.5768 55.0467C47.6358 55.0543 47.6893 55.086 47.7254 55.1341L50.0876 58.354C50.1564 58.4479 50.14 58.579 50.0493 58.6533C49.9958 58.697 49.9401 58.7386 49.8833 58.7779C49.8232 58.8194 49.7609 58.8587 49.6986 58.8937L49.6888 58.8992C49.6221 58.9363 49.5533 58.9713 49.4834 59.003C49.3938 59.0434 49.2998 59.0794 49.2059 59.1089C49.1228 59.1352 49.0387 59.157 48.9535 59.1745L24.4936 64.1884C24.3374 64.2223 24.18 64.2387 24.026 64.2387ZM21.1688 60.9598L22.8427 63.2422C23.1038 63.5973 23.5343 63.8016 24.026 63.8016C24.1505 63.8016 24.2784 63.7885 24.4062 63.7623L48.8661 58.7484C48.936 58.7342 49.0059 58.7156 49.0737 58.6938C49.1512 58.6686 49.2288 58.6391 49.3031 58.6053C49.361 58.579 49.4189 58.5495 49.4735 58.519C49.5216 58.4916 49.5653 58.4654 49.6057 58.4381L47.5025 55.57C47.449 55.6061 47.3922 55.6411 47.3364 55.6738C47.3353 55.6738 47.3255 55.6793 47.3255 55.6804C47.2599 55.7175 47.1911 55.7525 47.1212 55.7842C47.0316 55.8246 46.9376 55.8607 46.8437 55.8902C46.7606 55.9164 46.6765 55.9382 46.5913 55.9557L22.1314 60.9696C21.8025 61.0374 21.4693 61.033 21.1688 60.9598Z" fill="#F9FAFB"/>
<path d="M48.3708 53.4856C48.4429 54.2789 47.9567 55.0743 47.2192 55.4905C47.0127 55.6075 46.7865 55.6938 46.5483 55.7429L22.0885 60.7568C21.9442 60.7863 21.8022 60.8006 21.6645 60.8006C20.7872 60.8006 20.0879 60.2204 20.0147 59.3627L16.6452 19.6207C16.5763 18.6156 17.3947 17.6202 18.4731 17.3995L28.5948 15.3247L38.6161 13.2706L39.063 19.8207C39.0979 20.3189 39.3186 20.7417 39.6562 21.0378C39.9949 21.3328 40.4517 21.5033 40.9619 21.5044C41.1203 21.5044 41.2831 21.4869 41.4492 21.453C41.9835 21.3438 42.4664 21.0662 42.8324 20.6948C43.1973 20.3233 43.4497 19.8556 43.5284 19.3618C43.5524 19.2099 43.5601 19.0548 43.5492 18.9007L43.1023 12.3517L43.9348 12.1813L44.2113 16.2413C44.2222 16.4031 44.3533 16.5123 44.5183 16.5123C44.7958 16.4631 44.9477 16.2785 44.9346 16.0928L44.657 12.0327L44.8941 11.9846L46.8444 11.5847C46.9886 11.5552 47.1307 11.541 47.2683 11.541C48.1566 11.541 48.8613 12.1354 48.9192 13.0062L49.306 18.6647L49.3814 19.7693L49.3967 19.9977C49.4655 21.0029 48.6472 21.9971 47.5699 22.2178C46.545 22.4287 45.754 23.3388 45.7398 24.2927C45.7387 24.3407 45.7398 24.3899 45.7442 24.438L45.8305 25.3973L46.2391 29.9206L46.3385 31.0252L46.7472 35.5486L46.8466 36.6521L48.3708 53.4856Z" fill="#D0D5DD"/>
<path d="M21.6647 61.0188C20.6628 61.0188 19.8783 60.3305 19.7974 59.381L16.4279 19.6391C16.3514 18.5268 17.2495 17.4277 18.4295 17.1851L38.5725 13.0573C38.6348 13.0442 38.6982 13.0595 38.7485 13.0977C38.7987 13.136 38.8304 13.1939 38.8337 13.2572L39.2805 19.8073C39.31 20.2291 39.4947 20.6082 39.7995 20.8748C40.1033 21.1392 40.5163 21.2856 40.962 21.2867C41.103 21.2867 41.2527 21.2714 41.4056 21.2397C41.8765 21.1436 42.3278 20.8956 42.6763 20.5427C43.0172 20.1963 43.2423 19.7647 43.3122 19.3288C43.3341 19.1889 43.3406 19.0513 43.3308 18.918L42.8839 12.3668C42.8763 12.2575 42.9506 12.1603 43.0576 12.1373L43.8902 11.9669C43.9514 11.9538 44.0158 11.9691 44.0661 12.0073C44.1164 12.0456 44.148 12.1035 44.1513 12.1668L44.4288 16.2269C44.4321 16.2772 44.4736 16.2903 44.5021 16.2936C44.6495 16.2619 44.7217 16.1777 44.7162 16.1089L44.4387 12.0488C44.431 11.9396 44.5053 11.8423 44.6124 11.8194L46.7998 11.3703C46.9571 11.3387 47.1144 11.3223 47.2674 11.3223C48.2857 11.3223 49.0713 12.0237 49.1368 12.9907L49.6143 19.9832C49.6908 21.0911 48.7927 22.1903 47.6127 22.4328C46.6971 22.6208 45.9705 23.4391 45.9574 24.2968C45.9563 24.3394 45.9574 24.3809 45.9607 24.4235L48.5862 53.4668C48.6637 54.3213 48.1568 55.2117 47.3242 55.6815C47.0926 55.8126 46.8457 55.9055 46.59 55.958L22.1301 60.9719C21.9761 61.0025 21.8187 61.0188 21.6647 61.0188ZM38.4141 13.5359L18.5158 17.6134C17.5423 17.8134 16.8005 18.7071 16.8627 19.6063L20.2323 59.345C20.2946 60.0737 20.8835 60.5829 21.6647 60.5829C21.7892 60.5829 21.9171 60.5698 22.0449 60.5436L46.5048 55.5297C46.7156 55.486 46.92 55.4095 47.1122 55.3013C47.7973 54.9145 48.2158 54.1934 48.1535 53.5062L45.5269 24.4585C45.5225 24.3995 45.5214 24.3449 45.5225 24.2902C45.5389 23.2184 46.401 22.2362 47.5274 22.0045C48.5009 21.8046 49.2428 20.912 49.1805 20.0138L48.7031 13.0212C48.6528 12.2783 48.0639 11.7604 47.2696 11.7604C47.145 11.7604 47.0172 11.7735 46.8894 11.7997L44.8888 12.2105L45.1532 16.0794C45.1751 16.3908 44.9249 16.664 44.5567 16.7284C44.5447 16.7306 44.5315 16.7317 44.5184 16.7317C44.2333 16.7317 44.0115 16.5317 43.9929 16.2564L43.7329 12.4455L43.3319 12.5274L43.7656 18.8863C43.7777 19.0513 43.77 19.2239 43.7427 19.3965C43.6586 19.921 43.3909 20.4367 42.9866 20.8475C42.578 21.2627 42.047 21.5533 41.492 21.6669C41.3095 21.7041 41.1303 21.7227 40.961 21.7227C40.4092 21.7216 39.8946 21.5369 39.5111 21.2026C39.1177 20.8584 38.8807 20.3733 38.8435 19.8357L38.4141 13.5359Z" fill="#F9FAFB"/>
<path d="M40.9608 21.7238C40.4101 21.7227 39.8955 21.538 39.512 21.2037C39.1187 20.8595 38.8816 20.3744 38.8444 19.8368L38.131 9.38838C38.1157 9.16768 38.1255 8.94151 38.1616 8.71753C38.2719 8.02483 38.6259 7.34523 39.1591 6.8044C39.6978 6.25592 40.3992 5.87133 41.1345 5.72055C41.3705 5.67247 41.6054 5.64844 41.8338 5.64844C42.5571 5.64844 43.2334 5.89099 43.7371 6.33021C44.2528 6.78036 44.5631 7.41625 44.609 8.11988L45.1531 16.0783C45.1738 16.3744 44.9488 16.6552 44.6406 16.7186C44.5991 16.7262 44.5587 16.7306 44.5194 16.7306C44.2342 16.7306 44.0135 16.5307 43.9938 16.2553L43.4508 8.29688C43.4202 7.85657 43.2367 7.47744 42.9187 7.19992C42.6051 6.92568 42.1812 6.7749 41.7234 6.7749C41.5759 6.7749 41.423 6.79129 41.2678 6.82297C40.7772 6.92349 40.326 7.17151 39.9633 7.53971C39.6136 7.89481 39.382 8.33731 39.311 8.78527C39.288 8.92949 39.2815 9.07262 39.2913 9.2081L40.0048 19.6566C40.0233 19.9275 40.1359 20.1613 40.3315 20.3329C40.5259 20.5011 40.7893 20.594 41.0722 20.594C41.1651 20.594 41.2623 20.5842 41.3596 20.5645C41.6699 20.5 41.9551 20.3427 42.1845 20.1111C42.4041 19.8871 42.5505 19.6085 42.5953 19.3277C42.6095 19.2414 42.6139 19.1518 42.6084 19.0622L41.9266 9.08901C41.919 8.98631 41.8786 8.89999 41.8043 8.83553C41.73 8.77107 41.6273 8.73392 41.5169 8.73392C41.4776 8.73501 41.4361 8.73938 41.3967 8.74703C41.2678 8.77434 41.1487 8.8399 41.0537 8.93714C40.9608 9.0311 40.9007 9.14473 40.8821 9.25836C40.8767 9.29005 40.8756 9.3261 40.8778 9.36216L41.3377 16.0969C41.3585 16.393 41.1323 16.6738 40.8253 16.7372C40.7849 16.7459 40.7434 16.7503 40.7029 16.7503C40.4178 16.7503 40.1982 16.5503 40.1785 16.275L39.7185 9.54135C39.7109 9.42881 39.7163 9.31081 39.7349 9.18953C39.7917 8.83116 39.9753 8.47934 40.2495 8.20073C40.5238 7.91994 40.8843 7.72218 41.2634 7.64351C41.3891 7.61948 41.5104 7.60636 41.6262 7.60636C42.0042 7.60636 42.3571 7.7342 42.6226 7.96473C42.8958 8.20183 43.0597 8.53725 43.0848 8.90873L43.7655 18.8841C43.7775 19.0491 43.7698 19.2217 43.7425 19.3943C43.6595 19.9188 43.3907 20.4345 42.9865 20.8453C42.5778 21.2594 42.0479 21.5511 41.4918 21.6648C41.3104 21.7052 41.1312 21.7238 40.9608 21.7238Z" fill="#D0D5DD"/>
<path d="M41.8329 5.86672C42.5212 5.86672 43.1363 6.09617 43.593 6.49497C44.0487 6.89267 44.3469 7.46081 44.3906 8.13494L44.5217 10.0535L44.6572 12.0344L44.9347 16.0945C44.9479 16.2791 44.796 16.4649 44.596 16.5064C44.5698 16.5119 44.5436 16.514 44.5185 16.514C44.3535 16.514 44.2224 16.4048 44.2114 16.2431L43.935 12.183L43.7897 10.0546L43.6684 8.28463C43.6335 7.77002 43.4095 7.34063 43.062 7.03798C42.7146 6.73424 42.2448 6.55943 41.7236 6.55943C41.563 6.55943 41.3947 6.57691 41.2243 6.61187C40.6736 6.7255 40.1841 7.00739 39.8072 7.38871C39.4314 7.77002 39.1746 8.24967 39.0948 8.75335C39.0697 8.9085 39.061 9.06802 39.073 9.22645L39.1298 10.0546L39.3396 13.1248L39.7864 19.6738C39.8094 20.0147 39.958 20.2977 40.1874 20.4987C40.418 20.6987 40.7283 20.8145 41.0724 20.8145C41.1795 20.8145 41.2909 20.8036 41.4024 20.7806C41.7673 20.7052 42.0907 20.5184 42.3398 20.266C42.5879 20.0136 42.7583 19.6968 42.8107 19.3635C42.8271 19.2608 42.8326 19.1559 42.826 19.0499L42.3781 12.5009L42.2109 10.0535L42.1443 9.07567C42.1322 8.90741 42.0601 8.77083 41.9476 8.6725C41.834 8.57417 41.6832 8.51735 41.516 8.51735C41.4625 8.51844 41.4089 8.52391 41.3532 8.53483C41.174 8.57198 41.0189 8.66158 40.8965 8.78613C40.7752 8.9096 40.6911 9.06474 40.6649 9.22645C40.6572 9.27671 40.6551 9.32806 40.6583 9.37941L40.7042 10.0546L40.8921 12.8058L41.1183 16.1141C41.1314 16.301 40.9796 16.4845 40.7796 16.5261C40.7523 16.5315 40.7261 16.5337 40.7009 16.5337C40.536 16.5337 40.4059 16.4234 40.395 16.2616L40.1689 12.9533L39.9711 10.0535L39.935 9.528C39.9274 9.42748 39.9339 9.32587 39.9492 9.22645C40.0006 8.90413 40.1656 8.5982 40.4038 8.35674C40.6409 8.11419 40.9577 7.93282 41.3062 7.86071C41.4144 7.83995 41.5204 7.82793 41.6242 7.82793C41.9585 7.82793 42.2557 7.93937 42.4764 8.13276C42.6982 8.32506 42.8424 8.60148 42.8643 8.92707L42.9408 10.0546L43.0981 12.3534L43.545 18.9024C43.557 19.0565 43.5482 19.2117 43.5242 19.3635C43.4455 19.8574 43.1932 20.3239 42.8282 20.6965C42.4622 21.068 41.9793 21.3455 41.445 21.4547C41.2789 21.4886 41.1161 21.5061 40.9577 21.5061C40.4475 21.505 39.9897 21.3346 39.6521 21.0396C39.3134 20.7435 39.0937 20.3206 39.0588 19.8224L38.6152 13.2712L38.3956 10.0524L38.3497 9.37285C38.3355 9.16526 38.3453 8.95658 38.3781 8.75117C38.4841 8.08687 38.8228 7.45754 39.3155 6.95713C39.8083 6.45563 40.4584 6.08196 41.1784 5.93446C41.4002 5.88858 41.6198 5.86672 41.8329 5.86672ZM41.8329 5.42969C41.5903 5.42969 41.3412 5.45482 41.091 5.50508C40.312 5.6646 39.5712 6.07104 39.002 6.65011C38.4382 7.22263 38.0623 7.94374 37.9454 8.68124C37.9072 8.92161 37.8963 9.16417 37.9126 9.40235L37.9585 10.0819L38.1781 13.3007L38.625 19.8508C38.6676 20.4474 38.9309 20.9849 39.3669 21.3673C39.7908 21.7366 40.3557 21.9399 40.9599 21.942C41.1456 21.942 41.339 21.9224 41.5346 21.8819C42.1333 21.7596 42.7048 21.4471 43.1429 21.0024C43.5788 20.5588 43.8684 20.0005 43.9591 19.4324C43.9896 19.2422 43.9973 19.0532 43.9842 18.8697L43.8214 16.4824C43.9274 16.7599 44.1972 16.95 44.5185 16.95C44.572 16.95 44.6266 16.9445 44.6813 16.9336C45.0975 16.8484 45.3991 16.466 45.3707 16.0628L45.0932 12.0038L44.9577 10.0229L44.8266 8.10435C44.7763 7.34282 44.4398 6.65339 43.8804 6.165C43.3363 5.69082 42.6086 5.42969 41.8329 5.42969ZM39.51 9.22317L39.5078 9.19476C39.4991 9.07239 39.5046 8.94784 39.5253 8.82C39.5898 8.41574 39.8007 8.01585 40.1175 7.69245C40.4497 7.35593 40.8626 7.12976 41.3106 7.03689C41.4516 7.00848 41.5892 6.99319 41.7225 6.99319C42.1268 6.99319 42.5004 7.12539 42.7736 7.36357C43.0478 7.60285 43.2063 7.93063 43.2314 8.31085L43.2489 8.57417C43.168 8.27371 43.0019 8.00493 42.7649 7.79952C42.4611 7.53402 42.0569 7.38761 41.6264 7.38761C41.4964 7.38761 41.3609 7.40072 41.2243 7.42804C40.7982 7.51654 40.3983 7.73506 40.0935 8.04754C39.7875 8.35783 39.5843 8.75117 39.5199 9.15434C39.5166 9.17837 39.5133 9.20022 39.51 9.22317ZM40.7031 16.9686C40.7578 16.9686 40.8146 16.9631 40.8692 16.9511C41.2822 16.8659 41.5838 16.4845 41.5564 16.0814L41.3303 12.773L41.1424 10.0219L41.0965 9.34663C41.0954 9.32696 41.0954 9.30839 41.0986 9.292C41.1096 9.22426 41.15 9.14997 41.209 9.08987C41.2746 9.02213 41.3554 8.97843 41.4439 8.95985C41.4658 8.95548 41.492 8.9522 41.5215 8.9522C41.5783 8.9533 41.6264 8.96969 41.6624 9.00028C41.6908 9.02541 41.7061 9.05818 41.7094 9.10407L41.7761 10.0809L41.9432 12.5283L42.3912 19.0773C42.3956 19.1472 42.3923 19.2204 42.3803 19.2925C42.3431 19.5285 42.2175 19.7656 42.0284 19.9579C41.8307 20.1589 41.5827 20.2944 41.3139 20.3512C41.2341 20.3676 41.1511 20.3753 41.0724 20.3753C40.8419 20.3753 40.6288 20.301 40.4737 20.1666C40.3251 20.0355 40.2377 19.8541 40.2224 19.6421L40.0082 16.5031C40.1131 16.7795 40.383 16.9686 40.7031 16.9686Z" fill="#F9FAFB"/>
<path d="M72.8292 8.64453L73.0445 9.9917C73.1745 10.7991 73.7284 11.4317 74.526 11.6808L75.8579 12.096L74.3938 12.5112C73.5176 12.7603 72.7615 13.3929 72.3736 14.2004L71.7279 15.5475L71.5116 14.2004C71.3815 13.3929 70.8276 12.7603 70.03 12.5112L68.6992 12.096L70.1622 11.6808C71.0385 11.4317 71.7945 10.7991 72.1824 9.9917L72.8292 8.64453Z" fill="#D0D5DD"/>
<path d="M27.0096 3.35156L27.1746 4.38406C27.274 5.00356 27.699 5.48868 28.3109 5.67879L29.3314 5.99673L28.2093 6.31577C27.5373 6.50588 26.9572 6.99099 26.66 7.6094L26.165 8.64299L26 7.6094C25.9006 6.9899 25.4756 6.50588 24.8637 6.31577L23.8433 5.99673L24.9654 5.67879C25.6373 5.48868 26.2175 5.00247 26.5146 4.38406L27.0096 3.35156Z" fill="#D0D5DD"/>
<path d="M54.8848 39.0957L54.9766 39.6715C55.0323 40.0157 55.2694 40.2866 55.6103 40.3926L56.1784 40.5696L55.5534 40.7466C55.1787 40.8537 54.8553 41.1236 54.6892 41.4677L54.4128 42.0435L54.321 41.4677C54.2653 41.1236 54.0293 40.8526 53.6884 40.7466L53.1191 40.5696L53.7452 40.3926C54.12 40.2855 54.4423 40.0157 54.6083 39.6715L54.8848 39.0957Z" fill="#D0D5DD"/>
<path d="M13.4841 46.8086L13.5759 47.3844C13.6316 47.7296 13.8687 47.9995 14.2096 48.1055L14.7778 48.2825L14.1528 48.4595C13.7781 48.5666 13.4546 48.8364 13.2886 49.1817L13.0132 49.7575L12.9215 49.1817C12.8668 48.8364 12.6297 48.5666 12.2889 48.4595L11.7207 48.2825L12.3457 48.1055C12.7204 47.9995 13.0438 47.7296 13.2088 47.3844L13.4841 46.8086Z" fill="#D0D5DD"/>
</svg>
