<svg width="84" height="73" viewBox="0 0 84 73" fill="none" xmlns="http://www.w3.org/2000/svg">
<path d="M42 70.5221C64.2778 70.5221 82.3374 63.4374 82.3374 54.698C82.3374 45.9587 64.2778 38.874 42 38.874C19.7223 38.874 1.6626 45.9587 1.6626 54.698C1.6626 63.4374 19.7223 70.5221 42 70.5221Z" fill="#F9FAFB"/>
<path d="M43.3256 7.82059C43.248 7.7157 43.1595 7.61956 43.0612 7.53324C42.7137 7.2295 42.2439 7.05469 41.7227 7.05469C41.5621 7.05469 41.3939 7.07217 41.2234 7.10713C41.1404 7.12461 41.0595 7.14647 40.9798 7.1705C40.971 7.17269 40.9623 7.17487 40.9535 7.17706C40.9208 7.18798 40.888 7.2 40.8552 7.21202C40.8421 7.21639 40.8279 7.22076 40.8148 7.22622C40.7613 7.24698 40.7077 7.26883 40.6553 7.29178C40.652 7.29287 40.6487 7.29506 40.6465 7.29615C40.5744 7.32893 40.5045 7.36498 40.4357 7.40322C40.4313 7.40541 40.428 7.40759 40.4236 7.40978C40.4073 7.41961 40.392 7.43054 40.3756 7.44037C40.333 7.46659 40.2903 7.49281 40.2488 7.52013C40.2412 7.52559 40.2324 7.52996 40.2248 7.53543C40.2084 7.54635 40.1931 7.55946 40.1767 7.57148C40.1428 7.59661 40.109 7.62065 40.0751 7.64687C40.0653 7.65452 40.0544 7.66217 40.0434 7.66982C40.0303 7.68074 40.0172 7.69276 40.0041 7.70369C39.9724 7.72991 39.9418 7.75722 39.9112 7.78454C39.8992 7.79546 39.8872 7.8053 39.8752 7.81622C39.8522 7.83808 39.8293 7.85993 39.8074 7.88287C39.7779 7.91346 39.7495 7.94406 39.7211 7.97465C39.7135 7.9823 39.708 7.99104 39.7003 7.99978C39.6676 8.03693 39.6359 8.07626 39.6053 8.1145C39.5944 8.1287 39.5813 8.14182 39.5714 8.15602C39.5681 8.16039 39.566 8.16476 39.5627 8.16913C39.5157 8.23141 39.472 8.29587 39.4316 8.36252C39.4294 8.3658 39.4272 8.36798 39.425 8.37126C39.3966 8.41824 39.3693 8.46632 39.3431 8.51439C39.3376 8.52422 39.3332 8.53515 39.3278 8.54498C39.3103 8.57994 39.2917 8.61491 39.2764 8.64987C39.2721 8.65861 39.2699 8.66735 39.2655 8.67609C39.2578 8.69467 39.2502 8.71324 39.2426 8.73291C39.2273 8.77006 39.2131 8.80721 39.1999 8.84435C39.1923 8.86402 39.1857 8.88478 39.1792 8.90445C39.1661 8.94378 39.1551 8.98202 39.1442 9.02135C39.1398 9.03993 39.1344 9.05741 39.13 9.07598C39.1158 9.1328 39.1038 9.1907 39.095 9.24861C39.0699 9.40376 39.0612 9.56328 39.0732 9.72171L39.13 10.5499L41.4922 13.7698L41.4354 12.9416C41.4234 12.7821 41.4321 12.6236 41.4572 12.4685C41.466 12.4106 41.4791 12.3527 41.4922 12.2959C41.4966 12.2773 41.502 12.2598 41.5064 12.2412C41.5173 12.2019 41.5283 12.1626 41.5403 12.1243C41.5468 12.1046 41.5534 12.0839 41.561 12.0642C41.5741 12.0271 41.5883 11.9899 41.6036 11.9528C41.6113 11.9342 41.6189 11.9156 41.6266 11.8971C41.6463 11.8534 41.667 11.8096 41.6889 11.7659C41.6943 11.7561 41.6987 11.7452 41.7042 11.7354C41.7315 11.684 41.761 11.6327 41.7916 11.5824C41.832 11.5168 41.8768 11.4524 41.9227 11.389C41.9369 11.3704 41.9511 11.3529 41.9664 11.3344C41.997 11.295 42.0287 11.2568 42.0614 11.2196C42.0964 11.1803 42.1314 11.141 42.1685 11.1027C42.2024 11.0689 42.2373 11.0372 42.2723 11.0044C42.3029 10.9771 42.3335 10.9498 42.3652 10.9236C42.3881 10.9039 42.4122 10.8842 42.4362 10.8657C42.469 10.8394 42.5028 10.8143 42.5378 10.7903C42.5618 10.7728 42.5848 10.7553 42.6099 10.7389C42.6514 10.7116 42.694 10.6854 42.7367 10.6591C42.7574 10.6471 42.7771 10.634 42.7978 10.622C42.8667 10.5838 42.9366 10.5477 43.0087 10.5149C43.0644 10.4898 43.1202 10.4658 43.1781 10.4439C43.1912 10.4384 43.2054 10.4341 43.2185 10.4297C43.26 10.4144 43.3015 10.4013 43.3441 10.3882C43.4239 10.3641 43.5048 10.3412 43.5878 10.3248C43.7582 10.2899 43.9265 10.2724 44.0871 10.2724C44.6094 10.2724 45.0792 10.4472 45.4255 10.7509C45.5239 10.8372 45.6124 10.9323 45.6899 11.0383L43.3256 7.82059Z" fill="#D0D5DD"/>
<path d="M41.491 13.9895C41.4233 13.9895 41.3566 13.9578 41.3151 13.8999L38.9529 10.6789C38.9289 10.6451 38.9136 10.6057 38.9114 10.5642L38.8546 9.73602C38.8415 9.56776 38.8502 9.39077 38.8786 9.21267C38.8885 9.15367 38.9005 9.0914 38.9169 9.02365C38.9201 9.00945 38.9245 8.99416 38.9278 8.97995L38.9322 8.96356C38.9442 8.92095 38.9562 8.87834 38.9693 8.83573C38.977 8.81388 38.9846 8.79203 38.9923 8.76908C39.0065 8.72866 39.0218 8.68823 39.0392 8.6478L39.0436 8.63579C39.0502 8.6194 39.0567 8.60301 39.0644 8.58662L39.0753 8.5593C39.0928 8.52106 39.1103 8.4861 39.1288 8.45004L39.1365 8.43475C39.1409 8.42601 39.1441 8.41836 39.1485 8.40962C39.1758 8.35717 39.2053 8.30582 39.237 8.25447C39.2392 8.2501 39.2457 8.24136 39.249 8.23699C39.2873 8.1758 39.3342 8.10478 39.3867 8.03595C39.3867 8.03486 39.3911 8.0283 39.3965 8.02175C39.4053 8.01082 39.414 7.9999 39.4238 7.98897L39.4337 7.97695C39.4664 7.93434 39.5003 7.89282 39.5364 7.8524C39.5451 7.84038 39.5517 7.83382 39.5582 7.82617C39.5888 7.79121 39.6205 7.75843 39.6522 7.72675C39.6762 7.70271 39.7003 7.67867 39.7254 7.65573C39.7352 7.64699 39.7451 7.63825 39.7549 7.62951L39.7647 7.62077C39.7964 7.59127 39.8303 7.56177 39.8642 7.53336L39.8762 7.52243C39.886 7.51369 39.8958 7.50495 39.9068 7.49621C39.9155 7.48965 39.9242 7.4831 39.933 7.47654C39.9756 7.44267 40.0127 7.41645 40.0499 7.39023L40.0641 7.3793C40.0761 7.36947 40.0881 7.36073 40.1012 7.35199C40.1089 7.34653 40.1165 7.34215 40.1242 7.33669C40.1712 7.30501 40.2171 7.27769 40.2629 7.24929L40.2771 7.24054C40.2892 7.23289 40.3023 7.22415 40.3154 7.21651C40.3198 7.21432 40.3296 7.20886 40.334 7.20667C40.4028 7.16843 40.4793 7.1291 40.5547 7.09414L40.5645 7.08867C40.6213 7.06354 40.6792 7.03951 40.7371 7.01766C40.747 7.01438 40.7579 7.01001 40.7677 7.00673L40.7983 6.9958C40.8278 6.98488 40.8573 6.97395 40.8879 6.96521C40.8977 6.96193 40.9076 6.95975 40.9174 6.95756C41.0147 6.92806 41.0988 6.90621 41.1807 6.88982C41.3654 6.85267 41.5478 6.83301 41.7237 6.83301C42.2864 6.83301 42.8131 7.02203 43.2064 7.3651C43.3167 7.46234 43.4173 7.57051 43.5025 7.68741L45.8647 10.9073C45.9357 11.0045 45.9149 11.1411 45.8177 11.2132C45.7204 11.2842 45.5839 11.2635 45.5118 11.1662V11.1651C45.4451 11.0745 45.3675 10.9892 45.2812 10.9138C44.9677 10.6396 44.5437 10.4888 44.0859 10.4888C43.9384 10.4888 43.7855 10.5052 43.6303 10.5369C43.5637 10.5511 43.4905 10.5697 43.4074 10.5948C43.3681 10.6068 43.3299 10.6188 43.2916 10.633L43.2545 10.6462C43.202 10.6658 43.1507 10.6877 43.0993 10.7106C43.0349 10.7401 42.9693 10.7729 42.9048 10.81C42.8939 10.8155 42.8841 10.8221 42.8742 10.8286L42.848 10.8439C42.8087 10.868 42.7694 10.892 42.7311 10.9171C42.7125 10.9291 42.6962 10.9422 42.6787 10.9543L42.6656 10.9641C42.6339 10.987 42.6033 11.01 42.5727 11.034C42.5508 11.0515 42.529 11.069 42.5071 11.0876C42.4787 11.1116 42.4503 11.1367 42.4219 11.1619L42.4121 11.1706C42.3826 11.1968 42.3542 11.2241 42.3258 11.2525C42.2919 11.2875 42.2591 11.3236 42.2274 11.3596C42.1968 11.3946 42.1684 11.4295 42.14 11.4656L42.1225 11.4875C42.1149 11.4973 42.1072 11.506 42.0996 11.5159C42.0559 11.5749 42.0155 11.635 41.9783 11.6929C41.9499 11.7387 41.9226 11.7857 41.8975 11.8327L41.8833 11.8611C41.8636 11.8994 41.8439 11.9398 41.8264 11.9791L41.8057 12.0305C41.7915 12.0643 41.7784 12.0982 41.7664 12.1321C41.7598 12.1507 41.7532 12.1681 41.7478 12.1867C41.7358 12.2228 41.7259 12.2577 41.7161 12.2938L41.703 12.343C41.691 12.3943 41.68 12.4467 41.6713 12.4981C41.6484 12.6423 41.6418 12.7855 41.6516 12.9209L41.7084 13.7502C41.715 13.8475 41.6571 13.937 41.5653 13.9698C41.5413 13.9851 41.5162 13.9895 41.491 13.9895ZM39.343 10.4724L41.2222 13.0346L41.2168 12.9581C41.2037 12.7898 41.2124 12.6128 41.2408 12.4347C41.2506 12.3757 41.2627 12.3135 41.2791 12.2457C41.2823 12.2315 41.2867 12.2173 41.29 12.202L41.2944 12.1856C41.3053 12.143 41.3184 12.1004 41.3315 12.0578C41.3381 12.0359 41.3457 12.0141 41.3544 11.9911C41.3687 11.9507 41.3839 11.9103 41.4014 11.8699L41.4069 11.8567C41.4134 11.8415 41.42 11.8251 41.4266 11.8098C41.4473 11.7617 41.4703 11.7147 41.4943 11.6677L41.5107 11.635C41.5402 11.5792 41.5719 11.5235 41.6057 11.47C41.6484 11.4 41.6964 11.3301 41.7478 11.2613C41.7587 11.2471 41.7696 11.2329 41.7806 11.2198L41.7948 11.2023C41.8275 11.1608 41.8614 11.1192 41.8975 11.0788C41.9346 11.0362 41.9729 10.9936 42.0133 10.9532C42.0461 10.9193 42.081 10.8876 42.116 10.8559L42.1258 10.8472C42.1586 10.8177 42.1914 10.7882 42.2252 10.7598C42.2504 10.739 42.2755 10.7183 42.3017 10.6975C42.3378 10.6691 42.3738 10.6429 42.411 10.6167L42.4241 10.6068C42.4459 10.5915 42.4667 10.5762 42.4886 10.5609C42.5333 10.5314 42.5792 10.503 42.6251 10.4757L42.6459 10.4637C42.6612 10.455 42.6754 10.4451 42.6918 10.4364C42.7672 10.3938 42.8436 10.3555 42.919 10.3206C42.9791 10.2932 43.0392 10.2681 43.1015 10.2441L43.1452 10.2288C43.19 10.2124 43.2348 10.1982 43.2807 10.184C43.3768 10.1545 43.4631 10.1315 43.544 10.1152C43.9745 10.0267 44.3908 10.0441 44.7688 10.1556L43.1518 7.95182C43.0851 7.86004 43.0064 7.77592 42.9201 7.70053C42.6066 7.42629 42.1815 7.27551 41.7248 7.27551C41.5784 7.27551 41.4244 7.2919 41.2692 7.32358C41.2015 7.33778 41.1305 7.35636 41.0463 7.38149C41.0376 7.38367 41.0289 7.38586 41.0201 7.38804C40.9972 7.3946 40.9731 7.40334 40.9491 7.41208L40.8945 7.43175C40.8442 7.45032 40.795 7.47108 40.747 7.49293C40.6738 7.5268 40.6082 7.56067 40.5448 7.59673C40.5405 7.59891 40.5306 7.60438 40.5263 7.60656C40.5274 7.60656 40.523 7.60984 40.5175 7.61312C40.5088 7.61967 40.4989 7.62514 40.4891 7.6306C40.4498 7.65464 40.4104 7.67867 40.3722 7.7038C40.3656 7.70817 40.358 7.71254 40.3514 7.71691C40.3438 7.72129 40.3383 7.72675 40.3329 7.73112C40.3241 7.73767 40.3154 7.74423 40.3066 7.75079C40.275 7.77373 40.2433 7.79667 40.2127 7.82071C40.205 7.82617 40.1985 7.83164 40.1908 7.8371L40.1712 7.85349C40.1635 7.86004 40.1559 7.86769 40.1471 7.87425C40.1187 7.89829 40.0903 7.92341 40.0619 7.94854C40.0543 7.95619 40.0466 7.96165 40.039 7.96821L40.028 7.97804C40.0073 7.99771 39.9865 8.01847 39.9658 8.03923C39.9384 8.06654 39.9122 8.09495 39.886 8.12445C39.8784 8.13428 39.8729 8.14084 39.8663 8.1474C39.8368 8.18127 39.8084 8.21732 39.78 8.25228C39.7735 8.26103 39.7658 8.26977 39.7593 8.27742L39.7483 8.29053C39.7483 8.29053 39.7451 8.29599 39.7407 8.30145C39.6959 8.36155 39.6555 8.42054 39.6194 8.47954C39.6172 8.48282 39.6139 8.48829 39.6107 8.49266C39.5855 8.53418 39.5615 8.57678 39.5386 8.61939L39.5244 8.6478C39.5069 8.68277 39.4905 8.71336 39.4774 8.74395L39.4675 8.76799C39.4621 8.78001 39.4577 8.79203 39.4522 8.80514L39.4468 8.81825C39.4326 8.85212 39.4195 8.88599 39.4074 8.91986C39.4009 8.93843 39.3943 8.95591 39.3889 8.97449C39.3779 9.00945 39.367 9.04551 39.3572 9.08047L39.3441 9.12964C39.3321 9.18099 39.3211 9.23234 39.3124 9.28479C39.2894 9.42901 39.2829 9.57214 39.2927 9.70762L39.343 10.4724Z" fill="#F9FAFB"/>
<path d="M44.3961 12.4835L42.0339 9.26364C42.0088 9.22977 41.9804 9.19809 41.9487 9.17077C41.8351 9.07244 41.6843 9.01562 41.5171 9.01562C41.4636 9.01672 41.4101 9.02218 41.3543 9.03311C41.3248 9.03966 41.2953 9.04731 41.2669 9.05605C41.2582 9.05933 41.2505 9.06261 41.2418 9.06588C41.2287 9.07025 41.2167 9.07572 41.2046 9.08009C41.1937 9.08446 41.1817 9.08774 41.1708 9.0932C41.1511 9.10194 41.1336 9.11177 41.1151 9.12161C41.1107 9.12379 41.1063 9.12598 41.103 9.12816C41.1009 9.12925 41.0998 9.13035 41.0976 9.13144C41.0757 9.14346 41.055 9.15657 41.0342 9.17077C41.0244 9.17733 41.0145 9.18498 41.0058 9.19262C41.0014 9.1959 40.996 9.20027 40.9916 9.20355C40.9872 9.20683 40.9818 9.21011 40.9774 9.21338C40.9588 9.22868 40.9413 9.24398 40.9239 9.26036C40.9151 9.26801 40.9075 9.27675 40.8998 9.2844C40.89 9.29424 40.8801 9.30516 40.8703 9.31499C40.8528 9.33357 40.8364 9.35433 40.8212 9.374C40.8201 9.37509 40.819 9.37727 40.8179 9.37946C40.8146 9.38383 40.8124 9.3882 40.8091 9.39257C40.7971 9.41005 40.7851 9.42644 40.7742 9.44501C40.7687 9.45375 40.7643 9.46359 40.76 9.47233C40.7534 9.48435 40.7469 9.49636 40.7403 9.50838C40.7359 9.51712 40.7305 9.52587 40.7261 9.53461C40.7195 9.5499 40.7141 9.56629 40.7086 9.58159C40.7042 9.59251 40.6999 9.60344 40.6955 9.61546C40.6835 9.65151 40.6736 9.68757 40.6682 9.72472C40.6605 9.77498 40.6584 9.82633 40.6616 9.87768L40.7075 10.5529L43.0697 13.7728L43.0238 13.0975C43.0205 13.0462 43.0227 12.9948 43.0304 12.9446C43.0358 12.9074 43.0457 12.8714 43.0577 12.8353C43.061 12.8244 43.0664 12.8135 43.0708 12.8015C43.0806 12.7763 43.0905 12.7523 43.1025 12.7283C43.109 12.7162 43.1156 12.7042 43.1222 12.6922C43.1374 12.6649 43.1538 12.6387 43.1724 12.6124C43.1757 12.6081 43.1779 12.6037 43.1812 12.5993C43.2063 12.5665 43.2325 12.5338 43.262 12.5043C43.2904 12.4748 43.321 12.4485 43.3538 12.4223C43.3582 12.419 43.3636 12.4147 43.368 12.4114C43.3986 12.3885 43.4314 12.3666 43.4652 12.3469C43.4696 12.3448 43.474 12.3426 43.4772 12.3404C43.5067 12.3251 43.5362 12.3109 43.5679 12.2989C43.5799 12.2934 43.5931 12.289 43.6051 12.2847C43.6411 12.2715 43.6783 12.2606 43.7176 12.2519C43.7733 12.241 43.8269 12.2355 43.8804 12.2344C44.0476 12.2344 44.1984 12.2912 44.312 12.3895C44.3426 12.419 44.371 12.4496 44.3961 12.4835Z" fill="#D0D5DD"/>
<path d="M43.0685 13.9902C43.0008 13.9902 42.9341 13.9585 42.8926 13.9006L40.5304 10.6796C40.5064 10.6458 40.4911 10.6064 40.4889 10.5649L40.443 9.8897C40.4387 9.82087 40.4408 9.75313 40.4518 9.68757C40.4594 9.64277 40.4703 9.59579 40.4867 9.54444C40.4911 9.53133 40.4955 9.51931 40.4998 9.50729L40.5064 9.48981C40.5119 9.47342 40.5184 9.45703 40.5261 9.44064C40.5315 9.42972 40.537 9.41879 40.5425 9.40787C40.5512 9.39148 40.5588 9.37618 40.5676 9.35979C40.5741 9.34668 40.5796 9.33685 40.5862 9.32592C40.6004 9.30298 40.6157 9.28113 40.631 9.26037C40.6331 9.25709 40.6353 9.25381 40.6386 9.24944C40.6397 9.24726 40.6419 9.24507 40.643 9.24289C40.6659 9.21229 40.6867 9.18826 40.7074 9.16422C40.7195 9.15111 40.7315 9.138 40.7435 9.12598C40.7522 9.11724 40.7621 9.10631 40.773 9.09757C40.7948 9.07681 40.8167 9.05824 40.8396 9.03966C40.8429 9.03748 40.8538 9.02874 40.8571 9.02655L40.8823 9.00798C40.891 9.00142 40.9008 8.99377 40.9107 8.98722C40.9369 8.96974 40.9631 8.95335 40.9893 8.93805C40.9937 8.93587 41.0003 8.9315 41.0046 8.93041L41.0134 8.92603C41.0341 8.91511 41.0571 8.902 41.0811 8.89107C41.0931 8.88561 41.1051 8.88124 41.1172 8.87687C41.139 8.86813 41.1543 8.86266 41.1707 8.8572C41.1816 8.85283 41.1915 8.84846 41.2024 8.84518C41.2384 8.83426 41.2745 8.82442 41.3105 8.81678C41.3772 8.80366 41.4427 8.79601 41.5127 8.79492C41.7334 8.79492 41.9366 8.86922 42.0918 9.00361C42.1365 9.04294 42.1759 9.08664 42.2097 9.13253L44.5708 12.3524C44.5708 12.3524 44.5708 12.3535 44.5719 12.3535C44.6429 12.4507 44.6222 12.5873 44.5249 12.6594C44.4277 12.7304 44.2911 12.7097 44.219 12.6124C44.2037 12.5917 44.1862 12.572 44.1666 12.5545C44.0912 12.489 43.9896 12.4529 43.8792 12.4529C43.8399 12.454 43.7984 12.4584 43.759 12.466C43.7361 12.4704 43.711 12.4781 43.676 12.4901C43.6662 12.4933 43.6563 12.4977 43.6476 12.501C43.6247 12.5097 43.6017 12.5207 43.5799 12.5316C43.5777 12.5327 43.5689 12.5371 43.5668 12.5381C43.5471 12.5491 43.523 12.5655 43.4968 12.584L43.3515 12.4201L43.4859 12.5928C43.4586 12.6135 43.4367 12.6343 43.416 12.6551C43.3941 12.678 43.3734 12.702 43.3537 12.7283L43.3471 12.7381C43.334 12.7567 43.322 12.7763 43.31 12.7971C43.3056 12.8058 43.3002 12.8146 43.2958 12.8244C43.287 12.8408 43.2794 12.8594 43.2728 12.8768L43.2674 12.8911C43.2543 12.9293 43.2477 12.9544 43.2444 12.9763C43.239 13.008 43.2379 13.044 43.2401 13.0801L43.286 13.7553C43.2925 13.8525 43.2346 13.9421 43.1428 13.9749C43.1188 13.9858 43.0937 13.9902 43.0685 13.9902ZM40.9205 10.4731L42.803 13.0396C42.803 12.9959 42.8074 12.9522 42.814 12.9096C42.8216 12.8648 42.8325 12.8178 42.85 12.7665C42.8533 12.7545 42.8588 12.7436 42.8631 12.7315C42.8784 12.6911 42.8915 12.6605 42.9068 12.6299C42.9145 12.6135 42.9232 12.5993 42.9309 12.584C42.9505 12.5491 42.9713 12.5163 42.9942 12.4835C42.9975 12.4791 43.0008 12.4726 43.0052 12.4671C43.0357 12.4256 43.0707 12.3852 43.1057 12.3491C43.1385 12.3153 43.1756 12.2825 43.2182 12.2486C43.2193 12.2475 43.2302 12.2399 43.2313 12.2388C43.2772 12.2049 43.3165 12.1787 43.357 12.1557C43.3602 12.1536 43.3701 12.1492 43.3734 12.147C43.4083 12.1284 43.4455 12.1109 43.4848 12.0956C43.5012 12.0891 43.5165 12.0836 43.5318 12.0782C43.5842 12.0596 43.6279 12.0476 43.6716 12.0377C43.7099 12.0301 43.747 12.0246 43.7864 12.0213L41.8579 9.39257C41.8426 9.37181 41.8252 9.35214 41.8044 9.33466C41.729 9.2702 41.6274 9.23305 41.517 9.23305C41.4777 9.23415 41.4362 9.23851 41.3969 9.24616C41.3761 9.25053 41.3543 9.256 41.3335 9.26255C41.3291 9.26474 41.3215 9.26801 41.3149 9.2702C41.3051 9.27348 41.2952 9.27785 41.2865 9.28113L41.2647 9.28987C41.2461 9.29751 41.2319 9.30516 41.2188 9.31281C41.2166 9.31391 41.2078 9.31828 41.2057 9.31937C41.2046 9.32046 41.2024 9.32155 41.2013 9.32155C41.1871 9.33029 41.1718 9.33903 41.1587 9.34887L41.1368 9.36526L40.9915 9.20137L41.127 9.3729C41.1248 9.37509 41.1161 9.38164 41.1139 9.38274C41.1019 9.39257 41.0887 9.40459 41.0756 9.41661L41.0571 9.43518C41.0483 9.44392 41.0407 9.45157 41.0341 9.45922C41.0221 9.47233 41.0112 9.48544 41.0002 9.49965C40.9981 9.50183 40.997 9.50511 40.9959 9.5062C40.9937 9.50839 40.9904 9.51494 40.9882 9.51713C40.9795 9.53024 40.9697 9.54226 40.9609 9.55646L40.9511 9.57612C40.9456 9.58596 40.9413 9.59361 40.9369 9.60235L40.926 9.62311C40.9249 9.62639 40.9227 9.63076 40.9216 9.63622L40.9096 9.67009C40.8965 9.70942 40.8899 9.73346 40.8866 9.75641C40.8812 9.78809 40.8801 9.82414 40.8823 9.8602L40.9205 10.4731Z" fill="#F9FAFB"/>
<path d="M45.2301 12.6432C45.2268 12.5897 45.2192 12.5373 45.2094 12.4859C45.2094 12.4837 45.2083 12.4815 45.2072 12.4794C45.1951 12.4225 45.1809 12.3668 45.1613 12.3133C45.1449 12.2685 45.1263 12.2248 45.1045 12.1822C45.1034 12.1789 45.1012 12.1767 45.099 12.1734C45.0935 12.1625 45.0859 12.1516 45.0804 12.1407C45.0673 12.1177 45.0542 12.0937 45.04 12.0718C45.0313 12.0587 45.0214 12.0445 45.0116 12.0314L42.6494 8.81152C42.6745 8.84649 42.6964 8.88363 42.7182 8.92078C42.7248 8.93171 42.7314 8.94154 42.7368 8.95356C42.7609 8.99836 42.7816 9.04534 42.7991 9.09341C42.8188 9.14695 42.833 9.20158 42.845 9.25949C42.8559 9.31193 42.8636 9.36656 42.8668 9.42228L42.9433 10.5498L45.3055 13.7697L45.2301 12.6432Z" fill="#D0D5DD"/>
<path d="M45.3063 13.9897C45.2385 13.9897 45.1719 13.958 45.1304 13.9001L42.7682 10.6792C42.7441 10.6453 42.7289 10.606 42.7267 10.5644L42.6502 9.43688C42.6469 9.39209 42.6414 9.34838 42.6316 9.30249C42.6218 9.25442 42.6098 9.20853 42.5945 9.16701C42.5813 9.13096 42.565 9.09381 42.5442 9.05448L42.5289 9.02935C42.5114 8.99875 42.4929 8.96707 42.4743 8.94085C42.4033 8.84361 42.424 8.70703 42.5213 8.63492C42.6185 8.5639 42.7551 8.58466 42.8272 8.6819C42.8272 8.6819 42.8272 8.683 42.8283 8.683L45.1894 11.9029C45.2003 11.9182 45.2123 11.9346 45.2232 11.9509C45.2385 11.9739 45.2516 11.9968 45.2648 12.0209L45.2724 12.034C45.2811 12.0482 45.2866 12.058 45.2921 12.0668C45.2953 12.0722 45.2986 12.0788 45.3008 12.0821C45.327 12.1323 45.35 12.1848 45.3696 12.2383C45.3915 12.2984 45.409 12.3618 45.4232 12.4284C45.4254 12.435 45.4265 12.4415 45.4276 12.447C45.4385 12.5038 45.4472 12.5661 45.4505 12.6283L45.527 13.7559C45.5335 13.8531 45.4756 13.9427 45.3838 13.9755C45.3565 13.9853 45.3314 13.9897 45.3063 13.9897ZM43.1582 10.4727L45.0375 13.0348L45.0124 12.6589C45.0102 12.6174 45.0047 12.577 44.9971 12.5377C44.996 12.5355 44.996 12.5322 44.9949 12.53C44.984 12.4765 44.9719 12.4317 44.9566 12.3902C44.9446 12.3563 44.9293 12.3224 44.9129 12.2896C44.9108 12.2853 44.9075 12.2798 44.9053 12.2765L44.8813 12.2361C44.8736 12.223 44.866 12.2088 44.8572 12.1957C44.8496 12.1848 44.8419 12.1738 44.8343 12.1629L43.1123 9.81492L43.1582 10.4727Z" fill="#F9FAFB"/>
<path d="M29.435 10.5518H38.3954L38.615 13.7705L28.5938 15.8235L29.435 10.5518Z" fill="#F7F9FC"/>
<path d="M28.5937 16.0419C28.538 16.0419 28.4833 16.0201 28.4429 15.9818C28.3916 15.9327 28.3664 15.8605 28.3785 15.7895L29.2197 10.5167C29.2361 10.4107 29.3279 10.332 29.4361 10.332H38.3964C38.5112 10.332 38.6062 10.4205 38.615 10.5353L38.8346 13.754C38.8422 13.8633 38.7679 13.9605 38.6608 13.9835L28.6396 16.0375C28.6232 16.0408 28.6079 16.0419 28.5937 16.0419ZM29.6207 10.7702L28.8592 15.547L38.3844 13.5945L38.1921 10.7702H29.6207Z" fill="#F9FAFB"/>
<path d="M38.6155 13.7705L40.9777 16.9904L30.9564 19.0444L28.5942 15.8235L38.6155 13.7705Z" fill="#98A2B3"/>
<path d="M30.9563 19.263C30.8874 19.263 30.8219 19.2303 30.7804 19.1734L28.4182 15.9525C28.3745 15.8924 28.3636 15.8137 28.3909 15.7449C28.4182 15.675 28.4783 15.6247 28.5504 15.6094L38.5716 13.5553C38.6547 13.5378 38.741 13.5717 38.7913 13.6406L41.1534 16.8615C41.1971 16.9216 41.2081 17.0003 41.1808 17.0691C41.1534 17.139 41.0934 17.1893 41.0212 17.2046L31 19.2587C30.9858 19.2619 30.9705 19.263 30.9563 19.263ZM28.9721 15.97L31.0502 18.8031L40.6006 16.8462L38.5225 14.0131L28.9721 15.97Z" fill="#F9FAFB"/>
<path d="M40.1862 20.9959C39.9568 20.7949 39.8082 20.5108 39.7852 20.1699L39.3384 13.6209L40.1709 13.4505L40.3971 16.7589C40.408 16.9206 40.538 17.0309 40.703 17.0309C40.7282 17.0309 40.7544 17.0287 40.7817 17.0222C40.9816 16.9807 41.1335 16.7971 41.1204 16.6103L40.8942 13.3019L42.3791 12.9971L42.827 19.5461C42.8336 19.652 42.8281 19.7558 42.8117 19.8596C42.7582 20.1929 42.5877 20.5097 42.3408 20.7621C42.0917 21.0145 41.7683 21.2013 41.4034 21.2767C41.2919 21.2986 41.1805 21.3106 41.0734 21.3106C40.7271 21.3117 40.4168 21.197 40.1862 20.9959Z" fill="#D0D5DD"/>
<path d="M41.0714 21.5301C40.6825 21.5301 40.3175 21.399 40.0433 21.1608L40.0422 21.1597C39.7581 20.9106 39.5942 20.573 39.568 20.1851L39.1211 13.6361C39.1135 13.5269 39.1878 13.4296 39.2949 13.4067L40.1274 13.2362C40.1886 13.2231 40.2531 13.2384 40.3033 13.2767C40.3536 13.3149 40.3853 13.3728 40.3886 13.4362L40.6147 16.7446C40.6191 16.8057 40.6781 16.8123 40.7032 16.8123C40.7141 16.8123 40.7262 16.8112 40.7382 16.809C40.8387 16.7883 40.9075 16.6954 40.9032 16.6266L40.677 13.3182C40.6693 13.2089 40.7436 13.1117 40.8507 13.0887L42.3356 12.7839C42.3967 12.7708 42.4612 12.7861 42.5115 12.8243C42.5617 12.8626 42.5934 12.9205 42.5967 12.9838L43.0446 19.5328C43.0523 19.6563 43.0457 19.7776 43.0272 19.8956C42.9682 20.2649 42.7791 20.6276 42.4962 20.9172C42.2055 21.2111 41.8428 21.4099 41.4462 21.493C41.3194 21.5181 41.1938 21.5301 41.0714 21.5301ZM40.3296 20.8319C40.5896 21.057 40.9676 21.1433 41.3588 21.0647C41.6691 21.0002 41.9542 20.8429 42.1837 20.6112C42.4033 20.3873 42.5497 20.1086 42.5945 19.8278C42.6087 19.7404 42.6131 19.6519 42.6076 19.5623L42.1771 13.2646L41.125 13.4799L41.338 16.5981C41.3588 16.8942 41.1326 17.175 40.8256 17.2384C40.7852 17.2471 40.7436 17.2515 40.7032 17.2515C40.4181 17.2515 40.1984 17.0516 40.1788 16.7762L39.9701 13.717L39.5702 13.7989L40.004 20.1567C40.0225 20.4266 40.1351 20.6604 40.3296 20.8319Z" fill="#F9FAFB"/>
<path d="M39.1284 10.5518H39.973L40.1708 13.4515L39.3382 13.6219L39.1284 10.5518Z" fill="#F7F9FC"/>
<path d="M39.3384 13.8402C39.2914 13.8402 39.2444 13.8249 39.2062 13.7954C39.1559 13.7572 39.1243 13.6993 39.121 13.6359L38.9112 10.5657C38.9068 10.5056 38.9287 10.4455 38.9691 10.4018C39.0106 10.3581 39.0685 10.333 39.1286 10.333H39.9721C40.0868 10.333 40.1819 10.4215 40.1906 10.5362L40.3884 13.436C40.396 13.5452 40.3217 13.6425 40.2147 13.6654L39.3821 13.8359C39.3679 13.8391 39.3537 13.8402 39.3384 13.8402ZM39.3624 10.77L39.5394 13.3573L39.9393 13.2754L39.7678 10.77H39.3624Z" fill="#F9FAFB"/>
<path d="M46.8843 13.99C46.8165 13.99 46.7499 13.9583 46.7084 13.9004L44.3462 10.6795C44.3221 10.6456 44.3068 10.6063 44.3047 10.5647L44.1735 8.64615C44.1703 8.59261 44.1648 8.54017 44.1572 8.48772L44.1495 8.43856C44.144 8.40469 44.1386 8.36972 44.132 8.33585C44.1255 8.30198 44.1167 8.26921 44.108 8.23643L44.0938 8.17743C44.0796 8.12608 44.0632 8.07472 44.0446 8.02556C44.0184 7.95454 43.9867 7.88024 43.9463 7.79939L43.9321 7.76989C43.9004 7.7098 43.8654 7.64861 43.8261 7.58961C43.8032 7.55465 43.7846 7.52624 43.7638 7.49893C43.6928 7.40169 43.7136 7.26511 43.8108 7.193C43.8501 7.16459 43.8949 7.15039 43.9397 7.15039C44.0075 7.15039 44.073 7.18098 44.1156 7.23998L46.4778 10.4609C46.4997 10.4904 46.5204 10.521 46.5412 10.5516C46.5445 10.5571 46.5532 10.5713 46.5565 10.5768C46.5991 10.6423 46.6417 10.7133 46.6778 10.7833C46.6821 10.7898 46.6854 10.7964 46.6887 10.804C46.692 10.8106 46.6963 10.8204 46.7007 10.8313C46.7466 10.922 46.7848 11.0116 46.8165 11.0979C46.8384 11.158 46.858 11.2192 46.8755 11.2815C46.8799 11.2968 46.8832 11.311 46.8864 11.3263L46.8908 11.3459C46.9017 11.3875 46.9116 11.429 46.9203 11.4727C46.9203 11.4738 46.9225 11.4803 46.9236 11.4869C46.9291 11.5131 46.9334 11.5404 46.9367 11.5677C46.9367 11.5677 46.9487 11.6399 46.9498 11.6541C46.9586 11.7152 46.964 11.7775 46.9684 11.8409L47.0995 13.7584C47.1061 13.8556 47.0482 13.9452 46.9564 13.978C46.9345 13.9856 46.9094 13.99 46.8843 13.99Z" fill="#D0D5DD"/>
<path d="M43.9397 7.37125L46.3019 10.5922C46.3216 10.6195 46.3412 10.6468 46.3598 10.6753C46.3642 10.6807 46.3663 10.6873 46.3707 10.6927C46.4122 10.7572 46.4516 10.8227 46.4876 10.8916C46.4898 10.896 46.492 10.8992 46.4942 10.9036C46.4975 10.9102 46.4996 10.9178 46.504 10.9255C46.5444 11.0063 46.5816 11.0882 46.6122 11.1746C46.6319 11.2292 46.6493 11.286 46.6657 11.3428C46.6712 11.3625 46.6756 11.3822 46.6799 11.4018C46.6898 11.4401 46.6996 11.4783 46.7072 11.5176C46.7083 11.522 46.7094 11.5264 46.7105 11.5308C46.7171 11.5635 46.7214 11.5963 46.7269 11.6291C46.7302 11.6477 46.7335 11.6651 46.7356 11.6837C46.7433 11.7405 46.7488 11.7973 46.7531 11.8553L46.8842 13.7738L44.5221 10.554L44.3909 8.63538C44.3866 8.57747 44.3811 8.51956 44.3735 8.46384C44.3713 8.44527 44.3669 8.42779 44.3647 8.40921C44.3593 8.37206 44.3527 8.33492 44.3451 8.29777C44.3374 8.25844 44.3276 8.22019 44.3177 8.18195C44.3123 8.16229 44.309 8.14262 44.3035 8.12405C44.2871 8.06723 44.2697 8.01042 44.25 7.95579C44.2183 7.86947 44.1823 7.78753 44.1418 7.70668C44.1364 7.69575 44.1309 7.68483 44.1254 7.6739C44.0894 7.60507 44.0501 7.53951 44.0085 7.47505C43.9856 7.4379 43.9637 7.40403 43.9397 7.37125ZM44.2926 7.1123L43.9397 7.37125L43.5879 7.63019C43.6065 7.65532 43.6239 7.68155 43.6403 7.70777C43.6775 7.76568 43.7103 7.81921 43.7376 7.87275L43.7408 7.8793L43.7507 7.89897C43.7878 7.97327 43.8173 8.03992 43.8392 8.10219C43.8392 8.10329 43.8403 8.10438 43.8403 8.10438C43.8556 8.14699 43.8698 8.19179 43.8829 8.23877C43.884 8.24423 43.8851 8.24969 43.8873 8.25516C43.8894 8.26608 43.8927 8.27592 43.8949 8.28684C43.9036 8.32071 43.9113 8.35131 43.9178 8.38299C43.9244 8.41249 43.9288 8.44308 43.9331 8.47367L43.9375 8.50318C43.9386 8.50864 43.9397 8.5141 43.9397 8.51956C43.9463 8.56982 43.9506 8.61681 43.9539 8.66269L44.085 10.5813C44.0905 10.6643 44.12 10.743 44.1691 10.8096L46.5313 14.0295C46.6155 14.1442 46.7477 14.2076 46.8842 14.2076C46.9345 14.2076 46.9848 14.1989 47.0339 14.1814C47.2164 14.1147 47.3333 13.9355 47.3202 13.7411L47.1891 11.8225C47.1847 11.758 47.1781 11.6903 47.1694 11.6225C47.1672 11.605 47.1639 11.5887 47.1618 11.5712L47.1596 11.557L47.1563 11.5373C47.1519 11.5056 47.1465 11.4728 47.1399 11.4423C47.1388 11.4368 47.1366 11.428 47.1344 11.4182C47.1246 11.3734 47.1148 11.3319 47.1039 11.2904L47.1006 11.2751C47.0962 11.2565 47.0918 11.239 47.0875 11.2215C47.0678 11.1527 47.047 11.0861 47.0241 11.0227C47.023 11.0216 47.023 11.0194 47.0219 11.0183C46.9891 10.9276 46.9498 10.837 46.9006 10.7386C46.8952 10.7255 46.8897 10.7124 46.8831 10.7004C46.8799 10.6938 46.8744 10.6851 46.8689 10.6753C46.8307 10.6031 46.7892 10.5321 46.7433 10.4611C46.7367 10.4502 46.7302 10.4393 46.7236 10.4283C46.7018 10.3966 46.6788 10.3639 46.6559 10.3311L44.2926 7.1123Z" fill="#F9FAFB"/>
<path d="M40.7061 10.5518H42.2117L42.3788 12.9992L40.894 13.3029L40.7061 10.5518Z" fill="#F7F9FC"/>
<path d="M40.8942 13.5212C40.8472 13.5212 40.8002 13.5059 40.762 13.4764C40.7117 13.4382 40.68 13.3802 40.6768 13.3169L40.4888 10.5657C40.4845 10.5056 40.5063 10.4455 40.5467 10.4018C40.5883 10.3581 40.6462 10.333 40.7063 10.333H42.2108C42.3255 10.333 42.4205 10.4215 42.4293 10.5362L42.5964 12.9836C42.6041 13.0929 42.5298 13.1901 42.4227 13.2131L40.9379 13.5168C40.9237 13.5201 40.9084 13.5212 40.8942 13.5212ZM40.9401 10.77L41.0952 13.0394L42.1474 12.8241L42.0075 10.7711H40.9401V10.77Z" fill="#F9FAFB"/>
<path d="M42.9438 10.5518H43.7884L43.9337 12.6801L43.1012 12.8506L42.9438 10.5518Z" fill="#F7F9FC"/>
<path d="M43.1014 13.0689C43.0544 13.0689 43.0074 13.0536 42.9692 13.0241C42.9189 12.9858 42.8872 12.9279 42.884 12.8645L42.7266 10.5657C42.7223 10.5056 42.7441 10.4455 42.7845 10.4018C42.826 10.3581 42.884 10.333 42.944 10.333H43.7886C43.9033 10.333 43.9984 10.4215 44.0071 10.5362L44.1525 12.6646C44.1601 12.7739 44.0858 12.8711 43.9787 12.894L43.1462 13.0645C43.1309 13.0678 43.1156 13.0689 43.1014 13.0689ZM43.1779 10.77L43.3024 12.587L43.7034 12.5051L43.5854 10.7711H43.1779V10.77Z" fill="#F9FAFB"/>
<path d="M44.5215 10.5518H64.9967L59.2114 46.8269H49.8741L48.4373 55.8343L48.2505 55.9894H47.2191C47.9566 55.5731 48.4428 54.7777 48.3707 53.9845L46.8487 37.1531H54.0893C54.4051 37.1531 54.7012 36.9062 54.7492 36.6014C54.7984 36.2954 54.581 36.0496 54.2652 36.0496H46.7493L46.3406 31.5263H54.9874C55.3032 31.5263 55.5993 31.2793 55.6484 30.9734C55.6965 30.6686 55.4802 30.4216 55.1644 30.4216H46.2412L45.8326 25.8983H55.8855C56.2013 25.8983 56.4974 25.6514 56.5466 25.3455C56.5946 25.0406 56.3783 24.7937 56.0625 24.7937H45.7419C45.7561 23.841 46.5471 22.9297 47.572 22.7189C48.6504 22.4971 49.4687 21.5039 49.3988 20.4987L49.3835 20.2704H56.7836C57.0994 20.2704 57.3955 20.0234 57.4447 19.7175C57.4927 19.4127 57.2764 19.1658 56.9606 19.1658H49.3081L48.9214 13.5072C48.8624 12.6364 48.1576 12.0421 47.2704 12.0421C47.1328 12.0421 46.9907 12.0563 46.8465 12.0858L44.8962 12.4856L44.6592 12.5337L44.5215 10.5518Z" fill="#F7F9FC"/>
<path d="M48.2508 56.2086H47.2194C47.12 56.2086 47.0337 56.1419 47.0086 56.0458C46.9834 55.9496 47.026 55.8491 47.1124 55.7999C47.7974 55.4132 48.2159 54.6909 48.1536 54.0048L46.6316 37.1734C46.6262 37.1122 46.6469 37.0521 46.6884 37.0062C46.73 36.9614 46.789 36.9352 46.8501 36.9352H54.0908C54.2994 36.9352 54.5038 36.767 54.5354 36.567C54.5485 36.4851 54.5311 36.413 54.4841 36.3572C54.4349 36.2993 54.3573 36.2676 54.2667 36.2676H46.7507C46.6382 36.2676 46.5431 36.1813 46.5333 36.0688L46.1247 31.5455C46.1192 31.4843 46.14 31.4242 46.1815 31.3783C46.223 31.3335 46.282 31.3073 46.3432 31.3073H54.99C55.1986 31.3073 55.403 31.1379 55.4346 30.938C55.4478 30.8571 55.4292 30.7828 55.3822 30.7282C55.333 30.6703 55.2555 30.6386 55.1659 30.6386H46.2427C46.1301 30.6386 46.0351 30.5523 46.0252 30.4398L45.6166 25.9164C45.6111 25.8552 45.6319 25.7951 45.6734 25.7493C45.7149 25.7045 45.7739 25.6782 45.8351 25.6782H55.8881C56.0968 25.6782 56.3011 25.5089 56.3328 25.3089C56.3459 25.2281 56.3273 25.1538 56.2814 25.1003C56.2322 25.0424 56.1547 25.0107 56.0651 25.0107H45.7444C45.6854 25.0107 45.6297 24.9877 45.5893 24.9451C45.5489 24.9025 45.5259 24.8468 45.527 24.7889C45.5434 23.717 46.4044 22.7348 47.5308 22.5032C48.5043 22.3032 49.2462 21.4106 49.1839 20.5125L49.1686 20.2841C49.1643 20.224 49.1861 20.1639 49.2265 20.1202C49.2681 20.0754 49.326 20.0514 49.386 20.0514H56.7862C56.9949 20.0514 57.1992 19.882 57.2309 19.6821C57.244 19.6012 57.2254 19.5269 57.1795 19.4723C57.1303 19.4144 57.0528 19.3827 56.9632 19.3827H49.3107C49.1959 19.3827 49.1009 19.2942 49.0921 19.1795L48.7054 13.521C48.6551 12.778 48.0662 12.2601 47.2719 12.2601C47.1473 12.2601 47.0195 12.2732 46.8917 12.2994L44.7043 12.7485C44.642 12.7616 44.5786 12.7463 44.5284 12.7081C44.4781 12.6698 44.4464 12.6119 44.4432 12.5486L44.3077 10.5677C44.3033 10.5076 44.3252 10.4475 44.3656 10.4038C44.4071 10.3601 44.465 10.335 44.5251 10.335H65.0003C65.0648 10.335 65.1248 10.3634 65.1664 10.4114C65.2079 10.4595 65.2265 10.524 65.2155 10.5873L59.4303 46.8625C59.4139 46.9685 59.3221 47.0472 59.2139 47.0472H50.0635L48.6562 55.8709C48.6475 55.9234 48.6212 55.9704 48.5797 56.0042L48.3929 56.1594C48.3514 56.19 48.3022 56.2086 48.2508 56.2086ZM47.8706 55.7715H48.1722L48.2356 55.7191L48.3219 55.175C48.205 55.3902 48.052 55.5923 47.8706 55.7715ZM47.0883 37.3712L48.5622 53.6705L49.6592 46.7926C49.6756 46.6866 49.7674 46.6079 49.8755 46.6079H59.026L64.7413 10.7698H44.7556L44.8583 12.2678L46.801 11.869C46.9572 11.8373 47.1156 11.8209 47.2686 11.8209C48.2869 11.8209 49.0725 12.5223 49.138 13.4893L49.5106 18.9446H56.9588C57.1762 18.9446 57.3762 19.0331 57.5084 19.1882C57.6395 19.3412 57.693 19.5411 57.6592 19.7498C57.5936 20.1628 57.2079 20.4873 56.7829 20.4873H49.6166C49.6898 21.5941 48.7928 22.69 47.615 22.9315C46.7791 23.103 46.1006 23.8012 45.9783 24.5736H56.0607C56.2781 24.5736 56.4781 24.6621 56.6103 24.8173C56.7414 24.9702 56.7949 25.1702 56.761 25.3789C56.6955 25.7919 56.3098 26.1164 55.8848 26.1164H46.0711L46.4404 30.2027H55.1637C55.3811 30.2027 55.5811 30.2912 55.7133 30.4452C55.8444 30.5982 55.8979 30.7981 55.864 31.0068C55.7985 31.4198 55.4128 31.7443 54.9878 31.7443H46.5803L46.9496 35.8306H54.2667C54.4841 35.8306 54.684 35.9191 54.8162 36.0732C54.9463 36.2261 54.9998 36.4261 54.967 36.6348C54.9015 37.0478 54.5169 37.3712 54.0908 37.3712H47.0883Z" fill="#F9FAFB"/>
<path d="M56.9582 19.1631C57.2739 19.1631 57.4914 19.41 57.4422 19.7148C57.393 20.0208 57.0969 20.2677 56.7812 20.2677H49.3811L49.3057 19.1631H56.9582Z" fill="#D0D5DD"/>
<path d="M56.7825 20.4868H49.3823C49.2676 20.4868 49.1726 20.3983 49.1638 20.2836L49.0884 19.179C49.0841 19.1189 49.1059 19.0588 49.1463 19.0151C49.1879 18.9714 49.2458 18.9463 49.3059 18.9463H56.9573C57.1747 18.9463 57.3747 19.0348 57.5069 19.1899C57.638 19.3429 57.6915 19.5428 57.6576 19.7515C57.5921 20.1623 57.2075 20.4868 56.7825 20.4868ZM49.5856 20.0498H56.7814C56.9901 20.0498 57.1944 19.8805 57.2261 19.6805C57.2392 19.5997 57.2206 19.5254 57.1747 19.4707C57.1256 19.4128 57.048 19.3811 56.9584 19.3811H49.5408L49.5856 20.0498Z" fill="#D0D5DD"/>
<path d="M56.0609 24.791C56.3766 24.791 56.5941 25.0379 56.5449 25.3428C56.4957 25.6487 56.1996 25.8956 55.8839 25.8956H45.8309L45.7446 24.9363C45.7413 24.8883 45.7402 24.8391 45.7402 24.791H56.0609Z" fill="#D0D5DD"/>
<path d="M55.8849 26.1139H45.8319C45.7194 26.1139 45.6244 26.0276 45.6145 25.9151L45.5282 24.9558C45.5238 24.8968 45.5227 24.8421 45.5238 24.7875C45.526 24.6684 45.6233 24.5723 45.7424 24.5723H56.063C56.2804 24.5723 56.4803 24.6608 56.6126 24.8159C56.7437 24.9689 56.7972 25.1688 56.7633 25.3775C56.6956 25.7905 56.311 26.1139 55.8849 26.1139ZM46.0308 25.6769H55.8849C56.0936 25.6769 56.2979 25.5075 56.3296 25.3076C56.3427 25.2267 56.3241 25.1524 56.2782 25.0978C56.2291 25.0399 56.1515 25.0082 56.0619 25.0082H45.9718L46.0308 25.6769Z" fill="#D0D5DD"/>
<path d="M55.1634 30.4209C55.4792 30.4209 55.6966 30.6678 55.6475 30.9727C55.5983 31.2786 55.3022 31.5255 54.9864 31.5255H46.3397L46.2402 30.4209H55.1634Z" fill="#D0D5DD"/>
<path d="M54.9865 31.7438H46.3397C46.2271 31.7438 46.1321 31.6575 46.1223 31.5449L46.0228 30.4403C46.0174 30.3791 46.0381 30.3191 46.0796 30.2732C46.1212 30.2284 46.1802 30.2021 46.2414 30.2021H55.1645C55.382 30.2021 55.5819 30.2906 55.7141 30.4458C55.8452 30.5988 55.8988 30.7987 55.8649 31.0074C55.7972 31.4204 55.4126 31.7438 54.9865 31.7438ZM46.5396 31.3068H54.9865C55.1951 31.3068 55.3995 31.1374 55.4311 30.9375C55.4443 30.8566 55.4257 30.7823 55.3787 30.7277C55.3295 30.6698 55.252 30.6381 55.1624 30.6381H46.4795L46.5396 31.3068Z" fill="#D0D5DD"/>
<path d="M54.2655 36.0498C54.5812 36.0498 54.7986 36.2956 54.7495 36.6016C54.7014 36.9064 54.4053 37.1533 54.0896 37.1533H46.8489L46.7495 36.0498H54.2655Z" fill="#D0D5DD"/>
<path d="M54.0896 37.3716H46.849C46.7364 37.3716 46.6414 37.2853 46.6315 37.1728L46.5321 36.0692C46.5266 36.0081 46.5474 35.948 46.5889 35.9021C46.6304 35.8573 46.6894 35.8311 46.7506 35.8311H54.2666C54.484 35.8311 54.6839 35.9196 54.8161 36.0736C54.9462 36.2266 54.9997 36.4265 54.9669 36.6352C54.9003 37.0482 54.5146 37.3716 54.0896 37.3716ZM47.0489 36.9346H54.0896C54.2983 36.9346 54.5026 36.7663 54.5343 36.5664C54.5474 36.4844 54.5299 36.4123 54.4829 36.3566C54.4337 36.2987 54.3562 36.267 54.2655 36.267H46.9888L47.0489 36.9346Z" fill="#D0D5DD"/>
<path d="M64.9967 10.5508L67.3589 13.7707L61.5736 50.0469L59.2114 46.8259L64.9967 10.5508Z" fill="#E4E7EC"/>
<path d="M61.5736 50.2659C61.5048 50.2659 61.4392 50.2331 61.3977 50.1763L59.0355 46.9553C59.0006 46.9083 58.9864 46.8493 58.9962 46.7914L64.7815 10.5163C64.7957 10.4289 64.8602 10.3589 64.9454 10.3382C65.0306 10.3174 65.1213 10.3502 65.1726 10.4212L67.5348 13.6422C67.5698 13.6892 67.584 13.7482 67.5742 13.8061L61.7889 50.0812C61.7747 50.1686 61.7102 50.2386 61.625 50.2593C61.6075 50.2637 61.5911 50.2659 61.5736 50.2659ZM59.442 46.7707L61.4403 49.4956L67.1295 13.8268L65.1311 11.1019L59.442 46.7707Z" fill="#F9FAFB"/>
<path d="M59.2119 46.8271L48.439 55.8345L49.8746 46.8271H59.2119Z" fill="#D0D5DD"/>
<path d="M48.4388 56.0528C48.4016 56.0528 48.3645 56.0429 48.3306 56.0244C48.2508 55.9796 48.2082 55.89 48.2224 55.8004L49.6592 46.793C49.6756 46.6871 49.7674 46.6084 49.8755 46.6084H59.2128C59.3046 46.6084 59.3865 46.6663 59.4182 46.7526C59.4499 46.8389 59.4237 46.9362 59.3527 46.9952L48.5797 56.0025C48.5382 56.0364 48.4879 56.0528 48.4388 56.0528ZM50.0613 47.0454L48.7458 55.2923L58.6097 47.0454H50.0613Z" fill="#F9FAFB"/>
<path d="M59.2119 46.8262L61.5741 50.0471L50.8001 59.0545L48.439 55.8335L59.2119 46.8262Z" fill="#D0D5DD"/>
<path d="M50.8 59.2732C50.7912 59.2732 50.7825 59.2732 50.7737 59.2722C50.7136 59.2645 50.6601 59.2328 50.6241 59.1847L48.2619 55.9638C48.1941 55.8709 48.2094 55.7409 48.2979 55.6666L59.0709 46.6593C59.1168 46.621 59.1769 46.6024 59.237 46.6101C59.2971 46.6177 59.3506 46.6494 59.3866 46.6975L61.7488 49.9185C61.8166 50.0113 61.8013 50.1414 61.7128 50.2156L50.9409 59.2219C50.9016 59.2558 50.8513 59.2732 50.8 59.2732ZM48.7361 55.8698L50.8393 58.7368L61.2768 50.0102L59.1736 47.1433L48.7361 55.8698Z" fill="#F9FAFB"/>
<path d="M48.4384 55.834L50.7995 59.0549L48.2505 55.9902L48.4384 55.834Z" fill="#E4E7EC"/>
<path d="M50.8006 59.2733C50.7384 59.2733 50.6761 59.2459 50.6324 59.1946L48.0834 56.1299C48.0462 56.0851 48.0287 56.0283 48.0342 55.9703C48.0396 55.9124 48.0681 55.8589 48.1118 55.8229L48.2986 55.6677C48.3445 55.6295 48.4057 55.612 48.4647 55.6185C48.5248 55.6262 48.5783 55.6579 48.6144 55.7059L50.9765 58.9258C51.0465 59.0209 51.0279 59.1542 50.935 59.2274C50.8946 59.258 50.8476 59.2733 50.8006 59.2733Z" fill="#F9FAFB"/>
<path d="M48.2506 55.9902L50.7997 59.055L49.5814 59.2101L47.2192 55.9902H48.2506Z" fill="#E4E7EC"/>
<path d="M49.5814 59.4286C49.5126 59.4286 49.447 59.3958 49.4055 59.339L47.0433 56.1181C46.9941 56.0514 46.9876 55.964 47.0247 55.8897C47.0619 55.8165 47.1373 55.7695 47.2192 55.7695H48.2506C48.3151 55.7695 48.3774 55.7979 48.4189 55.8482L50.9679 58.9129C51.0193 58.9741 51.0324 59.0582 51.0029 59.1325C50.9734 59.2068 50.9067 59.2593 50.827 59.2691L49.6076 59.4243C49.6 59.4275 49.5902 59.4286 49.5814 59.4286ZM47.6508 56.2087L49.6819 58.9774L50.3779 58.8889L48.149 56.2087H47.6508Z" fill="#F9FAFB"/>
<path d="M47.5496 55.7656C47.5004 55.805 47.4491 55.8432 47.3966 55.8793C47.342 55.9164 47.2852 55.9525 47.2273 55.9852C47.224 55.9874 47.2218 55.9885 47.2185 55.9907C47.1573 56.0257 47.0951 56.0573 47.0306 56.0858C46.9486 56.1229 46.8634 56.1557 46.7771 56.183C46.7017 56.207 46.6252 56.2267 46.5477 56.2431L22.0878 61.257C21.9436 61.2865 21.8015 61.3007 21.6639 61.3007C21.0957 61.3007 20.6008 61.0571 20.3047 60.6517L22.6669 63.8716C22.9641 64.2769 23.4579 64.5206 24.0261 64.5206C24.1637 64.5206 24.3058 64.5064 24.45 64.4769L48.9099 59.463C48.9874 59.4466 49.065 59.4269 49.1393 59.4029C49.2256 59.3756 49.3108 59.3428 49.3928 59.3056C49.4572 59.2761 49.5195 59.2444 49.5807 59.2106C49.584 59.2084 49.5862 59.2073 49.5894 59.2051C49.6474 59.1723 49.7042 59.1363 49.7588 59.0991C49.8112 59.0631 49.8626 59.0248 49.9118 58.9855L47.5496 55.7656Z" fill="#667185"/>
<path d="M24.026 64.7387C23.3944 64.7387 22.8339 64.4699 22.4898 64.0012L20.1276 60.7802C20.0566 60.683 20.0773 60.5464 20.1746 60.4743C20.2718 60.4033 20.4084 60.424 20.4805 60.5213L20.4816 60.5224C20.7427 60.8764 21.1732 61.0807 21.6638 61.0807C21.7883 61.0807 21.9162 61.0676 22.044 61.0413L46.5039 56.0274C46.5738 56.0132 46.6437 55.9947 46.7115 55.9728C46.789 55.9477 46.8666 55.9182 46.9409 55.8843C46.9988 55.8581 47.0556 55.8286 47.1114 55.798C47.1715 55.7641 47.2239 55.7313 47.2731 55.6975C47.32 55.6647 47.367 55.6308 47.4118 55.5937C47.4588 55.5565 47.5178 55.539 47.5768 55.5467C47.6358 55.5543 47.6893 55.586 47.7254 55.6341L50.0876 58.854C50.1564 58.9479 50.14 59.079 50.0493 59.1533C49.9958 59.197 49.9401 59.2386 49.8833 59.2779C49.8232 59.3194 49.7609 59.3587 49.6986 59.3937L49.6888 59.3992C49.6221 59.4363 49.5533 59.4713 49.4834 59.503C49.3938 59.5434 49.2998 59.5794 49.2059 59.6089C49.1228 59.6352 49.0387 59.657 48.9535 59.6745L24.4936 64.6884C24.3374 64.7223 24.18 64.7387 24.026 64.7387ZM21.1688 61.4598L22.8427 63.7422C23.1038 64.0973 23.5343 64.3016 24.026 64.3016C24.1505 64.3016 24.2784 64.2885 24.4062 64.2623L48.8661 59.2484C48.936 59.2342 49.0059 59.2156 49.0737 59.1938C49.1512 59.1686 49.2288 59.1391 49.3031 59.1053C49.361 59.079 49.4189 59.0495 49.4735 59.019C49.5216 58.9916 49.5653 58.9654 49.6057 58.9381L47.5025 56.07C47.449 56.1061 47.3922 56.1411 47.3364 56.1738C47.3353 56.1738 47.3255 56.1793 47.3255 56.1804C47.2599 56.2175 47.1911 56.2525 47.1212 56.2842C47.0316 56.3246 46.9376 56.3607 46.8437 56.3902C46.7606 56.4164 46.6765 56.4382 46.5913 56.4557L22.1314 61.4696C21.8025 61.5374 21.4693 61.533 21.1688 61.4598Z" fill="#F9FAFB"/>
<path d="M48.3708 53.9847C48.4429 54.7779 47.9567 55.5733 47.2192 55.9896C47.0127 56.1065 46.7865 56.1928 46.5483 56.242L22.0885 61.2559C21.9442 61.2854 21.8022 61.2996 21.6645 61.2996C20.7872 61.2996 20.0879 60.7194 20.0147 59.8617L16.6452 20.1198C16.5763 19.1146 17.3947 18.1192 18.4731 17.8985L28.5948 15.8237L38.6161 13.7696L39.063 20.3197C39.0979 20.8179 39.3186 21.2408 39.6562 21.5369C39.9949 21.8319 40.4517 22.0023 40.9619 22.0034C41.1203 22.0034 41.2831 21.9859 41.4492 21.952C41.9835 21.8428 42.4664 21.5653 42.8324 21.1938C43.1973 20.8223 43.4497 20.3547 43.5284 19.8608C43.5524 19.7089 43.5601 19.5538 43.5492 19.3997L43.1023 12.8507L43.9348 12.6803L44.2113 16.7404C44.2222 16.9021 44.3533 17.0113 44.5183 17.0113C44.7958 16.9622 44.9477 16.7775 44.9346 16.5918L44.657 12.5317L44.8941 12.4836L46.8444 12.0837C46.9886 12.0542 47.1307 12.04 47.2683 12.04C48.1566 12.04 48.8613 12.6344 48.9192 13.5052L49.306 19.1637L49.3814 20.2684L49.3967 20.4967C49.4655 21.5019 48.6472 22.4962 47.5699 22.7169C46.545 22.9277 45.754 23.8379 45.7398 24.7917C45.7387 24.8398 45.7398 24.8889 45.7442 24.937L45.8305 25.8963L46.2391 30.4196L46.3385 31.5242L46.7472 36.0476L46.8466 37.1511L48.3708 53.9847Z" fill="#D0D5DD"/>
<path d="M21.6647 61.5179C20.6628 61.5179 19.8783 60.8295 19.7974 59.8801L16.4279 20.1381C16.3514 19.0258 17.2495 17.9267 18.4295 17.6841L38.5725 13.5563C38.6348 13.5432 38.6982 13.5585 38.7485 13.5968C38.7987 13.635 38.8304 13.6929 38.8337 13.7563L39.2805 20.3064C39.31 20.7281 39.4947 21.1072 39.7995 21.3738C40.1033 21.6382 40.5163 21.7846 40.962 21.7857C41.103 21.7857 41.2527 21.7704 41.4056 21.7388C41.8765 21.6426 42.3278 21.3946 42.6763 21.0417C43.0172 20.6953 43.2423 20.2638 43.3122 19.8278C43.3341 19.688 43.3406 19.5503 43.3308 19.417L42.8839 12.8658C42.8763 12.7565 42.9506 12.6593 43.0576 12.6364L43.8902 12.4659C43.9514 12.4528 44.0158 12.4681 44.0661 12.5063C44.1164 12.5446 44.148 12.6025 44.1513 12.6659L44.4288 16.7259C44.4321 16.7762 44.4736 16.7893 44.5021 16.7926C44.6495 16.7609 44.7217 16.6768 44.7162 16.6079L44.4387 12.5479C44.431 12.4386 44.5053 12.3414 44.6124 12.3184L46.7998 11.8694C46.9571 11.8377 47.1144 11.8213 47.2674 11.8213C48.2857 11.8213 49.0713 12.5227 49.1368 13.4897L49.6143 20.4823C49.6908 21.5902 48.7927 22.6893 47.6127 22.9319C46.6971 23.1198 45.9705 23.9381 45.9574 24.7958C45.9563 24.8384 45.9574 24.88 45.9607 24.9226L48.5862 53.9659C48.6637 54.8203 48.1568 55.7107 47.3242 56.1805C47.0926 56.3117 46.8457 56.4045 46.59 56.457L22.1301 61.4709C21.9761 61.5015 21.8187 61.5179 21.6647 61.5179ZM38.4141 14.0349L18.5158 18.1124C17.5423 18.3124 16.8005 19.2061 16.8627 20.1053L20.2323 59.844C20.2946 60.5728 20.8835 61.0819 21.6647 61.0819C21.7892 61.0819 21.9171 61.0688 22.0449 61.0426L46.5048 56.0287C46.7156 55.985 46.92 55.9085 47.1122 55.8003C47.7973 55.4135 48.2158 54.6924 48.1535 54.0052L45.5269 24.9575C45.5225 24.8985 45.5214 24.8439 45.5225 24.7893C45.5389 23.7174 46.401 22.7352 47.5274 22.5036C48.5009 22.3036 49.2428 21.411 49.1805 20.5129L48.7031 13.5203C48.6528 12.7773 48.0639 12.2594 47.2696 12.2594C47.145 12.2594 47.0172 12.2725 46.8894 12.2988L44.8888 12.7096L45.1532 16.5784C45.1751 16.8898 44.9249 17.163 44.5567 17.2274C44.5447 17.2296 44.5315 17.2307 44.5184 17.2307C44.2333 17.2307 44.0115 17.0308 43.9929 16.7554L43.7329 12.9445L43.3319 13.0264L43.7656 19.3853C43.7777 19.5503 43.77 19.7229 43.7427 19.8955C43.6586 20.42 43.3909 20.9357 42.9866 21.3465C42.578 21.7617 42.047 22.0523 41.492 22.166C41.3095 22.2031 41.1303 22.2217 40.961 22.2217C40.4092 22.2206 39.8946 22.0359 39.5111 21.7016C39.1177 21.3574 38.8807 20.8723 38.8435 20.3348L38.4141 14.0349Z" fill="#F9FAFB"/>
<path d="M40.9608 22.2218C40.4101 22.2207 39.8955 22.0361 39.512 21.7017C39.1187 21.3576 38.8816 20.8724 38.8444 20.3349L38.131 9.88643C38.1157 9.66573 38.1255 9.43956 38.1616 9.21558C38.2719 8.52287 38.6259 7.84328 39.1591 7.30245C39.6978 6.75396 40.3992 6.36937 41.1345 6.2186C41.3705 6.17052 41.6054 6.14648 41.8338 6.14648C42.5571 6.14648 43.2334 6.38904 43.7371 6.82826C44.2528 7.27841 44.5631 7.9143 44.609 8.61793L45.1531 16.5764C45.1738 16.8725 44.9488 17.1533 44.6406 17.2166C44.5991 17.2243 44.5587 17.2286 44.5194 17.2286C44.2342 17.2286 44.0135 17.0287 43.9938 16.7534L43.4508 8.79493C43.4202 8.35461 43.2367 7.97549 42.9187 7.69797C42.6051 7.42373 42.1812 7.27295 41.7234 7.27295C41.5759 7.27295 41.423 7.28934 41.2678 7.32102C40.7772 7.42154 40.326 7.66956 39.9633 8.03776C39.6136 8.39285 39.382 8.83535 39.311 9.28332C39.288 9.42754 39.2815 9.57067 39.2913 9.70615L40.0048 20.1546C40.0233 20.4256 40.1359 20.6594 40.3315 20.8309C40.5259 20.9992 40.7893 21.0921 41.0722 21.0921C41.1651 21.0921 41.2623 21.0822 41.3596 21.0626C41.6699 20.9981 41.9551 20.8408 42.1845 20.6091C42.4041 20.3851 42.5505 20.1065 42.5953 19.8257C42.6095 19.7394 42.6139 19.6498 42.6084 19.5602L41.9266 9.58706C41.919 9.48435 41.8786 9.39804 41.8043 9.33358C41.73 9.26912 41.6273 9.23196 41.5169 9.23196C41.4776 9.23306 41.4361 9.23743 41.3967 9.24507C41.2678 9.27239 41.1487 9.33795 41.0537 9.43519C40.9608 9.52915 40.9007 9.64278 40.8821 9.75641C40.8767 9.7881 40.8756 9.82415 40.8778 9.86021L41.3377 16.5949C41.3585 16.891 41.1323 17.1718 40.8253 17.2352C40.7849 17.2439 40.7434 17.2483 40.7029 17.2483C40.4178 17.2483 40.1982 17.0484 40.1785 16.773L39.7185 10.0394C39.7109 9.92685 39.7163 9.80885 39.7349 9.68758C39.7917 9.32921 39.9753 8.97739 40.2495 8.69878C40.5238 8.41798 40.8843 8.22023 41.2634 8.14156C41.3891 8.11752 41.5104 8.10441 41.6262 8.10441C42.0042 8.10441 42.3571 8.23224 42.6226 8.46278C42.8958 8.69987 43.0597 9.0353 43.0848 9.40678L43.7655 19.3821C43.7775 19.5471 43.7698 19.7198 43.7425 19.8924C43.6595 20.4168 43.3907 20.9325 42.9865 21.3434C42.5778 21.7574 42.0479 22.0492 41.4918 22.1628C41.3104 22.2032 41.1312 22.2218 40.9608 22.2218Z" fill="#D0D5DD"/>
<path d="M41.8329 6.36575C42.5212 6.36575 43.1363 6.59519 43.593 6.99399C44.0487 7.39169 44.3469 7.95984 44.3906 8.63397L44.5217 10.5526L44.6572 12.5334L44.9347 16.5935C44.9479 16.7782 44.796 16.9639 44.596 17.0054C44.5698 17.0109 44.5436 17.0131 44.5185 17.0131C44.3535 17.0131 44.2224 16.9038 44.2114 16.7421L43.935 12.682L43.7897 10.5537L43.6684 8.78365C43.6335 8.26904 43.4095 7.83966 43.062 7.53701C42.7146 7.23327 42.2448 7.05845 41.7236 7.05845C41.563 7.05845 41.3947 7.07593 41.2243 7.11089C40.6736 7.22452 40.1841 7.50641 39.8072 7.88773C39.4314 8.26904 39.1746 8.74869 39.0948 9.25238C39.0697 9.40752 39.061 9.56704 39.073 9.72547L39.1298 10.5537L39.3396 13.6238L39.7864 20.1728C39.8094 20.5137 39.958 20.7967 40.1874 20.9977C40.418 21.1977 40.7283 21.3135 41.0724 21.3135C41.1795 21.3135 41.2909 21.3026 41.4024 21.2796C41.7673 21.2042 42.0907 21.0174 42.3398 20.765C42.5879 20.5126 42.7583 20.1958 42.8107 19.8625C42.8271 19.7598 42.8326 19.655 42.826 19.549L42.3781 13L42.2109 10.5526L42.1443 9.57469C42.1322 9.40643 42.0601 9.26986 41.9476 9.17153C41.834 9.07319 41.6832 9.01638 41.516 9.01638C41.4625 9.01747 41.4089 9.02293 41.3532 9.03386C41.174 9.07101 41.0189 9.1606 40.8965 9.28516C40.7752 9.40862 40.6911 9.56377 40.6649 9.72547C40.6572 9.77573 40.6551 9.82708 40.6583 9.87843L40.7042 10.5537L40.8921 13.3048L41.1183 16.6132C41.1314 16.8 40.9796 16.9836 40.7796 17.0251C40.7523 17.0305 40.7261 17.0327 40.7009 17.0327C40.536 17.0327 40.4059 16.9224 40.395 16.7607L40.1689 13.4523L39.9711 10.5526L39.935 10.027C39.9274 9.92651 39.9339 9.8249 39.9492 9.72547C40.0006 9.40316 40.1656 9.09723 40.4038 8.85576C40.6409 8.61321 40.9577 8.43184 41.3062 8.35973C41.4144 8.33897 41.5204 8.32695 41.6242 8.32695C41.9585 8.32695 42.2557 8.4384 42.4764 8.63178C42.6982 8.82408 42.8424 9.10051 42.8643 9.4261L42.9408 10.5537L43.0981 12.8525L43.545 19.4015C43.557 19.5555 43.5482 19.7107 43.5242 19.8625C43.4455 20.3564 43.1932 20.8229 42.8282 21.1955C42.4622 21.567 41.9793 21.8445 41.445 21.9538C41.2789 21.9876 41.1161 22.0051 40.9577 22.0051C40.4475 22.004 39.9897 21.8336 39.6521 21.5386C39.3134 21.2425 39.0937 20.8197 39.0588 20.3214L38.6152 13.7702L38.3956 10.5515L38.3497 9.87188C38.3355 9.66428 38.3453 9.4556 38.3781 9.25019C38.4841 8.5859 38.8228 7.95656 39.3155 7.45615C39.8083 6.95465 40.4584 6.58099 41.1784 6.43349C41.4002 6.3876 41.6198 6.36575 41.8329 6.36575ZM41.8329 5.92871C41.5903 5.92871 41.3412 5.95384 41.091 6.0041C40.312 6.16362 39.5712 6.57006 39.002 7.14913C38.4382 7.72165 38.0623 8.44276 37.9454 9.18026C37.9072 9.42063 37.8963 9.66319 37.9126 9.90138L37.9585 10.581L38.1781 13.7997L38.625 20.3498C38.6676 20.9464 38.9309 21.484 39.3669 21.8664C39.7908 22.2357 40.3557 22.4389 40.9599 22.4411C41.1456 22.4411 41.339 22.4214 41.5346 22.381C42.1333 22.2586 42.7048 21.9461 43.1429 21.5014C43.5788 21.0578 43.8684 20.4995 43.9591 19.9314C43.9896 19.7413 43.9973 19.5522 43.9842 19.3687L43.8214 16.9814C43.9274 17.2589 44.1972 17.449 44.5185 17.449C44.572 17.449 44.6266 17.4435 44.6813 17.4326C45.0975 17.3474 45.3991 16.965 45.3707 16.5618L45.0932 12.5028L44.9577 10.522L44.8266 8.60338C44.7763 7.84184 44.4398 7.15241 43.8804 6.66402C43.3363 6.18984 42.6086 5.92871 41.8329 5.92871ZM39.51 9.72219L39.5078 9.69378C39.4991 9.57141 39.5046 9.44686 39.5253 9.31903C39.5898 8.91477 39.8007 8.51488 40.1175 8.19147C40.4497 7.85495 40.8626 7.62878 41.3106 7.53591C41.4516 7.50751 41.5892 7.49221 41.7225 7.49221C42.1268 7.49221 42.5004 7.62441 42.7736 7.8626C43.0478 8.10188 43.2063 8.42965 43.2314 8.80988L43.2489 9.07319C43.168 8.77273 43.0019 8.50395 42.7649 8.29854C42.4611 8.03304 42.0569 7.88664 41.6264 7.88664C41.4964 7.88664 41.3609 7.89975 41.2243 7.92706C40.7982 8.01556 40.3983 8.23408 40.0935 8.54656C39.7875 8.85686 39.5843 9.25019 39.5199 9.65336C39.5166 9.6774 39.5133 9.69925 39.51 9.72219ZM40.7031 17.4676C40.7578 17.4676 40.8146 17.4621 40.8692 17.4501C41.2822 17.3649 41.5838 16.9836 41.5564 16.5804L41.3303 13.272L41.1424 10.5209L41.0965 9.84565C41.0954 9.82599 41.0954 9.80741 41.0986 9.79102C41.1096 9.72328 41.15 9.64899 41.209 9.5889C41.2746 9.52116 41.3554 9.47745 41.4439 9.45888C41.4658 9.45451 41.492 9.45123 41.5215 9.45123C41.5783 9.45232 41.6264 9.46871 41.6624 9.4993C41.6908 9.52443 41.7061 9.55721 41.7094 9.6031L41.7761 10.5799L41.9432 13.0273L42.3912 19.5763C42.3956 19.6462 42.3923 19.7194 42.3803 19.7915C42.3431 20.0275 42.2175 20.2646 42.0284 20.4569C41.8307 20.658 41.5827 20.7934 41.3139 20.8502C41.2341 20.8666 41.1511 20.8743 41.0724 20.8743C40.8419 20.8743 40.6288 20.8 40.4737 20.6656C40.3251 20.5345 40.2377 20.3531 40.2224 20.1412L40.0082 17.0021C40.1131 17.2786 40.383 17.4676 40.7031 17.4676Z" fill="#F9FAFB"/>
<path d="M72.8292 9.14453L73.0445 10.4917C73.1745 11.2991 73.7284 11.9317 74.526 12.1808L75.8579 12.596L74.3938 13.0112C73.5176 13.2603 72.7615 13.8929 72.3736 14.7004L71.7279 16.0475L71.5116 14.7004C71.3815 13.8929 70.8276 13.2603 70.03 13.0112L68.6992 12.596L70.1622 12.1808C71.0385 11.9317 71.7945 11.2991 72.1824 10.4917L72.8292 9.14453Z" fill="#D0D5DD"/>
<path d="M27.0096 3.85059L27.1746 4.88309C27.274 5.50259 27.699 5.9877 28.3109 6.17781L29.3314 6.49576L28.2093 6.81479C27.5373 7.0049 26.9572 7.49001 26.66 8.10842L26.165 9.14202L26 8.10842C25.9006 7.48892 25.4756 7.0049 24.8637 6.81479L23.8433 6.49576L24.9654 6.17781C25.6373 5.9877 26.2175 5.50149 26.5146 4.88309L27.0096 3.85059Z" fill="#D0D5DD"/>
<path d="M54.8848 39.5947L54.9766 40.1705C55.0323 40.5147 55.2694 40.7857 55.6103 40.8916L56.1784 41.0686L55.5534 41.2456C55.1787 41.3527 54.8553 41.6226 54.6892 41.9668L54.4128 42.5425L54.321 41.9668C54.2653 41.6226 54.0293 41.3516 53.6884 41.2456L53.1191 41.0686L53.7452 40.8916C54.12 40.7846 54.4423 40.5147 54.6083 40.1705L54.8848 39.5947Z" fill="#D0D5DD"/>
<path d="M13.4841 47.3086L13.5759 47.8844C13.6316 48.2296 13.8687 48.4995 14.2096 48.6055L14.7778 48.7825L14.1528 48.9595C13.7781 49.0666 13.4546 49.3364 13.2886 49.6817L13.0132 50.2575L12.9215 49.6817C12.8668 49.3364 12.6297 49.0666 12.2889 48.9595L11.7207 48.7825L12.3457 48.6055C12.7204 48.4995 13.0438 48.2296 13.2088 47.8844L13.4841 47.3086Z" fill="#D0D5DD"/>
</svg>
