<svg width="105" height="29" viewBox="0 0 105 29" fill="none" xmlns="http://www.w3.org/2000/svg">
<mask id="path-1-outside-1_774_68892" maskUnits="userSpaceOnUse" x="21.8389" y="-0.222656" width="83" height="29" fill="black">
<rect fill="white" x="21.8389" y="-0.222656" width="83" height="29"/>
<path d="M42.7063 8.4467C44.2627 8.4467 45.4733 8.93309 46.338 9.90587C47.2027 10.8787 47.635 12.1757 47.635 13.797V23.9788C47.635 24.1517 47.5702 24.3031 47.4405 24.4328C47.3324 24.5408 47.1919 24.5949 47.0189 24.5949H43.6142C43.4412 24.5949 43.2899 24.5408 43.1602 24.4328C43.0521 24.3031 42.9981 24.1517 42.9981 23.9788V14.478C42.9981 13.8078 42.8252 13.289 42.4793 12.9215C42.155 12.554 41.7119 12.3703 41.1498 12.3703H40.3716C39.6366 12.3703 39.0529 12.6189 38.6206 13.1161C38.1882 13.5916 37.972 14.2294 37.972 15.0292V23.9788C37.972 24.1517 37.9072 24.3031 37.7775 24.4328C37.6694 24.5408 37.5289 24.5949 37.356 24.5949H33.9512C33.7783 24.5949 33.627 24.5408 33.4972 24.4328C33.3892 24.3031 33.3351 24.1517 33.3351 23.9788V9.38706C33.3351 9.21412 33.3892 9.0736 33.4972 8.96552C33.627 8.83581 33.7783 8.77096 33.9512 8.77096H36.9993C37.1722 8.77096 37.3127 8.83581 37.4208 8.96552C37.5505 9.0736 37.6154 9.21412 37.6154 9.38706V10.749C38.0045 10.0356 38.5773 9.47353 39.3339 9.0628C40.0906 8.65207 40.9769 8.4467 41.9929 8.4467H42.7063Z"/>
<path d="M55.0874 24.9192C53.1851 24.9192 51.6935 24.5517 50.6126 23.8167C49.5318 23.0601 48.9157 21.99 48.7644 20.6065V20.5416C48.7644 20.3687 48.8292 20.2282 48.9589 20.1201C49.0886 19.9904 49.2399 19.9255 49.4129 19.9255H52.3637C52.6447 19.9255 52.8392 20.0985 52.9473 20.4444C53.1203 21.201 53.7904 21.5793 54.9577 21.5793H55.963C57.5843 21.5793 58.3949 21.0064 58.3949 19.8607C58.3949 19.3419 58.1895 18.9636 57.7788 18.7258C57.3681 18.488 56.7412 18.3258 55.8981 18.2394C54.1687 18.0448 52.8068 17.7746 51.8124 17.4287C50.8396 17.0828 50.1263 16.5965 49.6723 15.9696C49.2399 15.321 49.0238 14.4671 49.0238 13.4079C49.0238 11.7866 49.5966 10.5544 50.7424 9.71132C51.8881 8.86824 53.4445 8.4467 55.4117 8.4467H55.7684C57.6707 8.4467 59.1623 8.80339 60.2432 9.51676C61.3241 10.2301 61.951 11.2678 62.1239 12.6297V12.6945C62.1239 12.8675 62.0591 13.0188 61.9293 13.1485C61.7996 13.2566 61.6483 13.3106 61.4754 13.3106H58.5246C58.2436 13.3106 58.049 13.1485 57.9409 12.8242C57.7464 12.1325 57.0222 11.7866 55.7684 11.7866H55.509C54.0606 11.7866 53.3364 12.273 53.3364 13.2458C53.3364 13.7213 53.531 14.0456 53.9201 14.2185C54.3308 14.3915 55.0983 14.5428 56.2224 14.6725C58.557 14.8887 60.2216 15.3859 61.216 16.1641C62.2104 16.9207 62.7076 18.0664 62.7076 19.6013C62.7076 21.3739 62.0915 22.7034 60.8593 23.5897C59.6487 24.476 57.9626 24.9192 55.8008 24.9192H55.0874Z"/>
<path d="M64.1087 9.38706C64.1087 9.21412 64.1628 9.0736 64.2709 8.96552C64.4006 8.83581 64.5519 8.77096 64.7248 8.77096H68.1296C68.3025 8.77096 68.443 8.83581 68.5511 8.96552C68.6808 9.0736 68.7457 9.21412 68.7457 9.38706V23.9788C68.7457 24.1517 68.6808 24.3031 68.5511 24.4328C68.443 24.5408 68.3025 24.5949 68.1296 24.5949H64.7248C64.5519 24.5949 64.4006 24.5408 64.2709 24.4328C64.1628 24.3031 64.1087 24.1517 64.1087 23.9788V9.38706Z"/>
<path d="M79.9294 20.8335C80.1024 20.8335 80.2429 20.8983 80.351 21.028C80.4807 21.1361 80.5455 21.2766 80.5455 21.4496V24.3031C80.5455 24.476 80.4807 24.6165 80.351 24.7246C80.2429 24.8543 80.1024 24.9192 79.9294 24.9192H77.8217C75.7897 24.9192 74.3305 24.5084 73.4442 23.687C72.5579 22.8655 72.1147 21.6441 72.1147 20.0228V12.273H70.8177C70.6447 12.273 70.4934 12.2297 70.3637 12.1433C70.2556 12.0352 70.2016 11.9163 70.2016 11.7866V11.4948C70.2016 11.365 70.234 11.2678 70.2989 11.2029L72.1147 8.77096L75.3249 4.00433C75.433 3.853 75.5843 3.77734 75.7789 3.77734H76.1356C76.3085 3.77734 76.449 3.8422 76.5571 3.9719C76.6868 4.07999 76.7517 4.2205 76.7517 4.39344V8.77096H79.443C79.616 8.77096 79.7565 8.83581 79.8646 8.96552C79.9943 9.0736 80.0591 9.21412 80.0591 9.38706V11.6569C80.0591 11.8298 79.9943 11.9811 79.8646 12.1108C79.7565 12.2189 79.616 12.273 79.443 12.273H76.7517V18.7582C76.7517 19.4932 76.957 20.0228 77.3678 20.3471C77.7785 20.6713 78.3838 20.8335 79.1836 20.8335H79.9294Z"/>
<path d="M85.0839 18.9203C85.0839 20.693 85.8297 21.5793 87.3213 21.5793H88.7156C89.6668 21.5793 90.2504 21.2118 90.4666 20.4768C90.5747 20.1525 90.7693 19.9904 91.0503 19.9904H94.1956C94.3902 19.9904 94.5523 20.0552 94.682 20.1849C94.8117 20.3146 94.8658 20.4768 94.8441 20.6713C94.6712 21.9468 94.0335 22.9736 92.931 23.7518C91.8501 24.53 90.4774 24.9192 88.8129 24.9192H87.1267C85.1379 24.9192 83.5382 24.3787 82.3277 23.2979C81.1387 22.1954 80.5442 20.7578 80.5442 18.9852V14.8346C80.5442 13.5808 80.8145 12.4675 81.3549 11.4948C81.9169 10.522 82.6952 9.77617 83.6896 9.25735C84.7056 8.71692 85.8729 8.4467 87.1916 8.4467H88.4886C90.4558 8.4467 92.0231 9.01956 93.1904 10.1653C94.3577 11.2894 94.9414 12.8026 94.9414 14.7049C94.9414 15.9804 94.6928 16.8775 94.1956 17.3963C93.6984 17.9151 92.8445 18.1745 91.634 18.1745H85.0839V18.9203ZM87.5159 11.9163C86.6944 11.9163 86.0783 12.1757 85.6676 12.6945C85.2784 13.1917 85.0839 13.9159 85.0839 14.8671V15.1589H90.5963V14.8671C90.5963 13.8727 90.3801 13.1377 89.9478 12.6621C89.5371 12.1649 88.9534 11.9163 88.1968 11.9163H87.5159Z"/>
<path d="M96.1359 20.3471C96.1359 20.1741 96.1899 20.0336 96.298 19.9255C96.4277 19.7958 96.579 19.731 96.752 19.731H100.384C100.557 19.731 100.697 19.7958 100.805 19.9255C100.935 20.0336 101 20.1741 101 20.3471V23.9788C101 24.1517 100.935 24.3031 100.805 24.4328C100.697 24.5408 100.557 24.5949 100.384 24.5949H96.752C96.579 24.5949 96.4277 24.5408 96.298 24.4328C96.1899 24.3031 96.1359 24.1517 96.1359 23.9788V20.3471Z"/>
<path d="M25.9361 9.22493C25.9361 9.05199 25.9902 8.91147 26.0983 8.80339C26.228 8.67368 26.3793 8.60883 26.5522 8.60883H29.957C30.1299 8.60883 30.2704 8.67368 30.3785 8.80339C30.5082 8.91147 30.5731 9.05199 30.5731 9.22493V23.8167C30.5731 23.9896 30.5082 24.1409 30.3785 24.2706C30.2704 24.3787 30.1299 24.4328 29.957 24.4328H26.5522C26.3793 24.4328 26.228 24.3787 26.0983 24.2706C25.9902 24.1409 25.9361 23.9896 25.9361 23.8167V9.22493Z"/>
</mask>
<path d="M42.7063 8.4467C44.2627 8.4467 45.4733 8.93309 46.338 9.90587C47.2027 10.8787 47.635 12.1757 47.635 13.797V23.9788C47.635 24.1517 47.5702 24.3031 47.4405 24.4328C47.3324 24.5408 47.1919 24.5949 47.0189 24.5949H43.6142C43.4412 24.5949 43.2899 24.5408 43.1602 24.4328C43.0521 24.3031 42.9981 24.1517 42.9981 23.9788V14.478C42.9981 13.8078 42.8252 13.289 42.4793 12.9215C42.155 12.554 41.7119 12.3703 41.1498 12.3703H40.3716C39.6366 12.3703 39.0529 12.6189 38.6206 13.1161C38.1882 13.5916 37.972 14.2294 37.972 15.0292V23.9788C37.972 24.1517 37.9072 24.3031 37.7775 24.4328C37.6694 24.5408 37.5289 24.5949 37.356 24.5949H33.9512C33.7783 24.5949 33.627 24.5408 33.4972 24.4328C33.3892 24.3031 33.3351 24.1517 33.3351 23.9788V9.38706C33.3351 9.21412 33.3892 9.0736 33.4972 8.96552C33.627 8.83581 33.7783 8.77096 33.9512 8.77096H36.9993C37.1722 8.77096 37.3127 8.83581 37.4208 8.96552C37.5505 9.0736 37.6154 9.21412 37.6154 9.38706V10.749C38.0045 10.0356 38.5773 9.47353 39.3339 9.0628C40.0906 8.65207 40.9769 8.4467 41.9929 8.4467H42.7063Z" fill="white"/>
<path d="M55.0874 24.9192C53.1851 24.9192 51.6935 24.5517 50.6126 23.8167C49.5318 23.0601 48.9157 21.99 48.7644 20.6065V20.5416C48.7644 20.3687 48.8292 20.2282 48.9589 20.1201C49.0886 19.9904 49.2399 19.9255 49.4129 19.9255H52.3637C52.6447 19.9255 52.8392 20.0985 52.9473 20.4444C53.1203 21.201 53.7904 21.5793 54.9577 21.5793H55.963C57.5843 21.5793 58.3949 21.0064 58.3949 19.8607C58.3949 19.3419 58.1895 18.9636 57.7788 18.7258C57.3681 18.488 56.7412 18.3258 55.8981 18.2394C54.1687 18.0448 52.8068 17.7746 51.8124 17.4287C50.8396 17.0828 50.1263 16.5965 49.6723 15.9696C49.2399 15.321 49.0238 14.4671 49.0238 13.4079C49.0238 11.7866 49.5966 10.5544 50.7424 9.71132C51.8881 8.86824 53.4445 8.4467 55.4117 8.4467H55.7684C57.6707 8.4467 59.1623 8.80339 60.2432 9.51676C61.3241 10.2301 61.951 11.2678 62.1239 12.6297V12.6945C62.1239 12.8675 62.0591 13.0188 61.9293 13.1485C61.7996 13.2566 61.6483 13.3106 61.4754 13.3106H58.5246C58.2436 13.3106 58.049 13.1485 57.9409 12.8242C57.7464 12.1325 57.0222 11.7866 55.7684 11.7866H55.509C54.0606 11.7866 53.3364 12.273 53.3364 13.2458C53.3364 13.7213 53.531 14.0456 53.9201 14.2185C54.3308 14.3915 55.0983 14.5428 56.2224 14.6725C58.557 14.8887 60.2216 15.3859 61.216 16.1641C62.2104 16.9207 62.7076 18.0664 62.7076 19.6013C62.7076 21.3739 62.0915 22.7034 60.8593 23.5897C59.6487 24.476 57.9626 24.9192 55.8008 24.9192H55.0874Z" fill="white"/>
<path d="M64.1087 9.38706C64.1087 9.21412 64.1628 9.0736 64.2709 8.96552C64.4006 8.83581 64.5519 8.77096 64.7248 8.77096H68.1296C68.3025 8.77096 68.443 8.83581 68.5511 8.96552C68.6808 9.0736 68.7457 9.21412 68.7457 9.38706V23.9788C68.7457 24.1517 68.6808 24.3031 68.5511 24.4328C68.443 24.5408 68.3025 24.5949 68.1296 24.5949H64.7248C64.5519 24.5949 64.4006 24.5408 64.2709 24.4328C64.1628 24.3031 64.1087 24.1517 64.1087 23.9788V9.38706Z" fill="white"/>
<path d="M79.9294 20.8335C80.1024 20.8335 80.2429 20.8983 80.351 21.028C80.4807 21.1361 80.5455 21.2766 80.5455 21.4496V24.3031C80.5455 24.476 80.4807 24.6165 80.351 24.7246C80.2429 24.8543 80.1024 24.9192 79.9294 24.9192H77.8217C75.7897 24.9192 74.3305 24.5084 73.4442 23.687C72.5579 22.8655 72.1147 21.6441 72.1147 20.0228V12.273H70.8177C70.6447 12.273 70.4934 12.2297 70.3637 12.1433C70.2556 12.0352 70.2016 11.9163 70.2016 11.7866V11.4948C70.2016 11.365 70.234 11.2678 70.2989 11.2029L72.1147 8.77096L75.3249 4.00433C75.433 3.853 75.5843 3.77734 75.7789 3.77734H76.1356C76.3085 3.77734 76.449 3.8422 76.5571 3.9719C76.6868 4.07999 76.7517 4.2205 76.7517 4.39344V8.77096H79.443C79.616 8.77096 79.7565 8.83581 79.8646 8.96552C79.9943 9.0736 80.0591 9.21412 80.0591 9.38706V11.6569C80.0591 11.8298 79.9943 11.9811 79.8646 12.1108C79.7565 12.2189 79.616 12.273 79.443 12.273H76.7517V18.7582C76.7517 19.4932 76.957 20.0228 77.3678 20.3471C77.7785 20.6713 78.3838 20.8335 79.1836 20.8335H79.9294Z" fill="white"/>
<path d="M85.0839 18.9203C85.0839 20.693 85.8297 21.5793 87.3213 21.5793H88.7156C89.6668 21.5793 90.2504 21.2118 90.4666 20.4768C90.5747 20.1525 90.7693 19.9904 91.0503 19.9904H94.1956C94.3902 19.9904 94.5523 20.0552 94.682 20.1849C94.8117 20.3146 94.8658 20.4768 94.8441 20.6713C94.6712 21.9468 94.0335 22.9736 92.931 23.7518C91.8501 24.53 90.4774 24.9192 88.8129 24.9192H87.1267C85.1379 24.9192 83.5382 24.3787 82.3277 23.2979C81.1387 22.1954 80.5442 20.7578 80.5442 18.9852V14.8346C80.5442 13.5808 80.8145 12.4675 81.3549 11.4948C81.9169 10.522 82.6952 9.77617 83.6896 9.25735C84.7056 8.71692 85.8729 8.4467 87.1916 8.4467H88.4886C90.4558 8.4467 92.0231 9.01956 93.1904 10.1653C94.3577 11.2894 94.9414 12.8026 94.9414 14.7049C94.9414 15.9804 94.6928 16.8775 94.1956 17.3963C93.6984 17.9151 92.8445 18.1745 91.634 18.1745H85.0839V18.9203ZM87.5159 11.9163C86.6944 11.9163 86.0783 12.1757 85.6676 12.6945C85.2784 13.1917 85.0839 13.9159 85.0839 14.8671V15.1589H90.5963V14.8671C90.5963 13.8727 90.3801 13.1377 89.9478 12.6621C89.5371 12.1649 88.9534 11.9163 88.1968 11.9163H87.5159Z" fill="white"/>
<path d="M96.1359 20.3471C96.1359 20.1741 96.1899 20.0336 96.298 19.9255C96.4277 19.7958 96.579 19.731 96.752 19.731H100.384C100.557 19.731 100.697 19.7958 100.805 19.9255C100.935 20.0336 101 20.1741 101 20.3471V23.9788C101 24.1517 100.935 24.3031 100.805 24.4328C100.697 24.5408 100.557 24.5949 100.384 24.5949H96.752C96.579 24.5949 96.4277 24.5408 96.298 24.4328C96.1899 24.3031 96.1359 24.1517 96.1359 23.9788V20.3471Z" fill="white"/>
<path d="M25.9361 9.22493C25.9361 9.05199 25.9902 8.91147 26.0983 8.80339C26.228 8.67368 26.3793 8.60883 26.5522 8.60883H29.957C30.1299 8.60883 30.2704 8.67368 30.3785 8.80339C30.5082 8.91147 30.5731 9.05199 30.5731 9.22493V23.8167C30.5731 23.9896 30.5082 24.1409 30.3785 24.2706C30.2704 24.3787 30.1299 24.4328 29.957 24.4328H26.5522C26.3793 24.4328 26.228 24.3787 26.0983 24.2706C25.9902 24.1409 25.9361 23.9896 25.9361 23.8167V9.22493Z" fill="white"/>
<path d="M30.5731 24.4328L29.2414 23.1011L29.2414 23.1011L30.5731 24.4328ZM26.001 24.4328L24.5542 25.6384L24.6638 25.77L24.7953 25.8796L26.001 24.4328ZM28.8843 23.9788C28.8843 23.8233 28.9149 23.6506 28.9879 23.4801C29.0601 23.3118 29.1561 23.1863 29.2414 23.1011L31.9048 25.7645C32.3639 25.3054 32.651 24.6839 32.651 23.9788H28.8843ZM29.2414 23.1011C29.3707 22.9717 29.531 22.8656 29.7105 22.7966C29.8856 22.7292 30.0408 22.7116 30.1515 22.7116V26.4782C30.7525 26.4782 31.396 26.2733 31.9048 25.7645L29.2414 23.1011ZM30.1515 22.7116H26.455V26.4782H30.1515V22.7116ZM26.455 22.7116C26.5679 22.7116 26.7026 22.7298 26.8452 22.7808C26.9884 22.8319 27.1102 22.9056 27.2067 22.986L24.7953 25.8796C25.2723 26.2771 25.8531 26.4782 26.455 26.4782V22.7116ZM27.4478 23.2271C27.5282 23.3236 27.6018 23.4453 27.653 23.5886C27.7039 23.7312 27.7222 23.8659 27.7222 23.9788H23.9555C23.9555 24.5807 24.1567 25.1614 24.5542 25.6384L27.4478 23.2271ZM46.338 9.90587L43.5228 12.4083L43.5228 12.4083L46.338 9.90587ZM47.4405 24.4328L50.1039 27.0962L50.1039 27.0962L47.4405 24.4328ZM43.1602 24.4328L40.2666 26.8441L40.4858 27.1072L40.7489 27.3264L43.1602 24.4328ZM42.4793 12.9215L39.6549 15.4136L39.6949 15.459L39.7364 15.503L42.4793 12.9215ZM38.6206 13.1161L41.4077 15.6498L41.4356 15.619L41.4629 15.5876L38.6206 13.1161ZM37.7775 24.4328L35.1141 21.7693L35.1141 21.7693L37.7775 24.4328ZM33.4972 24.4328L30.6036 26.8441L30.8228 27.1072L31.0859 27.3264L33.4972 24.4328ZM33.4972 8.96552L36.1607 11.6289L36.1607 11.6289L33.4972 8.96552ZM37.4208 8.96552L34.5272 11.3769L34.7464 11.6399L35.0095 11.8591L37.4208 8.96552ZM37.6154 10.749H33.8487L40.9221 12.5526L37.6154 10.749ZM39.3339 9.0628L37.5369 5.75247L37.5369 5.75247L39.3339 9.0628ZM50.6126 23.8167L48.4526 26.9024L48.4735 26.9171L48.4946 26.9314L50.6126 23.8167ZM48.7644 20.6065H44.9977V20.8119L45.02 21.016L48.7644 20.6065ZM48.9589 20.1201L51.3703 23.0137L51.5015 22.9043L51.6223 22.7835L48.9589 20.1201ZM52.9473 20.4444L56.6193 19.6051L56.5864 19.4615L56.5425 19.3209L52.9473 20.4444ZM57.7788 18.7258L59.666 15.466L59.666 15.466L57.7788 18.7258ZM55.8981 18.2394L55.477 21.9824L55.4954 21.9845L55.5138 21.9864L55.8981 18.2394ZM51.8124 17.4287L50.5506 20.9777L50.5628 20.9821L50.575 20.9863L51.8124 17.4287ZM49.6723 15.9696L46.5383 18.0589L46.5787 18.1196L46.6215 18.1787L49.6723 15.9696ZM60.2432 9.51676L62.318 6.37308L62.318 6.37308L60.2432 9.51676ZM62.1239 12.6297H65.8906V12.3915L65.8605 12.1552L62.1239 12.6297ZM61.9293 13.1485L64.3407 16.0421L64.472 15.9327L64.5928 15.8119L61.9293 13.1485ZM57.9409 12.8242L54.315 13.844L54.3392 13.9303L54.3676 14.0153L57.9409 12.8242ZM53.9201 14.2185L52.3903 17.6605L52.4242 17.6756L52.4584 17.69L53.9201 14.2185ZM56.2224 14.6725L55.7906 18.4143L55.8328 18.4192L55.8751 18.4231L56.2224 14.6725ZM61.216 16.1641L58.8946 19.1304L58.9148 19.1462L58.9352 19.1617L61.216 16.1641ZM60.8593 23.5897L58.6598 20.5319L58.647 20.5412L58.6342 20.5505L60.8593 23.5897ZM64.2709 8.96552L66.9343 11.6289L66.9343 11.6289L64.2709 8.96552ZM68.5511 8.96552L65.6575 11.3769L65.8767 11.6399L66.1398 11.8591L68.5511 8.96552ZM68.5511 24.4328L65.8877 21.7693L65.8877 21.7693L68.5511 24.4328ZM64.2709 24.4328L61.3773 26.8441L61.5965 27.1072L61.8595 27.3264L64.2709 24.4328ZM80.351 21.028L77.4573 23.4394L77.6765 23.7024L77.9396 23.9216L80.351 21.028ZM80.351 24.7246L77.9396 21.831L77.6765 22.0502L77.4573 22.3133L80.351 24.7246ZM72.1147 12.273H75.8814V8.50634H72.1147V12.273ZM70.3637 12.1433L67.7003 14.8067L67.964 15.0704L68.2744 15.2773L70.3637 12.1433ZM70.2989 11.2029L72.9623 13.8663L73.1544 13.6742L73.317 13.4565L70.2989 11.2029ZM72.1147 8.77096L75.1329 11.0245L75.1877 10.951L75.2389 10.875L72.1147 8.77096ZM75.3249 4.00433L72.2599 1.815L72.2297 1.85723L72.2007 1.90027L75.3249 4.00433ZM76.5571 3.9719L73.6635 6.38325L73.8827 6.64631L74.1458 6.86552L76.5571 3.9719ZM76.7517 8.77096H72.985V12.5376H76.7517V8.77096ZM79.8646 8.96552L76.9709 11.3769L77.1902 11.6399L77.4532 11.8591L79.8646 8.96552ZM79.8646 12.1108L77.2011 9.44743L77.2011 9.44743L79.8646 12.1108ZM76.7517 12.273V8.50634H72.985V12.273H76.7517ZM77.3678 20.3471L79.7017 17.3907L79.7017 17.3907L77.3678 20.3471ZM90.4666 20.4768L86.8933 19.2857L86.872 19.3494L86.853 19.414L90.4666 20.4768ZM94.682 20.1849L97.3454 17.5215L97.3454 17.5215L94.682 20.1849ZM94.8441 20.6713L98.5766 21.1774L98.5827 21.1324L98.5877 21.0873L94.8441 20.6713ZM92.931 23.7518L90.7588 20.6746L90.7444 20.6848L90.7301 20.6951L92.931 23.7518ZM82.3277 23.2979L79.7666 26.0598L79.7926 26.0839L79.819 26.1075L82.3277 23.2979ZM81.3549 11.4948L78.0935 9.61039L78.0776 9.63782L78.0623 9.66551L81.3549 11.4948ZM83.6896 9.25735L85.4319 12.5968L85.4452 12.5899L85.4584 12.5828L83.6896 9.25735ZM93.1904 10.1653L90.552 12.8535L90.5648 12.866L90.5777 12.8785L93.1904 10.1653ZM94.1956 17.3963L91.4762 14.7901L91.4762 14.7901L94.1956 17.3963ZM85.0839 18.1745V14.4079H81.3172V18.1745H85.0839ZM85.6676 12.6945L82.7143 10.3566L82.7078 10.3648L82.7013 10.3731L85.6676 12.6945ZM85.0839 15.1589H81.3172V18.9255H85.0839V15.1589ZM90.5963 15.1589V18.9255H94.363V15.1589H90.5963ZM89.9478 12.6621L87.0439 15.061L87.1007 15.1298L87.1607 15.1958L89.9478 12.6621ZM96.298 19.9255L98.9614 22.589L96.298 19.9255ZM100.805 19.9255L97.9116 22.3369L98.1308 22.5999L98.3939 22.8192L100.805 19.9255ZM100.805 24.4328L103.469 27.0962L103.469 27.0962L100.805 24.4328ZM96.298 24.4328L93.4044 26.8441L93.6236 27.1072L93.8866 27.3264L96.298 24.4328ZM26.0983 8.80339L28.7617 11.4668L28.7617 11.4668L26.0983 8.80339ZM30.3785 8.80339L27.4849 11.2147L27.7041 11.4778L27.9672 11.697L30.3785 8.80339ZM30.3785 24.2706L27.7151 21.6072L27.7151 21.6072L30.3785 24.2706ZM26.0983 24.2706L23.2047 26.682L23.4239 26.945L23.6869 27.1642L26.0983 24.2706ZM42.7063 12.2133C43.0942 12.2133 43.2956 12.2738 43.3773 12.3066C43.4431 12.333 43.4786 12.3586 43.5228 12.4083L49.1532 7.40345C47.4339 5.4692 45.1085 4.68006 42.7063 4.68006V12.2133ZM43.5228 12.4083C43.6343 12.5338 43.8684 12.8627 43.8684 13.797H51.4017C51.4017 11.4887 50.771 9.22349 49.1532 7.40345L43.5228 12.4083ZM43.8684 13.797V23.9788H51.4017V13.797H43.8684ZM43.8684 23.9788C43.8684 23.5814 43.9457 23.155 44.1243 22.7383C44.301 22.3259 44.5417 22.0047 44.777 21.7693L50.1039 27.0962C50.8924 26.3076 51.4017 25.216 51.4017 23.9788H43.8684ZM44.777 21.7693C45.0898 21.4566 45.4725 21.2039 45.9018 21.0388C46.3222 20.8771 46.711 20.8283 47.0189 20.8283V28.3615C48.0479 28.3615 49.1944 28.0057 50.1039 27.0962L44.777 21.7693ZM47.0189 20.8283H43.6142V28.3615H47.0189V20.8283ZM43.6142 20.8283C44.2991 20.8283 45.0067 21.0684 45.5716 21.5391L40.7489 27.3264C41.5732 28.0133 42.5834 28.3615 43.6142 28.3615V20.8283ZM46.0538 22.0214C46.5246 22.5863 46.7647 23.2939 46.7647 23.9788H39.2314C39.2314 25.0096 39.5797 26.0198 40.2666 26.8441L46.0538 22.0214ZM46.7647 23.9788V14.478H39.2314V23.9788H46.7647ZM46.7647 14.478C46.7647 13.1709 46.4176 11.6102 45.2221 10.34L39.7364 15.503C39.5044 15.2566 39.3666 14.9922 39.295 14.7773C39.2284 14.5774 39.2314 14.4599 39.2314 14.478H46.7647ZM45.3036 10.4294C44.1558 9.12848 42.6168 8.60361 41.1498 8.60361V16.1369C41.0195 16.1369 40.7683 16.1149 40.461 15.9875C40.1412 15.8549 39.8637 15.6502 39.6549 15.4136L45.3036 10.4294ZM41.1498 8.60361H40.3716V16.1369H41.1498V8.60361ZM40.3716 8.60361C38.6874 8.60361 37.0136 9.22384 35.7782 10.6445L41.4629 15.5876C41.3196 15.7524 41.112 15.9142 40.8586 16.0221C40.6156 16.1256 40.4317 16.1369 40.3716 16.1369V8.60361ZM35.8335 10.5823C34.6268 11.9097 34.2054 13.5312 34.2054 15.0292H41.7387C41.7387 14.9654 41.7475 15.0243 41.7014 15.1603C41.6514 15.308 41.5564 15.4862 41.4077 15.6498L35.8335 10.5823ZM34.2054 15.0292V23.9788H41.7387V15.0292H34.2054ZM34.2054 23.9788C34.2054 23.5814 34.2827 23.1549 34.4613 22.7382C34.638 22.3259 34.8787 22.0047 35.1141 21.7693L40.4409 27.0962C41.2294 26.3077 41.7387 25.216 41.7387 23.9788H34.2054ZM35.1141 21.7693C35.4268 21.4566 35.8095 21.2039 36.2389 21.0388C36.6593 20.8771 37.048 20.8283 37.356 20.8283V28.3615C38.3849 28.3615 39.5314 28.0057 40.4409 27.0962L35.1141 21.7693ZM37.356 20.8283H33.9512V28.3615H37.356V20.8283ZM33.9512 20.8283C34.6361 20.8283 35.3437 21.0684 35.9086 21.5391L31.0859 27.3264C31.9102 28.0133 32.9204 28.3615 33.9512 28.3615V20.8283ZM36.3909 22.0214C36.8616 22.5863 37.1018 23.2939 37.1018 23.9788H29.5685C29.5685 25.0096 29.9167 26.0198 30.6036 26.8441L36.3909 22.0214ZM37.1018 23.9788V9.38706H29.5685V23.9788H37.1018ZM37.1018 9.38706C37.1018 9.69497 37.0529 10.0837 36.8912 10.5041C36.7261 10.9335 36.4734 11.3162 36.1607 11.6289L30.8338 6.3021C29.9243 7.21166 29.5685 8.35817 29.5685 9.38706H37.1018ZM36.1607 11.6289C35.9253 11.8643 35.6041 12.105 35.1918 12.2817C34.7751 12.4603 34.3486 12.5376 33.9512 12.5376V5.00432C32.714 5.00432 31.6224 5.51357 30.8338 6.3021L36.1607 11.6289ZM33.9512 12.5376H36.9993V5.00432H33.9512V12.5376ZM36.9993 12.5376C36.6051 12.5376 36.1358 12.4611 35.6559 12.2396C35.1734 12.0169 34.7982 11.702 34.5272 11.3769L40.3144 6.55417C39.4709 5.54191 38.2587 5.00432 36.9993 5.00432V12.5376ZM35.0095 11.8591C34.6843 11.5882 34.3694 11.2129 34.1468 10.7304C33.9253 10.2505 33.8487 9.78124 33.8487 9.38706H41.382C41.382 8.1276 40.8444 6.91545 39.8322 6.0719L35.0095 11.8591ZM33.8487 9.38706V10.749H41.382V9.38706H33.8487ZM40.9221 12.5526C40.9426 12.515 40.9725 12.4592 41.131 12.3731L37.5369 5.75247C36.1822 6.48788 35.0664 7.55612 34.3086 8.94529L40.9221 12.5526ZM41.131 12.3731C41.2444 12.3116 41.4913 12.2133 41.9929 12.2133V4.68006C40.4624 4.68006 38.9367 4.99256 37.5369 5.75247L41.131 12.3731ZM41.9929 12.2133H42.7063V4.68006H41.9929V12.2133ZM55.0874 21.1525C53.6133 21.1525 52.9622 20.8594 52.7307 20.7019L48.4946 26.9314C50.4249 28.244 52.7569 28.6858 55.0874 28.6858V21.1525ZM52.7727 20.7309C52.6527 20.6469 52.6183 20.5918 52.6042 20.5672C52.5872 20.5378 52.5349 20.4367 52.5087 20.1969L45.02 21.016C45.282 23.4109 46.4289 25.4858 48.4526 26.9024L52.7727 20.7309ZM52.531 20.6065V20.5416H44.9977V20.6065H52.531ZM52.531 20.5416C52.531 20.9358 52.4545 21.4051 52.233 21.885C52.0103 22.3674 51.6954 22.7427 51.3703 23.0137L46.5476 17.2265C45.5353 18.07 44.9977 19.2822 44.9977 20.5416H52.531ZM51.6223 22.7835C51.387 23.0189 51.0658 23.2595 50.6534 23.4363C50.2367 23.6149 49.8103 23.6922 49.4129 23.6922V16.1589C48.1757 16.1589 47.084 16.6681 46.2955 17.4567L51.6223 22.7835ZM49.4129 23.6922H52.3637V16.1589H49.4129V23.6922ZM52.3637 23.6922C51.6613 23.6922 50.8674 23.4478 50.2179 22.8705C49.6417 22.3582 49.4256 21.803 49.3521 21.5678L56.5425 19.3209C56.3609 18.7398 55.9936 17.9252 55.2228 17.24C54.3787 16.4897 53.347 16.1589 52.3637 16.1589V23.6922ZM49.2754 21.2837C49.5958 22.6854 50.4607 23.8602 51.728 24.5756C52.8467 25.2072 54.0338 25.3459 54.9577 25.3459V17.8126C54.7144 17.8126 54.9827 17.7622 55.4313 18.0155C55.6813 18.1566 55.9583 18.3775 56.1939 18.6947C56.4291 19.0113 56.5577 19.3356 56.6193 19.6051L49.2754 21.2837ZM54.9577 25.3459H55.963V17.8126H54.9577V25.3459ZM55.963 25.3459C57.1025 25.3459 58.6311 25.1653 59.9607 24.2257C61.5299 23.1168 62.1615 21.4397 62.1615 19.8607H54.6283C54.6283 19.7041 54.6568 19.3861 54.8362 19.0056C55.0249 18.6058 55.3097 18.288 55.6131 18.0735C56.1321 17.7068 56.4447 17.8126 55.963 17.8126V25.3459ZM62.1615 19.8607C62.1615 18.1499 61.3658 16.4501 59.666 15.466L55.8916 21.9855C55.5605 21.7938 55.1919 21.4663 54.9305 20.9849C54.6781 20.5198 54.6283 20.1008 54.6283 19.8607H62.1615ZM59.666 15.466C58.5638 14.8279 57.3032 14.5971 56.2824 14.4924L55.5138 21.9864C55.8008 22.0158 55.9735 22.0508 56.0575 22.0725C56.0967 22.0826 56.1002 22.0857 56.0756 22.0763C56.0518 22.067 55.9855 22.0399 55.8916 21.9855L59.666 15.466ZM56.3192 14.4963C54.7128 14.3156 53.6647 14.085 53.0498 13.8711L50.575 20.9863C51.9489 21.4642 53.6246 21.774 55.477 21.9824L56.3192 14.4963ZM53.0743 13.8797C52.5839 13.7054 52.6028 13.5944 52.7231 13.7604L46.6215 18.1787C47.6497 19.5985 49.0954 20.4603 50.5506 20.9777L53.0743 13.8797ZM52.8063 13.8802C52.9103 14.0361 52.7904 13.9834 52.7904 13.4079H45.2571C45.2571 14.9509 45.5696 16.606 46.5383 18.0589L52.8063 13.8802ZM52.7904 13.4079C52.7904 13.0413 52.8542 12.8876 52.869 12.8557C52.8774 12.8375 52.8841 12.8279 52.8915 12.819C52.8994 12.8094 52.9224 12.7837 52.9748 12.7451L48.5099 6.67752C46.2548 8.33696 45.2571 10.7808 45.2571 13.4079H52.7904ZM52.9748 12.7451C53.2673 12.5299 53.947 12.2133 55.4117 12.2133V4.68006C52.9421 4.68006 50.5089 5.20659 48.5099 6.67752L52.9748 12.7451ZM55.4117 12.2133H55.7684V4.68006H55.4117V12.2133ZM55.7684 12.2133C57.2599 12.2133 57.9287 12.5023 58.1684 12.6604L62.318 6.37308C60.3959 5.10452 58.0816 4.68006 55.7684 4.68006V12.2133ZM58.1684 12.6604C58.2742 12.7303 58.2956 12.7703 58.3001 12.7778C58.3079 12.7907 58.3583 12.8757 58.3873 13.1042L65.8605 12.1552C65.5587 9.7783 64.3763 7.73155 62.318 6.37308L58.1684 12.6604ZM58.3573 12.6297V12.6945H65.8906V12.6297H58.3573ZM58.3573 12.6945C58.3573 12.2971 58.4346 11.8706 58.6132 11.4539C58.7899 11.0416 59.0306 10.7204 59.2659 10.4851L64.5928 15.8119C65.3813 15.0234 65.8906 13.9318 65.8906 12.6945H58.3573ZM59.518 10.2549C60.0829 9.7841 60.7905 9.54397 61.4754 9.54397V17.0773C62.5062 17.0773 63.5164 16.729 64.3407 16.0421L59.518 10.2549ZM61.4754 9.54397H58.5246V17.0773H61.4754V9.54397ZM58.5246 9.54397C59.1621 9.54397 59.9244 9.74969 60.5792 10.2954C61.1771 10.7936 61.4219 11.3558 61.5143 11.6331L54.3676 14.0153C54.5681 14.6169 54.9642 15.4223 55.7566 16.0826C56.606 16.7905 57.6061 17.0773 58.5246 17.0773V9.54397ZM61.5669 11.8044C61.1396 10.2851 60.0885 9.2266 58.8752 8.64712C57.8008 8.13396 56.6733 8.01995 55.7684 8.01995V15.5532C56.1173 15.5532 55.9788 15.6122 55.6285 15.4449C55.4256 15.3479 55.1439 15.1702 54.8756 14.8672C54.5998 14.5557 54.4143 14.1971 54.315 13.844L61.5669 11.8044ZM55.7684 8.01995H55.509V15.5532H55.7684V8.01995ZM55.509 8.01995C54.4817 8.01995 53.0504 8.17092 51.7795 9.02454C50.2425 10.0569 49.5698 11.6741 49.5698 13.2458H57.1031C57.1031 13.4717 57.0595 13.8522 56.8462 14.2819C56.6249 14.7277 56.3024 15.0615 55.9797 15.2782C55.4329 15.6455 55.0879 15.5532 55.509 15.5532V8.01995ZM49.5698 13.2458C49.5698 13.9922 49.7241 14.9029 50.2525 15.7836C50.7976 16.692 51.5807 17.3007 52.3903 17.6605L55.4499 10.7765C55.8704 10.9634 56.3617 11.3235 56.7122 11.9077C57.0461 12.4641 57.1031 12.9749 57.1031 13.2458H49.5698ZM52.4584 17.69C53.4248 18.0969 54.6923 18.2876 55.7906 18.4143L56.6541 10.9307C56.1519 10.8727 55.7851 10.8161 55.5324 10.7663C55.4078 10.7417 55.3317 10.7228 55.2946 10.7126C55.2514 10.7007 55.2905 10.7086 55.3818 10.7471L52.4584 17.69ZM55.8751 18.4231C58.0163 18.6214 58.7771 19.0385 58.8946 19.1304L63.5374 13.1979C61.666 11.7333 59.0978 11.156 56.5696 10.9219L55.8751 18.4231ZM58.9352 19.1617C58.9369 19.163 58.9227 19.152 58.9044 19.1287C58.8861 19.1053 58.8787 19.0888 58.8794 19.0903C58.8813 19.0948 58.9409 19.2348 58.9409 19.6013H66.4742C66.4742 17.1889 65.6421 14.7988 63.4968 13.1665L58.9352 19.1617ZM58.9409 19.6013C58.9409 20.0533 58.863 20.2687 58.828 20.3441C58.8024 20.3993 58.7695 20.453 58.6598 20.5319L63.0587 26.6475C65.4495 24.9278 66.4742 22.3535 66.4742 19.6013H58.9409ZM58.6342 20.5505C58.2978 20.7968 57.502 21.1525 55.8008 21.1525V28.6858C58.4231 28.6858 60.9996 28.1552 63.0844 26.6289L58.6342 20.5505ZM55.8008 21.1525H55.0874V28.6858H55.8008V21.1525ZM67.8754 9.38706C67.8754 9.69503 67.8265 10.0838 67.6648 10.5042C67.4997 10.9335 67.247 11.3162 66.9343 11.6289L61.6075 6.3021C60.698 7.21157 60.3421 8.35804 60.3421 9.38706H67.8754ZM66.9343 11.6289C66.6989 11.8643 66.3778 12.105 65.9654 12.2817C65.5487 12.4603 65.1223 12.5376 64.7248 12.5376V5.00432C63.4876 5.00432 62.396 5.51359 61.6075 6.3021L66.9343 11.6289ZM64.7248 12.5376H68.1296V5.00432H64.7248V12.5376ZM68.1296 12.5376C67.7354 12.5376 67.2661 12.4611 66.7862 12.2396C66.3038 12.0169 65.9285 11.702 65.6575 11.3769L71.4447 6.55418C70.6012 5.5419 69.389 5.00432 68.1296 5.00432V12.5376ZM66.1398 11.8591C65.8146 11.5882 65.4998 11.2129 65.2771 10.7305C65.0556 10.2506 64.979 9.7813 64.979 9.38706H72.5123C72.5123 8.12746 71.9746 6.91537 70.9625 6.0719L66.1398 11.8591ZM64.979 9.38706V23.9788H72.5123V9.38706H64.979ZM64.979 23.9788C64.979 23.5813 65.0564 23.1548 65.235 22.7381C65.4117 22.3258 65.6524 22.0047 65.8877 21.7693L71.2145 27.0962C72.0029 26.3078 72.5123 25.2162 72.5123 23.9788H64.979ZM65.8877 21.7693C66.2004 21.4566 66.5831 21.2039 67.0125 21.0388C67.4329 20.8771 67.8216 20.8283 68.1296 20.8283V28.3615C69.1585 28.3615 70.305 28.0057 71.2145 27.0962L65.8877 21.7693ZM68.1296 20.8283H64.7248V28.3615H68.1296V20.8283ZM64.7248 20.8283C65.4098 20.8283 66.1173 21.0684 66.6822 21.5391L61.8595 27.3264C62.6838 28.0133 63.694 28.3615 64.7248 28.3615V20.8283ZM67.1645 22.0214C67.6352 22.5863 67.8754 23.2938 67.8754 23.9788H60.3421C60.3421 25.0097 60.6904 26.0199 61.3773 26.8441L67.1645 22.0214ZM67.8754 23.9788V9.38706H60.3421V23.9788H67.8754ZM79.9294 24.6001C79.5352 24.6001 79.066 24.5236 78.586 24.3021C78.1036 24.0794 77.7283 23.7645 77.4573 23.4394L83.2446 18.6167C82.401 17.6044 81.1889 17.0668 79.9294 17.0668V24.6001ZM77.9396 23.9216C77.6145 23.6507 77.2996 23.2754 77.0769 22.793C76.8554 22.313 76.7789 21.8438 76.7789 21.4496H84.3122C84.3122 20.19 83.7745 18.9779 82.7623 18.1344L77.9396 23.9216ZM76.7789 21.4496V24.3031H84.3122V21.4496H76.7789ZM76.7789 24.3031C76.7789 23.9089 76.8554 23.4396 77.0769 22.9597C77.2996 22.4772 77.6145 22.1019 77.9396 21.831L82.7623 27.6182C83.7745 26.7747 84.3122 25.5626 84.3122 24.3031H76.7789ZM77.4573 22.3133C77.7283 21.9881 78.1036 21.6732 78.5861 21.4505C79.066 21.229 79.5353 21.1525 79.9294 21.1525V28.6858C81.1888 28.6858 82.401 28.1482 83.2446 27.1359L77.4573 22.3133ZM79.9294 21.1525H77.8217V28.6858H79.9294V21.1525ZM77.8217 21.1525C77.0415 21.1525 76.5305 21.0717 76.2239 20.9854C75.9259 20.9015 75.9129 20.8394 76.0046 20.9244L70.8838 26.4495C72.8091 28.234 75.443 28.6858 77.8217 28.6858V21.1525ZM76.0046 20.9244C76.0339 20.9515 76.0207 20.9606 75.9879 20.8701C75.9476 20.759 75.8814 20.4996 75.8814 20.0228H68.3481C68.3481 22.319 68.9915 24.6957 70.8838 26.4495L76.0046 20.9244ZM75.8814 20.0228V12.273H68.3481V20.0228H75.8814ZM72.1147 8.50634H70.8177V16.0396H72.1147V8.50634ZM70.8177 8.50634C71.3039 8.50634 71.8973 8.63871 72.4531 9.00923L68.2744 15.2773C69.0896 15.8208 69.9856 16.0396 70.8177 16.0396V8.50634ZM73.0271 9.47986C73.4896 9.94236 73.9682 10.7404 73.9682 11.7866H66.4349C66.4349 13.0922 67.0216 14.128 67.7003 14.8067L73.0271 9.47986ZM73.9682 11.7866V11.4948H66.4349V11.7866H73.9682ZM73.9682 11.4948C73.9682 11.9456 73.853 12.9757 72.9623 13.8663L67.6355 8.5395C66.6151 9.55989 66.4349 10.7845 66.4349 11.4948H73.9682ZM73.317 13.4565L75.1329 11.0245L69.0966 6.51742L67.2807 8.94938L73.317 13.4565ZM75.2389 10.875L78.4491 6.10838L72.2007 1.90027L68.9905 6.66691L75.2389 10.875ZM78.39 6.19365C78.123 6.56732 77.7309 6.93963 77.204 7.20307C76.6833 7.46343 76.1784 7.54399 75.7789 7.54399V0.0107009C74.4342 0.0107009 73.1127 0.621026 72.2599 1.815L78.39 6.19365ZM75.7789 7.54399H76.1356V0.0107009H75.7789V7.54399ZM76.1356 7.54399C75.7414 7.54399 75.2721 7.46744 74.7922 7.24594C74.3097 7.02326 73.9345 6.70841 73.6635 6.38325L79.4507 1.56055C78.6072 0.548293 77.395 0.0107009 76.1356 0.0107009V7.54399ZM74.1458 6.86552C73.8206 6.59453 73.5057 6.21923 73.283 5.73677C73.0615 5.25684 72.985 4.78758 72.985 4.39344H80.5183C80.5183 3.13404 79.9808 1.92187 78.9684 1.07828L74.1458 6.86552ZM72.985 4.39344V8.77096H80.5183V4.39344H72.985ZM76.7517 12.5376H79.443V5.00432H76.7517V12.5376ZM79.443 12.5376C79.0489 12.5376 78.5796 12.4611 78.0997 12.2396C77.6172 12.0169 77.2419 11.702 76.9709 11.3769L82.7582 6.55418C81.9146 5.5419 80.7025 5.00432 79.443 5.00432V12.5376ZM77.4532 11.8591C77.128 11.5881 76.8131 11.2128 76.5905 10.7303C76.369 10.2504 76.2925 9.78115 76.2925 9.38706H83.8258C83.8258 8.12776 83.2883 6.91556 82.2759 6.0719L77.4532 11.8591ZM76.2925 9.38706V11.6569H83.8258V9.38706H76.2925ZM76.2925 11.6569C76.2925 11.2595 76.3698 10.8331 76.5484 10.4164C76.7251 10.004 76.9658 9.68282 77.2011 9.44743L82.528 14.7743C83.3166 13.9856 83.8258 12.894 83.8258 11.6569H76.2925ZM77.2011 9.44743C77.5139 9.13469 77.8966 8.882 78.326 8.71686C78.7464 8.55518 79.1351 8.50634 79.443 8.50634V16.0396C80.4719 16.0396 81.6184 15.6838 82.528 14.7743L77.2011 9.44743ZM79.443 8.50634H76.7517V16.0396H79.443V8.50634ZM72.985 12.273V18.7582H80.5183V12.273H72.985ZM72.985 18.7582C72.985 20.1544 73.3923 22.0075 75.0338 23.3034L79.7017 17.3907C80.0691 17.6807 80.2985 18.0379 80.4175 18.3449C80.5247 18.6212 80.5183 18.7902 80.5183 18.7582H72.985ZM75.0338 23.3034C76.3797 24.366 77.9617 24.6001 79.1836 24.6001V17.0668C79.0269 17.0668 79.0157 17.0497 79.1043 17.0735C79.2007 17.0993 79.4339 17.1792 79.7017 17.3907L75.0338 23.3034ZM79.1836 24.6001H79.9294V17.0668H79.1836V24.6001ZM81.3172 18.9203C81.3172 20.2439 81.5821 21.9384 82.7612 23.3397C84.0451 24.8655 85.808 25.3459 87.3213 25.3459V17.8126C87.3213 17.8126 87.3219 17.8126 87.323 17.8126C87.3241 17.8127 87.3257 17.8127 87.3279 17.8128C87.3323 17.813 87.339 17.8133 87.3478 17.814C87.3654 17.8154 87.3923 17.8183 87.4273 17.8242C87.4976 17.8361 87.6024 17.8608 87.7296 17.9112C88.0064 18.0208 88.2944 18.215 88.5253 18.4894C88.9586 19.0043 88.8505 19.3694 88.8505 18.9203H81.3172ZM87.3213 25.3459H88.7156V17.8126H87.3213V25.3459ZM88.7156 25.3459C89.6422 25.3459 90.7938 25.171 91.8737 24.4911C93.0297 23.7632 93.7441 22.6825 94.0802 21.5396L86.853 19.414C86.973 19.006 87.2874 18.4766 87.8598 18.1162C88.1081 17.9598 88.3315 17.8835 88.483 17.8473C88.558 17.8293 88.6165 17.8208 88.6546 17.8167C88.6927 17.8127 88.7139 17.8126 88.7156 17.8126V25.3459ZM94.04 21.6679C93.9475 21.9452 93.7028 22.5074 93.1049 23.0056C92.4501 23.5513 91.6878 23.757 91.0503 23.757V16.2237C90.1318 16.2237 89.1317 16.5105 88.2823 17.2183C87.4899 17.8787 87.0938 18.6841 86.8933 19.2857L94.04 21.6679ZM91.0503 23.757H94.1956V16.2237H91.0503V23.757ZM94.1956 23.757C93.8684 23.757 93.4762 23.701 93.0643 23.5363C92.648 23.3698 92.2959 23.1257 92.0186 22.8484L97.3454 17.5215C96.4631 16.6392 95.3219 16.2237 94.1956 16.2237V23.757ZM92.0186 22.8484C91.7009 22.5307 91.4177 22.1087 91.2465 21.5949C91.0778 21.0888 91.0599 20.6211 91.1005 20.2554L98.5877 21.0873C98.726 19.8434 98.3448 18.5209 97.3454 17.5215L92.0186 22.8484ZM91.1117 20.1652C91.0868 20.3489 91.0534 20.4666 90.7588 20.6746L95.1032 26.829C97.0136 25.4805 98.2557 23.5446 98.5766 21.1774L91.1117 20.1652ZM90.7301 20.6951C90.4351 20.9075 89.8868 21.1525 88.8129 21.1525V28.6858C91.068 28.6858 93.2652 28.1526 95.1319 26.8086L90.7301 20.6951ZM88.8129 21.1525H87.1267V28.6858H88.8129V21.1525ZM87.1267 21.1525C85.8452 21.1525 85.2096 20.8215 84.8363 20.4882L79.819 26.1075C81.8669 27.936 84.4307 28.6858 87.1267 28.6858V21.1525ZM84.8888 20.5359C84.5449 20.217 84.3109 19.8184 84.3109 18.9852H76.7776C76.7776 21.6972 77.7326 24.1737 79.7666 26.0598L84.8888 20.5359ZM84.3109 18.9852V14.8346H76.7776V18.9852H84.3109ZM84.3109 14.8346C84.3109 14.1385 84.4557 13.6693 84.6475 13.324L78.0623 9.66551C77.1732 11.2658 76.7776 13.0232 76.7776 14.8346H84.3109ZM84.6163 13.3791C84.8211 13.0247 85.0729 12.7841 85.4319 12.5968L81.9473 5.9179C80.3175 6.76823 79.0128 8.01925 78.0935 9.61039L84.6163 13.3791ZM85.4584 12.5828C85.855 12.3719 86.3991 12.2133 87.1916 12.2133V4.68006C85.3468 4.68006 83.5562 5.06197 81.9207 5.93189L85.4584 12.5828ZM87.1916 12.2133H88.4886V4.68006H87.1916V12.2133ZM88.4886 12.2133C89.6823 12.2133 90.2278 12.5352 90.552 12.8535L95.8288 7.47709C93.8184 5.50389 91.2293 4.68006 88.4886 4.68006V12.2133ZM90.5777 12.8785C90.8794 13.169 91.1748 13.6333 91.1748 14.7049H98.7081C98.7081 11.9719 97.8361 9.40978 95.8031 7.45209L90.5777 12.8785ZM91.1748 14.7049C91.1748 14.9036 91.165 15.054 91.1526 15.1624C91.1401 15.2715 91.1267 15.3228 91.1251 15.3285C91.1195 15.3488 91.1849 15.0941 91.4762 14.7901L96.9151 20.0025C98.4438 18.4073 98.7081 16.2641 98.7081 14.7049H91.1748ZM91.4762 14.7901C91.7704 14.4831 92.0439 14.3892 92.0874 14.376C92.1085 14.3696 92.0855 14.3786 92.0054 14.3886C91.9259 14.3986 91.8043 14.4079 91.634 14.4079V21.9412C93.2055 21.9412 95.3507 21.6349 96.9151 20.0025L91.4762 14.7901ZM91.634 14.4079H85.0839V21.9412H91.634V14.4079ZM81.3172 18.1745V18.9203H88.8505V18.1745H81.3172ZM87.5159 8.14965C85.8493 8.14965 84.01 8.71996 82.7143 10.3566L88.6208 15.0325C88.4282 15.2758 88.1698 15.4685 87.8994 15.5823C87.6519 15.6865 87.4955 15.6829 87.5159 15.6829V8.14965ZM82.7013 10.3731C81.589 11.7944 81.3172 13.4809 81.3172 14.8671H88.8505C88.8505 14.6377 88.8751 14.5593 88.8675 14.5878C88.8577 14.6242 88.8038 14.7987 88.6338 15.0159L82.7013 10.3731ZM81.3172 14.8671V15.1589H88.8505V14.8671H81.3172ZM85.0839 18.9255H90.5963V11.3923H85.0839V18.9255ZM94.363 15.1589V14.8671H86.8297V15.1589H94.363ZM94.363 14.8671C94.363 13.4291 94.0652 11.5917 92.7349 10.1284L87.1607 15.1958C86.927 14.9387 86.8427 14.708 86.8206 14.6328C86.8022 14.5702 86.8297 14.6288 86.8297 14.8671H94.363ZM92.8517 10.2632C91.5981 8.74566 89.8604 8.14965 88.1968 8.14965V15.6829C88.1638 15.6829 87.9817 15.677 87.726 15.5681C87.4539 15.4522 87.2157 15.269 87.0439 15.061L92.8517 10.2632ZM88.1968 8.14965H87.5159V15.6829H88.1968V8.14965ZM99.9025 20.3471C99.9025 20.655 99.8537 21.0437 99.692 21.4641C99.5269 21.8935 99.2742 22.2762 98.9614 22.589L93.6346 17.2621C92.725 18.1717 92.3692 19.3182 92.3692 20.3471H99.9025ZM98.9614 22.589C98.726 22.8244 98.4048 23.065 97.9925 23.2417C97.5758 23.4203 97.1494 23.4976 96.752 23.4976V15.9643C95.5148 15.9643 94.4232 16.4735 93.6346 17.2621L98.9614 22.589ZM96.752 23.4976H100.384V15.9643H96.752V23.4976ZM100.384 23.4976C99.9895 23.4976 99.5202 23.4211 99.0403 23.1996C98.5578 22.9769 98.1826 22.662 97.9116 22.3369L103.699 17.5142C102.855 16.502 101.643 15.9643 100.384 15.9643V23.4976ZM98.3939 22.8192C98.0687 22.5482 97.7539 22.1729 97.5312 21.6905C97.3097 21.2105 97.2331 20.7413 97.2331 20.3471H104.766C104.766 19.0876 104.229 17.8755 103.217 17.0319L98.3939 22.8192ZM97.2331 20.3471V23.9788H104.766V20.3471H97.2331ZM97.2331 23.9788C97.2331 23.5813 97.3105 23.1549 97.4891 22.7382C97.6658 22.3258 97.9065 22.0047 98.1418 21.7693L103.469 27.0962C104.257 26.3077 104.766 25.2161 104.766 23.9788H97.2331ZM98.1418 21.7693C98.4545 21.4566 98.8372 21.2039 99.2666 21.0388C99.687 20.8771 100.076 20.8283 100.384 20.8283V28.3615C101.413 28.3615 102.559 28.0057 103.469 27.0962L98.1418 21.7693ZM100.384 20.8283H96.752V28.3615H100.384V20.8283ZM96.752 20.8283C97.4368 20.8283 98.1444 21.0683 98.7093 21.5391L93.8866 27.3264C94.711 28.0134 95.7213 28.3615 96.752 28.3615V20.8283ZM99.1916 22.0214C99.6624 22.5864 99.9025 23.2939 99.9025 23.9788H92.3692C92.3692 25.0095 92.7174 26.0197 93.4044 26.8441L99.1916 22.0214ZM99.9025 23.9788V20.3471H92.3692V23.9788H99.9025ZM29.7028 9.22493C29.7028 9.53287 29.6539 9.92163 29.4922 10.342C29.3271 10.7714 29.0744 11.1541 28.7617 11.4668L23.4349 6.13997C22.5253 7.04949 22.1695 8.19597 22.1695 9.22493H29.7028ZM28.7617 11.4668C28.5263 11.7022 28.2051 11.9428 27.7928 12.1196C27.3761 12.2982 26.9497 12.3755 26.5522 12.3755V4.84219C25.315 4.84219 24.2234 5.35143 23.4349 6.13997L28.7617 11.4668ZM26.5522 12.3755H29.957V4.84219H26.5522V12.3755ZM29.957 12.3755C29.5628 12.3755 29.0936 12.2989 28.6136 12.0774C28.1312 11.8548 27.7559 11.5399 27.4849 11.2147L33.2721 6.39205C32.4286 5.37976 31.2164 4.84219 29.957 4.84219V12.3755ZM27.9672 11.697C27.642 11.426 27.3272 11.0508 27.1045 10.5683C26.883 10.0884 26.8064 9.61912 26.8064 9.22493H34.3397C34.3397 7.96542 33.8021 6.7533 32.7899 5.90977L27.9672 11.697ZM26.8064 9.22493V23.8167H34.3397V9.22493H26.8064ZM26.8064 23.8167C26.8064 23.4192 26.8838 22.9928 27.0624 22.5761C27.2391 22.1637 27.4797 21.8426 27.7151 21.6072L33.0419 26.934C33.8304 26.1456 34.3397 25.0539 34.3397 23.8167H26.8064ZM27.7151 21.6072C28.0278 21.2945 28.4106 21.0418 28.8399 20.8766C29.2603 20.715 29.6491 20.6661 29.957 20.6661V28.1994C30.9859 28.1994 32.1324 27.8436 33.0419 26.934L27.7151 21.6072ZM29.957 20.6661H26.5522V28.1994H29.957V20.6661ZM26.5522 20.6661C27.2371 20.6661 27.9447 20.9062 28.5096 21.377L23.6869 27.1642C24.5113 27.8512 25.5215 28.1994 26.5522 28.1994V20.6661ZM28.9919 21.8593C29.4626 22.4242 29.7028 23.1318 29.7028 23.8167H22.1695C22.1695 24.8475 22.5177 25.8577 23.2047 26.682L28.9919 21.8593ZM29.7028 23.8167V9.22493H22.1695V23.8167H29.7028Z" fill="#1F2A7A" mask="url(#path-1-outside-1_774_68892)"/>
<path fill-rule="evenodd" clip-rule="evenodd" d="M17.7291 5.19839C17.0647 5.86277 16.9605 6.8752 17.4165 7.64876H4.66587C3.79506 7.64876 3.08913 8.35468 3.08913 9.22549V21.9764C2.31546 21.5198 1.30249 21.6238 0.637844 22.2884C-0.150114 23.0764 -0.150115 24.3539 0.637843 25.1419L3.11635 27.6204C3.49407 27.9981 3.98429 28.1948 4.47915 28.2104C4.54038 28.2176 4.60269 28.2213 4.66587 28.2213H22.0849C22.9557 28.2213 23.6617 27.5154 23.6617 26.6446V9.22549C23.6617 9.16312 23.6581 9.1016 23.651 9.04112C23.6358 8.54577 23.4391 8.05498 23.061 7.6769L20.5825 5.19839C19.7945 4.41043 18.517 4.41043 17.7291 5.19839Z" fill="#1F2A7A"/>
<path d="M4.42108 4.97001C4.68075 4.71034 5.03295 4.56445 5.40018 4.56445H19.1879C19.9526 4.56445 20.5725 5.18439 20.5725 5.94911V23.7523C20.5725 24.5171 19.9526 25.137 19.1879 25.137H1.38466C0.619932 25.137 0 24.5171 0 23.7523V9.96463C0 9.5974 0.145883 9.24521 0.405558 8.98553L4.42108 4.97001Z" fill="#3245A9"/>
<path d="M20.533 5.94911V23.7523C20.533 24.4952 19.9308 25.0974 19.1879 25.0974H1.38466C0.641782 25.0974 0.0395617 24.4952 0.0395617 23.7523V9.96463C0.0395617 9.60789 0.181277 9.26576 0.433532 9.01351L4.44905 4.99798C4.70131 4.74573 5.04344 4.60401 5.40018 4.60401H19.1879C19.9308 4.60401 20.533 5.20624 20.533 5.94911Z" stroke="white" stroke-opacity="0.05" stroke-width="0.0791234" stroke-linejoin="round"/>
<path d="M7.16661 8.72461L15.3261 9.26858L16.4141 15.5242L13.9662 18.2441H11.2464L8.52653 20.9639L5.80669 21.5079L5.5347 19.876L6.35066 18.2441L4.71875 13.3483L7.16661 8.72461Z" fill="#FFD87E"/>
<path fill-rule="evenodd" clip-rule="evenodd" d="M6.25438 9.40219C6.94266 8.54185 7.9847 8.04102 9.08648 8.04102H13.2839C15.132 8.04102 16.6845 9.43059 16.8886 11.2673L17.2167 14.2202C17.3186 15.1373 17.0672 16.0587 16.5135 16.7968L15.8649 17.6617C15.1799 18.575 14.105 19.1125 12.9634 19.1125H10.9591L9.45107 21.1231C8.95839 21.7801 8.18518 22.1667 7.36404 22.1667H6.74361C5.64547 22.1667 4.75525 21.2764 4.75525 20.1783C4.75525 19.4251 5.18076 18.7366 5.85439 18.3998L5.88827 18.3829L4.92298 17.4176C4.83859 17.3332 4.78266 17.2246 4.76304 17.1068L4.22369 13.8707C4.05426 12.8542 4.32531 11.8135 4.9691 11.0088L6.25438 9.40219ZM6.766 17.641L6.04901 16.9239L8.10961 13.4896C8.27233 13.2184 8.18439 12.8666 7.91319 12.7039C7.64199 12.5412 7.29022 12.6291 7.1275 12.9003L5.63708 15.3844L5.54162 14.8116L6.60366 12.6875C6.7451 12.4046 6.63044 12.0607 6.34756 11.9192C6.06468 11.7778 5.7207 11.8924 5.57926 12.1753L5.53296 12.2679C5.61854 12.075 5.72913 11.8922 5.86344 11.7243L7.14873 10.1177C7.61965 9.52901 8.33263 9.18634 9.08648 9.18634H13.2839C14.5484 9.18634 15.6107 10.1371 15.7503 11.3938L16.0784 14.3467C16.1481 14.9742 15.976 15.6046 15.5972 16.1097L14.9486 16.9745C14.4799 17.5994 13.7445 17.9671 12.9634 17.9671H11.7726L13.8143 15.0505C13.9957 14.7914 13.9326 14.4343 13.6736 14.2529C13.4145 14.0715 13.0574 14.1346 12.876 14.3937L10.209 18.2037L8.53481 20.4359C8.25843 20.8045 7.82468 21.0213 7.36404 21.0213H6.74361C6.27801 21.0213 5.90057 20.6439 5.90057 20.1783C5.90057 19.859 6.08098 19.5671 6.36659 19.4243L7.11111 19.052C7.20025 19.0074 7.27621 18.9404 7.33149 18.8574L10.3857 14.2761C10.5611 14.013 10.49 13.6574 10.2268 13.4821C9.96372 13.3066 9.60815 13.3777 9.43271 13.6409L6.766 17.641Z" fill="#050732"/>
<path d="M12.1735 17.7584H12.9634C13.6788 17.7584 14.3524 17.4216 14.7817 16.8493L15.4303 15.9844C15.7772 15.5218 15.9349 14.9444 15.871 14.3697L15.5429 11.4169C15.415 10.2658 14.4421 9.39503 13.2839 9.39503H9.08648C8.39602 9.39503 7.74301 9.70889 7.31169 10.248L6.18568 11.6555C6.27222 11.6661 6.35846 11.6913 6.44089 11.7325C6.82686 11.9255 6.98331 12.3949 6.79033 12.7808L5.96297 14.4356L6.94855 12.793C7.17057 12.4229 7.65053 12.3029 8.02056 12.525C8.3906 12.747 8.51058 13.2269 8.28857 13.597L8.28856 13.597L6.31179 16.8916L6.73357 17.3134L9.25906 13.5251C9.25906 13.5251 9.25907 13.5251 9.25907 13.5251C9.49843 13.166 9.98355 13.069 10.3426 13.3084L12.1735 17.7584ZM12.1735 17.7584L13.9852 15.1702C13.9852 15.1702 13.9853 15.1702 13.9853 15.1701C14.2328 14.8166 14.1467 14.3294 13.7933 14.082M12.1735 17.7584L13.7933 14.082M13.7933 14.082C13.4397 13.8344 12.9525 13.9205 12.7051 14.274L10.04 18.0812M13.7933 14.082L10.04 18.0812M10.04 18.0812L8.36785 20.3107L8.36785 20.3107C8.13088 20.6267 7.75899 20.8126 7.36404 20.8126H6.74361C6.39327 20.8126 6.10927 20.5286 6.10927 20.1783C6.10927 19.938 6.24502 19.7184 6.45991 19.611L6.45993 19.611L7.20445 19.2386L7.20448 19.2386C7.32605 19.1778 7.4297 19.0864 7.50514 18.9732L10.5593 14.3919C10.5593 14.3919 10.5593 14.3919 10.5593 14.3919C10.7987 14.0329 10.7017 13.5478 10.3426 13.3084L10.04 18.0812ZM6.09141 9.27182L6.23429 9.38612L6.09141 9.27182L4.80613 10.8784C4.1253 11.7295 3.83866 12.83 4.01783 13.905L4.55718 17.1412C4.58396 17.3018 4.66025 17.4501 4.77541 17.5652C4.77542 17.5652 4.77542 17.5652 4.77543 17.5652L5.54631 18.3361C4.92745 18.7381 4.54656 19.4293 4.54656 20.1783C4.54656 21.3917 5.53021 22.3753 6.74361 22.3753H7.36404C8.25086 22.3753 9.08593 21.9578 9.61803 21.2483C9.61803 21.2483 9.61803 21.2483 9.61803 21.2483L11.0634 19.3212H12.9634C14.1707 19.3212 15.3074 18.7528 16.0318 17.7869L15.8649 17.6617L16.0318 17.7869L16.6805 16.9221C17.266 16.1414 17.5319 15.167 17.4242 14.1971L17.0961 11.2443C16.8802 9.30185 15.2384 7.83232 13.2839 7.83232H9.08648C7.9213 7.83232 6.8193 8.36197 6.09141 9.27182Z" stroke="white" stroke-opacity="0.35" stroke-width="0.417393"/>
</svg>
