<svg width="34" height="34" viewBox="0 0 34 34" fill="none" xmlns="http://www.w3.org/2000/svg">
<g clip-path="url(#clip0_317_146781)">
<path d="M28.8598 9.59511V31.2652C28.8598 32.4306 27.9145 33.3749 26.75 33.3749H7.24989C6.08451 33.3749 5.14014 32.4306 5.14014 31.2652L5.14014 2.73475C5.14007 1.56938 6.08445 0.625 7.24989 0.625L19.8897 0.625L28.8598 9.59511Z" fill="#28B446"/>
<path d="M21.1138 9.39873L28.86 12.59V9.59363L24.4682 8.29688L21.1138 9.39873Z" fill="#219B38"/>
<path d="M28.8598 9.59511H21.9994C20.834 9.59511 19.8896 8.65073 19.8896 7.48536V0.625L28.8598 9.59511Z" fill="#6ACE7C"/>
<path d="M22.1887 16.9336H11.8111C11.4389 16.9336 11.1372 17.2353 11.1372 17.6075V26.6374C11.1372 27.0095 11.4389 27.3113 11.8111 27.3113H22.1887C22.561 27.3113 22.8627 27.0096 22.8627 26.6374V17.6075C22.8627 17.2354 22.561 16.9336 22.1887 16.9336ZM12.4851 21.2663H16.326V22.9788H12.4851V21.2663ZM17.6738 21.2663H21.5148V22.9788H17.6738V21.2663ZM21.5149 19.9185H17.6739V18.2815H21.5149V19.9185ZM16.326 18.2815V19.9184H12.4851V18.2815H16.326ZM12.4851 24.3267H16.326V25.9636H12.4851V24.3267ZM17.6738 25.9636V24.3266H21.5148V25.9636H17.6738Z" fill="white"/>
</g>
<defs>
<clipPath id="clip0_317_146781">
<rect width="32.75" height="32.75" fill="white" transform="translate(0.625 0.625)"/>
</clipPath>
</defs>
</svg>
